<?xml version="1.0" encoding="UTF-8"?>
<svg version="1.1" xmlns="http://www.w3.org/2000/svg" width="1024" height="1536">
<path d="M0 0 C337.92 0 675.84 0 1024 0 C1024 506.88 1024 1013.76 1024 1536 C686.08 1536 348.16 1536 0 1536 C0 1029.12 0 522.24 0 0 Z " fill="#E9E0FE" transform="translate(0,0)"/>
<path d="M0 0 C1.21120766 -0.01292336 1.21120766 -0.01292336 2.44688416 -0.02610779 C5.09781586 -0.04868271 7.74768305 -0.04204463 10.39868164 -0.03295898 C12.25281587 -0.0381985 14.10694743 -0.04447617 15.96107483 -0.05174255 C19.84038873 -0.06213123 23.71933547 -0.05760761 27.59863281 -0.04296875 C32.5562689 -0.02578686 37.51274531 -0.0492767 42.47025204 -0.08445835 C46.29744566 -0.10647818 50.12436379 -0.10497974 53.95160103 -0.09669304 C55.77874587 -0.09587596 57.60591144 -0.10269261 59.43299675 -0.11746407 C61.99380468 -0.13499473 64.55255398 -0.12029866 67.11328125 -0.09765625 C67.85898376 -0.10934845 68.60468628 -0.12104065 69.37298584 -0.13308716 C75.03139905 -0.03190818 79.48721932 1.58343354 83.62133789 5.53344727 C89.44705137 12.08915909 89.32597796 18.6771039 89.24279785 27.12158203 C89.24713109 28.50047655 89.25365094 29.87936562 89.26215792 31.2582407 C89.27910731 35.03308034 89.26499821 38.80725404 89.24564314 42.58205843 C89.23018978 46.65848082 89.2436248 50.734823 89.25338745 54.81124878 C89.26790326 62.79130622 89.25569086 70.77110897 89.23427421 78.75114226 C89.21024451 88.04656116 89.2119798 97.34192193 89.21458012 106.63736498 C89.21826923 123.22419786 89.19745403 139.81091086 89.16333008 156.39770508 C89.13023944 172.48823069 89.11607193 188.5786305 89.12231445 204.66918945 C89.1290807 222.19584477 89.12661158 239.72244742 89.10695505 257.24909496 C89.10591557 258.17617526 89.10487608 259.10325555 89.10380509 260.05842918 C89.10171422 261.92035262 89.09960325 263.78227604 89.09747192 265.64419943 C89.09058048 272.12170096 89.08990633 278.59918625 89.09135437 285.07669067 C89.09279508 292.97192331 89.08308485 300.86705345 89.05940801 308.76225209 C89.0475598 312.78957074 89.04041502 316.81674664 89.04624557 320.84408188 C89.05142806 324.53280852 89.04269182 328.22123397 89.02297097 331.90990913 C89.01600719 333.87202039 89.02366613 335.83416685 89.0318923 337.79627323 C88.93192491 350.7598666 88.93192491 350.7598666 85.62133789 355.53344727 C84.26496872 356.5479436 82.88733649 357.53435803 81.49465561 358.49840164 C78.56037241 360.89900024 77.71282217 362.11926617 76.8838582 365.87227392 C76.60494591 370.2983124 76.58469636 374.66263609 76.64825439 379.09417725 C76.64349785 380.80830888 76.63521684 382.52243374 76.62371898 384.2365334 C76.60226753 388.94305265 76.63056127 393.64816146 76.66690612 398.35454082 C76.69735086 403.43172723 76.68154205 408.50879146 76.67118835 413.58602905 C76.65940792 422.38380279 76.67643373 431.18114171 76.71256256 439.97884369 C76.76445334 452.71076155 76.76841532 465.44234831 76.75994071 478.17435279 C76.7471104 498.84685838 76.76702331 519.51919051 76.81030273 540.19165039 C76.81288537 541.42890221 76.81546801 542.66615403 76.81812891 543.94089833 C76.82201045 545.79906958 76.82201045 545.79906958 76.82597041 547.69477963 C76.86256622 565.24776715 76.89143505 582.80074447 76.91088867 600.35375977 C76.91226508 601.58829143 76.91364148 602.82282309 76.9150596 604.0947648 C76.93735734 624.6849962 76.94348407 645.27521437 76.94136214 665.86545682 C76.94109771 678.56357457 76.95736374 691.26148103 76.99508038 703.95954397 C77.02027667 712.66242063 77.03195734 721.36524475 77.03306803 730.06815764 C77.03429613 735.08827873 77.04224898 740.1081627 77.06786919 745.12822342 C77.09128007 749.72754134 77.09619208 754.32650131 77.08670303 758.92586556 C77.08656165 760.58601688 77.09317857 762.2461861 77.1073952 763.90627655 C77.22474271 778.32255308 74.44598758 791.04546222 64.36352539 801.98266602 C53.5558072 812.2313643 42.68886689 815.84530956 28.08279991 815.79350948 C26.92039341 815.79731515 25.7579869 815.80112083 24.56035596 815.80504182 C21.33278945 815.81357431 18.10536667 815.81316993 14.87779614 815.80898646 C11.3667363 815.80661975 7.85570335 815.81578995 4.34465373 815.82347065 C-1.80946237 815.83531722 -7.96354882 815.83968344 -14.11767578 815.83914948 C-23.26932979 815.83835632 -32.42094637 815.84890526 -41.57259038 815.86156505 C-59.82159143 815.88630767 -78.0705834 815.89508809 -96.31959892 815.90010153 C-97.73731247 815.9004933 -97.73731247 815.9004933 -99.18366671 815.90089297 C-100.60421923 815.90128338 -100.60421923 815.90128338 -102.05346978 815.90168168 C-112.54680084 815.90476361 -123.04012939 815.91126823 -133.53345871 815.91789436 C-165.22560567 815.93754254 -196.9177499 815.95394675 -228.60990334 815.9567709 C-229.62365552 815.95686496 -230.63740771 815.95695902 -231.68187966 815.95705593 C-235.7902004 815.95743441 -239.89852114 815.95779841 -244.00684188 815.95815891 C-247.09904367 815.95843063 -250.19124547 815.95870731 -253.28344727 815.95898438 C-254.30522928 815.9590724 -255.3270113 815.95916042 -256.3797564 815.95925111 C-288.48374815 815.96215646 -320.58767968 815.98425136 -352.69165039 816.02050781 C-388.75563811 816.0612354 -424.8195848 816.08492947 -460.88359678 816.08523041 C-464.72938816 816.08532723 -468.57517954 816.08549395 -472.42097092 816.08571053 C-473.36791014 816.08575464 -474.31484937 816.08579875 -475.29048373 816.08584421 C-490.52845303 816.086964 -505.766362 816.10437203 -521.00431188 816.12752985 C-536.32030261 816.15037439 -551.63621185 816.15459629 -566.95221336 816.13998055 C-576.05004288 816.13183028 -585.14761568 816.13751575 -594.24541406 816.16316139 C-600.32611463 816.17891836 -606.40663306 816.17643069 -612.48732928 816.15925467 C-615.94970458 816.14998617 -619.41158564 816.14847749 -622.8739223 816.16922074 C-654.24655892 816.32153989 -654.24655892 816.32153989 -667.37866211 804.53344727 C-668.39379883 803.67299805 -668.39379883 803.67299805 -669.42944336 802.79516602 C-678.0588156 794.94585002 -682.89392372 784.15794963 -683.63166177 772.55398828 C-683.64314222 771.12818711 -683.64400295 769.70227279 -683.63593102 768.27644825 C-683.63943709 767.48095337 -683.64294316 766.68545848 -683.64655548 765.86585769 C-683.65583848 763.20776788 -683.6509542 760.54989866 -683.64608765 757.89179993 C-683.64982547 755.96375211 -683.65442752 754.03570581 -683.65981829 752.1076619 C-683.67204741 746.81488074 -683.67178792 741.52216278 -683.66942954 736.22937071 C-683.66902135 730.51890631 -683.68006075 724.80846216 -683.68954468 719.0980072 C-683.70615532 707.91190977 -683.71165426 696.72583342 -683.71276943 685.53972469 C-683.7137199 676.44629704 -683.71783015 667.35287635 -683.72417068 658.25945091 C-683.73891776 636.66999561 -683.75122039 615.0805468 -683.75017357 593.49108601 C-683.75014241 592.80086337 -683.75011125 592.11064074 -683.75007915 591.39950227 C-683.74991294 587.90130733 -683.74971486 584.40311239 -683.74950974 580.90491746 C-683.74946985 580.21018598 -683.74942996 579.5154545 -683.74938886 578.79967055 C-683.74930798 577.39475414 -683.74922439 575.98983774 -683.74913807 574.58492133 C-683.74791285 552.73188057 -683.76292137 530.8789019 -683.7902832 509.02587891 C-683.82102489 484.46346402 -683.8381891 459.90109387 -683.83635676 435.33865803 C-683.83569292 422.33744593 -683.84118251 409.33630385 -683.86271286 396.3351078 C-683.88092755 385.26517322 -683.88526957 374.19534039 -683.87169401 363.1253973 C-683.86516582 357.47924201 -683.86504203 351.83328193 -683.88240051 346.18714523 C-683.89814253 341.01349909 -683.89525581 335.84020276 -683.87783225 330.66656508 C-683.87476487 328.79982731 -683.87838479 326.93306335 -683.8895524 325.06635646 C-683.98039101 308.798579 -681.64601753 294.19509147 -670.12866211 281.78344727 C-658.93940287 271.35653316 -646.91761285 269.06110617 -632.05834961 269.24047852 C-630.70501175 269.24608749 -629.35166771 269.25035142 -627.99832153 269.25334167 C-624.47028193 269.2646883 -620.94262452 269.29406474 -617.41473389 269.32745361 C-613.80120002 269.3583769 -610.18760321 269.37189411 -606.57397461 269.38696289 C-599.50871596 269.41894666 -592.44371425 269.47001627 -585.37866211 269.53344727 C-585.38310333 268.34772125 -585.38754456 267.16199524 -585.39212036 265.94033813 C-585.43259879 254.78613468 -585.4626139 243.63194606 -585.48228645 232.47768593 C-585.49274016 226.74266126 -585.50692823 221.00769571 -585.52954102 215.27270508 C-585.55121291 209.74196158 -585.56321877 204.21127507 -585.5684166 198.6804924 C-585.57212254 196.56649248 -585.57935893 194.45249581 -585.59012222 192.33852005 C-585.60456203 189.38601092 -585.60664321 186.43373972 -585.60571289 183.48120117 C-585.61290344 182.60007156 -585.62009399 181.71894196 -585.62750244 180.81111145 C-585.60676643 174.76155159 -585.60676643 174.76155159 -583.37866211 172.53344727 C-583.70866211 204.54344727 -584.03866211 236.55344727 -584.37866211 269.53344727 C-548.40866211 269.53344727 -512.43866211 269.53344727 -475.37866211 269.53344727 C-475.70866211 237.85344727 -476.03866211 206.17344727 -476.37866211 173.53344727 C-473.73613102 176.17597835 -474.14240877 178.0890815 -474.12982178 181.68418884 C-474.1406076 182.97783104 -474.1406076 182.97783104 -474.15161133 184.29760742 C-474.15131927 185.20498154 -474.15102722 186.11235565 -474.15072632 187.04722595 C-474.15212313 190.05575013 -474.16770083 193.06402869 -474.18334961 196.07250977 C-474.18707849 198.15473292 -474.18992605 200.23695782 -474.19192505 202.31918335 C-474.19957134 207.80685243 -474.21922836 213.2944161 -474.24133301 218.78204346 C-474.26177002 224.37885105 -474.27092217 229.97567563 -474.28100586 235.57250977 C-474.30247333 246.55954276 -474.33766357 257.54646977 -474.37866211 268.53344727 C-465.13866211 268.53344727 -455.89866211 268.53344727 -446.37866211 268.53344727 C-446.37866211 221.67344727 -446.37866211 174.81344727 -446.37866211 126.53344727 C-446.04866211 126.53344727 -445.71866211 126.53344727 -445.37866211 126.53344727 C-445.37866211 173.72344727 -445.37866211 220.91344727 -445.37866211 269.53344727 C-409.07866211 269.53344727 -372.77866211 269.53344727 -335.37866211 269.53344727 C-335.37866211 222.34344727 -335.37866211 175.15344727 -335.37866211 126.53344727 C-335.04866211 126.53344727 -334.71866211 126.53344727 -334.37866211 126.53344727 C-334.37866211 173.72344727 -334.37866211 220.91344727 -334.37866211 269.53344727 C-324.47866211 269.53344727 -314.57866211 269.53344727 -304.37866211 269.53344727 C-304.39864761 265.14394775 -304.39864761 265.14394775 -304.41903687 260.66577148 C-304.5384736 233.82029238 -304.62802503 206.97481708 -304.68505409 180.12913638 C-304.69255817 176.60944652 -304.70032412 173.08975729 -304.70825195 169.57006836 C-304.70982582 168.86937237 -304.71139968 168.16867638 -304.71302123 167.44674718 C-304.73911719 156.10653397 -304.78641794 144.76650358 -304.84157889 133.42639875 C-304.89772161 121.7872399 -304.93057285 110.14818758 -304.94319308 98.50889969 C-304.95101704 91.97252726 -304.96941273 85.43656924 -305.01304245 78.90032959 C-305.05377923 72.74761474 -305.06632858 66.59548484 -305.0573082 60.44264793 C-305.05895832 58.18517058 -305.07088625 55.92767358 -305.09389496 53.67031288 C-305.12379766 50.58515618 -305.1165544 47.50220099 -305.10018921 44.41699219 C-305.11766626 43.52592207 -305.13514331 42.63485195 -305.15314996 41.71677971 C-305.05912699 35.14866158 -302.99044904 31.19400181 -298.37866211 26.53344727 C-292.77437099 21.90011229 -286.86668141 21.28386721 -279.75024414 21.25878906 C-278.65848877 21.25112267 -278.65848877 21.25112267 -277.54467773 21.24330139 C-275.15852442 21.22949624 -272.77266292 21.23035536 -270.38647461 21.23266602 C-268.71410008 21.22877389 -267.04172654 21.22443816 -265.36935425 21.21968079 C-261.87095937 21.21223792 -258.37266545 21.21249563 -254.87426758 21.21777344 C-250.41023962 21.22356323 -245.94662724 21.20663964 -241.48266792 21.18342876 C-238.03036111 21.16863456 -234.57815306 21.16782747 -231.12582016 21.17093849 C-229.48092705 21.17042806 -227.836028 21.16524301 -226.19116592 21.15512657 C-206.57346935 21.04927349 -206.57346935 21.04927349 -200.00366211 26.50610352 C-199.19928711 27.54057617 -199.19928711 27.54057617 -198.37866211 28.59594727 C-197.54334961 29.63428711 -197.54334961 29.63428711 -196.69116211 30.69360352 C-193.74322344 34.82598183 -194.24268715 38.7920869 -194.25840759 43.69546509 C-194.25712596 45.13748057 -194.25712596 45.13748057 -194.25581843 46.60862768 C-194.25416313 49.85002493 -194.25968583 53.09137114 -194.26513672 56.33276367 C-194.26541861 58.64830016 -194.26526083 60.96383673 -194.26469421 63.27937317 C-194.2644063 69.58278049 -194.27030208 75.88616894 -194.27726817 82.18957186 C-194.28350269 88.77061652 -194.28410559 95.35166158 -194.28529358 101.93270874 C-194.2878859 112.98419524 -194.29430652 124.0356751 -194.30322266 135.0871582 C-194.31239788 146.47159795 -194.31947817 157.85603582 -194.32373047 169.24047852 C-194.32412455 170.29260629 -194.32412455 170.29260629 -194.3245266 171.36598916 C-194.32583161 174.88470463 -194.32709533 178.40342011 -194.3283385 181.92213559 C-194.33870978 211.12591067 -194.35640114 240.32967888 -194.37866211 269.53344727 C-193.61810233 269.5036657 -192.85754255 269.47388414 -192.07393551 269.44320011 C-171.89568398 268.67332643 -151.75314541 268.39299651 -131.56151891 268.43205333 C-127.66458535 268.43846223 -123.7676503 268.4389041 -119.87071228 268.44007874 C-112.54771519 268.44314187 -105.22473369 268.45128481 -97.90174335 268.46142823 C-89.54084715 268.47274878 -81.17995005 268.47813926 -72.81904805 268.48312366 C-55.67224384 268.49347392 -38.52545464 268.51097205 -21.37866211 268.53344727 C-21.38419287 267.22754167 -21.38972363 265.92163607 -21.39542198 264.57615757 C-21.52542384 233.56300164 -21.62433244 202.54991937 -21.68505409 171.53655631 C-21.69255815 167.71772977 -21.7003241 163.89890381 -21.70825195 160.08007812 C-21.70982582 159.31983215 -21.71139968 158.55958618 -21.71302123 157.77630245 C-21.73911526 145.47325994 -21.786415 133.17038598 -21.84157889 120.86744339 C-21.89772686 108.23952187 -21.93102298 95.61168851 -21.94319308 82.98364729 C-21.95141786 75.19400983 -21.97737587 67.40484881 -22.02616091 59.61535805 C-22.06168487 53.63807004 -22.0653835 47.66119017 -22.0573082 41.68378448 C-22.05895793 39.23483538 -22.07088071 36.78586812 -22.09389496 34.3370266 C-22.12380982 30.98953262 -22.11654899 27.6440663 -22.10018921 24.29652405 C-22.11766626 23.33054781 -22.13514331 22.36457156 -22.15314996 21.36932331 C-22.06086163 14.36879593 -20.00630207 9.80012409 -15.37866211 4.53344727 C-10.71407485 0.5029185 -5.91561751 -0.05162929 0 0 Z " fill="#FAF6FE" transform="translate(815.378662109375,432.466552734375)"/>
<path d="M0 0 C1.05838436 -0.00482883 2.11676871 -0.00965766 3.20722532 -0.01463282 C6.75953448 -0.02591922 10.31112629 -0.00857211 13.86340332 0.00863647 C16.40772192 0.006491 18.95203956 0.0026139 21.49635315 -0.00286865 C27.69311889 -0.01156609 33.8896176 -0.00167511 40.08635437 0.01683195 C47.30231533 0.03760773 54.51823019 0.03745936 61.73421544 0.03648679 C74.60919163 0.03548563 87.48406846 0.05380612 100.35900879 0.08285522 C112.85284231 0.11102988 125.34658837 0.12519675 137.8404541 0.12387085 C138.99469093 0.12375098 138.99469093 0.12375098 140.17224568 0.12362869 C140.94040508 0.12354798 141.70856448 0.12346727 142.50000143 0.12338412 C156.72258546 0.12200428 170.94513233 0.13378542 185.16770431 0.15169055 C190.19785857 0.15772265 195.22800599 0.1598496 200.25816345 0.16075516 C207.02804794 0.16226218 213.79782767 0.17495312 220.56768608 0.19508743 C223.05537286 0.20093737 225.54307024 0.20338818 228.03076363 0.20223236 C231.42042854 0.2012533 234.80983406 0.21253924 238.19946289 0.22705078 C239.18924369 0.22395358 240.1790245 0.22085637 241.19879866 0.21766531 C249.8360228 0.27893722 249.8360228 0.27893722 253.59973145 2.49447632 C257.77200397 8.89941281 257.03046074 16.19813819 257.00378418 23.59628296 C257.00949263 25.02599113 257.01645873 26.45569475 257.02458191 27.88539124 C257.04247283 31.75309097 257.04135307 35.62056334 257.03563952 39.48829198 C257.03254281 42.72150624 257.03864524 45.95467714 257.04467827 49.18788522 C257.05870753 56.81559119 257.0571746 64.4431851 257.04577637 72.07089233 C257.03428696 79.93325089 257.04838809 87.79526867 257.07517284 95.65758234 C257.09733596 102.41702137 257.10396614 109.17635346 257.09809643 115.93582624 C257.09472827 119.96911661 257.09713285 124.00218836 257.11434746 128.03544807 C257.12982525 131.82689808 257.12585235 135.61784304 257.10704231 139.40927315 C257.10335918 140.79839482 257.10645698 142.18755399 257.1169281 143.57664108 C257.20910639 156.81825639 257.20910639 156.81825639 252.59973145 161.49447632 C247.85310322 165.34460366 243.10907826 164.91784341 237.28211975 164.88215637 C236.23260807 164.88754191 235.18309638 164.89292745 234.10178131 164.89847618 C230.57957629 164.91280142 227.05774467 164.9056406 223.53552246 164.89852905 C221.01252947 164.90423021 218.48953906 164.91119347 215.96655273 164.91932678 C209.82164643 164.93543365 203.67687837 164.93735315 197.53195734 164.93211388 C192.53736121 164.92807246 187.54279529 164.92951539 182.54820061 164.93486214 C181.83734256 164.93561056 181.1264845 164.93635898 180.3940853 164.93713008 C178.94997835 164.93866156 177.50587141 164.94019991 176.06176447 164.94174505 C162.51921025 164.95547301 148.97671379 164.95003032 135.43416088 164.93855984 C123.04537674 164.92862703 110.65674193 164.94156837 98.26798082 164.96549403 C85.54609839 164.98987786 72.82428555 164.99949468 60.10238022 164.9928413 C52.96042185 164.98934749 45.81857835 164.99159176 38.67663765 165.00909233 C31.9616778 165.02534256 25.24704906 165.0206439 18.5320816 165.00178719 C16.06577294 164.99809184 13.59944327 165.00123713 11.13315392 165.01167297 C7.7698794 165.0248192 4.40755978 165.0133908 1.04432678 164.99568176 C-0.42430231 165.01008927 -0.42430231 165.01008927 -1.92260069 165.02478784 C-7.58877571 164.96327942 -10.93899387 164.33925862 -15.40026855 160.49447632 C-20.55065641 154.14985251 -19.96697681 147.5716872 -19.91784668 139.6680603 C-19.92327299 138.26790643 -19.93039851 136.86775828 -19.93908691 135.46762085 C-19.95726135 131.68041971 -19.95027784 127.89365634 -19.93757057 124.10644794 C-19.92741423 120.13609343 -19.93684336 116.16577536 -19.94311523 112.19541931 C-19.95038316 105.53014422 -19.94082562 98.86504669 -19.92175293 92.19979858 C-19.89997678 84.50101869 -19.90704418 76.80266242 -19.92905855 69.10389274 C-19.94722637 62.48456753 -19.94976442 55.86536963 -19.93930387 49.24602753 C-19.93307764 45.29658666 -19.93220937 41.34734477 -19.94544983 37.39791679 C-19.95702832 33.68523504 -19.94894689 29.97309821 -19.9258728 26.26047516 C-19.91808549 24.25305932 -19.92992392 22.24559724 -19.94238281 20.23820496 C-19.83831529 9.15399178 -19.83831529 9.15399178 -15.40026855 4.49447632 C-14.74274597 3.79529996 -14.08522339 3.0961236 -13.40777588 2.37576008 C-8.99470142 -0.38474702 -5.10840303 -0.05309336 0 0 Z " fill="#8E80FE" transform="translate(206.4002685546875,1027.5055236816406)"/>
<path d="M0 0 C2.90890843 2.96988934 3.37536699 5.13730767 3.37854004 9.22409058 C3.38674271 10.28110168 3.39494537 11.33811279 3.40339661 12.42715454 C3.39724838 13.58154022 3.39110016 14.7359259 3.38476562 15.92529297 C3.3901384 17.14518921 3.39551117 18.36508545 3.40104675 19.62194824 C3.41083683 22.27292674 3.41525906 24.92328311 3.41069031 27.57421494 C3.40387612 31.76850744 3.41975677 35.96252653 3.43908691 40.1567688 C3.4769394 49.06283113 3.48973824 57.96886957 3.5 66.875 C3.51107718 76.48340352 3.52647004 86.09168095 3.57071257 95.69999802 C3.58904198 99.86649004 3.59297077 104.03266914 3.58577728 108.19919181 C3.58389405 111.40480887 3.60115652 114.6103373 3.61523438 117.81591797 C3.60908615 118.96625519 3.60293793 120.11659241 3.59660339 121.30178833 C3.64219149 129.08541179 3.64219149 129.08541179 7 136 C10.09716218 138.83630182 12.110692 139.37444321 16.2755127 139.37181091 C17.34382828 139.37856842 18.41214386 139.38532593 19.51283264 139.39228821 C20.67971115 139.38456894 21.84658966 139.37684967 23.04882812 139.36889648 C24.28169052 139.37266296 25.51455292 139.37642944 26.78477478 139.38031006 C29.46358707 139.38674989 32.14179137 139.38784681 34.82054138 139.38012505 C39.05628285 139.36853717 43.29175101 139.38070811 47.52746582 139.39674377 C58.04700073 139.43292792 68.56652912 139.43916654 79.08612061 139.43664551 C87.26388971 139.43493488 95.44143554 139.44203479 103.61914206 139.47662407 C107.82976532 139.49342814 112.03984422 139.4916156 116.25046539 139.47580135 C119.48408831 139.46864863 122.71758439 139.48723412 125.95117188 139.50170898 C127.11805038 139.49196548 128.28492889 139.48222198 129.48716736 139.47218323 C131.08964073 139.48654922 131.08964073 139.48654922 132.7244873 139.50120544 C134.11597614 139.50089152 134.11597614 139.50089152 135.53557587 139.50057125 C138.76271357 140.15456799 139.96737654 141.46456731 142 144 C145.52029272 163.83865896 131.47194378 192.36890734 120.9375 208.625 C119.64994386 210.43467536 118.33857365 212.22772849 117 214 C116.06414062 215.24910156 116.06414062 215.24910156 115.109375 216.5234375 C113.13185938 219.07169949 111.08955069 221.54280844 109 224 C108.18917969 224.95777344 107.37835937 225.91554688 106.54296875 226.90234375 C95.92332484 239.12868616 83.18936252 248.30527107 69 256 C68.11755615 256.47928955 68.11755615 256.47928955 67.21728516 256.96826172 C59.55507092 261.03423005 51.69992889 263.89551303 43.375 266.3125 C42.54081543 266.55508545 41.70663086 266.7976709 40.84716797 267.04760742 C4.75967409 276.97289618 -32.17904941 270.42132032 -64.45703125 252.62890625 C-94.9148087 235.30727962 -117.21769298 206.76084418 -126.80004883 173.03466797 C-135.92708314 139.02244195 -133.44293274 103.10657483 -115.8515625 72.1328125 C-109.8511231 61.98968564 -102.63086951 52.95225498 -95 44 C-94.29488281 43.16339844 -93.58976563 42.32679688 -92.86328125 41.46484375 C-86.88174213 34.48862171 -80.60645544 28.33463607 -73.0625 23.0625 C-72.32741211 22.54743896 -71.59232422 22.03237793 -70.83496094 21.50170898 C-63.58087973 16.53410549 -56.0259782 12.55971957 -48 9 C-46.93652344 8.51917969 -45.87304688 8.03835938 -44.77734375 7.54296875 C-31.46091182 1.97060596 -14.49923618 -2.46487015 0 0 Z " fill="#8D82FE" transform="translate(653,774)"/>
<path d="M0 0 C0.80747177 -0.00861557 1.61494354 -0.01723114 2.44688416 -0.02610779 C5.09781586 -0.04868271 7.74768305 -0.04204463 10.39868164 -0.03295898 C12.25281587 -0.0381985 14.10694743 -0.04447617 15.96107483 -0.05174255 C19.84038873 -0.06213123 23.71933547 -0.05760761 27.59863281 -0.04296875 C32.5562689 -0.02578686 37.51274531 -0.0492767 42.47025204 -0.08445835 C46.29744566 -0.10647818 50.12436379 -0.10497974 53.95160103 -0.09669304 C55.77874587 -0.09587596 57.60591144 -0.10269261 59.43299675 -0.11746407 C61.99380468 -0.13499473 64.55255398 -0.12029866 67.11328125 -0.09765625 C68.23183502 -0.11519455 68.23183502 -0.11519455 69.37298584 -0.13308716 C75.03139905 -0.03190818 79.48721932 1.58343354 83.62133789 5.53344727 C89.44705137 12.08915909 89.32597796 18.6771039 89.24279785 27.12158203 C89.24713109 28.50047655 89.25365094 29.87936562 89.26215792 31.2582407 C89.27910731 35.03308034 89.26499821 38.80725404 89.24564314 42.58205843 C89.23018978 46.65848082 89.2436248 50.734823 89.25338745 54.81124878 C89.26790326 62.79130622 89.25569086 70.77110897 89.23427421 78.75114226 C89.21024451 88.04656116 89.2119798 97.34192193 89.21458012 106.63736498 C89.21826923 123.22419786 89.19745403 139.81091086 89.16333008 156.39770508 C89.13023944 172.48823069 89.11607193 188.5786305 89.12231445 204.66918945 C89.1290807 222.19584477 89.12661158 239.72244742 89.10695505 257.24909496 C89.10591557 258.17617526 89.10487608 259.10325555 89.10380509 260.05842918 C89.10171422 261.92035262 89.09960325 263.78227604 89.09747192 265.64419943 C89.09058048 272.12170096 89.08990633 278.59918625 89.09135437 285.07669067 C89.09279508 292.97192331 89.08308485 300.86705345 89.05940801 308.76225209 C89.0475598 312.78957074 89.04041502 316.81674664 89.04624557 320.84408188 C89.05142806 324.53280852 89.04269182 328.22123397 89.02297097 331.90990913 C89.01600719 333.87202039 89.02366613 335.83416685 89.0318923 337.79627323 C88.97388595 345.31843401 88.76404501 351.91383128 83.61352539 357.84594727 C82.56551758 358.68125977 82.56551758 358.68125977 81.49633789 359.53344727 C80.4405957 360.39969727 80.4405957 360.39969727 79.36352539 361.28344727 C77.62133789 362.53344727 77.62133789 362.53344727 76.62133789 362.53344727 C76.61325104 361.86438858 76.60516418 361.1953299 76.59683228 360.5059967 C76.51046904 353.51357705 76.41095292 346.52143057 76.30395508 339.52929688 C76.26578034 336.92322392 76.23090783 334.31710034 76.19946289 331.7109375 C76.15356227 327.95497603 76.09560871 324.19935963 76.03540039 320.44360352 C76.02384918 319.28699722 76.01229797 318.13039093 76.00039673 316.93873596 C75.75605466 303.406111 72.6387944 291.32829363 62.62133789 281.53344727 C52.85548298 274.22916699 42.10164962 269.51872927 29.82128906 269.328125 C28.68048386 269.30817978 27.53967865 269.28823456 26.36430359 269.26768494 C24.5328051 269.2426162 24.5328051 269.2426162 22.66430664 269.21704102 C21.40620682 269.19625992 20.14810699 269.17547882 18.85188293 269.15406799 C15.51961503 269.09984261 12.1873355 269.04956782 8.85498047 269.0012207 C5.44957234 268.95083643 2.04424969 268.89523904 -1.36108398 268.84008789 C-8.03354178 268.73308027 -14.70606385 268.63128203 -21.37866211 268.53344727 C-21.51559532 236.20119683 -21.62174973 203.86902904 -21.68505409 171.53655631 C-21.69255815 167.71772977 -21.7003241 163.89890381 -21.70825195 160.08007812 C-21.70982582 159.31983215 -21.71139968 158.55958618 -21.71302123 157.77630245 C-21.73911526 145.47325994 -21.786415 133.17038598 -21.84157889 120.86744339 C-21.89772686 108.23952187 -21.93102298 95.61168851 -21.94319308 82.98364729 C-21.95141786 75.19400983 -21.97737587 67.40484881 -22.02616091 59.61535805 C-22.06168487 53.63807004 -22.0653835 47.66119017 -22.0573082 41.68378448 C-22.05895793 39.23483538 -22.07088071 36.78586812 -22.09389496 34.3370266 C-22.12380982 30.98953262 -22.11654899 27.6440663 -22.10018921 24.29652405 C-22.12640478 22.84755968 -22.12640478 22.84755968 -22.15314996 21.36932331 C-22.06086163 14.36879593 -20.00630207 9.80012409 -15.37866211 4.53344727 C-10.71407485 0.5029185 -5.91561751 -0.05162929 0 0 Z " fill="#FECC5B" transform="translate(815.378662109375,432.466552734375)"/>
<path d="M0 0 C1.09175537 -0.0076664 1.09175537 -0.0076664 2.20556641 -0.01548767 C4.59171973 -0.02929283 6.97758123 -0.0284337 9.36376953 -0.02612305 C11.03614406 -0.03001518 12.7085176 -0.03435091 14.38088989 -0.03910828 C17.87928477 -0.04655114 21.37757869 -0.04629344 24.87597656 -0.04101562 C29.34000452 -0.03522584 33.8036169 -0.05214942 38.26757622 -0.0753603 C41.71988303 -0.0901545 45.17209108 -0.0909616 48.62442398 -0.08785057 C50.26931709 -0.088361 51.91421614 -0.09354605 53.55907822 -0.10366249 C73.17677479 -0.20951557 73.17677479 -0.20951557 79.74658203 5.24731445 C80.28283203 5.93696289 80.81908203 6.62661133 81.37158203 7.3371582 C81.92845703 8.02938477 82.48533203 8.72161133 83.05908203 9.43481445 C86.0070207 13.56719277 85.50755699 17.53329784 85.49183655 22.43667603 C85.49269097 23.39801968 85.4935454 24.35936333 85.49442571 25.34983861 C85.49608101 28.59123587 85.49055831 31.83258208 85.48510742 35.07397461 C85.48482553 37.3895111 85.48498331 39.70504767 85.48554993 42.02058411 C85.48583784 48.32399143 85.47994206 54.62737987 85.47297597 60.93078279 C85.46674145 67.51182746 85.46613855 74.09287252 85.46495056 80.67391968 C85.46235824 91.72540618 85.45593762 102.77688603 85.44702148 113.82836914 C85.43784626 125.2128089 85.43077743 136.59724676 85.42651367 147.98168945 C85.42624567 148.69026667 85.42597768 149.39884388 85.42570156 150.12889314 C85.4233888 156.2922339 85.42123596 162.45557473 85.41909885 168.61891556 C85.40968463 195.17083631 85.38976551 221.72273865 85.37158203 248.2746582 C49.07158203 248.2746582 12.77158203 248.2746582 -24.62841797 248.2746582 C-24.87023617 189.66509022 -24.87023617 189.66509022 -24.92138672 165.13012695 C-24.93313365 159.52384334 -24.94525646 153.91756072 -24.95800781 148.3112793 C-24.95959031 147.60863957 -24.9611728 146.90599983 -24.96280324 146.18206799 C-24.98888721 134.84381813 -25.03618335 123.50575116 -25.09133475 112.16760969 C-25.14747747 100.52845084 -25.18032871 88.88939852 -25.19294894 77.25011063 C-25.2007729 70.7137382 -25.21916859 64.17778018 -25.26279831 57.64154053 C-25.30353509 51.48882567 -25.31608444 45.33669578 -25.30706406 39.18385887 C-25.30871418 36.92638151 -25.32064211 34.66888452 -25.34365082 32.41152382 C-25.37355352 29.32636712 -25.36631026 26.24341193 -25.34994507 23.15820312 C-25.37616064 21.82159795 -25.37616064 21.82159795 -25.40290582 20.45799065 C-25.30888285 13.88987252 -23.2402049 9.93521275 -18.62841797 5.2746582 C-13.02412685 0.64132323 -7.11643727 0.02507814 0 0 Z " fill="#FECB5C" transform="translate(535.62841796875,453.725341796875)"/>
<path d="M0 0 C5.62562327 2.97202739 9.18828946 5.6009695 11.3125 11.75 C12.46363538 21.63658052 10.1407914 31.84211574 8.54150391 41.56689453 C8.0617749 44.50444001 7.606443 47.44511576 7.15234375 50.38671875 C6.84782543 52.27367552 6.54188488 54.16040344 6.234375 56.046875 C6.03566803 57.35177887 6.03566803 57.35177887 5.83294678 58.68304443 C4.70109981 65.35919722 2.76671827 70.29578173 -2.125 75.1875 C-7.67169517 77.62026104 -12.74145499 77.80450455 -18.6875 76.75 C-22.70464078 74.82730673 -26.19026119 72.49732989 -29.6875 69.75 C-30.18636719 70.37003906 -30.68523438 70.99007812 -31.19921875 71.62890625 C-36.78352962 78.51655717 -42.537789 85.23489531 -48.359375 91.921875 C-51.50691686 95.53734411 -54.63273933 99.17091218 -57.75 102.8125 C-58.23871582 103.38299072 -58.72743164 103.95348145 -59.23095703 104.54125977 C-61.75352302 107.4870276 -64.27266963 110.4356762 -66.7890625 113.38671875 C-71.26060484 118.62489173 -75.73922474 123.84297615 -80.375 128.9375 C-84.12899176 133.07427804 -87.65896456 137.35721231 -91.171875 141.69921875 C-94.11674949 145.27056499 -97.14466976 148.76214487 -100.1875 152.25 C-103.92165168 156.53206292 -107.61209104 160.83331835 -111.1875 165.25 C-126.65780135 184.24014973 -142.96434437 202.31706727 -168.6875 205.75 C-188.21280228 207.567817 -203.72318735 203.07812885 -220.6875 193.75 C-221.73131836 193.18168457 -222.77513672 192.61336914 -223.85058594 192.02783203 C-237.32950091 184.68410825 -250.72703627 177.19718494 -264.07543945 169.61889648 C-272.64189252 164.75920422 -281.25720772 159.989332 -289.8762207 155.22363281 C-297.57803683 150.95395977 -305.22211466 146.5967657 -312.77832031 142.07373047 C-321.31126239 137.0354751 -328.75536052 135.69874819 -338.6875 136.75 C-349.46103426 140.0155909 -355.58678878 148.50199775 -362.3671875 156.92578125 C-364.57078406 159.60793666 -366.84793825 162.18626421 -369.1875 164.75 C-372.30208668 168.16739372 -375.2793662 171.6552235 -378.1875 175.25 C-381.79782442 179.71276213 -385.57177929 183.97719533 -389.4375 188.21875 C-391.76612053 190.8384481 -393.98312947 193.5251531 -396.1875 196.25 C-399.0956338 199.8447765 -402.07291332 203.33260628 -405.1875 206.75 C-409.02623068 210.9666368 -412.64221273 215.32357264 -416.23046875 219.75390625 C-420.94741316 225.50572876 -425.82481614 231.12138594 -430.6875 236.75 C-431.39519531 237.57242188 -432.10289062 238.39484375 -432.83203125 239.2421875 C-443.61887027 251.69757896 -455.7788832 261.19407878 -472.80224609 262.97070312 C-494.99211626 264.16169911 -512.15374465 254.38863597 -530.51000977 243.05078125 C-544.08236424 234.44103648 -544.08236424 234.44103648 -559.6875 233.75 C-566.57409582 236.43204171 -571.5094026 241.24128671 -576.53125 246.51953125 C-578.54265193 248.60016621 -580.61507146 250.49450827 -582.8125 252.375 C-585.38013692 254.57728147 -587.81707643 256.83667283 -590.1875 259.25 C-592.55792357 261.66332717 -594.99486308 263.92271853 -597.5625 266.125 C-600.5721753 268.71634205 -603.39838616 271.42254783 -606.1875 274.25 C-609.54864482 277.6571879 -613.02451203 280.82458174 -616.65625 283.9375 C-619.72724317 286.67777083 -622.57536876 289.62946902 -625.46484375 292.55859375 C-628.1145144 295.17101068 -630.89922803 297.58302621 -633.72265625 300.00390625 C-635.79570324 301.84615675 -637.74185802 303.77401662 -639.6875 305.75 C-642.22722186 308.3292506 -644.81201314 310.77217389 -647.5625 313.125 C-650.75432509 315.86621449 -653.73052977 318.75685888 -656.6875 321.75 C-660.20885245 325.31429577 -663.81571917 328.65691491 -667.62890625 331.90234375 C-670.07825106 334.10071205 -672.33703129 336.44697302 -674.625 338.8125 C-685.68129667 349.90265975 -685.68129667 349.90265975 -692.8125 350.4375 C-697.5109433 349.60390522 -700.33875142 348.11730121 -703.6875 344.75 C-706.04211435 340.8597676 -706.15921258 337.23126953 -705.6875 332.75 C-702.66092887 327.32675325 -698.49277712 323.47405893 -693.9375 319.3125 C-693.25945312 318.68279297 -692.58140625 318.05308594 -691.8828125 317.40429688 C-688.47501239 314.25240571 -685.02374827 311.16085935 -681.515625 308.12109375 C-678.25734548 305.28546465 -675.20504306 302.34025494 -672.1875 299.25 C-668.43600206 295.44130666 -664.58160231 291.83033124 -660.515625 288.359375 C-658.04578108 286.18506796 -655.76957561 283.84263481 -653.46484375 281.49609375 C-651.62156426 279.68522357 -649.70927201 277.99678646 -647.75 276.3125 C-644.94173653 273.89382221 -642.28779407 271.39100317 -639.6875 268.75 C-636.4659145 265.47797872 -633.10157855 262.45683945 -629.62109375 259.46484375 C-627.12318444 257.2495262 -624.80725011 254.8810183 -622.46875 252.5 C-619.96853815 250.04365151 -617.31069484 247.78690632 -614.65625 245.5 C-612.75726929 243.81201714 -610.96744012 242.06230266 -609.1875 240.25 C-606.81707643 237.83667283 -604.38013692 235.57728147 -601.8125 233.375 C-598.83549265 230.82083055 -596.09449848 228.13864548 -593.375 225.3125 C-582.63215584 214.4959485 -570.18757595 206.5672792 -554.6875 206.4375 C-534.49364189 206.51401604 -516.88709648 219.37524705 -500.1418457 229.62744141 C-490.7047091 235.32782175 -480.48058165 236.45346157 -469.703125 234.09765625 C-460.21853199 230.66611872 -454.34846806 223.58372878 -448.2265625 215.89453125 C-445.37334246 212.32401489 -442.3782365 208.8819724 -439.375 205.4375 C-438.25513432 204.15110609 -437.13534296 202.86464748 -436.015625 201.578125 C-435.46068359 200.94068359 -434.90574219 200.30324219 -434.33398438 199.64648438 C-431.75112591 196.67144811 -429.18693086 193.6805594 -426.625 190.6875 C-426.13410889 190.11410889 -425.64321777 189.54071777 -425.13745117 188.94995117 C-424.14864797 187.79469482 -423.15995951 186.63934024 -422.17138672 185.48388672 C-419.67854476 182.57105954 -417.18287234 179.66065939 -414.6875 176.75 C-413.6874866 175.58334482 -412.68748659 174.41667816 -411.6875 173.25 C-405.6875 166.25 -405.6875 166.25 -404.18725586 164.49975586 C-403.18801604 163.33394896 -402.18882977 162.16809614 -401.18969727 161.00219727 C-398.67850539 158.07199602 -396.16636607 155.14261709 -393.65234375 152.21484375 C-392.64321736 151.03907263 -391.63410273 149.86329143 -390.625 148.6875 C-390.13104736 148.11249756 -389.63709473 147.53749512 -389.12817383 146.94506836 C-386.15859001 143.48323447 -383.21701202 139.99965692 -380.29125977 136.50073242 C-369.38862574 123.50440174 -357.11285792 111.51198934 -339.31933594 109.47949219 C-314.57344978 107.75929272 -295.84643825 119.95454165 -275.12255859 131.91821289 C-267.57228769 136.27232711 -259.95070776 140.49057583 -252.3125 144.6875 C-243.30540646 149.63898276 -234.31856213 154.62171353 -225.375 159.6875 C-224.44244385 160.21512939 -223.5098877 160.74275879 -222.54907227 161.28637695 C-218.356105 163.66140386 -214.16896715 166.04583532 -209.9921875 168.44921875 C-208.90804565 169.0690564 -208.90804565 169.0690564 -207.80200195 169.70141602 C-206.5007919 170.44560599 -205.20211911 171.19426455 -203.90698242 171.94897461 C-192.66418223 178.36153472 -180.66888182 180.73760313 -168 177.5 C-149.00951502 171.63608254 -137.93116178 155.22909927 -125.8984375 140.39453125 C-122.77100613 136.6537697 -119.46145398 133.09094227 -116.16015625 129.50390625 C-112.94040481 125.91792716 -109.92844824 122.18298508 -106.90234375 118.43359375 C-104.73117173 115.80291443 -102.48508643 113.27057576 -100.1875 110.75 C-97.07291332 107.33260628 -94.0956338 103.8447765 -91.1875 100.25 C-87.57600866 95.78579543 -83.80089306 91.51997886 -79.93359375 87.27734375 C-77.62562402 84.68037607 -75.43194137 82.01595987 -73.25 79.3125 C-69.3243686 74.45711379 -65.19298755 69.83643584 -60.94921875 65.2578125 C-56.57373281 61.06582016 -56.57373281 61.06582016 -54.6875 55.75 C-56.04875 54.8528125 -56.04875 54.8528125 -57.4375 53.9375 C-61.59513793 51.13908985 -64.09623648 48.52379056 -65.6875 43.75 C-66.07661082 39.33508876 -66.21234702 35.1933293 -64.6875 31 C-58.27875194 23.79015843 -49.24396241 19.47085392 -40.9375 14.8125 C-39.12374769 13.78867815 -37.31089506 12.76327785 -35.49816895 11.73764038 C-34.30758347 11.06443939 -33.11642642 10.39224818 -31.92468262 9.72109985 C-26.94426236 6.91226218 -22.01855068 4.01864892 -17.10449219 1.09545898 C-11.39152113 -2.08476157 -6.04270563 -2.04837479 0 0 Z " fill="#5D68FE" transform="translate(881.6875,241.25)"/>
<path d="M0 0 C1.16731659 -0.01051392 1.16731659 -0.01051392 2.35821533 -0.02124023 C4.91178867 -0.03873876 7.4642391 -0.02722601 10.01782227 -0.01367188 C11.80469473 -0.01636942 13.59156576 -0.02025402 15.37843323 -0.02526855 C19.11652657 -0.0311528 22.85423653 -0.02263649 26.59228516 -0.00390625 C31.36820015 0.01886622 36.14321504 0.00576442 40.91909695 -0.01819611 C44.60731198 -0.03269741 48.29531605 -0.02802803 51.98353767 -0.01768494 C53.7436846 -0.01502874 55.50385108 -0.01824819 57.26397514 -0.02760315 C59.73118175 -0.0378388 62.19696133 -0.02217104 64.6640625 0 C65.3817128 -0.00809692 66.0993631 -0.01619385 66.83876038 -0.02453613 C72.78856491 0.07380339 78.07626443 1.85270399 82.46588802 6.00017548 C86.64476909 10.82516261 87.04233562 14.70435103 87.01698303 20.82572937 C87.01783746 21.57558273 87.01869188 22.32543608 87.0195722 23.09801227 C87.021223 25.61769307 87.01571214 28.13730772 87.01025391 30.65698242 C87.00997192 32.46035765 87.01012999 34.26373299 87.01069641 36.06710815 C87.01098395 40.96967672 87.00509424 45.87222095 86.99812245 50.77478385 C86.99188168 55.89573783 86.99128454 61.01669234 86.99009705 66.13764954 C86.98698587 75.83798847 86.97877535 85.53831616 86.96874756 95.23865014 C86.95549262 108.3445416 86.95008478 121.45043612 86.94424534 134.55633259 C86.93483533 155.21008952 86.91491497 175.86382274 86.89672852 196.51757812 C51.25672852 196.51757812 15.61672852 196.51757812 -21.10327148 196.51757812 C-21.34508969 150.69750633 -21.34508969 150.69750633 -21.39624023 131.50195312 C-21.43184716 118.24595214 -21.47371417 104.99017992 -21.5559082 91.734375 C-21.61574035 82.08036486 -21.65442785 72.42654024 -21.66780245 62.77234983 C-21.67561971 57.66115571 -21.69397158 52.55049229 -21.73765182 47.43946838 C-21.77845299 42.6262168 -21.79092534 37.81371327 -21.78191757 33.00030518 C-21.78356486 31.23626131 -21.79545529 29.47219178 -21.81850433 27.70829773 C-22.02203177 11.32575391 -22.02203177 11.32575391 -16.84845257 5.93669128 C-11.51515471 1.59986157 -6.96738802 -0.07838878 0 0 Z " fill="#8B80FE" transform="translate(675.103271484375,504.482421875)"/>
<path d="M0 0 C0.77762695 -0.0065712 1.55525391 -0.0131424 2.35644531 -0.01991272 C4.9313975 -0.03963091 7.50629133 -0.05130644 10.08129883 -0.0612793 C11.40265052 -0.06739259 11.40265052 -0.06739259 12.75069618 -0.07362938 C17.41533803 -0.09448613 22.07995052 -0.10878825 26.74462891 -0.11816406 C31.55194545 -0.12921373 36.35879725 -0.16359798 41.16594982 -0.20333576 C44.87127007 -0.22954224 48.57648039 -0.23785958 52.28188515 -0.24144554 C54.05322716 -0.2463029 55.82456455 -0.25789257 57.59581566 -0.27648354 C60.08247522 -0.30095622 62.56794319 -0.2998953 65.0546875 -0.29296875 C65.77862198 -0.30577881 66.50255646 -0.31858887 67.24842834 -0.33178711 C73.20880765 -0.27164866 78.43870973 1.49566309 82.88434124 5.58898449 C87.16611048 10.458137 88.60264066 14.77811658 88.59133911 21.16914368 C88.59408844 22.37082687 88.59683777 23.57251007 88.59967041 24.81060791 C88.58888458 26.77535065 88.58888458 26.77535065 88.57788086 28.77978516 C88.57731643 30.17951957 88.57763393 31.57925458 88.57876587 32.97898865 C88.57933914 36.77201209 88.56758896 40.56490876 88.55361795 44.35790277 C88.54110637 48.32438529 88.53993976 52.29087079 88.53756714 56.25737 C88.53135363 63.76541654 88.51494455 71.27340477 88.49486816 78.78142565 C88.46832275 88.92918822 88.45753547 99.07696675 88.44586372 109.22475529 C88.42706387 125.20888118 88.38721735 141.19288402 88.35083008 157.17700195 C52.05083008 157.17700195 15.75083008 157.17700195 -21.64916992 157.17700195 C-21.81038206 121.88945644 -21.81038206 121.88945644 -21.84448242 107.09106445 C-21.86820785 96.87711546 -21.89608431 86.66329855 -21.95092773 76.44946289 C-21.99085264 69.01043741 -22.01661626 61.57151919 -22.0255239 54.13238955 C-22.03072913 50.1950124 -22.04292409 46.25794206 -22.07209015 42.32066345 C-22.09934888 38.6106181 -22.10759403 34.90100436 -22.10160065 31.19086838 C-22.10321652 29.1884789 -22.1246844 27.18613585 -22.14685059 25.18386841 C-22.10988882 17.07847864 -21.3626291 11.38558903 -15.83276367 5.1184082 C-15.25655273 4.66336914 -14.6803418 4.20833008 -14.08666992 3.73950195 C-13.50788086 3.26641602 -12.9290918 2.79333008 -12.33276367 2.3059082 C-8.47295894 -0.28222072 -4.45527049 0.01632001 0 0 Z " fill="#96B8FE" transform="translate(391.649169921875,544.822998046875)"/>
<path d="M0 0 C1.81757812 0.14308594 1.81757812 0.14308594 3.671875 0.2890625 C25.87915926 2.56330245 48.87270807 9.70100545 67 23 C68.45792969 24.01900391 68.45792969 24.01900391 69.9453125 25.05859375 C90.7679644 40.22792124 106.46212366 59.57051335 117 83 C117.48082031 84.04800781 117.96164062 85.09601563 118.45703125 86.17578125 C121.70487299 93.58400034 124.01395872 101.16566204 126 109 C126.22816406 109.8559375 126.45632813 110.711875 126.69140625 111.59375 C128.14106371 118.00062773 128.26677623 124.45743159 128.375 131 C128.40110352 131.93336182 128.42720703 132.86672363 128.45410156 133.82836914 C128.45748535 135.15082642 128.45748535 135.15082642 128.4609375 136.5 C128.46915527 137.2940625 128.47737305 138.088125 128.48583984 138.90625 C128 141 128 141 126.32308197 142.6062088 C123.45420865 144.32746119 121.67919565 144.38199377 118.34484863 144.39440918 C116.61616295 144.41143387 116.61616295 144.41143387 114.85255432 144.42880249 C113.59216843 144.42587189 112.33178253 144.42294128 111.03320312 144.41992188 C109.68935948 144.42726307 108.34552214 144.43584944 107.00169373 144.44558716 C103.35502825 144.46780434 99.70858871 144.47073386 96.06186485 144.46883965 C93.01749365 144.46871998 89.97317038 144.47728233 86.9288125 144.48561716 C79.74759379 144.50485109 72.56649132 144.50773475 65.38525391 144.50097656 C57.97557298 144.49433184 50.56638937 144.517217 43.15680933 144.55429029 C36.79490616 144.58496719 30.43316317 144.59634965 24.0711875 144.59245348 C20.27147281 144.59038426 16.47214529 144.59589146 12.67250061 144.62034607 C9.10014981 144.64257873 5.52860918 144.64076578 1.95625496 144.62041855 C0.01995661 144.6153729 -1.9163566 144.6350511 -3.85255432 144.65542603 C-5.58124001 144.63861282 -5.58124001 144.63861282 -7.34484863 144.62145996 C-8.84695263 144.62252872 -8.84695263 144.62252872 -10.37940216 144.62361908 C-13 144 -13 144 -15.32128048 141.81458282 C-17.20107285 138.66287626 -17.50421361 136.98277873 -17.5146637 133.34521484 C-17.52738815 132.21807068 -17.54011261 131.09092651 -17.55322266 129.92962646 C-17.54669678 128.70245911 -17.5401709 127.47529175 -17.53344727 126.2109375 C-17.54206284 124.91126038 -17.55067841 123.61158325 -17.55955505 122.27252197 C-17.58203037 118.7146108 -17.57911417 115.15714484 -17.57023358 111.59918976 C-17.56511898 108.62692694 -17.57241995 105.65474744 -17.57970566 102.68249321 C-17.59669831 95.67041599 -17.59314484 88.65855643 -17.57641602 81.64648438 C-17.5594884 74.41571051 -17.57533888 67.18554006 -17.6076389 59.95483208 C-17.63433766 53.74234491 -17.6416103 47.53004556 -17.63312382 41.31750679 C-17.62819616 37.60889414 -17.63040113 33.90064466 -17.65091133 30.19207764 C-17.67268458 26.05735608 -17.65386698 21.9237786 -17.63110352 17.7890625 C-17.64279572 16.56189514 -17.65448792 15.33472778 -17.66653442 14.07037354 C-17.56292505 4.84142934 -17.56292505 4.84142934 -14.61997986 1.7355957 C-9.92818733 -1.37246443 -5.42876385 -0.4503683 0 0 Z " fill="#5C69FE" transform="translate(689,755)"/>
<path d="M0 0 C56.22273273 -0.08060607 56.22273273 -0.08060607 79.73632812 -0.09765625 C85.1094565 -0.10158363 90.48258476 -0.10561302 95.85571289 -0.10986328 C96.52915452 -0.11039078 97.20259615 -0.11091828 97.8964451 -0.11146176 C108.77112556 -0.12016229 119.64578489 -0.135931 130.52045282 -0.15430559 C141.67934655 -0.1730033 152.83823304 -0.18396673 163.99714261 -0.18817699 C170.26553852 -0.19078777 176.5338865 -0.19693786 182.80226707 -0.21146011 C188.69957488 -0.22501228 194.59681491 -0.22922742 200.49413681 -0.22621536 C202.66092993 -0.22676658 204.82772526 -0.23075806 206.99450493 -0.23841095 C209.94870621 -0.24833509 212.90265029 -0.24597805 215.8568573 -0.24050903 C217.14820604 -0.24924756 217.14820604 -0.24924756 218.46564263 -0.25816262 C222.69594161 -0.23693917 226.23943629 -0.1806076 230 2 C233.71755723 8.60293948 233.52494304 15.14305722 233.50097656 22.55297852 C233.49999723 24.69356019 233.54183757 26.83063137 233.5859375 28.97070312 C233.59114062 30.33853425 233.59383276 31.70637773 233.59375 33.07421875 C233.60083984 34.30744873 233.60792969 35.54067871 233.61523438 36.8112793 C233 40 233 40 230.64306641 42.30249023 C229.77085449 42.86266846 228.89864258 43.42284668 228 44 C227.04867187 44.68835937 226.09734375 45.37671875 225.1171875 46.0859375 C224.04726563 46.84132813 222.97734375 47.59671875 221.875 48.375 C216.1194098 52.45793952 210.42409936 56.617165 204.75 60.8125 C198.22727108 65.63045484 191.69115939 70.42885613 185.125 75.1875 C184.38217773 75.72802002 183.63935547 76.26854004 182.87402344 76.82543945 C173.41514894 83.664245 166.91657093 86.16124357 155 85 C146.90707515 82.63251751 140.38896057 76.7012831 133.91015625 71.52001953 C129.53184676 68.03595065 125.09543197 64.62518598 120.67407227 61.19604492 C117.19161208 58.49223927 113.71702115 55.78153707 110.27734375 53.0234375 C101.40169384 45.94373277 94.58240468 41.12168241 82.8984375 41.63671875 C72.43884191 42.94769232 64.83981098 50.52245321 57 57 C55.60417874 58.14845218 54.2083451 59.2968893 52.8125 60.4453125 C50.64669255 62.22933882 48.48212562 64.01479487 46.32055664 65.80395508 C41.35615798 69.90776073 36.32979941 73.91930272 31.24926758 77.87792969 C26.68110886 81.4444084 22.17825542 85.0866817 17.6875 88.75 C1.42966462 102 1.42966462 102 0 102 C0 68.34 0 34.68 0 0 Z " fill="#B9ABFE" transform="translate(230,1028)"/>
<path d="M0 0 C1.03826431 -0.00623996 2.07652863 -0.01247993 3.14625549 -0.01890898 C6.61856932 -0.03483902 10.0901812 -0.02223411 13.5625 -0.00964355 C16.05461028 -0.01506464 18.54671736 -0.02218721 21.03881836 -0.03088379 C27.10095474 -0.0472281 33.16281657 -0.04483825 39.22494221 -0.03323323 C44.15274493 -0.0241911 49.08049214 -0.02297826 54.00830078 -0.02732849 C54.71027305 -0.02794142 55.41224531 -0.02855436 56.13548946 -0.02918586 C57.56163662 -0.03046479 58.98778377 -0.03176165 60.41393089 -0.03307623 C73.77961987 -0.04447605 87.14519902 -0.03137774 100.51086998 -0.00987476 C111.97344748 0.00799571 123.43586293 0.00489143 134.8984375 -0.0135498 C148.21705289 -0.03496712 161.53557207 -0.04337747 174.85420227 -0.03110075 C176.27503457 -0.02982658 177.69586689 -0.0285691 179.11669922 -0.02732849 C179.81573333 -0.02671139 180.51476744 -0.02609429 181.2349844 -0.02545848 C186.15554048 -0.02200816 191.07603542 -0.02782706 195.99658203 -0.0372467 C202.62208967 -0.04965171 209.24733882 -0.04079037 215.87283325 -0.01766968 C218.30485526 -0.01237931 220.73690302 -0.01390191 223.16891479 -0.02272034 C226.48795799 -0.0336458 229.8060194 -0.01994705 233.125 0 C234.08813614 -0.00892289 235.05127228 -0.01784577 236.04359436 -0.02703905 C242.06936405 0.04323659 245.61559984 1.0114662 250.5625 4.50793457 C254.91098283 9.5863241 255.15751495 15.73071409 255 22.13293457 C255.00708984 22.95277832 255.01417969 23.77262207 255.02148438 24.61730957 C254.96142059 30.36495202 254.07700328 34.75114843 250.0625 39.15246582 C246.05334681 42.27417624 243.30576875 43.63034134 238.26171494 43.64215565 C237.3787596 43.64661349 236.49580427 43.65107134 235.58609271 43.65566427 C234.61519615 43.6554799 233.6442996 43.65529554 232.64398193 43.65510559 C231.61321887 43.65878228 230.58245581 43.66245897 229.52045751 43.66624707 C226.04976617 43.67730285 222.57910476 43.68113095 219.10839844 43.68493652 C216.62673344 43.69119969 214.14506939 43.69784636 211.66340637 43.70484924 C204.20441911 43.72408935 196.7454398 43.73467898 189.28643501 43.74357703 C185.7737525 43.74796056 182.26107151 43.75332718 178.7483902 43.7585659 C167.07142322 43.77557728 155.39445717 43.79007163 143.71747971 43.79731464 C140.68746693 43.79922453 137.65745416 43.80114487 134.62744141 43.80310059 C133.49780212 43.8038262 133.49780212 43.8038262 132.34534183 43.80456647 C120.14464589 43.81286749 107.94404796 43.83820599 95.74339482 43.87068126 C83.21707661 43.90375156 70.69080821 43.92176335 58.16444612 43.92495888 C51.1313966 43.92712396 44.09849006 43.93587217 37.06548309 43.96142006 C30.44991485 43.98539612 23.83455771 43.98895293 17.21893883 43.97865868 C14.79013145 43.97816207 12.36131161 43.98451902 9.9325428 43.99821472 C6.61770235 44.01586185 3.30379316 44.00886202 -0.01104736 43.99568176 C-1.45400787 44.01213563 -1.45400787 44.01213563 -2.92611909 44.0289219 C-8.95343904 43.97103005 -12.48949783 43.00502969 -17.4375 39.50793457 C-21.88995012 34.34515219 -22.05532667 27.96026773 -21.9375 21.44543457 C-21.95296875 20.58627441 -21.9684375 19.72711426 -21.984375 18.84191895 C-21.94805826 12.89959282 -21.08998365 9.25734918 -17.4375 4.50793457 C-11.61528958 0.30581169 -7.06077684 -0.06541392 0 0 Z " fill="#6D64FE" transform="translate(209.4375,767.4920654296875)"/>
<path d="M0 0 C0.76787338 -0.0065712 1.53574677 -0.0131424 2.32688904 -0.01991272 C4.86937562 -0.03962978 7.41180311 -0.05130622 9.9543457 -0.0612793 C10.82421427 -0.06535482 11.69408283 -0.06943035 12.59031105 -0.07362938 C17.19659817 -0.09448571 21.80285557 -0.10878797 26.40917969 -0.11816406 C31.15596477 -0.12921323 35.90227912 -0.16359699 40.64889812 -0.20333576 C44.30789533 -0.22954445 47.96678123 -0.23785978 51.62586403 -0.24144554 C53.37487776 -0.24630239 55.12388681 -0.25789058 56.87280846 -0.27648354 C59.32833956 -0.30096089 61.78266426 -0.2998945 64.23828125 -0.29296875 C64.95286499 -0.30577881 65.66744873 -0.31858887 66.40368652 -0.33178711 C72.33455948 -0.27120569 77.55495436 1.51879497 81.9764967 5.58898449 C87.2080016 11.53975031 87.73347401 16.7173096 87.66967773 24.28173828 C87.6699188 25.20417422 87.67015987 26.12661016 87.67040825 27.07699871 C87.66891887 30.05444263 87.65370325 33.03163424 87.63793945 36.0090332 C87.63499786 37.8506254 87.63295813 39.69221927 87.63183594 41.53381348 C87.62136213 48.35240185 87.59343964 55.1709544 87.56762695 61.98950195 C87.52637695 77.23137695 87.48512695 92.47325195 87.44262695 108.17700195 C51.47262695 108.17700195 15.50262695 108.17700195 -21.55737305 108.17700195 C-21.66049805 92.83200195 -21.76362305 77.48700195 -21.86987305 61.67700195 C-21.91539307 56.84237305 -21.96091309 52.00774414 -22.0078125 47.02661133 C-22.03039551 41.09594727 -22.03039551 41.09594727 -22.03459167 38.31433105 C-22.04223995 36.38295727 -22.05976407 34.4516065 -22.08525085 32.52038574 C-22.12203919 29.58454295 -22.12689714 26.65015127 -22.125 23.71411133 C-22.14299054 22.86227013 -22.16098108 22.01042892 -22.17951679 21.13277435 C-22.12060233 14.28718592 -19.82999756 9.4813413 -15.00832081 4.61293793 C-10.14070366 0.3708173 -6.19802519 0.0229968 0 0 Z " fill="#6E66FE" transform="translate(252.557373046875,593.822998046875)"/>
<path d="M0 0 C0 53.79 0 107.58 0 163 C72.93 163 145.86 163 221 163 C221 163.33 221 163.66 221 164 C188.7440525 164.09124024 156.4881417 164.16203342 124.23209532 164.20426132 C120.42442401 164.20926418 116.61675296 164.21444146 112.80908203 164.21972656 C112.05103974 164.2207758 111.29299745 164.22182505 110.51198418 164.22290608 C98.23606406 164.24031378 85.96021883 164.27185346 73.68434314 164.30861118 C61.08920063 164.3460105 48.49409735 164.36823371 35.89890158 164.37635398 C28.12626105 164.38184387 20.3538322 164.39918627 12.58125682 164.43166587 C6.62235528 164.45529893 0.66356253 164.45782238 -5.29538727 164.45243073 C-7.74074228 164.45353289 -10.18610517 164.46151227 -12.63141251 164.4768219 C-15.96645525 164.49668115 -19.30058745 164.49195322 -22.63565063 164.48101807 C-23.60647445 164.49266943 -24.57729827 164.5043208 -25.57754099 164.51632524 C-31.2273118 164.46614744 -34.54960147 163.82995779 -39 160 C-44.15038786 153.65537619 -43.56670826 147.07721088 -43.51757812 139.17358398 C-43.52300444 137.77343011 -43.53012995 136.37328196 -43.53881836 134.97314453 C-43.5569928 131.18594339 -43.55000929 127.39918002 -43.53730202 123.61197162 C-43.52714568 119.64161711 -43.5365748 115.67129904 -43.54284668 111.70094299 C-43.5501146 105.0356679 -43.54055706 98.37057037 -43.52148438 91.70532227 C-43.49970822 84.00654237 -43.50677563 76.3081861 -43.52879 68.60941643 C-43.54695782 61.99009121 -43.54949587 55.37089331 -43.53903532 48.75155121 C-43.53280909 44.80211034 -43.53194081 40.85286845 -43.54518127 36.90344048 C-43.55675976 33.19075872 -43.54867833 29.4786219 -43.52560425 25.76599884 C-43.51781694 23.758583 -43.52965537 21.75112092 -43.54211426 19.74372864 C-43.43804674 8.65951546 -43.43804674 8.65951546 -39 4 C-34 0 -34 0 0 0 Z " fill="#6D64FE" transform="translate(230,1028)"/>
<path d="M0 0 C21.40970825 -0.09029236 42.81926235 -0.16397738 64.22911263 -0.20724869 C74.17006369 -0.22787428 84.11088806 -0.25599486 94.05175781 -0.30175781 C102.71618321 -0.34162562 111.38051686 -0.36743284 120.04503143 -0.37635398 C124.63290062 -0.38156882 129.22050732 -0.39382553 133.80829239 -0.42292023 C138.1273312 -0.45008845 142.4459996 -0.45844217 146.76511574 -0.45243073 C148.34937236 -0.45353034 149.93364149 -0.46147602 151.51782417 -0.4768219 C153.68381392 -0.49677292 155.84841176 -0.491922 158.01443481 -0.48101807 C159.83128879 -0.48654882 159.83128879 -0.48654882 161.68484688 -0.49219131 C166.85751604 0.2757801 169.92311352 2.79589398 173.34765625 6.625 C175.58457499 11.19402552 175.55184397 14.9836193 175.4375 20 C175.44458984 20.8765625 175.45167969 21.753125 175.45898438 22.65625 C175.40826606 27.83732115 174.88835577 31.53239935 172 36 C167.20444645 40.43588703 163.82765481 41.12515482 157.41316223 41.12025452 C156.74089637 41.12110894 156.06863051 41.12196337 155.37599295 41.12284368 C153.11888047 41.12449341 150.86184198 41.11898541 148.60473633 41.11352539 C146.98855084 41.11324338 145.37236522 41.11340152 143.75617981 41.1139679 C139.36392438 41.11425534 134.97169613 41.1083671 130.57944703 41.10139394 C125.99101031 41.09515166 121.402573 41.09455591 116.81413269 41.09336853 C108.1231482 41.0902578 99.43217625 41.08204788 90.74119729 41.07201904 C80.84772637 41.0608499 70.95425486 41.05534543 61.06077921 41.05032361 C40.70717758 41.03986507 20.35359315 41.02152278 0 41 C0 27.47 0 13.94 0 0 Z " fill="#FECC5D" transform="translate(653,1089)"/>
<path d="M0 0 C0.98033542 -0.00384491 0.98033542 -0.00384491 1.9804756 -0.0077675 C4.16250516 -0.01269472 6.3438372 0.00376901 8.52580261 0.02018738 C10.0930225 0.02103388 11.66024357 0.02055805 13.22746277 0.01885986 C17.47713558 0.0179994 21.72655417 0.03563338 25.97616792 0.05658174 C30.41910655 0.07534003 34.86205107 0.07709831 39.30502319 0.08065796 C47.7162051 0.08998091 56.12726997 0.11459809 64.53840035 0.14470643 C74.11510114 0.17824263 83.69180753 0.19473449 93.26855242 0.20979273 C112.96660561 0.24114744 132.66449838 0.29616265 152.36247253 0.36076355 C152.36247253 13.89076355 152.36247253 27.42076355 152.36247253 41.36076355 C131.86545076 41.45106186 111.36859007 41.52474437 90.87141991 41.56801224 C81.35420485 41.58863634 71.83712216 41.61675405 62.31999207 41.66252136 C54.02473062 41.70239376 45.72956503 41.72819747 37.43421042 41.73711753 C33.04195579 41.7423316 28.64997541 41.75458334 24.25780869 41.78368378 C20.12261933 41.8108593 15.98781687 41.81920428 11.85254669 41.81319427 C10.33601656 41.81429356 8.81947332 41.82223497 7.30302048 41.83758545 C5.22897146 41.8575482 3.1563747 41.85268165 1.08229065 41.84178162 C-0.65713271 41.84731237 -0.65713271 41.84731237 -2.43169594 41.85295486 C-7.50031225 41.0747702 -10.5827664 38.51396899 -13.98127747 34.79826355 C-16.3211595 29.94190462 -16.22221423 25.68191515 -16.13752747 20.36076355 C-16.15299622 19.38881042 -16.16846497 18.4168573 -16.18440247 17.41545105 C-16.15270648 11.59923698 -15.72136902 7.83620635 -11.63752747 3.36076355 C-7.67412224 0.45421006 -4.87561688 -0.01154448 0 0 Z " fill="#E96DA8" transform="translate(536.6375274658203,1146.6392364501953)"/>
<path d="M0 0 C1.14187291 -0.00445668 1.14187291 -0.00445668 2.30681396 -0.0090034 C4.86542201 -0.01769607 7.42398331 -0.01919913 9.98260498 -0.02069092 C11.81403198 -0.02531872 13.64545802 -0.03034333 15.47688293 -0.03573608 C20.45842102 -0.04886647 25.43994561 -0.05530639 30.4214983 -0.05974674 C33.53339889 -0.06267668 36.64529579 -0.06678136 39.75719452 -0.07125092 C49.49245317 -0.08492807 59.22770338 -0.09459343 68.96297097 -0.09845281 C80.20284465 -0.10293303 91.44259668 -0.12047838 102.68243337 -0.1494534 C111.36873348 -0.17106869 120.05499937 -0.18115702 128.74132609 -0.18249393 C133.92994659 -0.18354214 139.11845278 -0.18945341 144.30704498 -0.20731354 C149.18914198 -0.22379134 154.07103871 -0.2259511 158.95315361 -0.21717453 C160.74338505 -0.21640398 162.53362724 -0.22074926 164.32383156 -0.23063278 C166.7715456 -0.24335191 169.21855031 -0.23747592 171.66625977 -0.22705078 C172.37143085 -0.23510719 173.07660193 -0.24316359 173.80314183 -0.25146413 C179.30363698 -0.19683206 184.11967132 0.96623033 188.32928467 4.67559814 C192.57143046 10.39518092 193.36137724 14.05196235 192.58709717 21.14044189 C190.21793369 26.06101219 187.31649384 28.50569959 182.58709717 31.14044189 C179.77255154 31.5225854 177.3542346 31.6907918 174.54768372 31.66183472 C173.75528697 31.66948581 172.96289022 31.67713691 172.14648145 31.68501985 C169.50019344 31.70560245 166.85477962 31.69771138 164.20843506 31.6897583 C162.30759378 31.69845561 160.40675952 31.70882294 158.50593567 31.72073364 C153.34888154 31.74750268 148.19212064 31.74867239 143.03501058 31.74360704 C138.72827148 31.741467 134.42159164 31.75123585 130.11486524 31.76081789 C119.95427829 31.78300413 109.79383921 31.78388513 99.63323975 31.77178955 C89.15389351 31.75970631 78.67508409 31.78434171 68.19582945 31.82692969 C59.19521413 31.86216238 50.19476967 31.87416442 41.19408792 31.8676542 C35.8198518 31.86402846 30.44599867 31.86930084 25.07182503 31.89708328 C20.01792365 31.92223283 14.9648592 31.91836029 9.91097069 31.89226151 C8.05784955 31.88752922 6.20466958 31.89300243 4.35161591 31.90950775 C1.81793932 31.93044566 -0.7129293 31.91425076 -3.24650574 31.8888855 C-4.34204778 31.91100835 -4.34204778 31.91100835 -5.45972198 31.93357813 C-10.6523962 31.82448086 -13.28863337 30.17490407 -16.97344023 26.81725442 C-20.53901205 22.66376305 -20.85043521 18.92306797 -20.72540283 13.60919189 C-20.25587749 9.89994173 -18.89949711 7.88878294 -16.41290283 5.14044189 C-10.85138738 0.94093022 -6.80800964 -0.00826084 0 0 Z " fill="#BCAEFE" transform="translate(208.41290283203125,851.8595581054688)"/>
<path d="M0 0 C1.20056534 -0.00058411 2.40113068 -0.00116821 3.63807678 -0.00177002 C6.91681811 0.0005333 10.19486966 0.02054298 13.47347403 0.04852581 C16.90474014 0.07359245 20.33602095 0.07588559 23.7673645 0.08062744 C30.25904135 0.09304186 36.75044759 0.12584237 43.24200547 0.1660254 C50.63495234 0.21079114 58.02791239 0.23274217 65.42096114 0.25280714 C80.62342681 0.29457669 95.82554116 0.3679095 111.02783203 0.45410156 C111.02783203 13.98410156 111.02783203 27.51410156 111.02783203 41.45410156 C95.0769708 41.52183272 79.12623235 41.57709152 63.17526722 41.60953808 C55.76889204 41.62500428 48.36261257 41.646089 40.95629883 41.68041992 C34.50064123 41.71032994 28.04505296 41.72967837 21.58932799 41.73636705 C18.17132497 41.74027662 14.75352026 41.74945928 11.33558083 41.77129173 C7.51909162 41.79301503 3.70301553 41.79607054 -0.11352539 41.79467773 C-1.24568985 41.80546356 -2.37785431 41.81624939 -3.54432678 41.82736206 C-4.58614105 41.82323807 -5.62795532 41.81911407 -6.70133972 41.81486511 C-7.60377505 41.81763049 -8.50621038 41.82039587 -9.43599224 41.82324505 C-13.76430431 41.19325392 -16.34646187 39.14933056 -19.22216797 35.95410156 C-22.53503475 31.22143473 -22.22143507 26.7601657 -22.28466797 21.20410156 C-22.31367187 20.37007812 -22.34267578 19.53605469 -22.37255859 18.67675781 C-22.43337045 12.71719542 -21.57586821 9.25903521 -17.97216797 4.45410156 C-12.47125153 -0.51700991 -7.16585305 -0.09131286 0 0 Z " fill="#7B73FE" transform="translate(541.97216796875,1088.5458984375)"/>
<path d="M0 0 C0.89576752 -0.00571014 1.79153503 -0.01142029 2.71444702 -0.01730347 C3.69476395 -0.01842133 4.67508087 -0.01953918 5.68510437 -0.02069092 C6.71953674 -0.02565582 7.75396912 -0.03062073 8.81974792 -0.03573608 C12.24842489 -0.05036407 15.67705559 -0.05716082 19.10575867 -0.06268311 C21.48606366 -0.06843406 23.86636863 -0.0741918 26.24667358 -0.07995605 C31.24096391 -0.09046788 36.23523813 -0.09630935 41.22953796 -0.09979248 C47.62875941 -0.10527735 54.02776809 -0.12930469 60.4269228 -0.15776443 C65.34513979 -0.17638906 70.26330552 -0.18159633 75.18155479 -0.18312836 C77.54065807 -0.18615583 79.89976042 -0.19418751 82.25882912 -0.20731354 C85.55993963 -0.22436982 88.86053015 -0.22249454 92.16166687 -0.21600342 C93.62303322 -0.22982559 93.62303322 -0.22982559 95.11392212 -0.243927 C101.10349713 -0.20703708 105.68565877 0.40361356 110.26200867 4.67559814 C114.03153705 9.60498141 115.02961697 11.85531376 114.61747742 18.14044189 C112.94628578 23.32993171 111.15941372 26.11248436 106.61747742 29.14044189 C104.26743741 30.3154619 102.86149868 30.27364321 100.24131775 30.28761292 C99.32168243 30.29476822 98.40204712 30.30192352 97.45454407 30.30929565 C96.44257965 30.31198456 95.43061523 30.31467346 94.38798523 30.31744385 C92.79266464 30.32730064 92.79266464 30.32730064 91.16511536 30.33735657 C87.63361039 30.35712168 84.10214801 30.36875945 80.57060242 30.37872314 C79.36634361 30.38279867 78.16208481 30.3868742 76.92133331 30.39107323 C70.54726329 30.41194785 64.17321488 30.42624345 57.79911804 30.43560791 C51.21035921 30.44667412 44.62193795 30.48107294 38.03329849 30.52077961 C32.97182074 30.54690794 27.91042385 30.55529642 22.84888458 30.55888939 C20.41999278 30.56376525 17.99110483 30.57540749 15.56227875 30.59392738 C12.16276207 30.61823703 8.76412445 30.61736826 5.36454773 30.6104126 C4.36068024 30.62322266 3.35681274 30.63603271 2.32252502 30.64923096 C-3.43523239 30.60628307 -6.8465377 30.04997484 -11.38252258 26.14044189 C-15.31965611 21.78887326 -16.01243236 18.22579912 -15.77314758 12.54278564 C-15.03568406 8.00738495 -12.68089298 5.28143406 -9.32002258 2.32794189 C-6.18184808 0.40454462 -3.59564901 0.0137391 0 0 Z " fill="#BBAEFE" transform="translate(203.3825225830078,908.8595581054688)"/>
<path d="M0 0 C7.32212773 -0.08400147 14.64249966 -0.16412198 21.96469116 -0.20700073 C25.37478354 -0.2280797 28.78447497 -0.25622326 32.19433594 -0.30175781 C36.11127806 -0.3537335 40.02805935 -0.37298269 43.9453125 -0.390625 C45.16115021 -0.41127014 46.37698792 -0.43191528 47.62966919 -0.45318604 C54.06140135 -0.45488949 58.13635311 -0.38916997 63 4 C63.598125 4.515625 64.19625 5.03125 64.8125 5.5625 C68.13449207 9.58385882 67.26245645 15.39822344 67.3125 20.3125 C67.35600586 21.71918945 67.35600586 21.71918945 67.40039062 23.15429688 C67.4551395 29.13034702 66.93428363 32.43068358 63 37 C58.81151913 40.79581078 55.01219398 41.12617476 49.49707031 41.11352539 C48.39623108 41.11344986 47.29539185 41.11337433 46.16119385 41.11329651 C44.97878113 41.10813522 43.79636841 41.10297394 42.578125 41.09765625 C41.36300232 41.0962413 40.14787964 41.09482635 38.89593506 41.09336853 C35.01393169 41.08776988 31.13198594 41.0752176 27.25 41.0625 C24.61849042 41.05748483 21.98697993 41.05292195 19.35546875 41.04882812 C12.90360576 41.03865168 6.4518674 41.01907582 0 41 C0 27.47 0 13.94 0 0 Z " fill="#7AA0FE" transform="translate(689,1147)"/>
<path d="M0 0 C54.12 0 108.24 0 164 0 C164 0.33 164 0.66 164 1 C110.54 1 57.08 1 2 1 C2 13.54 2 26.08 2 39 C56.12 39 110.24 39 166 39 C164 41 164 41 161.19265556 41.24609566 C159.98510675 41.24425207 158.77755795 41.24240849 157.53341675 41.24050903 C156.86200531 41.24221788 156.19059387 41.24392673 155.49883664 41.24568737 C153.23853801 41.24899389 150.9785332 41.23795974 148.71826172 41.22705078 C147.10222379 41.22648692 145.48618534 41.22680274 143.87014771 41.22793579 C139.47366757 41.22851127 135.07729584 41.21672542 130.68084097 41.20278788 C126.08973326 41.19031302 121.49862326 41.18911259 116.90750122 41.18673706 C108.2093822 41.18051273 99.51131326 41.16408905 90.81321633 41.14403808 C80.91251891 41.12170869 71.01181914 41.11069311 61.11110282 41.10064721 C40.74070102 41.07972362 20.37036791 41.04303552 0 41 C0 27.47 0 13.94 0 0 Z " fill="#FAC343" transform="translate(653,1089)"/>
<path d="M0 0 C0.67804687 0.48210937 1.35609375 0.96421875 2.0546875 1.4609375 C8.29135224 5.693577 13.47879528 8.20056609 21 9 C21 9.33 21 9.66 21 10 C14.5497515 10.59724523 10.82145465 9.27115177 5.19921875 6.09375 C2.96167473 4.77734793 2.96167473 4.77734793 0 5 C-2.58618137 7.22068712 -2.58618137 7.22068712 -5.1875 10 C-6.53908203 11.3921875 -6.53908203 11.3921875 -7.91796875 12.8125 C-8.60503906 13.534375 -9.29210937 14.25625 -10 15 C-10 10.79452429 -7.63261876 8.83289639 -5 5.8125 C-4.52304687 5.25369141 -4.04609375 4.69488281 -3.5546875 4.11914062 C-2.37633794 2.74047164 -1.18901048 1.36948528 0 0 Z " fill="#F1ECFE" transform="translate(852,310)"/>
<path d="M0 0 C0.66 0.33 1.32 0.66 2 1 C-0.99656454 3.67054942 -3.99716935 6.33649851 -7 9 C-7.75023437 9.66644531 -8.50046875 10.33289062 -9.2734375 11.01953125 C-9.96695313 11.63183594 -10.66046875 12.24414062 -11.375 12.875 C-12.00148437 13.42929688 -12.62796875 13.98359375 -13.2734375 14.5546875 C-15 16 -15 16 -18 18 C-18 17.01 -18 16.02 -18 15 C-15.98131411 13.06407136 -13.98303683 11.31157337 -11.8125 9.5625 C-11.23435547 9.08490234 -10.65621094 8.60730469 -10.06054688 8.11523438 C-6.7348297 5.37574531 -3.37008954 2.6846476 0 0 Z " fill="#8579FF" transform="translate(253,1111)"/>
<path d="M0 0 C0.33 0 0.66 0 1 0 C1 1.65 1 3.3 1 5 C4.24208567 4.64950425 5.61527704 4.43778819 7.8125 1.9375 C8.204375 1.298125 8.59625 0.65875 9 0 C8.52379711 4.37653129 7.33100111 6.06538005 3.9375 8.8125 C3.20402344 9.41707031 2.47054687 10.02164063 1.71484375 10.64453125 C1.14894531 11.09183594 0.58304688 11.53914062 0 12 C-1.31157516 9.37684968 -0.89649988 7.76966564 -0.5625 4.875 C-0.46066406 3.96492187 -0.35882812 3.05484375 -0.25390625 2.1171875 C-0.17011719 1.41851563 -0.08632813 0.71984375 0 0 Z " fill="#FDC349" transform="translate(893,783)"/>
<path d="M0 0 C-2.1766164 1.77353929 -3.76739321 2.93603313 -6.5 3.6875 C-10.33337094 5.70001974 -11.3840475 9.11810294 -13 13 C-13.66796875 11.2578125 -13.66796875 11.2578125 -14 9 C-12.92578125 6.9296875 -12.92578125 6.9296875 -11.3125 4.875 C-10.79300781 4.19179688 -10.27351562 3.50859375 -9.73828125 2.8046875 C-6.61804213 -0.43475177 -4.30203871 -1.5364424 0 0 Z " fill="#FECA4B" transform="translate(809,435)"/>
<path d="M0 0 C0.66 0.33 1.32 0.66 2 1 C-4.2293578 10.01223242 -4.2293578 10.01223242 -9 12 C-9.66 11.67 -10.32 11.34 -11 11 C-7.37 7.37 -3.74 3.74 0 0 Z " fill="#4D59FE" transform="translate(293,462)"/>
<path d="M0 0 C0.33 0.66 0.66 1.32 1 2 C0.56429687 2.35191406 0.12859375 2.70382812 -0.3203125 3.06640625 C-4.70232497 6.69911356 -8.42563217 10.57459221 -12 15 C-12.66 14.67 -13.32 14.34 -14 14 C-12.04516895 11.85088146 -10.08636605 9.70564025 -8.125 7.5625 C-7.56941406 6.95083984 -7.01382813 6.33917969 -6.44140625 5.70898438 C-5.90644531 5.12568359 -5.37148438 4.54238281 -4.8203125 3.94140625 C-4.32805176 3.40201416 -3.83579102 2.86262207 -3.32861328 2.30688477 C-2 1 -2 1 0 0 Z " fill="#F3EDFE" transform="translate(535,381)"/>
<path d="M0 0 C0 4.12527351 -1.49125936 5.76504496 -4 9 C-5.93102068 10.54010673 -7.86430538 11.73799864 -10 13 C-8.48446596 9.52224821 -6.4226544 7.0442016 -3.875 4.25 C-3.15054688 3.45078125 -2.42609375 2.6515625 -1.6796875 1.828125 C-0.84824219 0.92320312 -0.84824219 0.92320312 0 0 Z " fill="#4552FE" transform="translate(773,362)"/>
<path d="M0 0 C0 3.58912412 -0.66436554 4.10857029 -3 6.6875 C-3.556875 7.31011719 -4.11375 7.93273437 -4.6875 8.57421875 C-5.120625 9.04472656 -5.55375 9.51523437 -6 10 C-6.66 9.67 -7.32 9.34 -8 9 C-5.36 6.03 -2.72 3.06 0 0 Z " fill="#F3EEFE" transform="translate(789,384)"/>
<path d="M0 0 C-0.25 1.875 -0.25 1.875 -1 4 C-3.0625 5.25 -3.0625 5.25 -5 6 C-5 3 -5 3 -3.625 1.3125 C-2 0 -2 0 0 0 Z " fill="#7E73FE" transform="translate(663,508)"/>
<path d="M0 0 C0.33 0.66 0.66 1.32 1 2 C-0.65 3.98 -2.3 5.96 -4 8 C-4.66 7.67 -5.32 7.34 -6 7 C-4.02 4.69 -2.04 2.38 0 0 Z " fill="#F2EDFE" transform="translate(511,407)"/>
</svg>
