<?xml version="1.0" encoding="UTF-8"?>
<svg version="1.1" xmlns="http://www.w3.org/2000/svg" width="1024" height="1024">
  <path d="M0 0 C337.92 0 675.84 0 1024 0 C1024 337.92 1024 675.84 1024 1024 C686.08 1024 348.16 1024 0 1024 C0 686.08 0 348.16 0 0 Z " fill="none" transform="translate(0,0)"/>
  <path d="M0 0 C1.20442769 -0.00453111 2.40885537 -0.00906223 3.64978087 -0.01373065 C6.97593622 -0.02416844 10.30187459 -0.02570609 13.62803078 -0.02334189 C17.22185932 -0.02293248 20.81565603 -0.03398463 24.4094696 -0.04345703 C31.44361404 -0.06004007 38.47772495 -0.06556533 45.5118873 -0.06668179 C51.23100938 -0.0676334 56.95012045 -0.07174932 62.66923904 -0.07808304 C78.8958937 -0.0956869 95.12252195 -0.10492307 111.34918623 -0.10342209 C112.66020608 -0.10330222 112.66020608 -0.10330222 113.99771118 -0.10317993 C114.87279542 -0.10309817 115.74787966 -0.10301641 116.64948161 -0.10293217 C130.83305529 -0.10211917 145.0165228 -0.12126253 159.20006578 -0.14945666 C173.77527484 -0.17820006 188.35043214 -0.19199621 202.92567027 -0.19026911 C211.10393869 -0.18960579 219.28209575 -0.19507303 227.46033859 -0.21662521 C234.42264 -0.23485603 241.38477955 -0.23916868 248.34709452 -0.22560637 C251.89676939 -0.21908667 255.4461339 -0.21892301 258.99577904 -0.23631287 C262.84994926 -0.25499991 266.70366889 -0.24246321 270.55786133 -0.22705078 C271.6711057 -0.23733791 272.78435008 -0.24762503 273.93132913 -0.25822389 C282.09626718 -0.1861931 289.74284936 1.24274744 296.07315063 6.75350952 C297.39222412 8.11971436 297.39222412 8.11971436 298.73794556 9.51351929 C299.46469734 10.2530056 299.46469734 10.2530056 300.20613098 11.00743103 C301.72517293 12.55952999 303.22182961 14.1311948 304.71841431 15.70492554 C305.73715984 16.75384891 306.75733494 17.80138582 307.77896118 18.84750366 C309.65698719 20.7740742 311.52421937 22.70915859 313.38565063 24.65194702 C315.86226263 27.22212471 318.37495941 29.75085561 320.90591431 32.26742554 C369.90591431 81.26742554 369.90591431 81.26742554 372.20787048 83.573349 C375.38834381 86.74914566 378.58161563 89.91181391 381.77578735 93.07382202 C388.59334175 99.8260475 395.4007248 106.58843383 402.20239544 113.35665798 C406.31292364 117.44625834 410.42713065 121.53201516 414.54971313 125.60946655 C418.54534807 129.56165161 422.53114073 133.52351988 426.51029396 137.49229622 C428.02625255 139.0008714 429.5457241 140.50592498 431.06876183 142.00735283 C433.19666276 144.10622615 435.31172333 146.21727819 437.42422485 148.33163452 C438.05438004 148.9474086 438.68453522 149.56318268 439.33378601 150.19761658 C439.90988617 150.77921539 440.48598633 151.36081421 441.07954407 151.96003723 C441.58003612 152.45684211 442.08052816 152.95364698 442.59618664 153.46550655 C445.83519045 157.92171725 446.15686754 162.80301182 446.16318321 168.15387821 C446.16668929 168.8255025 446.17019536 169.49712679 446.17380768 170.18910334 C446.18310577 172.43787376 446.17820254 174.68638431 446.17333984 176.93516541 C446.17707693 178.56450182 446.18167869 180.19383644 446.18707049 181.82316822 C446.19930912 186.29955793 446.19903899 190.77587296 446.19668174 195.25227559 C446.19627378 200.08069647 446.20731088 204.90909334 446.21679688 209.73750305 C446.23341366 219.19798982 446.23890677 228.65845167 446.24002163 238.1189518 C446.24097199 245.81082578 446.24508166 253.50269154 446.25142288 261.19456291 C446.2690388 283.00692582 446.27826145 304.81926905 446.27676193 326.63163913 C446.27668202 327.80768155 446.27660211 328.98372398 446.27651978 330.19540405 C446.27643801 331.37288446 446.27635625 332.55036486 446.27627201 333.76352649 C446.27545949 352.83711623 446.2945878 371.91062693 446.32279651 390.98419381 C446.35153862 410.57321713 446.365336 430.16220193 446.36360896 449.75124687 C446.36294541 460.74711216 446.36842192 471.74289464 446.38996506 482.73874092 C446.4081945 492.10327208 446.41250984 501.4676829 446.39894621 510.83222414 C446.39242489 515.60751394 446.39226904 520.38257301 446.40965271 525.15784073 C446.42542597 529.53590629 446.42247657 533.91355901 446.40508445 538.29161476 C446.40202384 539.8690471 446.40561128 541.44651058 446.4168046 543.02390618 C446.52477584 559.3294048 442.69126193 573.36707243 431.59732056 585.67758179 C422.62531619 594.11085148 410.82863084 599.51595066 398.52604103 599.51910782 C397.81323192 599.5220147 397.1004228 599.52492158 396.36601341 599.52791655 C393.9832002 599.53520147 391.60064571 599.52828029 389.21783447 599.52139282 C387.48991463 599.52369786 385.76199577 599.52687467 384.03407896 599.53084731 C379.28998382 599.53919823 374.54596912 599.53506864 369.80187368 599.52887487 C364.68384347 599.52435256 359.56582715 599.5313331 354.44779968 599.53683472 C344.42262661 599.54573308 334.39748347 599.54380462 324.37230922 599.53800943 C316.22419013 599.5334942 308.07607943 599.53287945 299.92795944 599.53505707 C298.18896531 599.53551677 298.18896531 599.53551677 296.41483998 599.53598575 C294.05971929 599.5366252 291.70459861 599.53727363 289.34947793 599.53793094 C267.25900702 599.54363566 245.1685527 599.53707437 223.07808451 599.5263302 C204.12420175 599.51739693 185.1703435 599.51894462 166.21646118 599.52816772 C144.20857889 599.53887191 122.20071116 599.54308383 100.19282663 599.5369432 C97.84571799 599.5363061 95.49860935 599.53567736 93.1515007 599.53505707 C91.99666982 599.53474852 90.84183894 599.53443997 89.65201319 599.53412206 C81.51487846 599.5323954 73.37775296 599.53530968 65.24061966 599.54001617 C55.32229861 599.54562675 45.40400922 599.54410491 35.4856918 599.53345469 C30.42539463 599.52820002 25.36515022 599.52613776 20.30485344 599.53275299 C15.6711659 599.53871887 11.03757997 599.53542671 6.40390162 599.52479789 C4.72899648 599.52256655 3.05408272 599.52369416 1.37918313 599.52854946 C-15.67768466 599.57419601 -28.09982188 596.73982789 -40.87533569 584.61117554 C-50.57771649 574.36218174 -55.25627445 561.66924915 -55.22551346 547.70522976 C-55.22859241 546.40783023 -55.22859241 546.40783023 -55.23173356 545.08422062 C-55.23740975 542.17192165 -55.23594554 539.25966987 -55.23452759 536.34736633 C-55.23711087 534.24382983 -55.24012393 532.14029381 -55.24353099 530.03675848 C-55.25160864 524.24501593 -55.25339099 518.45328576 -55.25412846 512.66153824 C-55.2559777 506.41934445 -55.26352441 500.17715711 -55.27026367 493.93496704 C-55.28456203 479.56773331 -55.29037442 465.20050364 -55.29495562 450.8332643 C-55.29729185 443.73242066 -55.30089455 436.63157783 -55.30465099 429.53073481 C-55.31748675 405.22053578 -55.32820561 380.9103372 -55.33165359 356.60013485 C-55.33187523 355.0741197 -55.33209701 353.54810455 -55.33231895 352.0220894 C-55.33253959 350.49240009 -55.33276007 348.96271079 -55.33298039 347.43302149 C-55.33342295 344.36423234 -55.33387006 341.2954432 -55.33432007 338.22665405 C-55.33442946 337.46577298 -55.33453885 336.7048919 -55.33465156 335.92095382 C-55.33828154 311.25380825 -55.35419924 286.58669208 -55.37751043 261.91955777 C-55.40211505 235.83602886 -55.41582674 209.75251674 -55.41702151 183.66897589 C-55.41719296 180.80473903 -55.41740839 177.94050219 -55.41765594 175.07626534 C-55.41771171 174.37101702 -55.41776748 173.6657687 -55.41782494 172.93914922 C-55.41897488 161.59688645 -55.42999207 150.25465387 -55.444543 138.91240129 C-55.45892051 127.50795876 -55.46188574 116.10356578 -55.45410302 104.69911277 C-55.45019512 98.5225157 -55.45113312 92.3460201 -55.46516037 86.1694355 C-55.47789059 80.51220487 -55.4767093 74.85515206 -55.46456966 69.1979217 C-55.46261115 67.15412789 -55.46569817 65.11032152 -55.47441402 63.06654536 C-55.5480784 44.62137863 -53.61673302 29.44260564 -40.41439819 15.52133179 C-28.71938541 4.16102475 -16.06253316 -0.04450987 0 0 Z " fill="#BAB9FE" transform="translate(317.0940856933594,150.73257446289063)"/>
  <path d="M0 0 C7.89516165 0.9976553 11.56104355 3.29825769 17.125 8.9296875 C17.59437988 9.40189728 18.06375977 9.87410706 18.54736328 10.36062622 C20.03637673 11.86075033 21.51827595 13.36767902 23 14.875 C23.99432325 15.8793702 24.989111 16.88328077 25.984375 17.88671875 C27.82322665 19.741814 29.65874659 21.59998557 31.4921875 23.46044922 C33.98439611 25.98419863 36.48960331 28.49435385 39 31 C88 80 88 80 90.30096436 82.302948 C93.49145969 85.4910985 96.68840178 88.67272084 99.88574219 91.85400391 C106.71091865 98.64655754 113.53104352 105.44416014 120.3482933 112.24466896 C124.46931523 116.35521359 128.5922026 120.46385196 132.71923828 124.56835938 C136.71693923 128.54438308 140.70978172 132.52522575 144.6992569 136.50950241 C146.22059952 138.02714472 147.74370368 139.54302329 149.26857758 141.05711746 C151.39431432 143.16840444 153.51377883 145.285798 155.63183594 147.40478516 C156.2655864 148.03134506 156.89933685 148.65790497 157.55229187 149.30345154 C158.12701736 149.88092636 158.70174286 150.45840118 159.29388428 151.05337524 C159.79529812 151.5529455 160.29671196 152.05251575 160.81332016 152.5672245 C163.63590132 155.97515728 163.07898325 159.81388759 163 164 C148.28226003 164.09389855 133.56456028 164.16420023 118.84658051 164.20724869 C112.01106181 164.22777792 105.17573041 164.25571111 98.34033203 164.30175781 C91.7332149 164.34624506 85.12623993 164.36919542 78.51896667 164.37950897 C76.00901749 164.38685083 73.49907786 164.40118652 70.98921204 164.42292023 C52.70392704 164.57483742 36.11333744 164.65603803 21 153 C20.27296875 152.4534375 19.5459375 151.906875 18.796875 151.34375 C8.41732451 142.94502975 2.33369193 131.03748326 0 118 C-0.27162941 114.08451672 -0.25330405 110.18330508 -0.22705078 106.25976562 C-0.22734283 105.10767609 -0.22763489 103.95558655 -0.22793579 102.76858521 C-0.22654848 98.98106208 -0.21101524 95.19373853 -0.1953125 91.40625 C-0.19158025 88.77209582 -0.18873428 86.13794025 -0.18673706 83.50378418 C-0.18053892 77.29205588 -0.16415085 71.08039859 -0.14403808 64.86870146 C-0.12162699 57.79248164 -0.11067259 50.7162583 -0.10064721 43.64001179 C-0.07978301 29.09330469 -0.04463968 14.54665334 0 0 Z " fill="#7880FE" transform="translate(599,152)"/>
  <path d="M0 0 C1.64838867 -0.02416992 1.64838867 -0.02416992 3.33007812 -0.04882812 C17.58091228 -0.05722579 29.75995971 3.55425567 40.3359375 13.30859375 C46.41116411 19.88368078 51.1875 29.17425757 51.1875 38.3125 C43.5975 38.3125 36.0075 38.3125 28.1875 38.3125 C26.8675 35.6725 25.5475 33.0325 24.1875 30.3125 C20.05850324 25.1989736 14.59285092 22.4276762 8.1875 21.3125 C-2.36704535 20.37406073 -11.46364688 20.8551224 -19.8125 27.8125 C-23.21242221 32.06240276 -24.25509859 34.6748381 -24.046875 40.296875 C-23.56993182 44.39858635 -22.25189775 47.07878903 -19.09716797 49.78271484 C-12.71587614 54.30187141 -6.43725379 56.0875694 1.125 57.8125 C3.52711135 58.40059581 5.92815716 58.99306074 8.328125 59.58984375 C9.49537109 59.87843262 10.66261719 60.16702148 11.86523438 60.46435547 C34.10308533 66.14147879 34.10308533 66.14147879 41.1875 73.3125 C41.80753906 73.90804687 42.42757812 74.50359375 43.06640625 75.1171875 C51.19990926 83.5733138 52.90191049 92.26929374 52.86694336 103.69506836 C52.45990961 113.80480459 48.88580797 122.17443402 41.5 129.3125 C29.27023516 138.64388127 15.44825662 141.89172899 0.3125 141.75 C-0.82574219 141.74242676 -1.96398437 141.73485352 -3.13671875 141.72705078 C-18.21883961 141.43187213 -30.43814152 137.49498151 -41.625 127.0625 C-49.76682352 118.50351592 -52.8125 108.97837832 -52.8125 97.3125 C-45.2225 97.3125 -37.6325 97.3125 -29.8125 97.3125 C-28.7915625 100.096875 -28.7915625 100.096875 -27.75 102.9375 C-25.01843042 109.45183308 -22.13833338 113.27109548 -15.7265625 116.296875 C-5.55757548 120.30398513 5.65464912 120.92592827 16.0625 117.296875 C20.75456792 115.12334354 24.23929899 112.20055388 26.1875 107.3125 C26.84870008 102.22279709 26.75635766 97.70878699 24.8125 92.9375 C18.17817493 86.30317493 9.63874198 84.49042075 0.75 82.40234375 C-35.84305907 73.7803066 -35.84305907 73.7803066 -45.125 58.875 C-50.02946968 48.52111957 -50.60618986 36.4096256 -46.78515625 25.55078125 C-42.18725229 14.9700625 -35.31140413 8.66685968 -25.0703125 3.57421875 C-16.77139177 0.36012835 -8.84483818 -0.02566697 0 0 Z " fill="#2541EC" transform="translate(508.8125,439.6875)"/>
  <path d="M0 0 C11.26748978 8.17095661 18.25699549 18.79725835 21.3046875 32.375 C21.71484375 34.96875 21.71484375 34.96875 21.71484375 38.96875 C13.46484375 38.96875 5.21484375 38.96875 -3.28515625 38.96875 C-3.82140625 37.15375 -4.35765625 35.33875 -4.91015625 33.46875 C-7.93198618 24.61166226 -11.01991874 19.84428735 -19.47265625 15.53125 C-29.03760178 11.11573427 -39.61172516 10.2931699 -49.89453125 12.875 C-52.85751853 14.04816247 -55.54024434 15.35384126 -58.28515625 16.96875 C-59.29449219 17.55076172 -59.29449219 17.55076172 -60.32421875 18.14453125 C-67.901599 23.53548681 -72.13650114 34.43402219 -73.93432617 43.31567383 C-74.68459578 48.98942456 -74.57015114 54.69333407 -74.53515625 60.40625 C-74.54289062 61.66501953 -74.550625 62.92378906 -74.55859375 64.22070312 C-74.52969581 78.07004075 -72.44580088 91.7000134 -62.28515625 101.96875 C-54.71364737 107.53023291 -47.54639086 110.36498073 -38.09765625 110.34375 C-37.3502417 110.34213867 -36.60282715 110.34052734 -35.83276367 110.33886719 C-27.17416495 110.14858881 -18.94179389 107.69655448 -12.28515625 101.96875 C-7.40751169 95.98534219 -5.23695288 90.34824158 -2.28515625 82.96875 C5.63484375 82.96875 13.55484375 82.96875 21.71484375 82.96875 C18.96759521 98.80582984 13.76171965 111.77897477 0.71484375 121.96875 C-3.71119909 124.87762503 -8.36533219 127.00417862 -13.28515625 128.96875 C-14.18105469 129.32839844 -15.07695312 129.68804688 -16 130.05859375 C-32.67070219 135.37069709 -52.74012573 133.02960085 -68.34765625 125.90625 C-85.11402895 117.07892133 -93.4363016 103.31745467 -98.97265625 85.78125 C-104.98410942 66.06771364 -102.71442928 42.14987052 -94.09765625 23.59375 C-86.13144711 8.89078895 -74.52693657 -2.15618997 -58.28515625 -7.03125 C-57.12757813 -7.38574219 -55.97 -7.74023438 -54.77734375 -8.10546875 C-36.87212862 -12.45808313 -15.53051293 -9.83946591 0 0 Z " fill="#2641ED" transform="translate(423.28515625,449.03125)"/>
  <path d="M0 0 C8.25 0 16.5 0 25 0 C33.30013328 22.98498448 41.23842579 46.08197116 49.06414795 69.2321167 C49.98996183 71.97031103 50.9170442 74.70807355 51.84423828 77.44580078 C53.28133318 81.69175857 54.71287264 85.9395492 56.13970947 90.18896484 C56.6681768 91.7612269 57.19806587 93.33301185 57.72943115 94.90429688 C58.45815835 97.06104609 59.18107801 99.21965229 59.90234375 101.37890625 C60.30960693 102.5913501 60.71687012 103.80379395 61.13647461 105.05297852 C62 108 62 108 62 111 C62.66 111 63.32 111 64 111 C64.24210205 109.76886475 64.4842041 108.53772949 64.73364258 107.26928711 C66.08035578 101.23182299 68.16205643 95.50161583 70.26171875 89.69140625 C70.68489883 88.50678299 71.10807892 87.32215973 71.54408264 86.10163879 C72.68470811 82.91173551 73.82998857 79.72358296 74.97758484 76.53618622 C76.16677782 73.23002524 77.350251 69.92181848 78.53417969 66.61376953 C80.20624208 61.94325952 81.88019795 57.27343651 83.5564785 52.60443878 C86.28326904 45.00857811 88.99278799 37.40669752 91.69140625 29.80078125 C92.72143822 26.90106683 93.7516546 24.00141797 94.78189087 21.10177612 C95.42601726 19.28752977 96.06939196 17.47301636 96.71200562 15.65823364 C97.59182788 13.17485552 98.47513699 10.69274608 99.359375 8.2109375 C99.61566177 7.48469681 99.87194855 6.75845612 100.13600159 6.01020813 C101.88591498 1.11408502 101.88591498 1.11408502 103 0 C104.85369611 -0.08737645 106.71067541 -0.10698153 108.56640625 -0.09765625 C109.69111328 -0.09443359 110.81582031 -0.09121094 111.97460938 -0.08789062 C113.15861328 -0.07951172 114.34261719 -0.07113281 115.5625 -0.0625 C116.75037109 -0.05798828 117.93824219 -0.05347656 119.16210938 -0.04882812 C122.10812226 -0.03699675 125.05403681 -0.02051287 128 0 C112.11039739 45.93648274 95.36522365 91.60234388 78 137 C68.43 137 58.86 137 49 137 C42.93486044 120.88440122 36.95594359 104.74152204 31.0625 88.5625 C29.40827737 84.02577691 27.75314445 79.48938641 26.09765625 74.953125 C25.67964752 73.80757645 25.26163879 72.66202789 24.83096313 71.48176575 C21.85575629 63.33258874 18.86725099 55.18837087 15.87109375 47.046875 C15.45884048 45.92639267 15.04658722 44.80591034 14.62184143 43.651474 C12.64954857 38.29179257 10.67556838 32.93273972 8.69946289 27.57446289 C7.98709618 25.63950252 7.27477287 23.70452617 6.5625 21.76953125 C6.24457993 20.90926331 5.92665985 20.04899536 5.59910583 19.16265869 C4.12215001 15.14674512 2.67217079 11.12213709 1.27734375 7.0769043 C1.03105225 6.36455124 0.78476074 5.65219818 0.53100586 4.91825867 C0 3 0 3 0 0 Z " fill="#2641ED" transform="translate(573,442)"/>
  <path d="M0 0 C8.25 0 16.5 0 25 0 C24.67 0.99 24.34 1.98 24 3 C16.74 2.67 9.48 2.34 2 2 C1.67 2.99 1.34 3.98 1 5 C0.67 3.35 0.34 1.7 0 0 Z " fill="#1532EB" transform="translate(573,442)"/>
  <path d="M0 0 C8.25 0 16.5 0 25 0 C24.34 1.65 23.68 3.3 23 5 C22.67 4.01 22.34 3.02 22 2 C14.74 2 7.48 2 0 2 C0 1.34 0 0.68 0 0 Z " fill="#1835EB" transform="translate(676,442)"/>
  <path d="M0 0 C2 2 2 2 2 5 C3.32 5 4.64 5 6 5 C5.67 7.31 5.34 9.62 5 12 C4.34 12 3.68 12 3 12 C2.49440092 10.56445975 1.9957251 9.1264798 1.5 7.6875 C1.2215625 6.88699219 0.943125 6.08648438 0.65625 5.26171875 C0 3 0 3 0 0 Z " fill="#C9C6FE" transform="translate(632,541)"/>
  <path d="M0 0 C0.33 0.66 0.66 1.32 1 2 C-0.07192184 3.3218362 -1.15802695 4.63217927 -2.25 5.9375 C-2.85328125 6.66839844 -3.4565625 7.39929688 -4.078125 8.15234375 C-6.10741134 10.10326334 -7.254407 10.61731779 -10 11 C-6.79239749 7.19364503 -3.59253891 3.45436433 0 0 Z " fill="#C4C2FC" transform="translate(434,560)"/>
</svg>
