<?xml version="1.0" encoding="UTF-8"?>
<svg version="1.1" xmlns="http://www.w3.org/2000/svg" width="1024" height="1536">
<path d="M0 0 C337.92 0 675.84 0 1024 0 C1024 506.88 1024 1013.76 1024 1536 C686.08 1536 348.16 1536 0 1536 C0 1029.12 0 522.24 0 0 Z " fill="#E4DEFE" transform="translate(0,0)"/>
<path d="M0 0 C0.90779012 -0.00327219 1.81558023 -0.00654439 2.75087914 -0.00991574 C3.74636004 -0.00843212 4.74184095 -0.00694849 5.76748794 -0.00541991 C6.83079481 -0.00777214 7.89410167 -0.01012437 8.98962995 -0.01254788 C12.58275244 -0.01924956 16.17583887 -0.0187793 19.76896709 -0.01836985 C22.35907969 -0.02166775 24.94919176 -0.02539316 27.53930318 -0.02951133 C33.93064883 -0.03884295 40.32198755 -0.04276032 46.71333916 -0.0450303 C54.36677041 -0.04799091 62.02019245 -0.0566875 69.67361888 -0.06544458 C88.17368182 -0.08629585 106.67374638 -0.09675987 125.17381834 -0.10557419 C133.92444479 -0.10977975 142.67507055 -0.11500186 151.42569643 -0.12025872 C181.37564169 -0.13814955 211.32558715 -0.15314588 241.27553695 -0.16057891 C243.15606202 -0.16105366 245.03658708 -0.16152955 246.91711214 -0.16200657 C247.84969052 -0.16224294 248.7822689 -0.16247932 249.74310723 -0.16272286 C254.46807138 -0.16392407 259.19303553 -0.16513951 263.91799968 -0.16636485 C264.85568584 -0.166605 265.793372 -0.16684515 266.75947289 -0.16709258 C297.16350993 -0.17498602 327.56750797 -0.19841846 357.97152798 -0.23092079 C390.11057874 -0.26521522 422.24960668 -0.28492969 454.38867605 -0.28822315 C457.91655706 -0.28864069 461.44443807 -0.28912026 464.97231907 -0.28964633 C465.84099306 -0.28976952 466.70966706 -0.28989271 467.60466451 -0.29001964 C481.58698301 -0.29235215 495.56925623 -0.30801499 509.55155858 -0.32848817 C523.60539765 -0.34873967 537.65918231 -0.35422667 551.71303327 -0.34471754 C560.06249953 -0.33949994 568.41178468 -0.34539223 576.76122489 -0.36725221 C582.99598219 -0.3823421 589.23055571 -0.3765255 595.465312 -0.36258169 C597.98758181 -0.36019502 600.50986897 -0.36458368 603.03211219 -0.37641034 C606.46072442 -0.39149188 609.88842812 -0.38188139 613.31701797 -0.36618346 C614.29611071 -0.37640567 615.27520346 -0.38662787 616.28396568 -0.39715984 C624.28802808 -0.31718625 632.35200719 1.45159124 638.85769695 6.37880117 C645.55609128 13.39616666 647.63259244 19.41946501 647.62250465 29.04394799 C647.62545607 29.97133072 647.6284075 30.89871344 647.63144836 31.85419866 C647.64017508 34.99095314 647.64172324 38.1276709 647.64332622 41.26443654 C647.64805476 43.52441508 647.65320533 45.78439276 647.65874386 48.04436946 C647.67268134 54.27774735 647.68024241 60.51111939 647.68671685 66.74450892 C647.69389396 72.76960033 647.70570311 78.79468173 647.71719184 84.81976604 C647.74905892 101.73443432 647.76888099 118.64911181 647.78647736 135.56380007 C647.79124468 140.14472249 647.79625344 144.72564463 647.80128258 149.30656677 C647.83232856 177.73744223 647.85894865 206.16832003 647.87570137 234.5992077 C647.87963866 241.18744137 647.88365049 247.775675 647.88772625 254.36390859 C647.88847875 255.59167717 647.88847875 255.59167717 647.88924645 256.84424916 C647.90566423 283.38184145 647.94412 309.91934153 647.99501335 336.45688846 C648.04723153 363.73494048 648.08001544 391.01294339 648.0872789 418.29104641 C648.0883075 422.14367185 648.08954382 425.99629721 648.09089893 429.84892255 C648.09128599 430.98627637 648.09128599 430.98627637 648.09168086 432.14660704 C648.09637635 444.3504424 648.12131338 456.55415626 648.15365036 468.75794613 C648.18568146 481.0251782 648.19565895 493.29227344 648.18321841 505.55954237 C648.17707364 512.20581359 648.18132946 518.85178388 648.21138805 525.49801999 C648.2386805 531.58221032 648.2383038 537.66574743 648.2158776 543.74995183 C648.21264592 545.95124644 648.21957364 548.15258424 648.23767482 550.3538068 C648.40402208 571.88781997 648.40402208 571.88781997 641.48269695 579.12880117 C633.84671931 586.11617653 626.98974581 587.42762008 616.85531276 587.38886338 C615.77926837 587.39266906 614.70322398 587.39647473 613.59457219 587.40039572 C609.97013497 587.41074473 606.34585341 587.40679917 602.72140545 587.40295583 C600.10410425 587.40740642 597.4868044 587.41271987 594.86950654 587.41882455 C589.1692176 587.43067436 583.46896068 587.43503721 577.76866001 587.43450338 C569.29198308 587.43371042 560.81534659 587.4442571 552.33868046 587.45691895 C535.43629086 587.48166456 518.53391106 587.49044225 501.63150583 587.49545543 C500.75607176 587.49571661 499.88063769 587.49597778 498.97867531 587.49624687 C498.10149694 587.49650715 497.22431858 587.49676742 496.32055905 587.49703558 C486.60278596 587.50011708 476.88501559 587.50662152 467.16724437 587.51324826 C437.82045541 587.53289631 408.4736694 587.54930075 379.12687343 587.5521248 C377.71872146 587.55226589 377.71872146 587.55226589 376.28212197 587.55240983 C372.47764937 587.55278832 368.67317677 587.55315231 364.86870418 587.55351281 C362.00517182 587.55378453 359.14163946 587.55406121 356.27810711 587.55433828 C355.3318869 587.5544263 354.3856667 587.55451432 353.41077316 587.55460501 C323.67674326 587.55751077 293.94277836 587.57960927 264.20877117 587.61586171 C230.81100355 587.65657997 197.41328022 587.6802833 164.01548642 587.68058431 C160.45479514 587.68068114 156.89410386 587.68084786 153.33341259 587.68106443 C152.45666526 587.68110854 151.57991794 587.68115266 150.67660252 587.68119811 C136.56215194 587.68231837 122.44776643 587.69973298 108.33333681 587.72288375 C94.14980379 587.74571644 79.96635876 587.74995785 65.78281412 587.73533445 C57.3553304 587.72717786 48.9281237 587.73289193 40.50067353 587.75851529 C34.20968771 587.77610034 27.91899212 587.76758508 21.62801525 587.7488702 C19.08159717 587.74536324 16.5351506 587.7503359 13.98876992 587.76457464 C10.52984183 587.78267188 7.07233055 587.76998784 3.6134457 587.74962693 C2.62267157 587.76219031 1.63189743 587.77475368 0.61109984 587.78769776 C-7.01908149 587.69142344 -13.46610445 585.62246485 -19.32294466 580.57165596 C-25.75879344 573.62935554 -28.12375716 565.86736619 -28.02066761 556.56907159 C-28.02938826 555.18280827 -28.02938826 555.18280827 -28.03828508 553.76853964 C-28.05285732 550.67856577 -28.03901247 547.58938968 -28.02523762 544.49942189 C-28.02984762 542.2590106 -28.03620119 540.01860233 -28.0441466 537.77820039 C-28.06084939 531.62670373 -28.05258901 525.47545519 -28.04020172 519.32395762 C-28.03208659 513.36956365 -28.04273967 507.41521104 -28.05279119 501.46082658 C-28.07384416 488.53194298 -28.07203251 475.6031385 -28.06047554 462.6742474 C-28.050411 451.35931029 -28.04778758 440.04440216 -28.05256611 428.72946149 C-28.05287165 427.97874509 -28.05317719 427.2280287 -28.05349199 426.45456332 C-28.05473736 423.40710515 -28.05601096 420.359647 -28.05733105 417.31218886 C-28.0695659 388.72694498 -28.05847525 360.14175147 -28.03694346 331.55651536 C-28.0179631 306.1654632 -28.01965805 280.77449129 -28.03878742 255.38343984 C-28.06021108 226.85179662 -28.06869625 198.3201979 -28.05633837 169.78854775 C-28.05505552 166.74635072 -28.05380415 163.70415367 -28.05256611 160.66195661 C-28.0522498 159.91289863 -28.05193349 159.16384065 -28.0516076 158.39208395 C-28.04705963 147.08551058 -28.05237527 135.7789694 -28.06248432 124.47240049 C-28.07392338 111.61423256 -28.07105787 98.75615607 -28.04936135 85.89799953 C-28.03865508 79.33681747 -28.03473903 72.77576469 -28.04795796 66.21458036 C-28.05987563 60.20844611 -28.05332905 54.20262579 -28.03204775 48.19652002 C-28.02757909 46.02368114 -28.02985381 43.85081574 -28.0395509 41.6779939 C-28.0517269 38.72307695 -28.03922674 35.76923308 -28.02066761 32.81437188 C-28.03003228 31.97205507 -28.03939694 31.12973826 -28.04904538 30.2618967 C-27.95329156 22.62658059 -25.55690806 16.24819706 -21.39230305 9.87880117 C-15.28646098 4.03843049 -8.54743535 0.00807917 0 0 Z " fill="#9F9DFE" transform="translate(201.51730304956436,407.87119883298874)"/>
<path d="M0 0 C1.79076925 -0.00679667 1.79076925 -0.00679667 3.61771566 -0.01373065 C6.92365616 -0.02419071 10.22937886 -0.02570224 13.5353204 -0.02334189 C17.10398164 -0.02293328 20.67261058 -0.03397721 24.24125671 -0.04345703 C31.23055766 -0.06005933 38.21982488 -0.06556626 45.2091439 -0.06668179 C50.89255011 -0.06763277 56.57594522 -0.07174559 62.25934792 -0.07808304 C78.3820782 -0.09569453 94.50478187 -0.10492223 110.62752184 -0.10342209 C111.93088283 -0.10330222 111.93088283 -0.10330222 113.26057434 -0.10317993 C114.13054605 -0.10309817 115.00051775 -0.10301641 115.89685223 -0.10293217 C129.98934647 -0.10211963 144.08173373 -0.12124935 158.17419704 -0.14945666 C172.65329662 -0.1782085 187.13234407 -0.19199565 201.6114729 -0.19026911 C209.73670647 -0.18960593 217.86182794 -0.19506645 225.98703575 -0.21662521 C232.90653793 -0.23486746 239.82587721 -0.23915958 246.74539306 -0.22560637 C250.27290071 -0.21909154 253.80009613 -0.21890505 257.32757378 -0.23631287 C261.15960645 -0.2550283 264.9911871 -0.24244995 268.82324219 -0.22705078 C270.479113 -0.24248147 270.479113 -0.24248147 272.16843575 -0.25822389 C282.29965207 -0.16852468 291.10901771 2.22179734 298.5728302 9.33383179 C303.43441921 15.00950764 305.32897706 21.25679871 305.40608215 28.62753296 C305.41891739 29.69932297 305.43175262 30.77111298 305.44497681 31.87538147 C305.45605721 33.60665031 305.45605721 33.60665031 305.46736145 35.37289429 C305.4754332 36.56667191 305.48350494 37.76044952 305.49182129 38.99040222 C305.5056506 41.51803134 305.51637791 44.04567904 305.52424622 46.57333374 C305.54143718 50.42290014 305.58533326 54.2716028 305.62947083 58.12094116 C305.63960014 60.57991924 305.64811549 63.0389046 305.65486145 65.49789429 C305.67236954 66.64195236 305.68987762 67.78601044 305.70791626 68.96473694 C305.68168517 78.7158839 303.19869624 86.29820812 296.34822118 93.40026903 C289.3433152 99.57223016 280.62640284 99.84569003 271.72917175 99.77536011 C270.50528988 99.78160007 269.281408 99.78784003 268.02043879 99.79426908 C264.64908786 99.80739705 261.27863731 99.80276346 257.90734243 99.79032421 C254.2617656 99.78123423 250.61626464 99.79526278 246.97070312 99.8062439 C239.83986435 99.82399073 232.70919438 99.82020664 225.5783491 99.80859333 C219.78201732 99.79954555 213.98573272 99.79834081 208.1893959 99.8026886 C206.95014341 99.803608 206.95014341 99.803608 205.68585552 99.80454597 C204.00733369 99.80582491 202.32881188 99.80712177 200.65029009 99.80843633 C184.9272818 99.81983052 169.20436694 99.80674595 153.48137398 99.78523487 C139.99748974 99.76735829 126.51374322 99.77047484 113.02986145 99.78890991 C97.35853071 99.81032572 81.68728173 99.81873898 66.0159384 99.80646086 C64.3443366 99.8051867 62.67273479 99.80392922 61.00113297 99.8026886 C60.17873957 99.8020715 59.35634617 99.80145439 58.50903177 99.80081859 C52.72028416 99.79736832 46.93158852 99.80318693 41.14284897 99.81260681 C34.08756377 99.82383578 27.03245654 99.82076767 19.97719167 99.79948384 C16.37915805 99.78898642 12.78142095 99.78482904 9.18338966 99.79808044 C5.2804333 99.81223734 1.3779603 99.7953101 -2.52497864 99.77536011 C-4.22488306 99.78874444 -4.22488306 99.78874444 -5.95912898 99.80239916 C-14.15201687 99.72110914 -20.48542159 98.08828764 -26.5209198 92.14242554 C-33.66912126 84.22632632 -34.36571995 75.3843134 -34.26701355 65.10336304 C-34.26846878 63.87131134 -34.26992401 62.63925964 -34.27142334 61.36987305 C-34.26977162 58.7797101 -34.25829259 56.18953658 -34.23747253 53.59945679 C-34.20845491 49.64720822 -34.21689346 45.69629803 -34.22990417 41.74398804 C-34.22366769 39.21793989 -34.21527745 36.69189595 -34.20451355 34.16586304 C-34.20744919 32.99171844 -34.21038483 31.81757385 -34.21340942 30.60784912 C-34.10510086 21.14420061 -32.71998999 14.21649572 -25.7709198 7.26742554 C-17.47674665 1.08106912 -10.17032754 -0.02824903 0 0 Z " fill="#FECD57" transform="translate(544.7709197998047,1030.7325744628906)"/>
<path d="M0 0 C3.6444895 4.55576598 3.41226667 8.74444691 3.35302734 14.31323242 C3.35518753 15.24399597 3.35734772 16.17475952 3.35957336 17.13372803 C3.36265695 19.15148648 3.35906447 21.16926376 3.34955978 23.18700218 C3.33580183 26.3870254 3.34227188 29.58642973 3.35440063 32.78645325 C3.38532884 41.88347431 3.3805385 50.98035168 3.36035156 60.07739258 C3.34939889 65.64652628 3.36270205 71.21519611 3.39024734 76.78426552 C3.39566888 78.90001451 3.39167292 81.01581044 3.37784958 83.13152122 C2.7652651 98.46544172 2.7652651 98.46544172 9 112 C13.51177654 115.77515996 17.34434236 117.11705849 23.12986755 117.13803101 C23.94431335 117.14348434 24.75875916 117.14893768 25.59788513 117.15455627 C26.48267044 117.1555986 27.36745575 117.15664093 28.27905273 117.15771484 C29.21770172 117.16279556 30.15635071 117.16787628 31.1234436 117.17311096 C33.16031908 117.18380472 35.19720624 117.19242879 37.23409843 117.19923019 C40.45772812 117.21102581 43.68122424 117.23047947 46.90480042 117.25234985 C56.06970791 117.31395117 65.23460075 117.36804849 74.3996582 117.40136719 C80.00647161 117.42229899 85.61303981 117.45758752 91.21971321 117.50212479 C93.35631489 117.51629357 95.49295994 117.5250092 97.62960625 117.52817917 C100.61718334 117.53308176 103.60410798 117.55622233 106.59155273 117.58349609 C107.91569435 117.57898689 107.91569435 117.57898689 109.2665863 117.5743866 C113.99665074 117.63858915 117.15705748 117.92930697 121 121 C124.73322967 126.47540351 123.43189068 133.54055066 122.34765625 139.71484375 C115.93125783 169.25087962 97.62962728 194.01494974 72.9609375 211.10546875 C44.98563486 229.04992466 13.10379629 235.66648938 -19.71386719 228.83618164 C-38.98596004 224.41390462 -55.87168208 215.62336828 -71 203 C-72.34384766 201.88625 -72.34384766 201.88625 -73.71484375 200.75 C-96.98109723 180.67434214 -110.57400331 150.32632928 -113 120 C-114.92198548 85.96225707 -104.39314774 55.88011698 -81.7578125 30.484375 C-67.02271297 15.04760406 -21.77342048 -16.71237458 0 0 Z " fill="#8782FD" transform="translate(354,717)"/>
<path d="M0 0 C0.95674212 -0.00638882 1.91348425 -0.01277764 2.89921856 -0.01936007 C6.08990104 -0.03456265 9.27933239 -0.01417949 12.4699707 0.00622559 C14.76356415 0.00272299 17.05715517 -0.00293715 19.35073853 -0.0105896 C25.56977355 -0.02482701 31.78836586 -0.00778571 38.00735855 0.01569557 C44.51922686 0.03581599 51.031077 0.02992439 57.54296875 0.02758789 C68.47802157 0.02764145 79.41289796 0.04726533 90.34790039 0.07946777 C101.58817889 0.11255673 112.82827728 0.12672562 124.06860352 0.1204834 C137.62916508 0.11298965 151.18960209 0.12038313 164.75015259 0.14213562 C169.92380886 0.15030487 175.09742547 0.15302003 180.27108765 0.15144348 C186.36474884 0.15056377 192.45819525 0.16480442 198.55179977 0.19067001 C200.78666518 0.19782483 203.02155344 0.19991875 205.25642776 0.19655228 C208.31001857 0.1928303 211.36298509 0.20761054 214.41650391 0.22705078 C215.73908722 0.21905889 215.73908722 0.21905889 217.0883894 0.21090555 C223.41261261 0.28023803 229.20678496 1.16674976 234.2668457 5.30505371 C234.72188477 5.88384277 235.17692383 6.46263184 235.64575195 7.05895996 C236.11883789 7.6351709 236.59192383 8.21138184 237.0793457 8.80505371 C240.52162122 14.34366311 239.43125613 21.54923281 239.44848633 27.83825684 C239.45818893 29.98253217 239.48923628 32.12584686 239.52075195 34.26989746 C239.52728342 35.64489181 239.53253333 37.01989297 239.53637695 38.39489746 C239.54572266 39.63674805 239.55506836 40.87859863 239.56469727 42.15808105 C238.91193288 48.50062598 235.97265155 52.53768888 231.20825195 56.62145996 C226.52828665 59.15969417 221.92285353 58.9068365 216.73930359 58.8888855 C215.30190999 58.89568217 215.30190999 58.89568217 213.83547813 58.90261614 C210.62204067 58.9152841 207.40877218 58.91363821 204.1953125 58.9119873 C201.89231142 58.91797106 199.58931234 58.92477625 197.28631592 58.93234253 C191.02799927 58.95002545 184.76973729 58.95469889 178.51139808 58.9559741 C173.2877354 58.95787255 168.06408547 58.96522949 162.8404277 58.97231829 C151.220227 58.987678 139.60005296 58.99365543 127.97984292 58.99230759 C127.28282777 58.99222768 126.58581261 58.99214776 125.86767578 58.99206543 C125.1698073 58.99198367 124.47193882 58.99190191 123.75292281 58.99181767 C112.44539991 58.99100493 101.13801026 59.01014009 89.8305259 59.03834216 C78.2137899 59.06708638 66.59712497 59.08051552 54.9803527 59.07915461 C48.4609438 59.07864457 41.94168568 59.08435109 35.42230797 59.10551071 C29.29010568 59.12486995 23.15819839 59.12503312 17.02598572 59.11047745 C14.77659487 59.10838539 12.52718567 59.11311381 10.27782631 59.12519836 C7.20425451 59.14064011 4.1317012 59.13134909 1.05815125 59.11593628 C0.17049173 59.12622341 -0.71716779 59.13651053 -1.63172609 59.14710939 C-7.48137686 59.08239935 -11.89803524 57.90556267 -16.79174805 54.62145996 C-23.20541826 48.04333667 -22.04143191 40.25877909 -22.08691406 31.60510254 C-22.09843022 30.07961753 -22.11887665 28.55417271 -22.1484375 27.02893066 C-22.19133412 24.81340433 -22.20731147 22.59906993 -22.2175293 20.38317871 C-22.23503738 19.71002121 -22.25254547 19.03686371 -22.27058411 18.3433075 C-22.24793369 13.33218525 -21.03035304 9.42637681 -17.79174805 5.62145996 C-12.17055317 0.85492056 -7.20176525 -0.10224377 0 0 Z " fill="#746FFC" transform="translate(244.791748046875,457.3785400390625)"/>
<path d="M0 0 C1.34031971 -0.00761181 1.34031971 -0.00761181 2.70771658 -0.0153774 C3.68532678 -0.01587516 4.66293699 -0.01637292 5.67017174 -0.01688576 C7.23279891 -0.02345914 7.23279891 -0.02345914 8.8269943 -0.03016531 C12.32903305 -0.04355431 15.83104663 -0.04973243 19.33310509 -0.0558567 C21.83960649 -0.06375758 24.34610675 -0.07202652 26.85260582 -0.08063698 C34.38237716 -0.10459437 41.91214725 -0.11978481 49.44194466 -0.13269705 C51.56956609 -0.13641056 53.69718686 -0.14038366 55.82480764 -0.14444971 C69.04415327 -0.16968762 82.26349998 -0.19173524 95.48286438 -0.20417786 C98.54362174 -0.20710743 101.60437906 -0.21006911 104.66513634 -0.21308327 C105.42584861 -0.21382932 106.18656088 -0.21457537 106.97032504 -0.21534403 C119.28858518 -0.22799295 131.60670083 -0.26121113 143.92489345 -0.3028851 C156.57894819 -0.34534352 169.23292903 -0.36887738 181.8870548 -0.37409842 C188.98896827 -0.37750809 196.09065593 -0.38921063 203.19249916 -0.42220116 C209.87546611 -0.45319548 216.55797132 -0.45859669 223.24102211 -0.4468174 C225.69115223 -0.44659659 228.14130055 -0.4549076 230.59136772 -0.47247124 C233.94248919 -0.4951827 237.29218663 -0.48685708 240.64331627 -0.47098732 C241.60754214 -0.48486941 242.57176801 -0.49875149 243.56521285 -0.51305425 C250.44437632 -0.43306451 255.80529389 1.2666415 261.53769493 5.13701439 C265.86517717 9.57225584 267.34659284 13.84378933 267.85019493 19.88701439 C267.7597312 25.28468368 265.7887114 29.75960395 262.07675743 33.67998314 C257.94833723 37.25305748 254.48070877 39.38444716 249.00733376 39.39428329 C247.64426358 39.40395663 247.64426358 39.40395663 246.25365663 39.41382539 C245.25911839 39.41072819 244.26458016 39.40763098 243.2399044 39.40443993 C242.18040762 39.40897104 241.12091083 39.41350215 240.02930808 39.41817057 C236.46728113 39.43086442 232.90540611 39.42919097 229.34335899 39.42754173 C226.79420334 39.43352391 224.2450495 39.44032874 221.69589806 39.44789696 C215.48270078 39.46375704 209.26955945 39.4700068 203.05634382 39.47112171 C198.00501451 39.47207206 192.95369771 39.47618168 187.90237236 39.48252296 C173.57876652 39.50013819 159.25519065 39.50936158 144.9315739 39.50786202 C144.15931845 39.5077821 143.387063 39.50770219 142.59140587 39.50761986 C141.81820652 39.5075381 141.04500717 39.50745634 140.24837753 39.5073721 C127.72185638 39.50655946 115.19545554 39.52569063 102.66896918 39.55389659 C89.80473417 39.58263425 76.94055782 39.59643635 64.07628989 39.59470904 C56.85487969 39.59404536 49.63359556 39.59952746 42.41221428 39.62106514 C35.6193016 39.64119505 28.82669922 39.6405942 22.03375816 39.62603188 C19.54087244 39.62393854 17.04797019 39.62867576 14.55511284 39.64075279 C11.15090135 39.65617633 7.74761151 39.64691503 4.34342003 39.63149071 C3.35780468 39.64177783 2.37218934 39.65206496 1.35670686 39.66266382 C-5.54110823 39.59363953 -11.26601538 38.29258701 -16.30214882 33.32060814 C-16.84548866 32.45629173 -16.84548866 32.45629173 -17.39980507 31.57451439 C-17.78007851 30.99572533 -18.16035194 30.41693626 -18.55214882 29.82060814 C-21.35222839 24.6410618 -21.22166899 18.84309187 -20.46230507 13.13701439 C-17.91149724 7.65586676 -13.73968074 4.00515334 -8.46230507 1.13701439 C-5.58789134 0.24617768 -3.00171438 0.00907704 0 0 Z " fill="#746FFB" transform="translate(207.46230506896973,1060.862985610962)"/>
<path d="M0 0 C27.70615844 14.87515658 46.10312283 38.6161051 55.08984375 68.37890625 C57.10554838 76.3984693 58.96207212 85.77399852 55.375 93.5 C51.72014089 97.34722011 48.11538781 99.12212469 42.82617188 99.38768005 C41.20715472 99.40840669 39.58787597 99.41284207 37.96875 99.40405273 C36.63589966 99.41434761 36.63589966 99.41434761 35.27612305 99.42485046 C32.35058434 99.44309247 29.42558316 99.43928508 26.5 99.43359375 C24.46028469 99.43815639 22.42057092 99.44346221 20.38085938 99.44947815 C16.11061346 99.45840384 11.84055462 99.45599175 7.5703125 99.44604492 C2.10258058 99.43454869 -3.36450615 99.45477975 -8.83215332 99.48396206 C-13.04268482 99.50232063 -17.25306156 99.50203239 -21.46362305 99.49632454 C-23.47942002 99.49617132 -25.49522749 99.50221595 -27.51098633 99.51461601 C-30.33065127 99.52951973 -33.14912204 99.5188539 -35.96875 99.50170898 C-36.79802002 99.51137695 -37.62729004 99.52104492 -38.48168945 99.53100586 C-43.77527873 99.46371973 -46.81189016 98.52665463 -51 95 C-53.59306672 91.11039992 -53.30281854 87.83877255 -53.30639648 83.32519531 C-53.31472 82.43867279 -53.32304352 81.55215027 -53.33161926 80.63876343 C-53.35575506 77.70183951 -53.36449667 74.76513765 -53.37109375 71.828125 C-53.38005886 69.78651868 -53.38918068 67.74491305 -53.39845276 65.70330811 C-53.41495609 61.41937666 -53.42264506 57.13552347 -53.42553711 52.8515625 C-53.43091576 47.36919753 -53.46856893 41.88757119 -53.51428127 36.40541458 C-53.54406752 32.18627254 -53.55126105 27.9673078 -53.55226326 23.74806976 C-53.55646407 21.72749201 -53.56889277 19.70691366 -53.58978081 17.68643951 C-53.6167213 14.85454052 -53.6118613 12.02434572 -53.59936523 9.19238281 C-53.62161667 7.94680099 -53.62161667 7.94680099 -53.64431763 6.67605591 C-53.57128631 0.84628118 -52.03400792 -2.75879249 -48 -7 C-35.37782466 -16.31636751 -12.59627453 -5.92202701 0 0 Z " fill="#7572FB" transform="translate(425,721)"/>
<path d="M0 0 C1.17162941 -0.0236412 1.17162941 -0.0236412 2.3669281 -0.04776001 C3.19725052 -0.03763885 4.02757294 -0.0275177 4.88305664 -0.01708984 C5.74959366 -0.02187347 6.61613068 -0.0266571 7.50892639 -0.03158569 C9.33702413 -0.03497992 11.16518296 -0.02581082 12.99316406 -0.00488281 C15.78141685 0.02185952 18.56563273 -0.0046274 21.35375977 -0.03662109 C23.13436756 -0.03331627 24.91497285 -0.02690854 26.69555664 -0.01708984 C27.52385483 -0.027211 28.35215302 -0.03733215 29.20555115 -0.04776001 C29.98978958 -0.03199921 30.77402802 -0.0162384 31.58203125 0 C32.60531776 0.00596695 32.60531776 0.00596695 33.64927673 0.01205444 C37.38860368 1.08807324 39.82124992 2.34156537 41.85571289 5.64697266 C42.78044187 10.62882944 42.66586422 15.59373642 42.61621094 20.63916016 C42.6227064 22.18842804 42.63176904 23.73768697 42.64320374 25.28692627 C42.66627418 29.48962387 42.65157272 33.69141275 42.62873435 37.89408112 C42.60981292 42.29333278 42.62097753 46.69252365 42.62763977 51.09179688 C42.63397955 58.47947618 42.61571482 65.86679158 42.58300781 73.25439453 C42.5455134 81.79392073 42.54729209 90.33275754 42.57004899 98.87232018 C42.59100182 107.08914078 42.58372193 115.30570675 42.56373024 123.52252197 C42.55574625 127.0184863 42.55773323 130.51423512 42.56775475 134.01019287 C42.57830975 138.12759629 42.56416894 142.24419686 42.53101158 146.36147308 C42.52280701 147.87193367 42.52308539 149.38246786 42.53248978 150.89292145 C42.54392654 152.95652951 42.52453027 155.01764513 42.49736023 157.08105469 C42.49417628 158.23509796 42.49099234 159.38914124 42.48771191 160.57815552 C41.6633058 164.58124971 39.96888566 166.09016705 36.85571289 168.64697266 C34.73156738 169.28189087 34.73156738 169.28189087 32.60375977 169.29394531 C31.79942505 169.30970612 30.99509033 169.32546692 30.16638184 169.34170532 C29.31104858 169.33158417 28.45571533 169.32146301 27.57446289 169.31103516 C26.68335815 169.31581879 25.79225342 169.32060242 24.87414551 169.32553101 C22.99477365 169.32892538 21.11534239 169.31975528 19.23608398 169.29882812 C16.36446091 169.27205422 13.4967461 169.29858977 10.62524414 169.33056641 C8.79580846 169.32726222 6.9663752 169.32085581 5.13696289 169.31103516 C4.28162964 169.32115631 3.42629639 169.33127747 2.54504395 169.34170532 C1.33854187 169.31806412 1.33854187 169.31806412 0.10766602 169.29394531 C-0.5945105 169.28996735 -1.29668701 169.28598938 -2.0201416 169.28189087 C-5.38055859 168.27744464 -6.9185404 166.30157459 -9.14428711 163.64697266 C-9.77349281 160.57815552 -9.77349281 160.57815552 -9.77920532 157.08105469 C-9.79090525 156.11213634 -9.79090525 156.11213634 -9.80284154 155.12364388 C-9.82272991 152.96677134 -9.80701233 150.81166964 -9.79125977 148.65478516 C-9.79803741 147.10551933 -9.80694137 145.55626157 -9.81781006 144.00701904 C-9.840593 139.80443294 -9.83177151 135.60246095 -9.81591463 131.3998642 C-9.80325031 127.00060885 -9.81499722 122.60140586 -9.82284546 118.20214844 C-9.83194049 110.81451991 -9.81995803 103.42714135 -9.79614258 96.03955078 C-9.76893146 87.50003845 -9.77774574 78.961123 -9.80527461 70.42162514 C-9.82796892 63.0881216 -9.83116422 55.75479768 -9.81808126 48.42127037 C-9.81028848 44.04199821 -9.80924027 39.66300655 -9.8257637 35.28375244 C-9.84021404 31.16637501 -9.83017724 27.04976663 -9.80129242 22.93247223 C-9.7946845 21.42200243 -9.79657438 19.91146784 -9.80760574 18.40102386 C-9.82128669 16.33744113 -9.80412171 14.27631692 -9.77920532 12.21289062 C-9.77732019 11.05884735 -9.77543507 9.90480408 -9.77349281 8.71578979 C-8.73464321 3.64902159 -5.31855054 0.03104954 0 0 Z " fill="#746FFC" transform="translate(752.144287109375,541.35302734375)"/>
<path d="M0 0 C1.20650208 -0.02352791 1.20650208 -0.02352791 2.43737793 -0.04753113 C3.29271118 -0.03224869 4.14804443 -0.01696625 5.02929688 -0.0012207 C5.92040161 -0.00458939 6.81150635 -0.00795807 7.72961426 -0.01142883 C9.60902696 -0.01113053 11.48848891 0.0040672 13.36767578 0.03320312 C16.23947057 0.07287956 19.10664488 0.05390677 21.97851562 0.02807617 C23.80796057 0.03563578 25.63739529 0.04658975 27.46679688 0.0612793 C28.32213013 0.0542952 29.17746338 0.0473111 30.05871582 0.04011536 C31.2652179 0.0685981 31.2652179 0.0685981 32.49609375 0.09765625 C33.19827026 0.10465042 33.90044678 0.11164459 34.62390137 0.11885071 C38.22735415 1.20735707 39.54974341 2.70072518 41.74804688 5.76049805 C42.49081711 9.53122045 42.43102222 13.24775983 42.39501953 17.08081055 C42.40378113 18.22443054 42.41254272 19.36805054 42.42156982 20.54632568 C42.44357556 24.32643579 42.42900528 28.10537606 42.41210938 31.88549805 C42.41547713 34.51196518 42.4203294 37.13843079 42.42660522 39.76489258 C42.43569441 45.26941603 42.42373355 50.77360373 42.39990234 56.27807617 C42.37269186 62.63639545 42.38150658 68.99391305 42.40903437 75.35221291 C42.43448284 81.47602572 42.43175838 87.59948391 42.4171257 93.72332764 C42.41378837 96.32607129 42.41789017 98.92883538 42.42952347 101.53155518 C42.44221095 105.16831796 42.42288092 108.8035378 42.39501953 112.44018555 C42.40514069 113.51774109 42.41526184 114.59529663 42.4256897 115.70550537 C42.35781741 120.48342348 42.31776237 122.9675229 39.47335815 126.92658997 C36.81286113 128.71688344 35.63417302 129.39208237 32.49609375 129.42333984 C31.69175903 129.44232834 30.88742432 129.46131683 30.05871582 129.48088074 C29.20338257 129.47389664 28.34804932 129.46691254 27.46679688 129.4597168 C26.13013977 129.47044975 26.13013977 129.47044975 24.76647949 129.48139954 C22.88713581 129.48916533 21.00770169 129.48418808 19.12841797 129.46728516 C16.25640457 129.44805401 13.38922846 129.4874588 10.51757812 129.53198242 C8.68814817 129.53227279 6.85871378 129.52913262 5.02929688 129.5222168 C4.17396362 129.53749924 3.31863037 129.55278168 2.43737793 129.56852722 C1.63304321 129.55284195 0.8287085 129.53715668 0 129.52099609 C-0.70217651 129.51923874 -1.40435303 129.51748138 -2.12780762 129.51567078 C-5.6679283 128.25709287 -7.60871726 126.0227181 -9.25195312 122.76049805 C-9.97262466 119.01235871 -9.93550036 115.33380939 -9.89892578 111.52612305 C-9.90768738 110.40347046 -9.91644897 109.28081787 -9.92547607 108.12414551 C-9.94745327 104.41920133 -9.93292172 100.71545403 -9.91601562 97.01049805 C-9.9193842 94.43269624 -9.92423716 91.85489598 -9.93051147 89.27709961 C-9.93788062 83.87686562 -9.92765363 78.47708009 -9.90380859 73.0769043 C-9.87659907 66.84297872 -9.88541416 60.60987089 -9.91294062 54.37596512 C-9.93840706 48.36694336 -9.93565795 42.3583201 -9.92103195 36.34924316 C-9.91769752 33.79756556 -9.92178626 31.24586708 -9.93342972 28.69421387 C-9.94613446 25.12720533 -9.92676313 21.56176484 -9.89892578 17.99487305 C-9.90904694 16.9411853 -9.91916809 15.88749756 -9.92959595 14.80187988 C-9.86400236 10.26299137 -9.80460623 6.79857857 -6.9772644 3.10588074 C-3.37808594 0.00845442 -3.37808594 0.00845442 0 0 Z " fill="#746FFC" transform="translate(683.251953125,581.239501953125)"/>
<path d="M0 0 C0.86527941 -0.00644889 1.73055881 -0.01289778 2.62205881 -0.0195421 C4.04106221 -0.01489629 4.04106221 -0.01489629 5.48873234 -0.01015663 C6.49725964 -0.01468774 7.50578694 -0.01921886 8.54487568 -0.02388728 C11.93425287 -0.03657745 15.32347033 -0.03490793 18.71286869 -0.03325844 C21.13881481 -0.03924074 23.56475903 -0.04604559 25.99070072 -0.05361366 C31.90209231 -0.06947061 37.81344626 -0.07572329 43.72485476 -0.07683842 C48.5292612 -0.07778867 53.33365448 -0.08189782 58.13805676 -0.08823967 C71.75747204 -0.10585175 85.37685581 -0.11507845 98.99628257 -0.11357872 C99.73049525 -0.11349881 100.46470793 -0.1134189 101.22116947 -0.11333656 C102.32383191 -0.11321392 102.32383191 -0.11321392 103.44877035 -0.1130888 C115.36623403 -0.11227564 127.2835714 -0.13142097 139.20099854 -0.1596133 C151.4358026 -0.18832825 163.67054502 -0.2021544 175.90538365 -0.20042574 C182.7751442 -0.19976142 189.6447723 -0.20527236 196.51450253 -0.22678185 C202.97331982 -0.24687511 209.43192938 -0.24633418 215.89076328 -0.23174858 C218.26396753 -0.22965121 220.63718902 -0.23441623 223.01036358 -0.2464695 C226.24485987 -0.26183604 229.47837917 -0.25267016 232.71285343 -0.23720741 C233.65662497 -0.24749454 234.60039652 -0.25778167 235.5727672 -0.26838052 C239.74223341 -0.22419385 242.04558017 -0.12329046 245.66124916 2.10067368 C249.59300389 6.33385043 250.21143681 9.07955196 250.12131596 14.67523766 C249.37126741 18.91269138 246.97844462 21.62045555 243.66428471 24.25726891 C240.9129116 25.17439327 239.28861408 25.38542795 236.45441055 25.39428329 C235.16040306 25.40189511 235.16040306 25.40189511 233.84025401 25.4096607 C232.89202102 25.41015845 231.94378804 25.41065621 230.96682072 25.41116905 C229.45636975 25.41774243 229.45636975 25.41774243 227.91540462 25.42444861 C224.52529964 25.43785358 221.13522066 25.44401925 217.74509525 25.45014 C215.32092006 25.45803951 212.89674605 25.46630836 210.47257328 25.47492027 C203.18712494 25.49888892 195.90167485 25.5140688 188.61620089 25.52698034 C186.55866075 25.53069259 184.50112129 25.53466578 182.44358182 25.53873301 C169.66718165 25.56396681 156.8907804 25.58602036 144.11436081 25.59846115 C141.15549751 25.60139085 138.19663425 25.60435252 135.23777103 25.60736656 C134.13465381 25.60848564 134.13465381 25.60848564 133.00925139 25.60962732 C121.09238106 25.62228471 109.1756598 25.65551374 97.25885918 25.69716839 C85.02521998 25.73958026 72.79165713 25.76315519 60.5579446 25.76838171 C53.68864865 25.7717964 46.81958581 25.78355824 39.95036221 25.81648445 C33.48990085 25.8474007 27.02973472 25.85290601 20.56920719 25.84110069 C18.19641258 25.84087928 15.82359954 25.84923966 13.45086956 25.86675453 C10.2143191 25.88934798 6.97925639 25.88119571 3.74269962 25.86527061 C2.33038839 25.88609375 2.33038839 25.88609375 0.88954562 25.90733755 C-3.49050415 25.85414295 -6.42130911 25.65154686 -9.90311623 22.8442688 C-13.66030185 18.8486088 -13.73354806 16.1406478 -13.68727779 10.80414391 C-13.11187311 6.63565662 -11.42206067 5.06303743 -8.33571529 2.25726891 C-5.45192836 0.52755045 -3.34754724 0.00632114 0 0 Z " fill="#B8B5FE" transform="translate(236.33571529388428,589.7427310943604)"/>
<path d="M0 0 C0.91471573 -0.00619858 1.82943146 -0.01239716 2.77186584 -0.01878357 C4.70426368 -0.02587983 6.63672268 -0.02271109 8.5690918 -0.01000977 C11.52181907 0.00384368 14.47136913 -0.03020119 17.42382812 -0.06835938 C19.30338619 -0.06931073 21.18294821 -0.06745089 23.0625 -0.0625 C23.94284409 -0.07575821 24.82318817 -0.08901642 25.73020935 -0.10267639 C29.90508487 -0.03945111 32.07800263 0.23137079 35.65429688 2.53710938 C38.30853629 6.67452177 38.30299454 9.84118056 38.2265625 14.6640625 C38.22897446 15.53534286 38.23138641 16.40662323 38.23387146 17.30430603 C38.23289451 19.14082403 38.21953703 20.97737203 38.19458008 22.8137207 C38.16022143 25.62357543 38.17393978 28.43029232 38.19335938 31.24023438 C38.18646192 33.02735712 38.17679043 34.81447177 38.1640625 36.6015625 C38.16902237 37.44018326 38.17398224 38.27880402 38.17909241 39.14283752 C38.06178927 44.95297958 38.06178927 44.95297958 35.68725586 48.09130859 C33.43743505 49.67951018 32.32521017 50.1342335 29.59765625 50.12890625 C28.60765625 50.16177734 28.60765625 50.16177734 27.59765625 50.1953125 C24.41121882 49.19332729 23.39738286 47.32795321 21.59765625 44.56640625 C21.15704843 41.84085149 20.9050127 39.47833785 20.84765625 36.75390625 C20.81800781 36.06103516 20.78835938 35.36816406 20.7578125 34.65429688 C20.68765997 32.95894412 20.64032963 31.26267313 20.59765625 29.56640625 C19.76129135 30.41609482 18.92492645 31.26578339 18.06321716 32.14122009 C10.17860726 40.14746967 2.27819428 48.1378217 -5.63795567 56.1128912 C-9.70721939 60.21346447 -13.77071532 64.31942964 -17.8215332 68.43823242 C-21.73115374 72.41305396 -25.65525844 76.37302981 -29.58982658 80.32315254 C-31.08819405 81.83260461 -32.58127112 83.34732732 -34.0689106 84.86735344 C-36.15399506 86.99600625 -38.25712489 89.10512064 -40.36547852 91.21069336 C-41.28150345 92.15907578 -41.28150345 92.15907578 -42.21603394 93.12661743 C-46.0856881 96.94141139 -48.7334694 98.48837613 -54.40234375 98.56640625 C-56.34375 97.62280273 -56.34375 97.62280273 -57.96484375 96 C-58.63257813 95.35144043 -59.3003125 94.70288086 -59.98828125 94.03466797 C-60.78492188 93.2201416 -61.5815625 92.40561523 -62.40234375 91.56640625 C-63.45523305 90.52698394 -64.51006895 89.48953129 -65.56640625 88.45361328 C-69.2050245 84.8716803 -72.80452589 81.25174173 -76.40234375 77.62890625 C-77.66643225 76.35979252 -78.93075331 75.09091036 -80.1953125 73.82226562 C-83.26701099 70.73964305 -86.33554383 67.65390197 -89.40234375 64.56640625 C-92.69817908 66.00481597 -94.84949952 67.77738371 -97.36689758 70.33082581 C-98.14479645 71.1146463 -98.92269531 71.8984668 -99.72416687 72.70603943 C-100.99052727 73.99732506 -100.99052727 73.99732506 -102.2824707 75.31469727 C-103.6584849 76.70505718 -105.03450321 78.09541303 -106.41067636 79.48561561 C-107.88709095 80.97882214 -109.36107503 82.47439318 -110.83452797 83.97052193 C-113.90861139 87.09078914 -116.99249685 90.2012414 -120.07841492 93.30979919 C-128.851561 102.14976637 -137.61637685 110.997873 -146.36010742 119.86694336 C-151.1910327 124.76695322 -156.03263373 129.65614641 -160.8863408 134.5335936 C-163.95572252 137.61915669 -167.01150797 140.71739337 -170.05794299 143.82560551 C-172.40447857 146.21173099 -174.77068522 148.57803789 -177.1340332 150.94750977 C-177.97220078 151.81039108 -178.81036835 152.6732724 -179.67393494 153.56230164 C-186.11575616 159.96023303 -186.11575616 159.96023303 -190.29801941 160.73008728 C-193.40234375 160.56640625 -193.40234375 160.56640625 -196.33984375 158.56640625 C-198.92493805 154.80626908 -198.95030774 153.06067235 -198.40234375 148.56640625 C-196.2421875 145.7578125 -196.2421875 145.7578125 -193.33984375 143.12890625 C-190.12323379 140.16821313 -187.08921894 137.26623764 -184.25308228 133.93847656 C-180.24916389 129.33144876 -176.00369631 124.99837368 -171.70068359 120.671875 C-170.85913223 119.82214615 -170.01758087 118.9724173 -169.15052795 118.09693909 C-166.39113226 115.31291759 -163.62784792 112.53279021 -160.86328125 109.75390625 C-159.90653686 108.79179305 -158.94979682 107.8296755 -157.99306107 106.86755371 C-154.01632254 102.86925777 -150.03817698 98.87237066 -146.05631065 94.87918091 C-140.36787526 89.17445195 -134.68815668 83.46134385 -129.019997 77.73646641 C-125.02005706 73.6978757 -121.01062399 69.6688688 -116.99396098 65.64691067 C-114.59940013 63.24869691 -112.20920445 60.84648106 -109.82908249 58.43392944 C-107.17932704 55.75274579 -104.51443888 53.08756365 -101.84521484 50.42578125 C-101.06067429 49.62483536 -100.27613373 48.82388947 -99.46781921 47.99867249 C-98.73903061 47.27820236 -98.010242 46.55773224 -97.2593689 45.81542969 C-96.63150167 45.18425232 -96.00363445 44.55307495 -95.35674095 43.902771 C-92.85628148 42.19302342 -91.37422137 42.1989137 -88.40234375 42.56640625 C-86.20556641 44.05834961 -86.20556641 44.05834961 -83.94140625 46.21875 C-83.07290039 47.04101074 -82.20439453 47.86327148 -81.30957031 48.71044922 C-80.33861202 49.66051453 -79.3696362 50.61260888 -78.40234375 51.56640625 C-77.87781616 52.08019836 -77.35328857 52.59399048 -76.81286621 53.12335205 C-72.76859163 57.09314176 -68.76980885 61.10712546 -64.77734375 65.12890625 C-63.57054915 66.34073051 -62.36351936 67.55232059 -61.15625 68.76367188 C-58.23556968 71.69523096 -55.31806628 74.62991646 -52.40234375 77.56640625 C-45.46130942 71.88618834 -39.22560469 65.51638869 -32.90625 59.16796875 C-31.70578088 57.96563157 -30.50508857 56.7635172 -29.30418396 55.56161499 C-26.16367827 52.41731462 -23.02618894 49.27002146 -19.88934326 46.12207031 C-16.68001757 42.90246452 -13.4678137 39.68573304 -10.25585938 36.46875 C-3.96855273 30.1707599 2.31556731 23.8696006 8.59765625 17.56640625 C7.3446875 17.540625 6.09171875 17.51484375 4.80078125 17.48828125 C3.14970502 17.43199456 1.4986647 17.37464735 -0.15234375 17.31640625 C-0.97734375 17.30222656 -1.80234375 17.28804688 -2.65234375 17.2734375 C-8.79403557 17.02578864 -8.79403557 17.02578864 -11.94726562 14.64453125 C-13.52678355 12.38868283 -13.94494116 11.29264041 -13.90234375 8.56640625 C-13.9178125 7.57640625 -13.9178125 7.57640625 -13.93359375 6.56640625 C-12.05587025 -0.50267047 -6.049436 -0.03400441 0 0 Z " fill="#7470FB" transform="translate(756.40234375,461.43359375)"/>
<path d="M0 0 C0.97344447 -0.00367669 1.94688894 -0.00735338 2.94983172 -0.01114148 C6.2324899 -0.02221062 9.51511645 -0.02602762 12.79779053 -0.02983093 C15.14300132 -0.03609312 17.48821111 -0.0427397 19.8334198 -0.04974365 C26.21986074 -0.06717563 32.60629418 -0.0777113 38.99275303 -0.08594918 C42.97987817 -0.09109442 46.96700096 -0.09717035 50.95412445 -0.10346031 C61.99110712 -0.12047375 73.02808878 -0.13496803 84.06508255 -0.14220905 C86.92992402 -0.14411898 89.79476549 -0.14603931 92.65960693 -0.147995 C93.371659 -0.14847874 94.08371106 -0.14896248 94.81734046 -0.14946087 C106.35272604 -0.15776158 117.88800792 -0.18309862 129.42334822 -0.21557567 C141.26371253 -0.24863997 153.10402415 -0.26665726 164.94443488 -0.26985329 C171.59349024 -0.27201904 178.24241165 -0.28121919 184.89142609 -0.30631447 C191.14586327 -0.32953856 197.40002808 -0.3338511 203.65449715 -0.32355309 C205.95149451 -0.32305624 208.24850503 -0.32942008 210.54546165 -0.34310913 C213.67899285 -0.36074054 216.81153734 -0.35376448 219.94506836 -0.34057617 C220.85616371 -0.35154542 221.76725907 -0.36251466 222.70596337 -0.37381631 C228.21256766 -0.31778086 231.3550371 0.47855305 235.72650146 4.14717102 C237.83758695 6.53065464 238.68066539 8.09867075 238.82025146 11.29170227 C238.48522687 16.34219804 237.53085883 19.56659938 233.72650146 23.14717102 C231.00080131 24.05573774 229.41251862 24.27521081 226.61033154 24.28418541 C225.76856025 24.28925995 224.92678896 24.2943345 224.05950946 24.29956281 C223.13462216 24.30006057 222.20973486 24.30055833 221.25682068 24.30107117 C220.27435468 24.30545342 219.29188868 24.30983567 218.27965099 24.31435072 C214.97246317 24.3277543 211.66530201 24.33392106 208.35809326 24.34004211 C205.99303059 24.34794173 203.62796912 24.35621059 201.26290894 24.36482239 C194.15543931 24.38878989 187.04796438 24.40397073 179.9404678 24.41688246 C177.93314194 24.42059479 175.92581677 24.42456798 173.9184916 24.42863512 C161.45349678 24.45386901 148.98850086 24.47592222 136.52348614 24.48836327 C133.63681217 24.49129296 130.75013824 24.49425462 127.86346436 24.49726868 C127.14599656 24.49801473 126.42852877 24.49876078 125.68931953 24.49952944 C114.06344106 24.51218659 102.4377154 24.54541538 90.81190839 24.58707051 C78.87659243 24.62948425 66.94135475 24.65305752 55.00596362 24.65828383 C48.30432858 24.66169831 41.60296907 24.67402416 34.90140343 24.70638657 C28.59848706 24.73638782 22.29598776 24.74280714 15.99301529 24.73100281 C13.67827236 24.73078142 11.36351051 24.73913981 9.04883385 24.75665665 C5.89109438 24.77925508 2.7348792 24.77109568 -0.42286682 24.75517273 C-1.34106195 24.76905482 -2.25925708 24.7829369 -3.20527631 24.79723966 C-7.49521852 24.74385771 -10.3927287 24.50902163 -13.82666302 21.79667091 C-17.14894616 18.19921257 -17.72631122 15.15855877 -17.69927979 10.28388977 C-16.91714969 6.35888827 -14.18564396 3.7499953 -11.27349854 1.14717102 C-7.81344456 -0.58285597 -3.80894016 -0.00076327 0 0 Z " fill="#7571FB" transform="translate(556.2734985351563,758.8528289794922)"/>
<path d="M0 0 C0.7843895 -0.01260864 1.56877899 -0.02521729 2.37693787 -0.03820801 C3.634869 -0.02606262 3.634869 -0.02606262 4.91821289 -0.01367188 C5.78853653 -0.01749878 6.65886017 -0.02132568 7.55555725 -0.02526855 C9.39382078 -0.02798704 11.23212303 -0.02063022 13.0703125 -0.00390625 C15.87791666 0.01747947 18.68295452 -0.0036956 21.49047852 -0.02929688 C23.2788956 -0.02665308 25.0673111 -0.02152703 26.85571289 -0.01367188 C27.69230942 -0.0217688 28.52890594 -0.02986572 29.39085388 -0.03820801 C33.4327625 0.02650347 35.46731157 0.20904032 38.95947266 2.42578125 C42.61845098 6.26441554 42.10142586 9.80506762 42.09863281 14.85107422 C42.10199142 15.71300888 42.10535004 16.57494354 42.10881042 17.46299744 C42.11833658 20.32235135 42.12026442 23.18164681 42.12133789 26.04101562 C42.1245495 28.02397689 42.1279135 30.00693792 42.13142395 31.98989868 C42.13741952 36.15114898 42.13926343 40.3123785 42.13867188 44.47363281 C42.13857027 49.80921004 42.15221887 55.14465414 42.16944408 60.48019981 C42.18055623 64.57738865 42.18259132 68.67454523 42.18206215 72.77174759 C42.18324359 74.73895349 42.18767453 76.70616018 42.19539452 78.67335129 C42.20517778 81.42409362 42.20232284 84.1745461 42.19628906 86.92529297 C42.20190857 87.7399855 42.20752808 88.55467804 42.21331787 89.39405823 C42.17359791 96.51013031 42.17359791 96.51013031 39.95336914 99.51757812 C36.02826088 102.13431697 32.64390613 101.8414937 28.08618164 101.85351562 C26.77857376 101.86350082 26.77857376 101.86350082 25.44454956 101.87368774 C23.60034291 101.88381202 21.75609965 101.88850483 19.91186523 101.88818359 C17.09565539 101.89255132 14.28101984 101.92885693 11.46508789 101.96679688 C9.67212449 101.97266625 7.87915366 101.97663483 6.08618164 101.97851562 C5.24644806 101.99288666 4.40671448 102.00725769 3.54153442 102.02206421 C2.75076508 102.01591095 1.95999573 102.00975769 1.14526367 102.00341797 C0.45481964 102.00626801 -0.23562439 102.00911804 -0.94699097 102.01205444 C-4.26280124 101.23116356 -5.76268389 100.05240655 -8.04663086 97.51757812 C-8.78328129 94.54450161 -8.71974442 91.64013155 -8.67773438 88.58984375 C-8.68488968 87.68860275 -8.69204498 86.78736176 -8.69941711 85.85881042 C-8.71632482 82.87996723 -8.69688937 79.90262461 -8.67553711 76.92382812 C-8.67636562 74.85404333 -8.6788243 72.78425859 -8.68284607 70.71447754 C-8.6857055 66.37667028 -8.67098845 62.03937894 -8.64355469 57.70166016 C-8.60947195 52.13945986 -8.6154889 46.57818226 -8.63421726 41.01593781 C-8.64478235 36.74196677 -8.63585384 32.46821069 -8.62083244 28.19425964 C-8.61564658 26.1433323 -8.61613732 24.09238254 -8.6223774 22.04145813 C-8.62782358 19.17558467 -8.6074735 16.31103514 -8.58007812 13.4453125 C-8.586604 12.5963591 -8.59312988 11.7474057 -8.59985352 10.87272644 C-8.53860653 7.10757606 -8.47813076 5.12968508 -6.26620483 1.99194336 C-3.90441099 0.42310773 -2.79704994 0.01296364 0 0 Z " fill="#746FFB" transform="translate(615.046630859375,608.482421875)"/>
<path d="M0 0 C1.24812019 -0.00679667 1.24812019 -0.00679667 2.52145493 -0.01373065 C5.31970788 -0.0264275 8.11776751 -0.02475088 10.91604614 -0.02310181 C12.91820528 -0.02908376 14.9203621 -0.03588853 16.92251587 -0.04345703 C22.36879352 -0.06115814 27.81500837 -0.06581414 33.26131201 -0.0670886 C37.80417807 -0.06898531 42.34702942 -0.07634022 46.88988984 -0.08343279 C57.60597293 -0.09972997 68.3220224 -0.10460053 79.03811646 -0.10317993 C90.1006861 -0.10197814 101.16306076 -0.12308451 112.22558105 -0.15466726 C121.71609635 -0.18079879 131.20654784 -0.19154854 140.69709885 -0.19026911 C146.36857903 -0.18975856 152.03988599 -0.19549316 157.71133041 -0.21662521 C163.04489628 -0.23595497 168.37812278 -0.23616811 173.71170044 -0.22159195 C175.67047749 -0.21949621 177.62927548 -0.22425007 179.58801651 -0.23631287 C182.25992583 -0.25170327 184.93065593 -0.24249866 187.60253906 -0.22705078 C188.37968195 -0.23733791 189.15682483 -0.24762503 189.9575175 -0.25822389 C194.89951399 -0.19498007 197.46929852 0.72047466 200.92825317 4.26742554 C202.18150393 6.77392705 202.27530504 8.71847471 202.42825317 11.51742554 C202.50044067 12.45070679 202.57262817 13.38398804 202.64700317 14.34555054 C201.55840174 18.77095204 198.72700342 20.89629714 194.92825317 23.26742554 C192.06700386 24.0711174 189.37905947 24.07697768 186.42018127 24.02259827 C185.58947257 24.03125264 184.75876386 24.03990702 183.90288216 24.04882365 C181.13258021 24.07033278 178.36430362 24.04915968 175.59402466 24.02792358 C173.60274295 24.03441981 171.61146822 24.04348299 169.62020874 24.05491638 C164.22138865 24.07797476 158.8232765 24.06329202 153.42447925 24.040447 C147.77249326 24.02151951 142.12055443 24.03269102 136.46855164 24.03935242 C126.97852342 24.0456908 117.48877858 24.02743323 107.99880981 23.99472046 C97.0281107 23.95721613 86.05794813 23.95901012 75.08722061 23.98176163 C64.53071104 24.00271046 53.97439973 23.99543745 43.41789436 23.97544289 C38.92635497 23.9674576 34.4349833 23.96944754 29.94344902 23.97946739 C24.6548374 23.9900182 19.36685115 23.97589221 14.07833862 23.94272423 C12.13773867 23.93451649 10.19708143 23.93480162 8.25648689 23.94420242 C5.60673847 23.95562877 2.9589349 23.93625276 0.30934143 23.90907288 C-0.45826919 23.91954436 -1.2258798 23.93001585 -2.01675135 23.94080466 C-5.92326913 23.8661708 -8.50289663 23.31181796 -11.53306484 20.91482258 C-14.52694187 17.79273748 -14.98239365 16.21456921 -15.38424683 11.95492554 C-15.01401847 7.58623096 -13.81393821 5.63640353 -11.07174683 2.26742554 C-7.30949823 -0.24074019 -4.35675406 -0.01726418 0 0 Z " fill="#B8B5FE" transform="translate(554.0717468261719,849.7325744628906)"/>
<path d="M0 0 C0.64423672 -0.00297112 1.28847344 -0.00594224 1.95223248 -0.0090034 C4.11474402 -0.01768715 6.27720018 -0.01919836 8.43972778 -0.02069092 C9.98868935 -0.02531928 11.53764979 -0.03034397 13.08660889 -0.03573608 C17.29737604 -0.04885936 21.50812724 -0.05530477 25.71891165 -0.05974674 C28.34903904 -0.06267727 30.97916207 -0.06678201 33.60928726 -0.07125092 C41.83670655 -0.08492496 50.06411588 -0.09459237 58.29154575 -0.09845281 C67.79217345 -0.10293506 77.2926574 -0.12049105 86.79324138 -0.1494534 C94.13514816 -0.17105908 101.47701445 -0.18115647 108.81895268 -0.18249393 C113.20491824 -0.18354265 117.59074864 -0.18946489 121.97668076 -0.20731354 C126.10202739 -0.22377525 130.22713698 -0.22595905 134.35250473 -0.21717453 C135.86621739 -0.21640316 137.37994269 -0.22076002 138.89362335 -0.23063278 C140.96110344 -0.24332638 143.02774065 -0.23749053 145.09521484 -0.22705078 C146.25185575 -0.22851734 147.40849667 -0.2299839 148.6001873 -0.2314949 C153.06762092 0.30896858 155.68425892 1.91106407 158.48709106 5.39044189 C160.48299525 10.01253579 160.20849768 13.62770647 158.54959106 18.32794189 C156.28306498 21.72773102 154.23071403 23.14059851 150.67459106 25.14044189 C147.48551941 25.64380646 147.48551941 25.64380646 143.99514771 25.64837646 C143.34905328 25.65461643 142.70295885 25.66085639 142.0372858 25.66728544 C139.88606135 25.68315957 137.73597888 25.67063465 135.58474731 25.65802002 C134.03696027 25.66344368 132.48917839 25.67056771 130.94140625 25.67926025 C126.74714837 25.69746774 122.55328485 25.69043686 118.35902023 25.67774391 C113.96558332 25.66760285 109.57217972 25.67701266 105.17874146 25.68328857 C97.80131989 25.69056176 90.4240586 25.68098593 83.04666138 25.66192627 C74.5225582 25.64015811 65.99883775 25.64720971 57.47474384 25.66923189 C50.15056493 25.68739528 42.8265011 25.68993964 35.50230694 25.67947721 C31.13031938 25.67324743 26.75851159 25.67239242 22.38653564 25.68562317 C18.27581022 25.69719478 14.16557727 25.68913236 10.05490494 25.66604614 C8.54807477 25.660766 7.04120301 25.66226098 5.5343895 25.6710968 C3.47371542 25.68206453 1.41460917 25.66827744 -0.64596558 25.64837646 C-2.37369957 25.64611431 -2.37369957 25.64611431 -4.13633728 25.64380646 C-8.06979171 25.02294817 -10.23002043 23.60500725 -13.32540894 21.14044189 C-16.16377031 16.88289984 -16.20966279 13.13609827 -15.32540894 8.14044189 C-11.52323691 1.45965382 -7.50248957 0.01930758 0 0 Z " fill="#B8B5FE" transform="translate(238.32540893554688,544.8595581054688)"/>
<path d="M0 0 C1.03176865 -0.00852997 2.06353729 -0.01705994 3.12657166 -0.02584839 C4.81607185 -0.02448883 4.81607185 -0.02448883 6.53970337 -0.02310181 C7.7303389 -0.02981903 8.92097443 -0.03653625 10.14768982 -0.04345703 C13.41018825 -0.05919958 16.67253388 -0.06581204 19.93506575 -0.0670886 C21.97474347 -0.06851127 24.0143946 -0.07278305 26.0540657 -0.07808304 C33.17380718 -0.09658068 40.29347382 -0.10475401 47.41323853 -0.10317993 C54.04346917 -0.10197866 60.67337421 -0.12307852 67.30352247 -0.15466726 C73.00132982 -0.18084378 78.69903091 -0.19154666 84.39689791 -0.19026911 C87.79757617 -0.18975987 91.19796501 -0.19542178 94.59858322 -0.21662521 C98.39303416 -0.23620257 102.18664539 -0.23047856 105.98110962 -0.21841431 C107.10339462 -0.22965332 108.22567963 -0.24089233 109.38197327 -0.25247192 C115.51790128 -0.20285389 119.26657867 0.07836922 123.88980103 4.26742554 C126.04144806 7.49489608 126.16225181 8.47248192 126.13980103 12.20492554 C126.1475354 13.48689819 126.1475354 13.48689819 126.15542603 14.79476929 C125.71506594 18.89400359 124.63781081 20.6005661 121.54714966 23.35592651 C116.81112141 26.39999069 111.45626736 25.82438644 106.0128479 25.78500366 C104.82192032 25.79201294 103.63099274 25.79902222 102.40397644 25.8062439 C99.14967898 25.82080047 95.89603568 25.8174341 92.64174843 25.80472755 C89.22926123 25.79456994 85.81681639 25.80400087 82.40432739 25.81027222 C76.67463383 25.81754065 70.94514679 25.80798226 65.21548462 25.78890991 C58.59994884 25.76714246 51.98490622 25.77419442 45.36938238 25.79621553 C39.67999994 25.81439268 33.99076558 25.81691664 28.30136347 25.80646086 C24.90745623 25.80023854 21.51378048 25.79935517 18.11988831 25.81260681 C14.33517114 25.82276558 10.55140081 25.80727843 6.76675415 25.78500366 C5.08803978 25.79714905 5.08803978 25.79714905 3.37541199 25.80953979 C-4.12454849 25.72776811 -7.42725488 24.58207523 -12.98519897 19.57992554 C-14.79861378 15.85235065 -14.86830998 12.31770377 -14.11019897 8.26742554 C-10.96888238 2.37122415 -6.47080152 0.02421726 0 0 Z " fill="#B8B4FE" transform="translate(553.1101989746094,803.7325744628906)"/>
<path d="M0 0 C0.96315125 -0.00571014 1.92630249 -0.01142029 2.91864014 -0.01730347 C3.97892929 -0.01842133 5.03921844 -0.01953918 6.13163757 -0.02069092 C7.24555878 -0.02565582 8.35947998 -0.03062073 9.50715637 -0.03573608 C13.20580149 -0.05038532 16.90440371 -0.05716441 20.60307312 -0.06268311 C23.16656496 -0.0684324 25.73005678 -0.07419016 28.29354858 -0.07995605 C32.98621991 -0.0891284 37.67887401 -0.09542543 42.37155277 -0.09845281 C49.27660079 -0.10293191 56.18145069 -0.12047185 63.08643848 -0.1494534 C69.06758954 -0.17368533 75.04864698 -0.18139767 81.02985191 -0.18312836 C83.57399257 -0.18615929 86.1181323 -0.19420255 88.66224098 -0.20731354 C92.21990142 -0.2243385 95.7770781 -0.22250214 99.33476257 -0.21600342 C100.91608727 -0.22982559 100.91608727 -0.22982559 102.52935791 -0.243927 C111.48385008 -0.19260096 111.48385008 -0.19260096 115.42729187 3.14044189 C118.31746203 7.35308385 118.09492349 12.2285807 117.42729187 17.14044189 C115.63082333 20.07467385 114.48318477 21.61249545 111.42729187 23.14044189 C109.89523551 23.24329286 108.35882049 23.2842259 106.823349 23.29434204 C105.36816864 23.30724274 105.36816864 23.30724274 103.8835907 23.32040405 C102.28148743 23.32679398 102.28148743 23.32679398 100.64701843 23.33331299 C98.96391571 23.34557922 98.96391571 23.34557922 97.24681091 23.35809326 C93.52051839 23.38297716 89.79426403 23.39947089 86.06791687 23.41387939 C84.1622356 23.42186491 84.1622356 23.42186491 82.21805573 23.43001175 C76.87882145 23.45124771 71.53960058 23.47037729 66.20033646 23.48163414 C58.55204195 23.49786568 50.9042561 23.53102171 43.25615335 23.58803499 C37.22801079 23.6314372 31.20009943 23.64738252 25.17179108 23.65376663 C22.60891347 23.66049175 20.04604362 23.67574623 17.48326874 23.69965744 C13.89683231 23.73121056 10.31168173 23.73135969 6.72514343 23.72393799 C5.66517151 23.74034332 4.60519958 23.75674866 3.5131073 23.77365112 C-4.52481788 23.70552053 -4.52481788 23.70552053 -8.21632385 20.79147339 C-11.47947096 17.12029554 -11.96809145 14.08988141 -11.93208313 9.21075439 C-11.29091784 5.51708479 -9.21339201 3.71825235 -6.57270813 1.14044189 C-4.17363838 -0.05909298 -2.67927599 0.00949128 0 0 Z " fill="#7570FB" transform="translate(550.5727081298828,894.8595581054688)"/>
<path d="M0 0 C0.82876144 -0.00807175 1.65752289 -0.01614349 2.51139832 -0.02445984 C4.2674246 -0.03830096 6.02347779 -0.04902299 7.77954102 -0.05688477 C10.45966884 -0.07408526 13.13855903 -0.11796801 15.81835938 -0.16210938 C17.52473051 -0.17223754 19.23111214 -0.18075326 20.9375 -0.1875 C21.73662308 -0.20500809 22.53574615 -0.22251617 23.35908508 -0.24055481 C27.32766551 -0.22515556 29.21749253 -0.04887476 32.65112305 2.13989258 C37.44630124 7.12894433 35.97121147 14.93757028 36.01806641 21.49536133 C36.03461699 23.19374299 36.0618956 24.89205526 36.10009766 26.59008789 C36.15496533 29.04219588 36.17675388 31.49267272 36.19140625 33.9453125 C36.21407562 34.70068802 36.236745 35.45606354 36.26010132 36.23432922 C36.24395713 40.27833496 35.8481517 42.01708119 33.26025391 45.1940918 C29.06521029 48.50216301 25.94989921 48.41251482 20.7734375 48.44140625 C19.98906815 48.44710632 19.20469879 48.4528064 18.39656067 48.4586792 C16.73468374 48.46813265 15.07278803 48.47466455 13.41088867 48.47851562 C10.87580337 48.48820354 8.34153496 48.51921529 5.80664062 48.55078125 C4.19141106 48.55731322 2.5761757 48.56256293 0.9609375 48.56640625 C0.20556198 48.57875305 -0.54981354 48.59109985 -1.32807922 48.6038208 C-5.85521416 48.58478997 -8.8077601 48.1497219 -12.33203125 45.23828125 C-16.80222881 39.67562714 -15.85340491 32.86411673 -15.83300781 26.09155273 C-15.83203535 23.81040225 -15.87368876 21.53261859 -15.91796875 19.25195312 C-15.92317663 17.79037154 -15.92586393 16.32877836 -15.92578125 14.8671875 C-15.93287109 13.5479126 -15.93996094 12.2286377 -15.94726562 10.86938477 C-15.14870091 6.15626847 -13.67764845 4.58105783 -10.33203125 1.23828125 C-7.09893283 -0.37826796 -3.55407768 0.0326054 0 0 Z " fill="#847EFD" transform="translate(553.33203125,662.76171875)"/>
<path d="M0 0 C0.78069351 -0.0065712 1.56138702 -0.0131424 2.36573792 -0.01991272 C4.95574027 -0.03966252 7.54568457 -0.05131288 10.13574219 -0.0612793 C11.46221394 -0.06739259 11.46221394 -0.06739259 12.81548309 -0.07362938 C17.49726631 -0.09449868 22.17902015 -0.10879588 26.86083984 -0.11816406 C31.69416379 -0.12922198 36.52702651 -0.16361215 41.36018753 -0.20333576 C45.07829639 -0.22949886 48.7962954 -0.23785569 52.51448822 -0.24144554 C54.29585632 -0.24631339 56.07721946 -0.25793308 57.85849762 -0.27648354 C60.35525365 -0.30086582 62.85081729 -0.29991182 65.34765625 -0.29296875 C66.08035233 -0.30577881 66.8130484 -0.31858887 67.56794739 -0.33178711 C72.64802542 -0.28043332 75.51177546 0.9967982 79.43261719 4.17700195 C82.35001683 8.36760201 82.08480503 13.26968609 81.43261719 18.17700195 C79.31636101 21.80486969 77.32261281 23.696354 73.43261719 25.17700195 C70.79931431 25.37730605 68.27139124 25.47078265 65.63818359 25.4675293 C64.46670525 25.47760513 64.46670525 25.47760513 63.27156067 25.48788452 C60.69236877 25.5068665 58.11343707 25.5107888 55.53417969 25.51293945 C53.7382293 25.51936728 51.94227997 25.52609563 50.14633179 25.53311157 C46.38203504 25.54508485 42.61783007 25.54879235 38.85351562 25.54760742 C34.03590801 25.54740424 29.21889034 25.57470549 24.4014225 25.60915184 C20.69187734 25.63141698 16.98247424 25.63544508 13.27286911 25.63438797 C11.49709414 25.63674454 9.72131528 25.64557127 7.94560623 25.6610527 C5.45860026 25.68070516 2.97286743 25.67487825 0.48583984 25.6628418 C-0.24371414 25.67408081 -0.97326813 25.68531982 -1.72492981 25.69689941 C-6.79719374 25.63469145 -9.6720167 24.38214186 -13.56738281 21.17700195 C-16.40326445 16.9231795 -16.4585066 13.16880555 -15.56738281 8.17700195 C-11.54495734 1.30433021 -7.65139123 0.02777274 0 0 Z " fill="#B8B5FE" transform="translate(238.5673828125,634.822998046875)"/>
</svg>
