<?xml version="1.0" encoding="UTF-8"?>
<svg version="1.1" xmlns="http://www.w3.org/2000/svg" width="1024" height="1536">
<path d="M0 0 C337.92 0 675.84 0 1024 0 C1024 506.88 1024 1013.76 1024 1536 C686.08 1536 348.16 1536 0 1536 C0 1029.12 0 522.24 0 0 Z " fill="#EBE6FE" transform="translate(0,0)"/>
<path d="M0 0 C1.75057393 -0.0038975 3.50114469 -0.00954154 5.25170803 -0.0167709 C10.03999943 -0.03147896 14.8279604 -0.02137199 19.61624098 -0.00703418 C24.78878334 0.0040982 29.96128022 -0.00787449 35.13381958 -0.01687622 C45.25807714 -0.03079524 55.3822098 -0.02326234 65.50646138 -0.00820064 C77.30112858 0.00867685 89.09576481 0.00544699 100.89044034 0.00170528 C121.93780901 -0.00417085 142.98511781 0.00998862 164.0324707 0.03465271 C184.44720707 0.05857273 204.86186346 0.06565663 225.27661133 0.05516052 C247.51674278 0.04374636 269.75683726 0.04182743 291.99696827 0.05625862 C294.36932691 0.05778443 296.74168555 0.05930478 299.11404419 0.06081963 C300.28123424 0.06157744 301.4484243 0.06233525 302.65098375 0.06311603 C310.86888042 0.067855 319.08676056 0.06601016 327.30465698 0.06175423 C337.3220231 0.0568231 347.33931367 0.0628319 357.35666251 0.08264852 C362.46586025 0.0925073 367.57494305 0.09764087 372.68414688 0.08975601 C377.36470726 0.08268055 382.04503609 0.08954743 386.72556603 0.10735964 C388.41518856 0.11139205 390.10483231 0.11042462 391.79444683 0.10384078 C408.7006353 0.04362147 422.64951657 3.02179547 435.26391602 14.98167419 C448.45183521 28.88070668 451.98432597 43.30784605 451.8815918 62.01707458 C451.88102673 63.46665947 451.88134611 64.91624492 451.88247681 66.36582947 C451.88304758 70.27637977 451.87133817 74.18680587 451.85732889 78.09732747 C451.84477535 82.19324558 451.8436474 86.28916694 451.84127808 90.38510132 C451.83507684 98.13030092 451.81868449 105.87544365 451.7985791 113.62061828 C451.77617774 122.44290022 451.76521603 131.26518497 451.75518823 140.08748829 C451.73431699 158.22542618 451.69916754 176.36331123 451.65454102 194.50120544 C452.65214447 194.49751827 453.64974792 194.4938311 454.67758179 194.4900322 C478.95654288 194.4012161 503.23548289 194.33549393 527.51457214 194.29395676 C539.25578588 194.27333555 550.99689227 194.24522323 562.73803711 194.19944763 C572.97216107 194.15956654 583.20620729 194.13376942 593.4404068 194.12485147 C598.85886765 194.11963892 604.27710607 194.10739643 609.69549561 194.07828522 C614.79754579 194.05109618 619.89928233 194.04276758 625.00139809 194.04877472 C626.8718467 194.04767605 628.74230601 194.03974304 630.61269188 194.02438354 C633.17202692 194.0044008 635.73018698 194.00929604 638.28955078 194.02018738 C639.02498297 194.00853601 639.76041515 193.99688465 640.51813316 193.98488021 C645.94495387 194.04705058 650.10355866 195.52924534 654.65454102 198.50120544 C660.08592852 204.21845545 661.11236079 208.780703 660.97094727 216.52073669 C660.39004518 221.99269088 658.20602376 225.06608391 654.15454102 228.81370544 C649.20656064 232.1535922 645.66060064 232.78775684 639.69464111 232.74171448 C638.8867636 232.74342333 638.07888608 232.74513218 637.24652743 232.74689281 C634.53641341 232.75019003 631.82654634 232.73918019 629.11645508 232.72825623 C627.17500311 232.72769216 625.23355072 232.72800858 623.292099 232.72914124 C618.01767344 232.72971594 612.74333852 232.71794258 607.46893406 232.70399332 C601.95827759 232.69150556 596.44761912 232.690317 590.93695068 232.6879425 C580.49997825 232.68172199 570.06304763 232.66530342 559.62609363 232.64524353 C547.74473337 232.62290232 535.86337113 232.61189557 523.98199511 232.60185266 C499.53948188 232.5809377 475.09702598 232.54425431 450.65454102 232.50120544 C450.65454102 250.32120544 450.65454102 268.14120544 450.65454102 286.50120544 C458.35797852 286.46640076 466.06141602 286.43159607 473.99829102 286.39573669 C478.88371528 286.38040491 483.76910981 286.36596277 488.65454102 286.35472107 C496.40590591 286.33680005 504.1571643 286.31561765 511.90844727 286.27488708 C518.15893215 286.24224895 524.4093028 286.22434288 530.65986633 286.21657372 C533.04244281 286.21103825 535.42501316 286.20022886 537.80754089 286.18401527 C541.14925564 286.16218229 544.49050059 286.15924104 547.83227539 286.16062927 C548.81339294 286.14984344 549.7945105 286.13905762 550.80535889 286.12794495 C557.57390407 286.15829467 563.46906098 286.89843517 568.89672852 291.33323669 C573.35059383 296.73541304 575.98656742 300.79702612 575.52954102 308.00120544 C574.68235894 313.80488956 571.94700768 317.51123455 567.59204102 321.31370544 C563.94194664 324.03186083 561.54026152 324.62650273 557.11775208 324.62145996 C556.18807114 324.62283463 555.2583902 324.62420929 554.30053711 324.62562561 C553.2827417 324.62203033 552.26494629 324.61843506 551.21630859 324.61473083 C549.60631233 324.61494987 549.60631233 324.61494987 547.96379089 324.61517334 C544.40886427 324.61447554 540.85398976 324.60668931 537.29907227 324.59886169 C534.83713306 324.59699704 532.37519349 324.59557336 529.91325378 324.59457397 C523.42773416 324.59075251 516.94223687 324.58092535 510.45672607 324.56987 C502.67823003 324.55785127 494.8997261 324.55325187 487.12122345 324.54741669 C475.29898043 324.53771343 463.47678643 324.51855425 451.65454102 324.50120544 C451.65454102 350.24120544 451.65454102 375.98120544 451.65454102 402.50120544 C462.54454102 400.52120544 462.54454102 400.52120544 473.65454102 398.50120544 C478.55948329 398.16051487 483.15381595 397.91911416 488.02954102 398.00120544 C489.24577148 398.0140155 490.46200195 398.02682556 491.71508789 398.0400238 C531.19433579 398.90755814 566.3916317 414.22997715 594.65454102 441.50120544 C595.37125977 442.16636169 596.08797852 442.83151794 596.82641602 443.51683044 C622.4132278 467.87547527 636.70679698 504.23444251 637.87329102 539.13011169 C638.64021614 574.82961149 628.50034971 608.99173812 606.65454102 637.50120544 C608.04542676 640.63959442 609.66220346 642.75172125 612.09506226 645.16204834 C612.80723404 645.87263397 613.51940582 646.5832196 614.25315857 647.31533813 C615.03449661 648.08477249 615.81583466 648.85420685 616.62084961 649.6469574 C617.44376999 650.46535095 618.26669037 651.28374451 619.11454773 652.12693787 C620.9026581 653.90408697 622.69303537 655.6789574 624.48539352 657.45182228 C627.32292327 660.25921965 630.15396014 663.0730639 632.9828186 665.88919067 C640.01197655 672.88429669 647.05035356 679.87010705 654.09368896 686.85093689 C659.56538096 692.27409308 665.03379987 697.70045181 670.49172652 703.13746613 C672.84051324 705.47664845 675.19313608 707.81176455 677.55109787 710.14170265 C680.1840631 712.74343116 682.80765602 715.35428452 685.42944336 717.9672699 C686.20673294 718.73063156 686.98402252 719.49399323 687.78486633 720.28048706 C692.49255478 724.99626642 696.90610806 729.54441653 698.18579102 736.30979919 C698.11175379 742.5381809 697.38917289 747.38874821 693.65454102 752.50120544 C687.67088732 758.18567646 682.86824169 758.97318577 674.76782227 758.80198669 C670.57359858 758.39677311 668.77381036 757.3432064 665.65454102 754.50120544 C665.05384796 753.97962357 664.45315491 753.45804169 663.83425903 752.9206543 C654.6112494 744.82133393 646.05817404 736.0297048 637.39672852 727.34104919 C635.64004088 725.58249351 633.88313012 723.82416068 632.12600708 722.06604004 C627.5306132 717.46685145 622.93823196 712.86466634 618.34649658 708.26182556 C613.64892963 703.55397858 608.94848569 698.84900698 604.24829102 694.14378357 C595.04757467 684.93238371 585.84994391 675.71790938 576.65454102 666.50120544 C574.75146497 667.60410949 572.84929846 668.70858303 570.94750977 669.81370544 C569.88814209 670.42858826 568.82877441 671.04347107 567.73730469 671.67698669 C565.10789322 673.23293526 562.53211768 674.84251734 559.96704102 676.50120544 C530.3216834 694.08267936 489.71942214 698.68448094 456.33813477 690.75901794 C454.77422699 690.34997098 453.21293806 689.93076989 451.65454102 689.50120544 C450.87481934 689.2868988 450.09509766 689.07259216 449.29174805 688.85179138 C430.66212888 683.53788299 405.89117052 673.38337217 393.45059741 658.01380694 C389.5890945 653.75363028 386.2229535 653.0369663 380.55133629 652.75847435 C377.57921161 652.70916403 374.61095297 652.73606364 371.63876343 652.76863098 C369.98380928 652.76474663 368.32885959 652.75821702 366.67392504 652.7492739 C362.13111049 652.73229823 357.58910926 652.75258765 353.04636741 652.77890491 C348.14501868 652.80071682 343.24374878 652.78782591 338.34237671 652.7789917 C329.84916426 652.76826085 321.35619761 652.7790075 312.86301804 652.80389023 C300.56918669 652.83952458 288.27556957 652.83827694 275.98170145 652.8272924 C256.01698421 652.8100838 236.05235403 652.81668605 216.08764648 652.84104919 C214.2953586 652.84322665 214.2953586 652.84322665 212.46686287 652.84544809 C207.62592981 652.85136096 202.7849968 652.85731403 197.94406386 652.86332419 C184.63059958 652.87961415 171.3171329 652.89118707 158.00366211 652.90061951 C156.81207919 652.90147046 155.62049628 652.90232142 154.39280479 652.90319817 C134.50994378 652.9168248 114.62710844 652.91453485 94.74424708 652.90257037 C82.48529687 652.89609452 70.2265327 652.9049254 57.96761341 652.93365492 C49.56279668 652.9525778 41.15804635 652.95765852 32.75321047 652.95196198 C27.90702027 652.94922504 23.06106811 652.95309888 18.21492004 652.97465324 C13.77214858 652.99433072 9.32976298 652.99539427 4.88697131 652.98214515 C3.28600902 652.9806239 1.6850222 652.98579747 0.08411054 652.99862032 C-16.65497966 653.1252121 -31.90370557 649.2867445 -44.15795898 637.25120544 C-58.51244157 622.0992516 -59.93929023 606.6550291 -59.85339355 586.6893158 C-59.85800579 584.35699528 -59.86436086 582.02467768 -59.87230253 579.69236612 C-59.88897445 573.30067699 -59.88075898 566.90922727 -59.86835766 560.51753736 C-59.85827137 554.32684672 -59.87090208 548.13617964 -59.88094712 541.94549571 C-59.90198228 528.50667351 -59.90019563 515.0679275 -59.88863147 501.6290981 C-59.8785613 489.86842622 -59.87594614 478.10778224 -59.88072205 466.34710693 C-59.88118036 465.1760276 -59.88118036 465.1760276 -59.88164793 463.98129009 C-59.88289332 460.81193551 -59.88416693 457.64258094 -59.88548698 454.47322639 C-59.89771749 424.75438511 -59.88663786 395.03559229 -59.86509939 365.31675849 C-59.84611758 338.92492709 -59.84781611 312.53317289 -59.86694336 286.14134216 C-59.88837118 256.47616374 -59.89685004 226.81102812 -59.8844943 197.14584303 C-59.88321147 193.98233001 -59.88196011 190.81881699 -59.88072205 187.65530396 C-59.88040574 186.87639101 -59.88008943 186.09747807 -59.87976353 185.29496171 C-59.87521748 173.54292251 -59.88052759 161.7909143 -59.89064026 150.03887939 C-59.90208393 136.67359715 -59.89920385 123.30840287 -59.87751728 109.94313157 C-59.86681764 103.12445924 -59.86288413 96.30595302 -59.87611389 89.48727989 C-59.88804461 83.24369422 -59.8814634 77.00041021 -59.86020368 70.75685185 C-59.85574059 68.49994905 -59.85799724 66.24302068 -59.86770684 63.98613435 C-59.95364316 42.34912601 -59.95364316 42.34912601 -55.34545898 32.50120544 C-54.82725586 31.36425232 -54.30905273 30.22729919 -53.77514648 29.05589294 C-45.98157415 15.62275067 -35.33002033 6.50558689 -20.68006706 1.3328265 C-13.89914772 -0.35827337 -6.94384972 -0.04292437 0 0 Z " fill="#948CFE" transform="translate(193.345458984375,319.49879455566406)"/>
<path d="M0 0 C1.23322998 0.00491455 2.46645996 0.0098291 3.73706055 0.01489258 C12.59852025 0.12889829 20.64874091 0.80050444 29.1875 3.3125 C30.40824219 3.6528125 31.62898437 3.993125 32.88671875 4.34375 C47.28183205 8.72294171 59.54304468 15.80202134 71.1875 25.3125 C71.98800781 25.95960938 72.78851562 26.60671875 73.61328125 27.2734375 C93.7566096 44.3204684 107.87699236 70.95827224 110.1875 97.3125 C112.00481265 126.7681092 104.24141662 157.05662801 84.61328125 179.66796875 C83.81277344 180.54066406 83.01226563 181.41335938 82.1875 182.3125 C81.75099121 182.7967041 81.31448242 183.2809082 80.86474609 183.77978516 C64.43263677 201.83481886 40.7209912 214.88170465 16.1875 217.3125 C11.79080083 217.47476179 7.39936944 217.49758674 3 217.5 C1.84435547 217.51224609 0.68871094 217.52449219 -0.50195312 217.53710938 C-8.14354286 217.54998123 -15.3274217 216.83750762 -22.8125 215.3125 C-24.09640625 215.05210937 -25.3803125 214.79171875 -26.703125 214.5234375 C-36.51913587 212.08084875 -45.01050317 208.23013736 -53.8125 203.3125 C-54.8128125 202.755625 -55.813125 202.19875 -56.84375 201.625 C-78.72270984 188.54792056 -93.58332213 167.59919948 -102.8125 144.3125 C-103.15152344 143.46945312 -103.49054687 142.62640625 -103.83984375 141.7578125 C-111.00124775 122.30444642 -110.7937014 95.745418 -103.8125 76.3125 C-103.45027344 75.20777344 -103.08804688 74.10304688 -102.71484375 72.96484375 C-92.85323121 44.91774912 -71.22735968 22.56610365 -44.92578125 9.31005859 C-41.37449698 7.63370144 -37.75563309 6.20626507 -34.0625 4.875 C-33.41442383 4.64006836 -32.76634766 4.40513672 -32.09863281 4.16308594 C-21.62584075 0.637333 -10.97873551 -0.05190358 0 0 Z " fill="#FAD14E" transform="translate(681.8125,756.6875)"/>
<path d="M0 0 C4.72515436 3.88542104 9.16852635 8.044115 13.56884766 12.29003906 C14.28556641 12.95519531 15.00228516 13.62035156 15.74072266 14.30566406 C41.32753444 38.66430888 55.62110362 75.02327613 56.78759766 109.91894531 C57.55452279 145.61844511 47.41465635 179.78057174 25.56884766 208.29003906 C26.9597334 211.42842804 28.5765101 213.54055487 31.0093689 215.95088196 C31.72154068 216.66146759 32.43371246 217.37205322 33.16746521 218.10417175 C34.33947227 219.25832329 34.33947227 219.25832329 35.53515625 220.43579102 C36.76953682 221.66338135 36.76953682 221.66338135 38.02885437 222.91577148 C39.81696474 224.69292059 41.60734201 226.46779102 43.39970016 228.2406559 C46.23722991 231.04805327 49.06826678 233.86189752 51.89712524 236.67802429 C58.92628319 243.67313031 65.9646602 250.65894067 73.00799561 257.63977051 C78.4796876 263.0629267 83.94810651 268.48928542 89.40603316 273.92629975 C91.75481988 276.26548206 94.10744272 278.60059817 96.46540451 280.93053627 C99.09836974 283.53226478 101.72196266 286.14311814 104.34375 288.75610352 C105.12103958 289.51946518 105.89832916 290.28282684 106.69917297 291.06932068 C111.40686142 295.78510004 115.8204147 300.33325015 117.10009766 307.09863281 C117.02606043 313.32701452 116.30347953 318.17758183 112.56884766 323.29003906 C106.58519396 328.97451008 101.78254834 329.76201939 93.68212891 329.59082031 C89.48790522 329.18560673 87.688117 328.13204002 84.56884766 325.29003906 C83.66780807 324.50766624 83.66780807 324.50766624 82.74856567 323.70948792 C73.52555605 315.61016755 64.97248068 306.81853842 56.31103516 298.12988281 C54.55434752 296.37132713 52.79743676 294.61299429 51.04031372 292.85487366 C46.44491984 288.25568507 41.8525386 283.65349996 37.26080322 279.05065918 C32.56323627 274.3428122 27.86279233 269.6378406 23.16259766 264.93261719 C13.96188131 255.72121733 4.76425055 246.506743 -4.43115234 237.29003906 C-6.33422839 238.39294311 -8.2363949 239.49741665 -10.13818359 240.60253906 C-11.72723511 241.52486328 -11.72723511 241.52486328 -13.34838867 242.46582031 C-15.97780014 244.02176887 -18.55357567 245.63135096 -21.11865234 247.29003906 C-50.76400996 264.87151298 -91.36627122 269.47331456 -124.74755859 261.54785156 C-126.31146637 261.13880459 -127.8727553 260.71960351 -129.43115234 260.29003906 C-130.60073486 259.9685791 -130.60073486 259.9685791 -131.79394531 259.640625 C-156.67938796 252.54230692 -177.58478776 238.79252026 -196.43115234 221.29003906 C-197.03572266 220.73960937 -197.64029297 220.18917969 -198.26318359 219.62207031 C-224.18063671 195.03994265 -238.63896901 156.9895484 -239.65771484 121.89941406 C-240.42399765 78.5676542 -224.4507287 41.3846274 -194.55615234 10.10253906 C-142.38976936 -40.17070905 -56.99114533 -45.17612326 0 0 Z M-161.43115234 33.29003906 C-162.25099609 33.97710938 -163.07083984 34.66417969 -163.91552734 35.37207031 C-183.32835402 52.10206845 -196.17141817 75.01249562 -200.43115234 100.29003906 C-200.80187254 105.2996263 -200.80769482 110.26910882 -200.74365234 115.29003906 C-200.746875 116.55332031 -200.75009766 117.81660156 -200.75341797 119.11816406 C-200.68781908 130.71127764 -199.54811414 141.73450869 -195.36865234 152.60253906 C-195.06411133 153.40449707 -194.75957031 154.20645508 -194.44580078 155.03271484 C-189.00075041 168.88612691 -181.54368999 180.42097981 -171.43115234 191.29003906 C-170.61775391 192.18464844 -169.80435547 193.07925781 -168.96630859 194.00097656 C-155.89707837 207.76920937 -138.61197745 217.13835099 -120.43115234 222.29003906 C-119.70541016 222.50273438 -118.97966797 222.71542969 -118.23193359 222.93457031 C-90.6322962 230.47160292 -60.06270115 225.06390717 -35.50927734 211.18457031 C-9.6527156 195.27031594 7.67609145 170.66432185 15.06494141 141.31982422 C21.41317178 114.32017085 17.13746982 86.41964891 3.47900391 62.34472656 C0.17081479 57.05433006 -3.50210193 52.13297726 -7.43115234 47.29003906 C-8.11822266 46.43667969 -8.80529297 45.58332031 -9.51318359 44.70410156 C-26.45347799 24.778041 -52.41946431 11.00339468 -78.43115234 8.29003906 C-109.97071743 6.95630901 -137.14157888 12.17741312 -161.43115234 33.29003906 Z " fill="#6559FB" transform="translate(774.43115234375,748.7099609375)"/>
<path d="M0 0 C1.25356961 -0.00644889 2.50713923 -0.01289778 3.7986958 -0.0195421 C5.19237511 -0.01659972 6.58605402 -0.01346427 7.97973251 -0.01015663 C9.45828889 -0.01389213 10.93684329 -0.01849326 12.41539454 -0.02388728 C16.48409981 -0.0361453 20.55272303 -0.03585352 24.62144256 -0.03349853 C29.00740059 -0.03309106 33.39333208 -0.04412284 37.7792778 -0.05361366 C46.37475011 -0.07024045 54.97019499 -0.07572398 63.56568202 -0.07683842 C70.55207879 -0.07778819 77.53846649 -0.08189491 84.52486038 -0.08823967 C104.32687978 -0.10585737 124.12887748 -0.11507782 143.93090478 -0.11357872 C144.99887279 -0.11349881 146.0668408 -0.1134189 147.16717148 -0.11333656 C148.7710768 -0.11321392 148.7710768 -0.11321392 150.40738425 -0.1130888 C167.73528695 -0.11227596 185.06310272 -0.13141188 202.39098027 -0.1596133 C220.17754693 -0.18833307 237.96407118 -0.20215406 255.75066161 -0.20042574 C265.73867954 -0.19976148 275.72660636 -0.20526941 285.71460342 -0.22678185 C294.21928139 -0.2449818 302.72382696 -0.24935081 311.22851595 -0.235763 C315.56774851 -0.22922709 319.90672696 -0.22913848 324.24593544 -0.2464695 C328.21982502 -0.26217811 332.19325857 -0.25935946 336.16713688 -0.24190123 C337.60322216 -0.23882641 339.03934128 -0.24248195 340.47538665 -0.25362138 C349.39311131 -0.31820386 356.04752909 -0.04507525 362.98211288 6.07367516 C363.43715195 6.64988609 363.89219101 7.22609703 364.36101913 7.81976891 C364.83410507 8.39855797 365.30719101 8.97734703 365.79461288 9.57367516 C367.73717499 12.47071415 368.05522814 15.04717965 368.10052109 18.43402672 C368.11335632 19.27209862 368.12619156 20.11017052 368.13941574 20.97363853 C368.15049614 22.32833244 368.15049614 22.32833244 368.16180038 23.71039391 C368.16987213 24.64397728 368.17794388 25.57756065 368.18626022 26.53943443 C368.20009146 28.51648672 368.21081791 30.49356279 368.21868515 32.47064781 C368.235875 35.48201818 368.279767 38.49228391 368.32390976 41.50336266 C368.33403919 43.42653169 368.34255451 45.34971003 368.34930038 47.27289391 C368.36680847 48.16792625 368.38431656 49.0629586 368.40235519 49.98511314 C368.37995401 56.49880573 367.14370181 60.84175601 362.54676437 65.71753502 C357.45973651 70.30880705 352.33105 71.5057819 345.63217735 71.51453781 C344.38159243 71.5209867 343.13100751 71.5274356 341.84252608 71.53407991 C340.46259179 71.53113792 339.08265791 71.5280025 337.70272446 71.52469444 C336.23069157 71.52843214 334.75866066 71.53303414 333.2866329 71.53842509 C329.24524925 71.55065557 325.20394838 71.55039457 321.16255045 71.54803634 C316.80253099 71.54762819 312.44253807 71.55866708 308.08253098 71.56815147 C299.54214401 71.58476226 291.00178465 71.59026104 282.46138288 71.59137623 C275.51984706 71.59232658 268.57832035 71.59643623 261.63678741 71.60277748 C241.95725935 71.62038941 222.27775309 71.62961632 202.59821709 71.62811653 C201.53735387 71.62803662 200.47649066 71.62795671 199.38348007 71.62787437 C198.32132209 71.62779261 197.25916411 71.62771085 196.16481952 71.62762661 C178.9469747 71.62681353 161.72921732 71.64595703 144.51139779 71.67415111 C126.83324898 71.70287065 109.15514282 71.71669194 91.47697008 71.71496356 C81.55157998 71.71429938 71.62628157 71.71980403 61.70091248 71.74131966 C53.25117943 71.75951912 44.80157965 71.76388888 36.3518355 71.75030081 C32.04094217 71.74376517 27.7303046 71.74367542 23.4194355 71.76100731 C19.47153063 71.77671666 15.52408476 71.77389655 11.57619123 71.75643905 C10.14958692 71.75336443 8.72294854 71.75701898 7.29638441 71.7681592 C-1.6052675 71.83305826 -8.08330135 71.47930101 -15.09991837 65.54633141 C-15.54593399 64.99719078 -15.99194962 64.44805016 -16.45148087 63.88226891 C-17.14370743 63.06629234 -17.14370743 63.06629234 -17.84991837 62.23383141 C-21.16972282 56.88408283 -21.40654726 51.51888282 -21.44757462 45.42133141 C-21.45660309 44.58314873 -21.46563156 43.74496605 -21.47493362 42.8813839 C-21.48938698 41.11478787 -21.49831059 39.34813891 -21.50201797 37.58148766 C-21.51391573 34.89696583 -21.56314765 32.21474415 -21.61359024 29.53070641 C-21.62305609 27.80675919 -21.63029035 26.08279798 -21.63507462 24.35883141 C-21.65460693 23.56586662 -21.67413925 22.77290184 -21.69426346 21.95590782 C-21.64085558 15.27005603 -19.26263733 10.47853055 -14.56279373 5.72690392 C-9.73882222 1.53886989 -6.35978651 0.00826032 0 0 Z " fill="#6257FA" transform="translate(211.07648086547852,391.74273109436035)"/>
<path d="M0 0 C1.43024834 -0.00668677 1.43024834 -0.00668677 2.88939059 -0.01350862 C4.47164638 -0.01323207 4.47164638 -0.01323207 6.08586693 -0.01294994 C7.75830343 -0.01846498 7.75830343 -0.01846498 9.46452653 -0.02409142 C13.22619982 -0.03516472 16.98784552 -0.03897828 20.7495327 -0.04278088 C23.43632231 -0.04904281 26.12310894 -0.05567629 28.80989647 -0.0626936 C36.89222326 -0.08247059 44.97455132 -0.09252667 53.05689627 -0.10142139 C56.86233417 -0.10580306 60.66777068 -0.11117026 64.47320747 -0.11641026 C77.12291805 -0.13342527 89.77262776 -0.14791891 102.42234802 -0.155159 C105.70621428 -0.15706892 108.99008053 -0.15898925 112.27394676 -0.16094494 C113.09014572 -0.16142868 113.90634468 -0.16191242 114.74727695 -0.16241082 C127.96583524 -0.17070908 141.18430298 -0.1960413 154.40282173 -0.22852562 C167.97211441 -0.26160015 181.54136109 -0.27960819 195.11069429 -0.28280324 C202.73008611 -0.28496819 210.34934596 -0.29371433 217.9686985 -0.31926441 C224.45871943 -0.340977 230.94857634 -0.34901922 237.43862946 -0.33929763 C240.74906692 -0.33475417 244.05909552 -0.33882535 247.36950111 -0.35605907 C250.96209143 -0.37371549 254.55382329 -0.3667014 258.1464138 -0.35352612 C259.18786667 -0.36449536 260.22931953 -0.37546461 261.30233157 -0.38676625 C267.53420393 -0.33158875 272.31200963 0.52440721 277.49709129 4.13422108 C282.9284788 9.85147108 283.95491107 14.41371864 283.81349754 22.15375233 C283.23259546 27.62570652 281.04857404 30.69909954 276.99709129 34.44672108 C272.04911091 37.78660783 268.50315092 38.42077247 262.53719139 38.37473011 C261.32537512 38.37729338 261.32537512 38.37729338 260.08907771 38.37990844 C257.37896368 38.38320567 254.66909662 38.37219582 251.95900536 38.36127186 C250.01755339 38.36070779 248.076101 38.36102421 246.13464928 38.36215687 C240.86022372 38.36273157 235.5858888 38.35095822 230.31148434 38.33700895 C224.80082786 38.32452119 219.2901694 38.32333264 213.77950096 38.32095814 C203.34252853 38.31473762 192.90559791 38.29831906 182.4686439 38.27825916 C170.58728365 38.25591795 158.70592141 38.2449112 146.82454538 38.23486829 C122.38203215 38.21395333 97.93957625 38.17726994 73.49709129 38.13422108 C73.49709129 55.95422108 73.49709129 73.77422108 73.49709129 92.13422108 C81.20052879 92.09941639 88.90396629 92.0646117 96.84084129 92.02875233 C101.72626556 92.01342054 106.61166009 91.9989784 111.49709129 91.9877367 C119.24845618 91.96981568 126.99971458 91.94863328 134.75099754 91.90790272 C141.00148243 91.87526458 147.25185307 91.85735852 153.50241661 91.84958935 C155.88499309 91.84405389 158.26756343 91.83324449 160.65009117 91.81703091 C163.99180591 91.79519792 167.33305087 91.79225667 170.67482567 91.79364491 C171.65594322 91.78285908 172.63706078 91.77207325 173.64790916 91.76096058 C180.41645434 91.79131031 186.31161126 92.5314508 191.73927879 96.96625233 C196.1931441 102.36842867 198.82911769 106.43004175 198.37209129 113.63422108 C197.52490922 119.43790519 194.78955796 123.14425018 190.43459129 126.94672108 C186.31369151 130.01547624 183.56505451 130.26045338 178.55927563 130.27123547 C177.31118046 130.27631001 176.06308529 130.28138455 174.77716905 130.28661287 C173.38447817 130.28721456 171.99178725 130.28771364 170.5990963 130.28812122 C169.12552896 130.29213551 167.65196273 130.29657368 166.17839783 130.30140078 C162.11885816 130.31337579 158.05933037 130.31901687 153.99977648 130.32358193 C149.62539426 130.32953448 145.25102629 130.34114516 140.87665367 130.35187244 C130.30751646 130.37640385 119.73837454 130.39102439 109.16921762 130.40393251 C106.18474828 130.40764381 103.20027941 130.41161709 100.21581054 130.41568518 C81.68820613 130.4409203 63.16060101 130.46297644 44.63298321 130.47541332 C40.34069694 130.47834309 36.0484107 130.48130474 31.7561245 130.48431873 C30.6892794 130.48506478 29.6224343 130.48581083 28.52326056 130.48657949 C11.23731377 130.49923571 -6.04853021 130.53246199 -23.33442893 130.57412057 C-41.07575792 130.61652675 -58.81703426 130.64010681 -76.5584138 130.64533389 C-86.52188726 130.64874942 -96.48520004 130.66052145 -106.44862366 130.69343662 C-114.93320696 130.72142015 -123.41759666 130.73244391 -131.90222254 130.72124116 C-136.23138385 130.71605022 -140.56013962 130.71896935 -144.88924217 130.7437067 C-148.85399226 130.766173 -152.81804488 130.76548022 -156.78280697 130.74650283 C-158.21556496 130.74369911 -159.64836998 130.74932222 -161.08105227 130.76431577 C-169.03230397 130.84242739 -175.4466798 130.75721029 -181.50290871 125.13422108 C-185.74253019 119.80751716 -186.92768877 115.20086337 -186.85056496 108.51312733 C-186.07041012 103.17476447 -182.8112481 99.3771435 -179.00290871 95.75922108 C-173.20157911 91.98835684 -168.38430698 91.85167303 -161.63845253 91.89371204 C-160.13746418 91.89114877 -160.13746418 91.89114877 -158.60615283 91.88853371 C-155.24964403 91.88523674 -151.89333467 91.89624608 -148.53684425 91.9071703 C-146.13219647 91.90773436 -143.72754835 91.90741794 -141.32290077 91.90628529 C-136.14406528 91.90582969 -130.96527497 91.91150637 -125.78645325 91.92276096 C-118.29877244 91.93902256 -110.81111599 91.94422464 -103.32341943 91.94673695 C-91.17482065 91.95111301 -79.02624875 91.96441972 -66.87766457 91.98334217 C-55.0772102 92.00170325 -43.27676314 92.01585864 -31.47629738 92.0243578 C-30.38502742 92.02514597 -30.38502742 92.02514597 -29.27171161 92.02595006 C-25.62195144 92.02856015 -21.97219122 92.03108757 -18.32243097 92.03357387 C11.95076662 92.05430362 42.22391487 92.0911719 72.49709129 92.13422108 C72.49709129 74.31422108 72.49709129 56.49422108 72.49709129 38.13422108 C67.03146629 38.19222889 61.56584129 38.2502367 55.93459129 38.31000233 C52.46190517 38.33556484 48.98933585 38.35963531 45.51662254 38.3783617 C40.01035385 38.40819513 34.50450282 38.44340133 28.99855614 38.51141834 C24.55703227 38.56593974 20.11595657 38.59568382 15.67412376 38.60860729 C13.98368339 38.61781122 12.29326621 38.63578454 10.60301781 38.66287136 C-5.84054079 38.91578857 -5.84054079 38.91578857 -12.50290871 33.13422108 C-16.43918816 28.18106943 -18.28944187 22.46731872 -17.84665871 16.15765858 C-16.64873288 9.10623154 -11.91008414 5.30153463 -6.50290871 1.13422108 C-4.11837108 -0.05804774 -2.66188629 0.00575517 0 0 Z " fill="#6E63FD" transform="translate(570.502908706665,513.8657789230347)"/>
<path d="M0 0 C0.94852315 -0.00445784 1.8970463 -0.00891569 2.87431258 -0.01350862 C4.44052626 -0.01323207 4.44052626 -0.01323207 6.03838062 -0.01294994 C7.14602561 -0.01662663 8.2536706 -0.02030332 9.39488059 -0.02409142 C13.12580877 -0.03515041 16.85670912 -0.03897586 20.58765125 -0.04278088 C23.25488419 -0.04904383 25.92211413 -0.05567753 28.58934498 -0.0626936 C36.60747893 -0.08245663 44.62561415 -0.09252413 52.64376637 -0.10142139 C56.41981429 -0.10580466 60.19586081 -0.11117138 63.97190762 -0.11641026 C76.52472327 -0.13342258 89.07753805 -0.14791662 101.63036346 -0.155159 C104.88793597 -0.15706889 108.14550846 -0.15898922 111.40308094 -0.16094494 C112.61755929 -0.16167055 112.61755929 -0.16167055 113.85657255 -0.16241082 C126.97160316 -0.17071063 140.08654256 -0.19604669 153.20153334 -0.22852562 C166.66689655 -0.26160031 180.1322134 -0.27960814 193.59761745 -0.28280324 C201.15775001 -0.28496799 208.71774955 -0.2937114 216.27784252 -0.31926441 C222.71660263 -0.34097707 229.15519742 -0.34901912 235.59398999 -0.33929763 C238.87810711 -0.33475442 242.16181212 -0.3388243 245.4458971 -0.35605907 C249.00997226 -0.37371685 252.5731822 -0.36670079 256.13725758 -0.35352612 C257.68674084 -0.36997998 257.68674084 -0.36997998 259.26752681 -0.38676625 C266.6793756 -0.32062358 272.09551571 1.17644018 277.68262196 6.16937733 C278.23047352 6.83840076 278.77832508 7.5074242 279.34277821 8.19672108 C279.90867664 8.86832264 280.47457508 9.5399242 281.05762196 10.23187733 C284.53686632 15.14315851 284.05318936 21.39037946 283.40527821 27.13422108 C280.90616188 33.57385276 276.44918791 37.51550453 270.43263435 40.71503925 C265.51258685 42.76485535 260.59993371 42.55589838 255.34257984 42.52863026 C254.23701184 42.53472136 253.13144383 42.54081246 251.99237376 42.54708815 C248.29225731 42.563721 244.59248489 42.55894174 240.89233875 42.55414295 C238.23760263 42.56148314 235.58289218 42.56997663 232.92816639 42.57980824 C226.4680513 42.60083811 220.00802601 42.60540447 213.54788073 42.60362035 C208.29497571 42.6023114 203.04209864 42.60612363 197.78919888 42.61354542 C196.27460967 42.61564468 194.76002046 42.61774228 193.24543124 42.61983824 C192.49151117 42.62088177 191.73759109 42.62192529 190.96082494 42.62300044 C176.70948265 42.64189322 162.45819185 42.64085568 148.20684222 42.63403112 C135.18067791 42.6284573 122.15471037 42.64927586 109.12859204 42.68239158 C95.74217831 42.71615817 82.35585876 42.73129317 68.96940166 42.72667456 C61.45843402 42.72443274 53.94764821 42.72963065 46.43671703 42.75456715 C40.04161682 42.77561881 33.64679811 42.7791343 27.25168618 42.76026756 C23.99152725 42.75113283 20.73199939 42.75262631 17.47186184 42.77062321 C13.93040719 42.78882146 10.39034066 42.77605978 6.8489275 42.75568104 C5.31811189 42.77445781 5.31811189 42.77445781 3.75637072 42.79361391 C-3.83656342 42.70020234 -10.47201523 40.8171872 -16.24923879 35.6561799 C-20.85297063 30.44861482 -22.14413124 25.56217374 -21.96190929 18.75922108 C-21.17561284 13.13803794 -18.71253495 8.89968353 -14.36425304 5.27484608 C-9.6169039 2.02217619 -5.83434516 0.01271344 0 0 Z " fill="#A59DFD" transform="translate(212.59472179412842,509.86577892303467)"/>
<path d="M0 0 C1.31171199 -0.00679667 1.31171199 -0.00679667 2.64992321 -0.01373065 C5.57997283 -0.02639005 8.50983694 -0.02475325 11.43991089 -0.02310181 C13.5410028 -0.02908623 15.64209251 -0.03589158 17.74317932 -0.04345703 C23.45212918 -0.06113648 29.1610191 -0.06581334 34.86999369 -0.0670886 C38.43857223 -0.06851007 42.00713554 -0.07277966 45.5757103 -0.07808304 C58.03094195 -0.09659225 70.48613078 -0.10475284 82.94137573 -0.10317993 C94.54122732 -0.10197944 106.14089257 -0.12306141 117.74069703 -0.15466726 C127.70607664 -0.18084958 137.67139549 -0.19154635 147.63680923 -0.19026911 C153.58566896 -0.1897599 159.53436323 -0.19542012 165.48318863 -0.21662521 C171.08272558 -0.23603947 176.68193985 -0.23611005 182.28148842 -0.22159195 C184.33127503 -0.21950648 186.381082 -0.22418906 188.43083382 -0.23631287 C211.91851717 -0.36618418 211.91851717 -0.36618418 218.99472237 5.71474648 C223.46397411 10.7494587 224.7722432 15.09737241 224.62692261 21.66586304 C223.96831313 27.08109655 221.72602229 30.9226949 217.81051636 34.64242554 C216.98551636 35.17867554 216.16051636 35.71492554 215.31051636 36.26742554 C214.78173039 36.62542551 214.25294443 36.98342548 213.70813465 37.35227394 C210.03003816 38.75617375 206.3323503 38.5490465 202.44862366 38.53485107 C201.09108261 38.54164774 201.09108261 38.54164774 199.7061165 38.54858172 C196.66689026 38.56126403 193.62784234 38.55960287 190.58859253 38.55795288 C188.41219349 38.56393576 186.23579657 38.57074075 184.05940247 38.57830811 C178.14199135 38.59600037 172.22463806 38.60066486 166.30720305 38.60193968 C161.36930869 38.60383734 156.43142784 38.61119339 151.49353868 38.61828387 C139.17741741 38.63551009 126.86132929 38.6393094 114.54519782 38.63778324 C103.19086165 38.63692008 91.83669744 38.65968247 80.48240298 38.68951833 C70.16551689 38.71566305 59.8486895 38.72639905 49.53177053 38.72512019 C43.36840307 38.72461 37.20519508 38.73032464 31.04186058 38.75147629 C25.2445457 38.77082797 19.44754289 38.77100395 13.65021706 38.75644302 C11.52296112 38.75434999 9.39568581 38.75908517 7.26846313 38.77116394 C4.3630612 38.78659217 1.45873855 38.77732394 -1.44664001 38.76190186 C-2.28731217 38.77218898 -3.12798432 38.78247611 -3.99413139 38.79307497 C-10.38332123 38.71819432 -14.62829408 37.07465991 -19.43167114 32.66976929 C-24.23028486 26.46466534 -24.4102283 20.92153073 -23.68948364 13.26742554 C-21.12761145 7.84808052 -16.85566718 3.92384494 -11.54117012 1.14351463 C-7.69112913 -0.03928683 -3.98795715 -0.01516479 0 0 Z " fill="#9D96FE" transform="translate(697.6894836425781,427.7325744628906)"/>
<path d="M0 0 C0.87982048 -0.00453111 1.75964097 -0.00906223 2.66612267 -0.01373065 C5.62009923 -0.02641082 8.57389227 -0.02475193 11.52789307 -0.02310181 C13.64355711 -0.02908487 15.75921896 -0.03588989 17.87487793 -0.04345703 C23.62707252 -0.06114859 29.37920764 -0.06581379 35.13142681 -0.0670886 C39.93253403 -0.06898655 44.73362736 -0.07634304 49.53472924 -0.08343279 C60.86318683 -0.09972695 72.19161261 -0.10460087 83.52008057 -0.10317993 C95.20574396 -0.10197876 106.89122257 -0.12307338 118.57683921 -0.15466726 C128.60839321 -0.18082261 138.63988685 -0.19154751 148.6714747 -0.19026911 C154.66328944 -0.18975919 160.65494009 -0.19545908 166.64672089 -0.21662521 C172.28399039 -0.23599452 177.92093907 -0.23614078 183.55821991 -0.22159195 C185.62539132 -0.21950103 187.69258274 -0.22422157 189.75971985 -0.23631287 C192.58595772 -0.25177131 195.41109026 -0.24245302 198.23730469 -0.22705078 C199.45892512 -0.24248147 199.45892512 -0.24248147 200.70522475 -0.25822389 C207.26015327 -0.17950406 212.4811572 1.71613516 217.43121338 6.08383179 C217.88625244 6.66004272 218.3412915 7.23625366 218.81011963 7.82992554 C219.28320557 8.4087146 219.7562915 8.98750366 220.24371338 9.58383179 C223.35603696 14.22539394 223.10667046 19.92952195 222.37261963 25.26742554 C219.86855686 31.37512107 216.47529939 34.58280322 210.64332318 37.41287053 C206.8438664 38.84275547 203.23316693 38.81589962 199.21279907 38.76863098 C198.32406621 38.77416538 197.43533334 38.77969977 196.51966918 38.78540188 C193.55939301 38.79895046 190.59996846 38.78407075 187.63970947 38.76913452 C185.51035709 38.77291974 183.38100717 38.77842146 181.25166321 38.7855072 C175.48115191 38.79945075 169.71093914 38.78830031 163.94044447 38.77179599 C157.8987604 38.75793217 151.85709341 38.76440695 145.81539917 38.76792908 C135.67231441 38.77062972 125.52934808 38.7571666 115.3862915 38.73397827 C103.65962403 38.70735519 91.93315438 38.70562657 80.20646703 38.71736664 C68.92224241 38.7281444 57.63808934 38.72195826 46.35387039 38.70781136 C41.55256077 38.70205301 36.75130353 38.70213303 31.94999313 38.70687675 C26.29792006 38.71164795 20.64606375 38.70153873 14.99403191 38.6799221 C12.919579 38.67435658 10.84510524 38.67388678 8.77065086 38.67887497 C5.93968413 38.68482875 3.10937995 38.67232074 0.2784729 38.65510559 C-0.54292887 38.66111564 -1.36433065 38.66712568 -2.21062338 38.67331785 C-8.06610972 38.60853958 -12.26055309 37.4299863 -16.70941162 33.36508179 C-17.28046631 32.69348022 -17.851521 32.02187866 -18.43988037 31.32992554 C-19.02382568 30.6609021 -19.607771 29.99187866 -20.20941162 29.30258179 C-23.10958196 25.14007835 -23.26449465 20.21179125 -22.62738037 15.26742554 C-20.46791875 8.56692462 -16.70560787 5.02889756 -10.97909164 1.15132713 C-7.38635293 -0.19902039 -3.78721064 -0.01424662 0 0 Z " fill="#7267FD" transform="translate(341.62738037109375,690.7325744628906)"/>
<path d="M0 0 C0.75036512 0.00018436 1.50073024 0.00036873 2.27383369 0.00055867 C3.0653363 -0.00311801 3.85683891 -0.0067947 4.67232645 -0.0105828 C7.34536436 -0.02166467 10.01836347 -0.02547113 12.69142097 -0.02927226 C14.59974744 -0.0355337 16.50807268 -0.0421802 18.41639656 -0.04918498 C23.6171176 -0.06662875 28.81782943 -0.07715669 34.01857251 -0.08539051 C37.26682281 -0.09053525 40.51507022 -0.09661133 43.76331848 -0.10290164 C53.92306292 -0.12196616 64.08280005 -0.13619261 74.24255896 -0.14451361 C85.97544937 -0.15428094 97.70815086 -0.18058209 109.44097471 -0.2210145 C118.50431618 -0.25117656 127.56760352 -0.26598272 136.6309942 -0.26929462 C142.04607388 -0.27164571 147.46095204 -0.2806134 152.87597793 -0.30575579 C157.97395303 -0.32904187 163.07159403 -0.33326748 168.16960853 -0.32299441 C170.03843939 -0.32249901 171.90728671 -0.3288206 173.7760672 -0.34255046 C176.33317563 -0.3602822 178.88908688 -0.35315726 181.44619697 -0.3400175 C182.54832207 -0.35647137 182.54832207 -0.35647137 183.67271233 -0.37325764 C189.096236 -0.30625443 193.2557657 1.17831877 197.80445808 4.14772969 C203.23584559 9.8649797 204.26227786 14.42722725 204.12086433 22.16726094 C203.53996225 27.63921513 201.35594083 30.71260816 197.30445808 34.46022969 C192.3564777 37.80011645 188.81051771 38.43428109 182.84455818 38.38823873 C181.63274191 38.390802 181.63274191 38.390802 180.3964445 38.39341706 C177.68633047 38.39671428 174.97646341 38.38570444 172.26637214 38.37478048 C170.32492018 38.37421641 168.38346778 38.37453283 166.44201607 38.37566549 C161.1675905 38.37624019 155.89325559 38.36446683 150.61885113 38.35051757 C145.10819465 38.33802981 139.59753619 38.33684126 134.08686775 38.33446676 C123.64989532 38.32824624 113.2129647 38.31182768 102.77601069 38.29176778 C90.89465043 38.26942657 79.0132882 38.25841982 67.13191217 38.24837691 C42.68940428 38.22746196 18.24693352 38.19227486 -6.19554192 38.14772969 C-6.2201912 32.89667527 -6.2383776 27.64565424 -6.25047356 22.39455587 C-6.2555141 20.60678949 -6.26234646 18.81902725 -6.27098137 17.03127462 C-6.28305922 14.46721801 -6.28877286 11.90321572 -6.29319817 9.33913594 C-6.29835945 8.5349674 -6.30352074 7.73079885 -6.30883843 6.90226156 C-6.30903407 4.98371255 -6.25756174 3.06527601 -6.19554192 1.14772969 C-4.47839371 -0.56941851 -2.29085901 0.0150998 0 0 Z " fill="#958EFE" transform="translate(650.1955419182777,513.8522703051567)"/>
<path d="M0 0 C0.94051712 -0.00832352 1.88103424 -0.01664703 2.85005188 -0.02522278 C5.95647335 -0.04929817 9.0626846 -0.058093 12.16918945 -0.06469727 C14.33527183 -0.07366715 16.50135357 -0.08278906 18.66743469 -0.09205627 C23.20929467 -0.10854334 27.75108098 -0.11624559 32.29296875 -0.11914062 C38.09557029 -0.12451669 43.89747314 -0.16216652 49.69987774 -0.20788479 C54.17562853 -0.23772161 58.65121264 -0.24486567 63.12705421 -0.24586678 C65.26516728 -0.25005775 67.40328135 -0.26244661 69.54129601 -0.28338432 C91.68419127 -0.48292693 91.68419127 -0.48292693 98.5949707 5.30639648 C103.54262678 10.62049809 104.96528036 15.58751564 104.87231445 22.67358398 C104.27522703 28.34170963 101.78112263 32.0650747 97.9074707 36.11889648 C91.04161676 40.65295098 84.20447026 41.75489228 76.10302734 41.72631836 C74.74989693 41.73902267 74.74989693 41.73902267 73.36943054 41.75198364 C70.41451566 41.77520813 67.46012584 41.77637937 64.50512695 41.77514648 C62.43444108 41.78225614 60.36375716 41.78995631 58.29307556 41.79821777 C53.96339432 41.81162868 49.63389535 41.81324628 45.30419922 41.80737305 C39.77518673 41.80147608 34.24705205 41.83208485 28.71820927 41.87248993 C24.44489386 41.89842482 20.17178833 41.90123915 15.89840508 41.89759827 C13.86078114 41.89928366 11.82314691 41.90886978 9.78560066 41.92674255 C-11.91867417 42.09621258 -11.91867417 42.09621258 -20.02134705 34.86364746 C-24.40553687 30.12753698 -25.92064127 24.76555363 -25.71362305 18.38452148 C-24.75526466 11.9307663 -21.1734843 7.59434751 -16.28393555 3.53295898 C-10.96919295 0.06345966 -6.15733381 0.00463655 0 0 Z " fill="#A49DFD" transform="translate(216.405029296875,580.693603515625)"/>
<path d="M0 0 C13.94324791 -0.07020456 27.88646825 -0.12284439 41.82985687 -0.15543652 C48.30460244 -0.17108049 54.77922911 -0.19229596 61.25390625 -0.22631836 C67.50439114 -0.2589565 73.75476178 -0.27686256 80.00532532 -0.28463173 C82.38790179 -0.29016719 84.77047214 -0.30097658 87.15299988 -0.31719017 C90.49471462 -0.33902316 93.83595958 -0.3419644 97.17773438 -0.34057617 C98.64941071 -0.35675491 98.64941071 -0.35675491 100.15081787 -0.3732605 C106.91936305 -0.34291077 112.81451996 0.39722973 118.2421875 4.83203125 C122.69605281 10.23420759 125.3320264 14.29582068 124.875 21.5 C124.02781792 27.30368411 121.29246667 31.0100291 116.9375 34.8125 C113.29175403 37.52741721 110.88737533 38.12492013 106.46994019 38.12698364 C105.54170441 38.12980347 104.61346863 38.13262329 103.65710449 38.13552856 C102.64088013 38.13350433 101.62465576 38.1314801 100.57763672 38.12939453 C99.50591217 38.13114685 98.43418762 38.13289917 97.32998657 38.13470459 C93.77987052 38.13911377 90.22980408 38.13618878 86.6796875 38.1328125 C84.22014354 38.13348571 81.76059964 38.13445587 79.30105591 38.13571167 C74.14454516 38.13718729 68.98805171 38.13503804 63.83154297 38.13037109 C57.20546533 38.12466791 50.57942814 38.12795741 43.95335197 38.13394356 C38.87492566 38.13754771 33.79650902 38.13641136 28.71808243 38.13381577 C26.27391683 38.1331464 23.82975037 38.13397525 21.38558578 38.13629532 C17.97822472 38.13882009 14.57093029 38.13498399 11.16357422 38.12939453 C10.14330139 38.13141876 9.12302856 38.13344299 8.07183838 38.13552856 C7.14924225 38.13270874 6.22664612 38.12988892 5.27609253 38.12698364 C4.46973295 38.12660662 3.66337337 38.12622959 2.83257866 38.12584114 C1 38 1 38 0 37 C-0.08858646 34.26105915 -0.11523479 31.5474673 -0.09765625 28.80859375 C-0.0962413 27.98875504 -0.09482635 27.16891632 -0.09336853 26.32423401 C-0.08775289 23.69528618 -0.07519779 21.06642227 -0.0625 18.4375 C-0.05748701 16.65950643 -0.05292376 14.88151154 -0.04882812 13.10351562 C-0.03777839 8.73564455 -0.02050331 4.36783652 0 0 Z " fill="#9890FE" transform="translate(644,606)"/>
<path d="M0 0 C2.78283988 2.31323565 4.23774551 5.12445868 5.90429688 8.29272461 C12.61972418 21.05472983 21.60694838 31.06886179 32 41 C29 41 29 41 26.0390625 38.40234375 C24.89321327 37.25516214 23.75549172 36.09981862 22.625 34.9375 C21.77808594 34.09541992 21.77808594 34.09541992 20.9140625 33.23632812 C18.07862107 30.36478732 15.53786313 27.47338877 13.22265625 24.1640625 C11.26687272 21.00795944 11.26687272 21.00795944 8.8125 19.4375 C6.20349953 17.36829273 5.98181057 15.17644598 5 12 C3.72390418 9.36273531 2.3837081 6.76661084 1.0234375 4.171875 C0 2 0 2 0 0 Z " fill="#554BF0" transform="translate(581,908)"/>
<path d="M0 0 C0.66 0.99 1.32 1.98 2 3 C-0.38957269 6.24299151 -2.2047869 8.50902342 -6 10 C-4.6302836 6.00499382 -2.74277578 3.19990508 0 0 Z " fill="#564BF5" transform="translate(774,925)"/>
<path d="M0 0 C-1.32 0.33 -2.64 0.66 -4 1 C-4 1.66 -4 2.32 -4 3 C-7.63 2.67 -11.26 2.34 -15 2 C-15 1.67 -15 1.34 -15 1 C-9.91913204 0.15318867 -5.15171623 -0.09038099 0 0 Z " fill="#EFD557" transform="translate(676,757)"/>
<path d="M0 0 C0.33 0.99 0.66 1.98 1 3 C0.319375 4.051875 0.319375 4.051875 -0.375 5.125 C-2.56363437 8.99719928 -2.7232347 12.61947334 -3 17 C-3.33 17 -3.66 17 -4 17 C-4.44534366 10.04769059 -4.67289916 5.40303965 0 0 Z " fill="#8C84FA" transform="translate(678,435)"/>
<path d="M0 0 C0.99 0 1.98 0 3 0 C2.34 1.32 1.68 2.64 1 4 C0.34 4 -0.32 4 -1 4 C-1.28875 4.94875 -1.5775 5.8975 -1.875 6.875 C-3 10 -3 10 -5 12 C-4.42365861 7.24518354 -2.44931479 4.02951788 0 0 Z " fill="#F8DD49" transform="translate(591,806)"/>
<path d="M0 0 C3.16115776 1.36983503 3.9927092 1.9890638 6 5 C6 5.99 6 6.98 6 8 C5.34 8 4.68 8 4 8 C0 2.58823529 0 2.58823529 0 0 Z " fill="#EBCE59" transform="translate(756,786)"/>
<path d="M0 0 C0.66 0 1.32 0 2 0 C2 0.66 2 1.32 2 2 C2.639375 2.103125 3.27875 2.20625 3.9375 2.3125 C4.618125 2.539375 5.29875 2.76625 6 3 C6.33 3.99 6.66 4.98 7 6 C6.01 6 5.02 6 4 6 C0 1.54285714 0 1.54285714 0 0 Z " fill="#5F54E8" transform="translate(761,789)"/>
</svg>
