<?xml version="1.0" encoding="UTF-8"?>
<svg version="1.1" xmlns="http://www.w3.org/2000/svg" width="1024" height="1024">
<path d="M0 0 C337.92 0 675.84 0 1024 0 C1024 337.92 1024 675.84 1024 1024 C686.08 1024 348.16 1024 0 1024 C0 686.08 0 348.16 0 0 Z " fill="#EEE8FD" transform="translate(0,0)"/>
<path d="M0 0 C1.40140309 -0.00697991 2.80280587 -0.01402086 4.20420837 -0.02111816 C8.66739283 -0.04042394 13.13052835 -0.04529538 17.59375 -0.046875 C18.73365828 -0.04775871 18.73365828 -0.04775871 19.896595 -0.04866028 C43.75026614 -0.0617177 67.37868154 0.42719368 91.09375 3.203125 C92.36347656 3.34234375 93.63320313 3.4815625 94.94140625 3.625 C138.98171286 8.5436692 196.50601514 18.34278844 227.11328125 53.5546875 C233.64154046 62.28478562 235.25965042 71.19970258 235.21400452 81.91636658 C235.21528615 83.0340225 235.21528615 83.0340225 235.21659368 84.17425734 C235.21823181 86.65387559 235.21275459 89.13342516 235.20727539 91.61303711 C235.20699313 93.39729816 235.20715201 95.18155933 235.2077179 96.96582031 C235.20800436 101.79790654 235.20213194 106.62996785 235.19514394 111.46204829 C235.18888536 116.51624725 235.18830462 121.57044681 235.18711853 126.62464905 C235.1840126 136.19027419 235.17580916 145.75588788 235.16576904 155.32150799 C235.15458499 166.21384363 235.14909167 177.10617982 235.14407361 187.99851978 C235.13362593 210.4000612 235.11604078 232.80159246 235.09375 255.203125 C234.48889582 255.28706922 233.88404163 255.37101343 233.26085854 255.45750141 C230.49598318 255.84264881 227.73163682 256.23147375 224.96728516 256.62036133 C224.01576065 256.75235176 223.06423615 256.88434219 222.08387756 257.02033234 C215.7458439 257.91541391 209.59812835 259.01310447 203.46875 260.890625 C202.61740479 261.14336182 201.76605957 261.39609863 200.88891602 261.65649414 C175.41870858 269.4846124 152.62061695 283.05129941 133.61132812 301.72070312 C132.10836182 303.18885168 130.58091376 304.62692329 129.046875 306.0625 C114.30470259 320.05781179 103.58065241 336.86245649 95.28125 355.328125 C94.83446899 356.31607056 94.83446899 356.31607056 94.37866211 357.32397461 C92.45749754 361.78502122 91.62325471 365.95103707 90.84375 370.765625 C89.95699995 374.14062625 89.32836962 376.39836879 86.328125 378.35400391 C81.59441511 380.55133503 76.60111997 381.93107017 71.60351562 383.39355469 C55.01605301 388.74414088 40.83330965 399.6791267 28.09375 411.203125 C27.29066406 411.92113281 26.48757813 412.63914062 25.66015625 413.37890625 C-0.89188187 438.46936429 -17.02513782 475.90209504 -18.13937378 512.23097229 C-18.51178011 527.77189242 -18.35559356 542.97597106 -14.90625 558.203125 C-14.56046232 560.20100938 -14.2226355 562.20037406 -13.90625 564.203125 C-67.6069154 562.56556528 -137.09714594 551.87751128 -176.90625 512.203125 C-177.69902344 511.43355469 -178.49179688 510.66398437 -179.30859375 509.87109375 C-188.88742061 500.00538023 -194.13840565 487.55348039 -194.17189884 473.79225731 C-194.17630371 473.0882342 -194.18070857 472.38421109 -194.18524691 471.65885395 C-194.19750783 469.31192018 -194.19569819 466.96521748 -194.19386292 464.61825562 C-194.19975116 462.91365846 -194.2064913 461.20906408 -194.21400779 459.50447333 C-194.23204016 454.82931656 -194.23759722 450.15421621 -194.24099457 445.47902894 C-194.24676239 440.43316384 -194.26388911 435.38733469 -194.27934265 430.3414917 C-194.31405767 418.16223883 -194.32967564 405.98298906 -194.34346595 393.80369753 C-194.35043244 388.06442804 -194.35958806 382.32516215 -194.36857414 376.58589554 C-194.39777145 357.50218695 -194.4225659 338.41848185 -194.43319798 319.33475304 C-194.43388867 318.11396481 -194.43457936 316.89317659 -194.43529099 315.63539479 C-194.435983 314.41172755 -194.43667502 313.18806032 -194.437388 311.92731225 C-194.43879998 309.44779801 -194.4402208 306.96828377 -194.44165039 304.48876953 C-194.44235556 303.25885137 -194.44306073 302.02893322 -194.44378727 300.76174481 C-194.4560362 280.83532051 -194.49883096 260.9090865 -194.55459059 240.98274116 C-194.61140376 220.51337016 -194.64185042 200.04409533 -194.64621013 179.57464468 C-194.64928953 168.08629477 -194.66374549 156.59820935 -194.70749092 145.10993576 C-194.74463829 135.32711364 -194.75774861 125.54462768 -194.73978604 115.76174514 C-194.73134765 110.77349 -194.73409025 105.7859209 -194.76760483 100.7977562 C-194.7980627 96.22393665 -194.79571022 91.65130742 -194.76811682 87.07748051 C-194.76379761 85.43009271 -194.77111838 83.78262059 -194.79178984 82.13535683 C-194.95736254 68.05155806 -191.59621528 57.95096135 -181.84375 47.390625 C-175.72875287 41.70884293 -169.11901612 37.33499291 -161.90625 33.203125 C-160.82085937 32.55988281 -159.73546875 31.91664063 -158.6171875 31.25390625 C-120.18355581 9.68490401 -71.98707505 4.65231764 -28.90625 1.203125 C-27.39937622 1.07763779 -27.39937622 1.07763779 -25.86206055 0.94961548 C-17.23194107 0.2740521 -8.65469291 0.02935358 0 0 Z " fill="#7A6EFE" transform="translate(347.90625,192.796875)"/>
<path d="M0 0 C5.31816466 4.93994975 9.84593423 10.30459179 14.25 16.0625 C14.90484375 16.89007812 15.5596875 17.71765625 16.234375 18.5703125 C28.49235515 34.60375053 42.25 58.29121545 42.25 79.0625 C43.20777344 79.08828125 44.16554688 79.1140625 45.15234375 79.140625 C66.63572121 79.95147302 87.76301002 86.23299265 105.25 99.0625 C106.03890625 99.63097656 106.8278125 100.19945312 107.640625 100.78515625 C132.27913656 119.50247713 148.29033311 145.45730698 152.71484375 176.21484375 C153.73588231 184.48912496 153.64137202 192.74839692 153.25 201.0625 C153.2180957 201.78791992 153.18619141 202.51333984 153.15332031 203.26074219 C151.55816404 232.66887954 136.3274523 260.05994234 114.83740234 279.66455078 C93.0577047 298.8448874 63.97464761 308.42799972 35.19139099 308.32319641 C34.05100012 308.32702196 32.91060926 308.33084751 31.73566109 308.33478898 C27.95320168 308.34502361 24.1708968 308.34114501 20.38842773 308.3371582 C17.66037056 308.34041999 14.93232171 308.34663124 12.20426941 308.35264587 C5.58521818 308.36534041 -1.03379238 308.367193 -7.65285373 308.36484561 C-13.04043893 308.36305575 -18.42801189 308.36482635 -23.81559563 308.36907005 C-24.58516095 308.36966524 -25.35472627 308.37026043 -26.14761175 308.37087366 C-27.71151718 308.37208554 -29.27542261 308.37329967 -30.83932804 308.37451603 C-45.4796602 308.38537219 -60.11996927 308.38323871 -74.76030272 308.37713119 C-88.11230431 308.37196844 -101.46423279 308.38320393 -114.81621993 308.40222941 C-128.56672585 308.42167053 -142.31719729 308.42985255 -156.06771702 308.42610615 C-163.77113211 308.42420299 -171.47448509 308.42659423 -179.17788887 308.44082069 C-185.73902067 308.4528161 -192.30005217 308.45404936 -198.86118556 308.44203053 C-202.19947459 308.43619722 -205.537433 308.4365556 -208.87573242 308.44703293 C-248.05559215 308.56104154 -280.53873242 300.33601186 -309.5 272.75 C-331.40938447 250.03630626 -341.3863028 220.37020256 -341.09912109 189.12158203 C-340.29762243 158.14665729 -326.72857529 132.18692341 -304.75 110.7578125 C-288.82617132 96.11169156 -264.67533344 83.0692749 -242.625 82.9375 C-241.67625 82.97875 -240.7275 83.02 -239.75 83.0625 C-239.688125 81.763125 -239.62625 80.46375 -239.5625 79.125 C-236.857938 52.8203559 -222.50894808 27.09920347 -204.75 8.0625 C-204.28513184 7.55525391 -203.82026367 7.04800781 -203.34130859 6.52539062 C-180.89224481 -17.7796678 -150.20910868 -32.06135587 -117.75 -36.9375 C-116.90953125 -37.06898438 -116.0690625 -37.20046875 -115.203125 -37.3359375 C-72.57182328 -42.77510358 -31.77470814 -27.88573134 0 0 Z " fill="#4955FC" transform="translate(712.75,521.9375)"/>
<path d="M0 0 C1.40140309 -0.00697991 2.80280587 -0.01402086 4.20420837 -0.02111816 C8.66739283 -0.04042394 13.13052835 -0.04529538 17.59375 -0.046875 C18.73365828 -0.04775871 18.73365828 -0.04775871 19.896595 -0.04866028 C43.75026614 -0.0617177 67.37868154 0.42719368 91.09375 3.203125 C92.36347656 3.34234375 93.63320313 3.4815625 94.94140625 3.625 C138.98171286 8.5436692 196.50601514 18.34278844 227.11328125 53.5546875 C233.64154046 62.28478562 235.25965042 71.19970258 235.21400452 81.91636658 C235.21528615 83.0340225 235.21528615 83.0340225 235.21659368 84.17425734 C235.21823181 86.65387559 235.21275459 89.13342516 235.20727539 91.61303711 C235.20699313 93.39729816 235.20715201 95.18155933 235.2077179 96.96582031 C235.20800436 101.79790654 235.20213194 106.62996785 235.19514394 111.46204829 C235.18888536 116.51624725 235.18830462 121.57044681 235.18711853 126.62464905 C235.1840126 136.19027419 235.17580916 145.75588788 235.16576904 155.32150799 C235.15458499 166.21384363 235.14909167 177.10617982 235.14407361 187.99851978 C235.13362593 210.4000612 235.11604078 232.80159246 235.09375 255.203125 C234.76375 255.203125 234.43375 255.203125 234.09375 255.203125 C233.76375 197.783125 233.43375 140.363125 233.09375 81.203125 C231.11375 84.833125 229.13375 88.463125 227.09375 92.203125 C200.81269155 125.4650896 147.15658328 134.50642594 107.9854126 140.74085999 C106.09467317 141.0431161 104.2049742 141.35197375 102.31652832 141.66824341 C93.32128476 143.13003898 84.31514559 144.06126299 75.23828125 144.8046875 C74.44520884 144.86999287 73.65213642 144.93529823 72.83503151 145.00258255 C55.46805196 146.39863461 38.15071797 146.66698702 20.73510742 146.59423828 C16.59362088 146.577077 12.45271045 146.58737631 8.31124306 146.60457706 C-12.94541196 146.67903041 -33.7828546 145.64494061 -54.90625 143.203125 C-55.89145126 143.09236633 -56.87665253 142.98160767 -57.89170837 142.86749268 C-100.33413449 138.05666769 -157.3858794 127.33370806 -186.34375 93.265625 C-191.59740258 86.2751386 -194.87027364 79.07121044 -194.46875 70.1875 C-191.88109112 56.45853205 -182.13409815 46.29422743 -170.95800781 38.64819336 C-168.00256346 36.72366973 -164.96574814 34.95577329 -161.90625 33.203125 C-160.82085937 32.55988281 -159.73546875 31.91664063 -158.6171875 31.25390625 C-120.18355581 9.68490401 -71.98707505 4.65231764 -28.90625 1.203125 C-27.39937622 1.07763779 -27.39937622 1.07763779 -25.86206055 0.94961548 C-17.23194107 0.2740521 -8.65469291 0.02935358 0 0 Z " fill="#8FB3FE" transform="translate(347.90625,192.796875)"/>
<path d="M0 0 C5.36705375 2.78243595 9.20680226 6.99893623 13.3359375 11.3359375 C18.22588176 16.39694636 23.1191435 21.30135877 28.46484375 25.8815918 C31.39832111 28.45565694 34.10984649 31.23341101 36.8359375 34.0234375 C40.2237341 37.45381746 43.58815839 40.84628225 47.2734375 43.9609375 C51.84945512 47.8374365 55.98579951 52.1486843 60.20068359 56.40771484 C63.18426305 59.41051736 66.16605401 62.34767633 69.3984375 65.0859375 C73.21091663 68.31572332 76.73668158 71.810663 80.2734375 75.3359375 C81.14464233 76.20037476 81.14464233 76.20037476 82.03344727 77.08227539 C86.16655163 81.23012548 87.49164887 83.02932956 87.5859375 88.8359375 C87.52255286 93.24981357 87.47438347 96.18251115 84.3359375 99.5234375 C78.28752233 103.87946881 73.47596174 104.06319969 66.15234375 103.9140625 C65.09683823 103.90840271 64.0413327 103.90274292 62.95384216 103.89691162 C59.60156811 103.87462345 56.25038538 103.82443965 52.8984375 103.7734375 C50.61785404 103.7533628 48.33725373 103.73511373 46.05664062 103.71875 C40.48270417 103.67478356 34.90939883 103.60794704 29.3359375 103.5234375 C29.34481995 104.28463394 29.35370239 105.04583038 29.362854 105.83009338 C29.44319581 113.02407148 29.50400066 120.21783026 29.54318619 127.41214085 C29.56400964 131.11032402 29.59222974 134.80813469 29.63769531 138.50610352 C29.68134261 142.07877674 29.70511399 145.65109298 29.71544647 149.22401237 C29.72280424 150.58312533 29.73717222 151.94222003 29.75885773 153.30117989 C29.96165174 166.54325312 29.96165174 166.54325312 25.3359375 172.5234375 C23.30078125 174.265625 23.30078125 174.265625 21.2734375 175.3984375 C20.60183594 175.78773438 19.93023438 176.17703125 19.23828125 176.578125 C16.17954776 178.0980706 13.65063167 178.65389496 10.28271484 178.70043945 C9.47111908 178.71327469 8.65952332 178.72610992 7.82333374 178.73933411 C6.51086166 178.75041451 6.51086166 178.75041451 5.171875 178.76171875 C3.81190903 178.77382637 3.81190903 178.77382637 2.42446899 178.78617859 C0.50288805 178.8000116 -1.41871739 178.81073726 -3.34033203 178.81860352 C-6.25732113 178.83575091 -9.17315714 178.8796359 -12.08984375 178.92382812 C-13.9609292 178.93396144 -15.83202426 178.94247554 -17.703125 178.94921875 C-18.565961 178.96672684 -19.428797 178.98423492 -20.31777954 179.00227356 C-27.31030502 178.97764154 -33.39609503 177.27634488 -38.8203125 172.70703125 C-39.26375 172.13082031 -39.7071875 171.55460938 -40.1640625 170.9609375 C-40.86015625 170.09275391 -40.86015625 170.09275391 -41.5703125 169.20703125 C-43.83790975 165.7165512 -43.78591661 162.62268165 -43.77758789 158.58325195 C-43.77751236 157.36221268 -43.77743683 156.1411734 -43.77735901 154.88313293 C-43.77219772 153.56431625 -43.76703644 152.24549957 -43.76171875 150.88671875 C-43.7598533 149.52337191 -43.75843 148.16002439 -43.75743103 146.79667664 C-43.75361582 143.21115259 -43.74379405 139.62566915 -43.73272705 136.04016113 C-43.72249151 132.3802953 -43.71792882 128.7204229 -43.71289062 125.06054688 C-43.70217088 117.88149192 -43.68510643 110.7024704 -43.6640625 103.5234375 C-44.2373378 103.53454056 -44.8106131 103.54564362 -45.40126038 103.55708313 C-51.38738366 103.66801065 -57.3732133 103.74324254 -63.36010742 103.7980957 C-65.59199897 103.82318405 -67.82380881 103.85726279 -70.05541992 103.90063477 C-73.270225 103.96153479 -76.48394051 103.98970477 -79.69921875 104.01171875 C-81.18712669 104.05042839 -81.18712669 104.05042839 -82.70509338 104.08992004 C-89.3756334 104.09259873 -92.65638011 102.98225291 -97.6640625 98.5234375 C-100.57969717 95.04348645 -101.00676375 92.20751931 -101.0625 87.68359375 C-99.72453292 80.42971341 -94.53294924 76.00319752 -89.4765625 71.0859375 C-88.74630859 70.36083984 -88.01605469 69.63574219 -87.26367188 68.88867188 C-83.81312204 65.48702266 -80.31627782 62.18158915 -76.64453125 59.01953125 C-72.26176437 55.23620959 -68.21906233 51.15229889 -64.1640625 47.0234375 C-59.46069452 42.23439798 -54.70388527 37.63009426 -49.61523438 33.25195312 C-46.31353837 30.32702723 -43.25095512 27.17160839 -40.1640625 24.0234375 C-35.71878483 19.52994284 -31.27048265 15.14124574 -26.42578125 11.07421875 C-24.34612816 9.24357069 -22.45786994 7.27144525 -20.5390625 5.2734375 C-14.29872761 -1.00339058 -8.58973795 -3.46153619 0 0 Z " fill="#EBEBFE" transform="translate(621.6640625,603.4765625)"/>
<path d="M0 0 C1.10979907 1.66469861 2.21431203 3.33308738 3.296875 5.015625 C4.82831219 7.37041552 6.40091571 9.69064283 8 12 C8.40734375 12.59167969 8.8146875 13.18335938 9.234375 13.79296875 C17.68232769 24.77009246 31.62221294 31.4855283 44 37 C44.74459473 37.33241699 45.48918945 37.66483398 46.25634766 38.00732422 C59.28819123 43.72294908 72.65939756 47.67743658 86.40087891 51.30761719 C89.61343619 52.16341396 92.80752118 53.07242505 96 54 C96 54.33 96 54.66 96 55 C89.49973112 54.44912976 83.3561068 53.25026734 77.015625 51.71875 C74.35207614 51.08391452 71.68837931 50.51776194 69 50 C69 49.34 69 48.68 69 48 C67.09541016 47.62294922 67.09541016 47.62294922 65.15234375 47.23828125 C59.75555676 46.0360633 54.70854654 44.18643981 49.5625 42.1875 C48.24668945 41.6915332 48.24668945 41.6915332 46.90429688 41.18554688 C40.73740087 38.81785873 34.85658139 36.05228741 29 33 C29 32.34 29 31.68 29 31 C28.31164062 30.77183594 27.62328125 30.54367187 26.9140625 30.30859375 C23.33416099 28.70099723 20.4310711 26.48014528 17.375 24.0625 C16.80265625 23.61970703 16.2303125 23.17691406 15.640625 22.72070312 C9.86219966 18.21218754 9.86219966 18.21218754 8 16 C8 15.34 8 14.68 8 14 C7.360625 13.87625 6.72125 13.7525 6.0625 13.625 C5.381875 13.41875 4.70125 13.2125 4 13 C3.67 12.34 3.34 11.68 3 11 C1.7980789 13.4038422 1.86979416 14.90248102 1.8613348 17.58772469 C1.85586036 18.56009075 1.85038591 19.53245682 1.84474558 20.53428853 C1.84376747 21.61014647 1.84278936 22.68600441 1.84178162 23.79446411 C1.83684364 24.93140052 1.83190566 26.06833692 1.82681805 27.23972595 C1.81137674 31.0753431 1.80306453 34.91094343 1.79467773 38.74658203 C1.78565623 41.48576226 1.77513846 44.22493626 1.76467896 46.96411133 C1.74289645 52.87470929 1.72475846 58.7853095 1.70907402 64.69592667 C1.68639153 73.24175699 1.65824647 81.7875624 1.62875474 90.33337162 C1.58105893 104.19733442 1.53780015 118.06130738 1.49731445 131.92529297 C1.45796964 145.39535311 1.41654586 158.8654042 1.37231445 172.33544922 C1.36822804 173.5802382 1.36822804 173.5802382 1.36405908 174.85017444 C1.35037977 179.01320509 1.33665947 183.17623561 1.32291877 187.33926606 C1.20892275 221.8928253 1.10212032 256.4464037 1 291 C0.67 291 0.34 291 0 291 C0 194.97 0 98.94 0 0 Z " fill="#444BFE" transform="translate(155,274)"/>
<path d="M0 0 C0 0.33 0 0.66 0 1 C-13.54979181 3.07394773 -27.03417852 4.49940207 -40.71777344 5.35302734 C-41.85375977 5.42473145 -42.98974609 5.49643555 -44.16015625 5.5703125 C-45.16699463 5.62977051 -46.17383301 5.68922852 -47.21118164 5.75048828 C-49.94200834 5.93544745 -49.94200834 5.93544745 -52.34048462 6.51423645 C-55.09190584 7.01678671 -57.54733638 7.08290504 -60.34106445 7.02172852 C-61.3817659 7.00163223 -62.42246735 6.98153595 -63.4947052 6.96083069 C-64.6063353 6.93379562 -65.71796539 6.90676056 -66.86328125 6.87890625 C-68.01040085 6.85529526 -69.15752045 6.83168427 -70.33940125 6.80735779 C-73.99723192 6.7308873 -77.654842 6.64679111 -81.3125 6.5625 C-83.79491114 6.50926271 -86.27733299 6.45652242 -88.75976562 6.40429688 C-94.83997975 6.2752946 -100.92003048 6.14003374 -107 6 C-107 5.67 -107 5.34 -107 5 C-105.90051025 4.98018066 -104.80102051 4.96036133 -103.66821289 4.93994141 C-74.21472646 4.39335276 -44.90002091 3.31062745 -15.55419922 0.60961914 C-10.34188906 0.13866154 -5.23402341 -0.0855033 0 0 Z " fill="#5A60FE" transform="translate(448,335)"/>
<path d="M0 0 C7.77443836 0.43274225 15.41817876 1.30328084 23.125 2.375 C39.01545802 4.56161001 55.01615735 5.72156664 71 7 C71 7.33 71 7.66 71 8 C66.77084783 8.02908633 62.54172148 8.04682792 58.3125 8.0625 C57.11431641 8.07087891 55.91613281 8.07925781 54.68164062 8.08789062 C52.94624023 8.09272461 52.94624023 8.09272461 51.17578125 8.09765625 C50.11270752 8.10289307 49.04963379 8.10812988 47.9543457 8.11352539 C45.16843438 8.00647236 42.71828644 7.58456911 40 7 C38.02329082 6.76242783 36.04372002 6.54799809 34.0625 6.3515625 C32.34740234 6.17367188 32.34740234 6.17367188 30.59765625 5.9921875 C28.2309313 5.75063251 25.86374716 5.51352815 23.49609375 5.28125 C15.48627628 4.43999543 7.80387586 2.98823831 0 1 C0 0.67 0 0.34 0 0 Z " fill="#535AFE" transform="translate(267,332)"/>
<path d="M0 0 C4.34924537 1.65735807 7.09131761 4.91157494 10.25 8.1875 C15.43098388 13.48466996 15.43098388 13.48466996 20.9375 18.4375 C26.80309698 23.4094116 32.10158481 29.01961134 37.5012207 34.48535156 C38.99557812 35.9955313 40.49645068 37.49897671 42 39 C39 39 39 39 36.37109375 36.62890625 C35.38558546 35.61413861 34.40798351 34.59164611 33.4375 33.5625 C30.07641393 29.82510599 30.07641393 29.82510599 26 27 C26 26.34 26 25.68 26 25 C25.34 25 24.68 25 24 25 C24 24.34 24 23.68 24 23 C22.68 22.34 21.36 21.68 20 21 C20 20.34 20 19.68 20 19 C19.34 19 18.68 19 18 19 C18 18.34 18 17.68 18 17 C17.46632813 16.79503906 16.93265625 16.59007812 16.3828125 16.37890625 C13.00062566 14.42167354 10.56962512 11.7403035 7.875 8.9375 C4.30446634 4.9955106 4.30446634 4.9955106 0 2 C0 1.34 0 0.68 0 0 Z " fill="#F3F2FD" transform="translate(648,629)"/>
<path d="M0 0 C-5.82221519 3.34751702 -12.11539639 4.87311001 -18.5625 6.625 C-20.24762695 7.09292969 -20.24762695 7.09292969 -21.96679688 7.5703125 C-35.02591773 11.17068806 -35.02591773 11.17068806 -41 11 C-38.21855808 9.14570539 -36.51058615 8.45951334 -33.3515625 7.6328125 C-32.43415283 7.38861572 -31.51674316 7.14441895 -30.5715332 6.89282227 C-29.11299927 6.51275024 -29.11299927 6.51275024 -27.625 6.125 C-20.12374068 4.13856333 -12.71683319 2.05005624 -5.36328125 -0.43359375 C-3 -1 -3 -1 0 0 Z " fill="#5C62FE" transform="translate(524,318)"/>
<path d="M0 0 C0.33 0.66 0.66 1.32 1 2 C-4.7249786 5.79869168 -10.58690622 8.8517308 -16.9375 11.4375 C-17.5879126 11.70836426 -18.2383252 11.97922852 -18.90844727 12.25830078 C-23.63148768 14.12283744 -23.63148768 14.12283744 -27 13 C-26.05640625 12.56429688 -25.1128125 12.12859375 -24.140625 11.6796875 C-16.02296716 7.9186228 -7.97602154 4.05484894 0 0 Z " fill="#5D64FE" transform="translate(552,303)"/>
<path d="M0 0 C5.54599644 0.54160121 9.94907169 2.00474827 15 4.3125 C15.67289063 4.60833984 16.34578125 4.90417969 17.0390625 5.20898438 C21.52942213 7.21577637 25.764128 9.50149738 30 12 C27 13 27 13 23.453125 11.3828125 C21.34326587 10.26794376 19.25010568 9.12505777 17.15625 7.98046875 C12.69869767 5.62600972 9.06744271 4.59951066 4 4 C1.5625 1.9375 1.5625 1.9375 0 0 Z " fill="#2334FC" transform="translate(657,491)"/>
<path d="M0 0 C2.44989101 3.74235319 2.23086143 7.44225419 2.125 11.75 C2.11597656 12.44738281 2.10695313 13.14476562 2.09765625 13.86328125 C2.07419888 15.57566958 2.03833104 17.28788004 2 19 C1.34 19.33 0.68 19.66 0 20 C-0.83854735 13.09811029 -1.01593448 6.88577812 0 0 Z " fill="#906BFE" transform="translate(327,706)"/>
<path d="M0 0 C0 3 0 3 -1.46875 4.83203125 C-11.5062897 14.61863246 -11.5062897 14.61863246 -16 17 C-16.99 16.67 -17.98 16.34 -19 16 C-18.21496094 15.43152344 -17.42992187 14.86304688 -16.62109375 14.27734375 C-10.65318435 9.89111341 -5.01215918 5.48866727 0 0 Z " fill="#565DFE" transform="translate(573,286)"/>
<path d="M0 0 C0.33 0 0.66 0 1 0 C1.13277344 0.75925781 1.26554688 1.51851562 1.40234375 2.30078125 C1.57894531 3.29464844 1.75554688 4.28851562 1.9375 5.3125 C2.11152344 6.29863281 2.28554688 7.28476562 2.46484375 8.30078125 C2.95746847 11.08189213 2.95746847 11.08189213 4 14 C4.66 14.33 5.32 14.66 6 15 C5.01 15 4.02 15 3 15 C0.07208327 11.65380945 -1.26492582 9.08811193 -1.3125 4.6875 C-1 1 -1 1 0 0 Z " fill="#E1E2FD" transform="translate(522,688)"/>
<path d="M0 0 C3.57692308 4.76923077 3.57692308 4.76923077 3 9 C2.1156537 11.72927564 1.08274555 14.33825051 0 17 C-0.33 17 -0.66 17 -1 17 C-0.67 11.39 -0.34 5.78 0 0 Z " fill="#E3E3FD" transform="translate(865,723)"/>
<path d="M0 0 C0.66 0.33 1.32 0.66 2 1 C2 2.32 2 3.64 2 5 C-3.41538462 5.36923077 -3.41538462 5.36923077 -6.375 3.5 C-6.91125 3.005 -7.4475 2.51 -8 2 C-5.36 2 -2.72 2 0 2 C0 1.34 0 0.68 0 0 Z " fill="#9873FE" transform="translate(332,752)"/>
<path d="M0 0 C3.55780196 0.60990891 6.6828589 1.5783681 10 3 C8.3125 4.125 8.3125 4.125 6 5 C3.3125 4.3125 3.3125 4.3125 1 3 C0.67 2.01 0.34 1.02 0 0 Z " fill="#956FFE" transform="translate(217,731)"/>
<path d="M0 0 C0.33 0 0.66 0 1 0 C1 2.64 1 5.28 1 8 C0.34 8 -0.32 8 -1 8 C-1.33 8.66 -1.66 9.32 -2 10 C-1.85950482 8.52031676 -1.71245174 7.04125484 -1.5625 5.5625 C-1.48128906 4.73878906 -1.40007812 3.91507813 -1.31640625 3.06640625 C-1 1 -1 1 0 0 Z " fill="#3C47FB" transform="translate(377,682)"/>
<path d="M0 0 C0.99 0.33 1.98 0.66 3 1 C0.31158141 3.25245881 -1.64641875 4.88213958 -5 6 C-3.63016497 2.83884224 -3.0109362 2.0072908 0 0 Z " fill="#3143FC" transform="translate(505,535)"/>
<path d="M0 0 C2.50298434 2.93828597 3.46930939 5.17902761 4 9 C3.01 8.67 2.02 8.34 1 8 C-0.35439668 5.29120665 -0.06501451 2.99066732 0 0 Z " fill="#916DFE" transform="translate(159,683)"/>
<path d="M0 0 C1.60495567 0.11442461 3.20898119 0.24194694 4.8125 0.375 C5.70582031 0.44460938 6.59914063 0.51421875 7.51953125 0.5859375 C10 1 10 1 13 3 C11.58430936 3.08167446 10.16723195 3.13949698 8.75 3.1875 C7.96109375 3.22230469 7.1721875 3.25710938 6.359375 3.29296875 C3.48287032 2.93578688 2.15423231 1.88248282 0 0 Z " fill="#4B54FE" transform="translate(252,329)"/>
<path d="M0 0 C1.60031344 3.20062687 0.03173691 5.72271806 -1 9 C-1.99 9 -2.98 9 -4 9 C-2.94124926 5.59687262 -1.99097846 2.98646769 0 0 Z " fill="#9474FE" transform="translate(345,639)"/>
<path d="M0 0 C0.66 0.33 1.32 0.66 2 1 C0.29374499 3.78388975 -0.47626739 4.85384206 -3.6875 5.75 C-4.8321875 5.87375 -4.8321875 5.87375 -6 6 C-4 4 -2 2 0 0 Z " fill="#2536FB" transform="translate(528,512)"/>
<path d="M0 0 C1.8871875 0.0309375 1.8871875 0.0309375 3.8125 0.0625 C1.19138816 1.46666706 -1.21913146 2.6794847 -4.1875 3.0625 C-5.1775 2.4025 -6.1675 1.7425 -7.1875 1.0625 C-4.43671116 0.14557039 -2.82801087 -0.04636083 0 0 Z " fill="#5B60FE" transform="translate(457.1875,332.9375)"/>
</svg>
