<?xml version="1.0" encoding="UTF-8"?>
<svg version="1.1" xmlns="http://www.w3.org/2000/svg" width="452" height="386">
<path d="M0 0 C149.16 0 298.32 0 452 0 C452 127.38 452 254.76 452 386 C302.84 386 153.68 386 0 386 C0 258.62 0 131.24 0 0 Z " fill="#EEE8FD" transform="translate(0,0)"/>
<path d="M0 0 C1.85118895 -0.00935994 1.85118895 -0.00935994 3.73977566 -0.01890898 C7.15822247 -0.0320941 10.57578898 -0.02736207 13.99418211 -0.0149641 C17.6834181 -0.00591096 21.37257736 -0.01988462 25.0617981 -0.03088379 C32.2860933 -0.04867084 39.51022229 -0.04482824 46.73452401 -0.03323323 C52.60581594 -0.02419989 58.47706127 -0.02297447 64.34835815 -0.02732849 C65.60177888 -0.02824789 65.60177888 -0.02824789 66.88052124 -0.02918586 C68.57805166 -0.03046476 70.27558207 -0.03176161 71.97311246 -0.03307623 C87.89109122 -0.04448257 103.80897783 -0.03136749 119.72694147 -0.00987476 C133.38547132 0.00799628 147.04386518 0.00489219 160.70239258 -0.0135498 C176.56338395 -0.03495557 192.42429455 -0.04338393 208.28529835 -0.03110075 C209.97658601 -0.02982655 211.66787369 -0.02856907 213.35916138 -0.02732849 C214.19130848 -0.02671139 215.02345558 -0.02609429 215.88081926 -0.02545848 C221.74509999 -0.0220047 227.6093295 -0.02783453 233.47360229 -0.0372467 C240.62016937 -0.04846481 247.7665607 -0.04543068 254.91310763 -0.02412373 C258.55947082 -0.01361066 262.20554099 -0.00949557 265.85190201 -0.02272034 C269.80394024 -0.03683698 273.75549859 -0.01998213 277.70751953 0 C278.86101615 -0.00892289 280.01451277 -0.01784577 281.20296383 -0.02703905 C287.39615774 0.03389211 291.15985752 0.32275019 295.85375977 4.50793457 C299.74623236 8.9834275 299.33754276 13.94861733 299.35766602 19.59387207 C299.36765121 20.56901764 299.37763641 21.54416321 299.38792419 22.54885864 C299.40308513 24.6080909 299.41015061 26.66739656 299.40966797 28.72668457 C299.41622429 31.86594947 299.47071302 35.00204215 299.52758789 38.14074707 C299.53639184 40.14594464 299.5423448 42.15115716 299.54516602 44.15637207 C299.56672256 45.08887787 299.58827911 46.02138367 299.61048889 46.98214722 C299.5506009 52.71969801 298.54699385 55.90693164 294.63023376 60.14529419 C290.88986984 63.01433191 287.22199797 63.75796052 282.58568668 63.76241016 C281.53789636 63.76824236 280.49010603 63.77407455 279.41056448 63.78008348 C278.26582787 63.77630415 277.12109125 63.77252483 275.94166565 63.76863098 C274.72064476 63.77245653 273.49962388 63.77628208 272.24160236 63.78022355 C268.85533784 63.78875921 265.46929036 63.78831901 262.08303201 63.78404295 C258.42992595 63.78157772 254.77684549 63.79058735 251.12374878 63.79808044 C243.96820864 63.81083494 236.81270601 63.81262022 229.65715642 63.81028018 C223.84162824 63.80849777 218.02611146 63.81024502 212.21058464 63.81450462 C210.9694498 63.81539741 210.9694498 63.81539741 209.70324154 63.81630823 C208.02238059 63.81751997 206.34151965 63.8187341 204.66065871 63.8199506 C188.89484227 63.83082895 173.12904721 63.8286622 157.36322957 63.82256576 C142.93752009 63.81739586 128.51187813 63.82865344 114.08618201 63.84766398 C99.27604582 63.86703162 84.46594159 63.87530029 69.65579265 63.87154073 C61.34013741 63.86962711 53.02453965 63.87213187 44.70889473 63.88625526 C37.63004411 63.89815634 30.55128634 63.89958827 23.47243447 63.8874651 C19.86054577 63.88156753 16.24882702 63.88050107 12.63694954 63.8924675 C8.72216087 63.90528683 4.80763102 63.89488271 0.89283752 63.88215637 C-0.82092132 63.8932178 -0.82092132 63.8932178 -2.56930155 63.90450269 C-8.15336637 63.86619169 -12.37868886 63.77009286 -17.14624023 60.50793457 C-20.48629498 56.80679282 -22.25735895 54.39039684 -22.32324219 49.42883301 C-22.33607742 48.58745789 -22.34891266 47.74608276 -22.36213684 46.87921143 C-22.36952377 45.96778381 -22.37691071 45.0563562 -22.38452148 44.11730957 C-22.39259323 43.17993958 -22.40066498 42.24256958 -22.40898132 41.27679443 C-22.4228271 39.28956962 -22.43354704 37.30232098 -22.44140625 35.31506348 C-22.45859336 32.28383912 -22.50247188 29.25371267 -22.54663086 26.22277832 C-22.55676007 24.29179676 -22.56527546 22.36080592 -22.57202148 20.42980957 C-22.58952957 19.52647888 -22.60703766 18.62314819 -22.62507629 17.69244385 C-22.60604374 12.1367718 -21.99312422 8.81593273 -18.14624023 4.50793457 C-12.57773474 -0.46582382 -7.22645173 -0.0559003 0 0 Z " fill="#7752F4" transform="translate(75.146240234375,59.4920654296875)"/>
<path d="M0 0 C0.81053833 -0.00525696 1.62107666 -0.01051392 2.45617676 -0.01593018 C5.12202512 -0.02907968 7.78727109 -0.02041015 10.453125 -0.01025391 C12.31347772 -0.0122761 14.17382967 -0.01518874 16.03417969 -0.01895142 C19.92781136 -0.02336792 23.82123617 -0.01696539 27.71484375 -0.00292969 C32.6982266 0.01416178 37.68112467 0.00431699 42.66448975 -0.01364708 C46.50443148 -0.0245031 50.34425886 -0.02103023 54.1842041 -0.0132637 C56.02136289 -0.01126672 57.85853217 -0.01370329 59.69567871 -0.02070236 C62.26614773 -0.02834681 64.83583871 -0.01667107 67.40625 0 C68.53794617 -0.00910904 68.53794617 -0.00910904 69.69250488 -0.0184021 C75.12690029 0.04668048 79.2827233 1.18050129 83.34765625 4.88818359 C86.51503197 8.95598385 87.82005904 11.73035435 87.86425781 16.84033203 C87.87386536 17.73846619 87.8834729 18.63660034 87.89337158 19.56195068 C87.89762146 20.53070129 87.90187134 21.4994519 87.90625 22.49755859 C87.91195007 23.4977301 87.91765015 24.49790161 87.92352295 25.52838135 C87.93297244 27.64667707 87.93950673 29.76498749 87.94335938 31.88330078 C87.95304571 35.11175482 87.98406199 38.33956699 88.015625 41.56787109 C88.02215722 43.62776315 88.02740683 45.68765976 88.03125 47.74755859 C88.0435968 48.70821228 88.0559436 49.66886597 88.06866455 50.65863037 C88.04787694 56.96704353 87.44972712 62.12155814 83.23828125 67.13037109 C77.72461264 71.37165464 73.61669971 71.53908531 66.81689453 71.54931641 C65.63078583 71.55676376 65.63078583 71.55676376 64.42071533 71.56436157 C61.80911382 71.57894693 59.19757302 71.58577874 56.5859375 71.59130859 C54.76756794 71.59706253 52.94919839 71.60282023 51.13082886 71.60858154 C47.31947548 71.61908086 43.50814314 71.62493069 39.69677734 71.62841797 C34.81875666 71.63390391 29.94101493 71.65793858 25.06308174 71.68638992 C21.30723259 71.70503382 17.55145045 71.71022281 13.79555893 71.71175385 C11.99746041 71.71477637 10.19936296 71.72279137 8.40130997 71.73593903 C5.88337334 71.75303813 3.36611603 71.75111013 0.84814453 71.74462891 C0.10923981 71.75384369 -0.62966492 71.76305847 -1.39096069 71.77255249 C-6.78615041 71.72915933 -10.90920265 70.566013 -14.94140625 66.88818359 C-18.15849219 62.75654145 -19.40866857 59.95006557 -19.48974609 54.76831055 C-19.50580902 53.83336258 -19.52187195 52.89841461 -19.53842163 51.93513489 C-19.58305213 47.65460041 -19.62394971 43.37421892 -19.64697266 39.09350586 C-19.66350929 36.84047093 -19.69076872 34.58748796 -19.72900391 32.3347168 C-19.78397157 29.07752403 -19.80567923 25.82155995 -19.8203125 22.56396484 C-19.84298187 21.56472488 -19.86565125 20.56548492 -19.88900757 19.53596497 C-19.87180435 13.79735429 -19.0726006 9.88777172 -15.9581604 5.03825378 C-11.32756591 0.43892008 -6.2315981 -0.05015823 0 0 Z " fill="#FEC54C" transform="translate(307.296875,261.61181640625)"/>
<path d="M0 0 C0.75787062 -0.00367669 1.51574124 -0.00735338 2.29657763 -0.01114148 C4.8436959 -0.02218095 7.39077337 -0.02602258 9.93791199 -0.02983093 C11.76110972 -0.03609531 13.58430617 -0.04274209 15.40750122 -0.04974365 C20.36624154 -0.06715396 25.32497221 -0.07770521 30.28373551 -0.08594918 C33.38088731 -0.09109863 36.4780361 -0.09717435 39.57518578 -0.10346031 C49.26291972 -0.12251135 58.95064605 -0.13674342 68.63839513 -0.14507228 C79.82624457 -0.15484937 91.0138964 -0.18118161 102.20167619 -0.22157317 C110.84634662 -0.25171393 119.49096032 -0.26653916 128.13568228 -0.26985329 C133.30027923 -0.27220583 138.46466505 -0.281193 143.6292057 -0.30631447 C148.48753944 -0.32956489 153.34552257 -0.33384062 158.20389748 -0.32355309 C159.98649256 -0.3230569 161.76910473 -0.32940168 163.55164719 -0.34310913 C165.98675686 -0.3607863 168.42060255 -0.35374331 170.85571289 -0.34057617 C171.55990587 -0.35154542 172.26409884 -0.36251466 172.989631 -0.37381631 C179.22724472 -0.29247336 182.75145695 2.23116778 186.99333191 6.58467102 C189.49200867 12.06253931 189.59615717 17.23610701 188.61833191 23.14717102 C186.68261963 26.98000996 184.31207197 29.30572236 180.47937584 31.20980263 C176.9600856 32.36283331 173.70147522 32.43078204 170.04084778 32.41459656 C169.28605743 32.41912767 168.53126708 32.42365878 167.75360429 32.4283272 C165.22879601 32.44096999 162.70420347 32.43935093 160.17936707 32.43769836 C158.36734744 32.44368367 156.55533037 32.45048922 154.74331665 32.45805359 C149.82386449 32.47571996 144.9044819 32.48040922 139.98500109 32.48168516 C136.91094139 32.48310688 133.83689939 32.48737686 130.76284409 32.4926796 C120.03692756 32.51118149 109.31106074 32.51934995 98.58512878 32.51777649 C88.58932242 32.51657482 78.59373189 32.5376817 68.59798014 32.56926382 C60.0135419 32.59541964 51.42917419 32.60614409 42.8446964 32.60486567 C37.71867432 32.60435586 32.59284409 32.6100496 27.46686172 32.63122177 C22.64541581 32.65059257 17.824345 32.65073652 13.00288582 32.63618851 C11.23522837 32.63409792 9.46754751 32.63881618 7.69993019 32.65090942 C5.28277492 32.66637306 2.86691128 32.65704745 0.44978333 32.64164734 C-0.24624162 32.65193447 -0.94226657 32.66222159 -1.65938318 32.67282045 C-7.04233086 32.59726496 -10.04284719 31.11629515 -14.38166809 28.14717102 C-18.12142759 23.35260756 -19.02984842 19.57220093 -18.77229309 13.51045227 C-17.90646181 8.27217302 -14.26857848 4.53254459 -10.38166809 1.14717102 C-6.85387446 -0.02876019 -3.67052067 -0.00095192 0 0 Z " fill="#A99EFC" transform="translate(68.38166809082031,155.8528289794922)"/>
<path d="M0 0 C0.88856689 -0.00525696 1.77713379 -0.01051392 2.69262695 -0.01593018 C5.61818222 -0.02909101 8.54318958 -0.02040592 11.46875 -0.01025391 C13.5084646 -0.01227576 15.54817849 -0.01518814 17.58789062 -0.01895142 C21.85814308 -0.02336947 26.128207 -0.01696033 30.3984375 -0.00292969 C35.86607878 0.01416178 41.33327824 0.00431783 46.80090332 -0.01364708 C51.01142696 -0.02449887 55.22184623 -0.02103214 59.43237305 -0.0132637 C61.44816134 -0.01126556 63.46395918 -0.01370739 65.47973633 -0.02070236 C68.29924544 -0.0283397 71.11804369 -0.01668053 73.9375 0 C75.18140503 -0.00910904 75.18140503 -0.00910904 76.45043945 -0.0184021 C81.35811525 0.03525884 84.71057108 0.68829145 88.96875 3.38818359 C93.63929337 8.56365057 94.32659069 11.78422458 94.24609375 18.62646484 C93.729078 23.77477663 91.24897184 26.32926992 87.39624023 29.51599121 C82.9835623 31.92632106 79.69553775 31.95294728 74.75390625 31.90576172 C73.84583221 31.912771 72.93775818 31.91978027 72.00216675 31.92700195 C69.0115467 31.94455391 66.02187906 31.932969 63.03125 31.91943359 C60.94669412 31.92212931 58.86213947 31.92601239 56.77758789 31.93103027 C52.41312667 31.93692154 48.04899336 31.92837415 43.68457031 31.90966797 C38.09574786 31.88687887 32.50769381 31.90000391 26.91889954 31.92395782 C22.61570466 31.9384257 18.31269137 31.93380522 14.00949097 31.92344666 C11.94904489 31.92078212 9.88858222 31.9240395 7.82815552 31.93336487 C4.94619199 31.94354657 2.06546537 31.92800642 -0.81640625 31.90576172 C-1.66437775 31.91385864 -2.51234924 31.92195557 -3.38601685 31.93029785 C-8.73272696 31.85400872 -11.8006582 30.95168531 -16.03125 27.38818359 C-19.40209771 22.86415115 -20.76145748 19.33374825 -20.48046875 13.66552734 C-19.68625107 9.63918903 -17.88752208 6.3241656 -15.03125 3.38818359 C-9.91734249 0.20040728 -5.83175421 -0.04270557 0 0 Z " fill="#A99EFC" transform="translate(70.03125,225.61181640625)"/>
<path d="M0 0 C6.27 0 12.54 0 19 0 C19 0.33 19 0.66 19 1 C18.43152344 1.14695313 17.86304687 1.29390625 17.27734375 1.4453125 C9.70221079 3.64576848 5.47935524 7.52064476 0 13 C0 8.71 0 4.42 0 0 Z " fill="#FEFDFD" transform="translate(0,0)"/>
<path d="M0 0 C5.94 0 11.88 0 18 0 C18 3.63 18 7.26 18 11 C16.96875 10.071875 15.9375 9.14375 14.875 8.1875 C10.33313311 4.30493637 5.97135397 1.87814029 0 1 C0 0.67 0 0.34 0 0 Z " fill="#FEFDFD" transform="translate(434,0)"/>
<path d="M0 0 C3.33333333 3.33333333 6.66666667 6.66666667 10 10 C6.7 10 3.4 10 0 10 C0 6.7 0 3.4 0 0 Z " fill="#FEFDFD" transform="translate(0,376)"/>
<path d="M0 0 C0.33 0 0.66 0 1 0 C1 2.31 1 4.62 1 7 C-1.64 7 -4.28 7 -7 7 C-4.66666667 4.66666667 -2.33333333 2.33333333 0 0 Z " fill="#FEFDFD" transform="translate(451,379)"/>
</svg>
