<?xml version="1.0" encoding="UTF-8"?>
<svg version="1.1" xmlns="http://www.w3.org/2000/svg" width="125" height="95">
<path d="M0 0 C41.25 0 82.5 0 125 0 C125 31.35 125 62.7 125 95 C83.75 95 42.5 95 0 95 C0 63.65 0 32.3 0 0 Z " fill="#EEE8FD" transform="translate(0,0)"/>
<path d="M0 0 C6.6752034 -0.02526945 13.35039457 -0.04283268 20.02563477 -0.05493164 C22.29842591 -0.05997325 24.5712138 -0.06680637 26.84399414 -0.07543945 C30.10303551 -0.08751261 33.36203417 -0.09322987 36.62109375 -0.09765625 C37.64400009 -0.10281754 38.66690643 -0.10797882 39.72080994 -0.11329651 C40.66170975 -0.11337204 41.60260956 -0.11344757 42.57202148 -0.11352539 C43.40475082 -0.115746 44.23748016 -0.11796661 45.09544373 -0.12025452 C47 0 47 0 48 1 C48.09939626 3.05012846 48.12799553 5.10371392 48.12939453 7.15625 C48.13254669 8.47431641 48.13569885 9.79238281 48.13894653 11.15039062 C48.13715675 12.60026075 48.1351058 14.05013058 48.1328125 15.5 C48.13348557 16.97591162 48.13445563 18.45182313 48.13571167 19.92773438 C48.13718848 23.02475029 48.13503464 26.12173742 48.13037109 29.21875 C48.1246738 33.19708549 48.1279529 37.17535352 48.13394356 41.15368652 C48.13754963 44.20247917 48.13641037 47.25125571 48.13381577 50.30004883 C48.13314662 51.76733406 48.13397447 53.23462074 48.13629532 54.7019043 C48.13882257 56.74918593 48.1342906 58.79647266 48.12939453 60.84375 C48.12859894 62.01099609 48.12780334 63.17824219 48.12698364 64.38085938 C48 67 48 67 47 68 C45.56259647 68.09813987 44.12043673 68.1279828 42.6796875 68.12939453 C41.76203613 68.13254669 40.84438477 68.13569885 39.89892578 68.13894653 C38.90103027 68.1369223 37.90313477 68.13489807 36.875 68.1328125 C35.85776855 68.13376923 34.84053711 68.13472595 33.79248047 68.13571167 C31.63704364 68.13639361 29.48160478 68.13453835 27.32617188 68.13037109 C24.01427629 68.12502305 20.70251633 68.13031563 17.390625 68.13671875 C15.30208303 68.13605797 13.21354115 68.13477681 11.125 68.1328125 C9.62815674 68.13584885 9.62815674 68.13584885 8.10107422 68.13894653 C7.18342285 68.13579437 6.26577148 68.13264221 5.3203125 68.12939453 C4.50836426 68.12859894 3.69641602 68.12780334 2.85986328 68.12698364 C1 68 1 68 0 67 C-0.09417773 64.91380978 -0.11742878 62.82439523 -0.11352539 60.73608398 C-0.11367142 60.08244873 -0.11381744 59.42881348 -0.1139679 58.75537109 C-0.11326883 56.58557872 -0.10547678 54.41587121 -0.09765625 52.24609375 C-0.09579205 50.74536689 -0.09436816 49.24463943 -0.09336853 47.74391174 C-0.08954352 43.78681774 -0.0797134 39.82976022 -0.06866455 35.87268066 C-0.05845006 31.83765151 -0.05387083 27.80261647 -0.04882812 23.76757812 C-0.03809111 15.84503531 -0.0210149 7.92252219 0 0 Z " fill="#7D62F4" transform="translate(13,13)"/>
<path d="M0 0 C0.33 6.27 0.66 12.54 1 19 C6.61 19.33 12.22 19.66 18 20 C16.99628129 28.02974972 16.25143279 31.13564254 10.375 36.3125 C5.25527798 39.95019722 0.13002394 39.57769859 -6 39 C-11.16800805 36.50828183 -14.62551596 32.90223788 -17.0859375 27.70703125 C-18.87457301 22.40991839 -19.01594536 16.1921465 -17.3125 10.83984375 C-13.52413655 3.65773804 -8.0630658 0 0 0 Z " fill="#8576F9" transform="translate(89,18)"/>
<path d="M0 0 C1.2219104 0.00607269 1.2219104 0.00607269 2.46850586 0.01226807 C3.30438232 0.01035461 4.14025879 0.00844116 5.00146484 0.00646973 C6.77010397 0.00510771 8.53875309 0.0088053 10.30737305 0.01715088 C13.02016579 0.02785031 15.7322963 0.01725631 18.44506836 0.00445557 C20.16121566 0.00577716 21.87736255 0.00833955 23.59350586 0.01226807 C24.40811279 0.0082196 25.22271973 0.00417114 26.06201172 0 C31.80108658 0.04797379 31.80108658 0.04797379 34.03100586 2.27789307 C34.26147461 4.84429932 34.26147461 4.84429932 34.21850586 7.84039307 C34.21206055 8.83168213 34.20561523 9.82297119 34.19897461 10.84429932 C34.03100586 13.27789307 34.03100586 13.27789307 33.03100586 14.27789307 C30.08565016 14.3789966 27.16423026 14.41758586 24.21850586 14.41070557 C22.8924231 14.41214066 22.8924231 14.41214066 21.53955078 14.41360474 C19.66658456 14.41428658 17.793616 14.412432 15.9206543 14.40826416 C13.04332198 14.40291596 10.16614578 14.408209 7.28881836 14.41461182 C5.47371385 14.41395104 3.65860943 14.41266987 1.84350586 14.41070557 C0.97685303 14.4127298 0.1102002 14.41475403 -0.78271484 14.4168396 C-6.85404405 14.39284316 -6.85404405 14.39284316 -7.96899414 13.27789307 C-8.09387172 11.46862026 -8.1447026 9.653932 -8.15649414 7.84039307 C-8.17067383 6.85168213 -8.18485352 5.86297119 -8.19946289 4.84429932 C-7.72552155 -0.43331861 -4.53948193 0.03794621 0 0 Z " fill="#FDC066" transform="translate(77.968994140625,66.72210693359375)"/>
<path d="M0 0 C7.6888149 1.28146915 11.91566595 3.16640399 16.7421875 9.16796875 C19.49872372 13.18292368 20.41286734 17.18321433 20 22 C19 23 19 23 17.14233398 23.11352539 C16.35157471 23.10828857 15.56081543 23.10305176 14.74609375 23.09765625 C13.9770874 23.09515869 13.20808105 23.09266113 12.41577148 23.09008789 C11.43294189 23.08098389 10.4501123 23.07187988 9.4375 23.0625 C4.7659375 23.0315625 4.7659375 23.0315625 0 23 C0 15.41 0 7.82 0 0 Z " fill="#5156F8" transform="translate(92,12)"/>
<path d="M0 0 C1.98 0 3.96 0 6 0 C5.35034775 0.6533432 4.7006955 1.3066864 4.03135681 1.97982788 C1.4626019 5.79899049 1.44265302 8.87927717 1.49829102 13.32275391 C1.49288803 14.14771866 1.48748505 14.97268341 1.48191833 15.82264709 C1.46944229 18.54098727 1.48591132 21.2582662 1.50390625 23.9765625 C1.50375126 25.867951 1.50226237 27.75933983 1.49949646 29.65072632 C1.49811308 33.61006753 1.51066278 37.56904621 1.53344727 41.52832031 C1.56187057 46.60733058 1.55908325 51.68574032 1.54635715 56.7647953 C1.53940918 60.66811266 1.54717851 64.57129073 1.55961418 68.4745903 C1.56413453 70.34771567 1.5644604 72.22085596 1.56054878 74.0939827 C1.5576442 76.7083133 1.57410557 79.32180985 1.59594727 81.93603516 C1.59144562 82.71220688 1.58694397 83.4883786 1.58230591 84.28807068 C1.57097279 88.23767059 1.57097279 88.23767059 3.23803806 91.69873905 C5.49703167 93.36707258 6.7850579 93.37479569 9.57907104 93.3742218 C10.51835449 93.38123611 11.45763794 93.38825043 12.42538452 93.39547729 C13.45402618 93.38783356 14.48266785 93.38018982 15.54248047 93.37231445 C16.62728699 93.37596512 17.71209351 93.37961578 18.82977295 93.38337708 C22.4257357 93.39150118 26.0212504 93.37785485 29.6171875 93.36328125 C32.11198934 93.36276279 34.60679159 93.36327993 37.10159302 93.36479187 C42.33552064 93.36470206 47.56933188 93.3545933 52.80322266 93.33618164 C59.51415416 93.31270877 66.22485617 93.31294525 72.93581963 93.31969929 C78.08991499 93.32304056 83.24395897 93.31640575 88.39804459 93.30657005 C90.87239437 93.30271876 93.34674987 93.30156955 95.82110214 93.3031559 C99.28042233 93.3035266 102.73945365 93.29090367 106.19873047 93.2746582 C107.22332367 93.27713562 108.24791687 93.27961304 109.30355835 93.28216553 C110.72094299 93.27153831 110.72094299 93.27153831 112.16696167 93.26069641 C112.98438276 93.25864354 113.80180386 93.25659067 114.64399529 93.25447559 C117.4013899 92.95664528 119.51408132 92.21930248 122 91 C123.55898087 87.88203827 123.16505275 84.5650062 123.17700195 81.14135742 C123.18357315 80.32979691 123.19014435 79.51823639 123.19691467 78.68208313 C123.21666431 75.98987745 123.22831387 73.29772759 123.23828125 70.60546875 C123.24235678 69.68680841 123.2464323 68.76814808 123.25063133 67.82164955 C123.27149905 62.95947112 123.2857978 58.09732097 123.29516602 53.23510742 C123.30623273 48.21112274 123.34063359 43.1875807 123.38033772 38.16375256 C123.40647399 34.30242587 123.41485518 30.44120512 123.41844749 26.57979774 C123.4233211 24.72782717 123.43495707 22.87586157 123.45348549 21.02397728 C123.47781399 18.4312361 123.47692368 15.83964637 123.4699707 13.24682617 C123.48278076 12.4824826 123.49559082 11.71813904 123.50878906 10.93063354 C123.46059903 5.99788214 122.47492297 3.49951571 119 0 C120.98 0 122.96 0 125 0 C125 31.35 125 62.7 125 95 C83.75 95 42.5 95 0 95 C0 63.65 0 32.3 0 0 Z " fill="#FCF9FD" transform="translate(0,0)"/>
<path d="M0 0 C10.23 0 20.46 0 31 0 C30.67 1.65 30.34 3.3 30 5 C20.43 5 10.86 5 1 5 C0.67 3.35 0.34 1.7 0 0 Z " fill="#AF95F9" transform="translate(21,27)"/>
<path d="M0 0 C6.6 0 13.2 0 20 0 C20 1.65 20 3.3 20 5 C13.4 5 6.8 5 0 5 C0 3.35 0 1.7 0 0 Z " fill="#B298FA" transform="translate(21,38)"/>
</svg>
