<?xml version="1.0" encoding="UTF-8"?>
<svg version="1.1" xmlns="http://www.w3.org/2000/svg" width="1024" height="1024">
<path d="M0 0 C337.92 0 675.84 0 1024 0 C1024 337.92 1024 675.84 1024 1024 C686.08 1024 348.16 1024 0 1024 C0 686.08 0 348.16 0 0 Z " fill="#EEE8FD" transform="translate(0,0)"/>
<path d="M0 0 C4.74359358 4.46113792 8.84820349 8.35706705 9.13028526 15.12668896 C9.13284136 16.42616624 9.13539745 17.72564352 9.13803101 19.0644989 C9.14085229 19.78828997 9.14367357 20.51208104 9.14658034 21.25780517 C9.15493125 23.68970315 9.15626502 26.12155564 9.15771484 28.5534668 C9.16238278 30.29460275 9.16752631 32.03573748 9.17311096 33.77687073 C9.18439656 37.53042677 9.19282859 41.28397485 9.19923019 45.03754234 C9.20990704 50.97548253 9.23015179 56.91336568 9.25234985 62.85127258 C9.31428234 79.73797997 9.36826548 96.6246843 9.40136719 113.51147461 C9.41972332 122.83485052 9.44867287 132.15813116 9.4893719 141.48143703 C9.51042725 146.4146426 9.52589707 151.34772819 9.52817917 156.28098106 C9.5303296 160.92428323 9.54623933 165.56733568 9.57256889 170.21056175 C9.57974861 171.91166303 9.58186931 173.6127946 9.57846642 175.31390762 C9.57455255 177.64309242 9.58908709 179.97148716 9.60800171 182.30058289 C9.61296693 184.2526265 9.61296693 184.2526265 9.61803246 186.24410534 C10.19872835 191.95409993 11.47557947 197.03602889 15.9375 200.875 C21.02567593 204.40557106 23.84934626 205.24992015 30.14678955 205.2515564 C30.86735149 205.25452654 31.58791343 205.25749667 32.33031058 205.26055682 C34.74535298 205.26819669 37.16015217 205.26170285 39.57519531 205.25537109 C41.30662704 205.25812104 43.03805751 205.26180097 44.76948547 205.26634216 C48.49903314 205.2744564 52.22852084 205.27662203 55.95807648 205.27439499 C61.85831096 205.27156278 67.7584256 205.28591108 73.65863037 205.30337524 C90.43695267 205.350409 107.21526706 205.37433887 123.99365234 205.38085938 C133.25954613 205.38461236 142.52530455 205.40266206 151.79114032 205.43595374 C157.65308568 205.45615369 163.51468154 205.45854464 169.37664747 205.44767356 C173.02960218 205.44506211 176.68235444 205.45909194 180.33525658 205.47775459 C182.0250773 205.48306672 183.71493554 205.48159656 185.40474129 205.47271919 C202.65708997 205.38941934 202.65708997 205.38941934 210.0234375 211.74609375 C210.46945312 212.30425781 210.91546875 212.86242187 211.375 213.4375 C211.83648438 213.99308594 212.29796875 214.54867187 212.7734375 215.12109375 C219.36465769 225.2178355 216.26337822 240.33732052 214.03857422 251.50488281 C205.50471365 290.39919089 186.57002352 327.12558653 158 355 C157.195625 355.804375 156.39125 356.60875 155.5625 357.4375 C154.716875 358.283125 153.87125 359.12875 153 360 C152.46246094 360.57234375 151.92492187 361.1446875 151.37109375 361.734375 C117.52826129 397.06092245 63.35692504 417.14512141 15.109375 418.19140625 C-45.94910391 418.93651302 -98.61223516 397.76200974 -143 356 C-143.70898438 355.34515625 -144.41796875 354.6903125 -145.1484375 354.015625 C-180.99695807 319.77662984 -201.44520305 266.30293426 -203.12426758 217.37915039 C-203.46406135 200.42838548 -203.51827566 183.66202247 -200 167 C-199.80132324 166.05398926 -199.60264648 165.10797852 -199.39794922 164.13330078 C-196.23708959 149.56493426 -191.80708886 135.72201905 -186 122 C-185.69368652 121.26765137 -185.38737305 120.53530273 -185.07177734 119.78076172 C-176.97545274 100.71437656 -165.58003703 83.5756205 -152 68 C-151.18660156 67.05769531 -150.37320313 66.11539063 -149.53515625 65.14453125 C-147.39722633 62.72104303 -145.21783211 60.3504199 -143 58 C-142.2471875 57.19433594 -141.494375 56.38867188 -140.71875 55.55859375 C-134.02587137 48.61581867 -126.69324745 42.77202614 -119 37 C-118.43796875 36.57187012 -117.8759375 36.14374023 -117.296875 35.70263672 C-94.56132649 18.44513363 -28.92926117 -19.22627916 0 0 Z " fill="#646EFE" transform="translate(701,222)"/>
<path d="M0 0 C14.36997553 7.62080842 27.76545689 16.87961385 40.05859375 27.5234375 C41.28255859 28.58111328 41.28255859 28.58111328 42.53125 29.66015625 C53.95561807 39.74474106 63.96049508 50.3228703 73.05859375 62.5234375 C73.69643799 63.36213379 73.69643799 63.36213379 74.34716797 64.21777344 C98.99811968 96.68765447 118.09682508 142.05834574 114.05859375 183.5234375 C112.23374467 190.46277391 108.13549363 195.71250028 102.05859375 199.5234375 C97.8921251 201.57080721 94.13034842 201.81352126 89.57049561 201.79759216 C88.45267743 201.80544718 88.45267743 201.80544718 87.31227708 201.81346089 C84.81978377 201.82844044 82.32749613 201.82916559 79.83496094 201.82983398 C78.04588984 201.83745691 76.25682201 201.84588464 74.46775818 201.85505676 C69.61016053 201.87699699 64.75262584 201.88580017 59.89498425 201.89088321 C56.85843091 201.89452769 53.82189404 201.90076828 50.78534698 201.9078846 C40.18680599 201.93237858 29.58831394 201.94543064 18.98974609 201.94897461 C9.11890245 201.95260862 -0.75163002 201.98249458 -10.62237859 202.02437919 C-19.10324009 202.05910122 -27.58399858 202.07452339 -36.06493068 202.07522064 C-41.12735335 202.07601288 -46.18945909 202.08472688 -51.25180817 202.11321831 C-56.01586528 202.13943126 -60.77934343 202.14158613 -65.54343987 202.12556267 C-67.28768872 202.12375068 -69.03197111 202.13041629 -70.77614784 202.14638138 C-87.48076943 202.28990941 -87.48076943 202.28990941 -94.94140625 196.5234375 C-95.99328125 195.8221875 -97.04515625 195.1209375 -98.12890625 194.3984375 C-103.04725314 190.09831857 -106.73354703 182.91321742 -107.94140625 176.5234375 C-108.04303886 174.04338677 -108.09353987 171.59101987 -108.0953064 169.11090088 C-108.10187978 167.98718067 -108.10187978 167.98718067 -108.10858595 166.84075904 C-108.12194655 164.32905813 -108.12814661 161.81739228 -108.13427734 159.30566406 C-108.14218039 157.50526777 -108.15044947 155.70487304 -108.15905762 153.90447998 C-108.18525157 147.99102282 -108.20058143 142.07755867 -108.21484375 136.1640625 C-108.22020428 134.12735744 -108.22558179 132.09065242 -108.2309761 130.05394745 C-108.25259988 121.58182005 -108.27133665 113.10969454 -108.2825985 104.63754654 C-108.29883932 92.50025882 -108.33202619 80.36329113 -108.38899934 68.22612405 C-108.42770512 59.68925861 -108.44723188 51.15247875 -108.45251906 42.61552787 C-108.45617127 37.51789528 -108.46817914 32.42060424 -108.5006218 27.32306671 C-108.53071398 22.5262169 -108.53701012 17.72991511 -108.52523804 12.93299103 C-108.52501741 11.1754146 -108.53331369 9.41781264 -108.55089188 7.6603241 C-108.71343865 -9.53110764 -108.71343865 -9.53110764 -102.94140625 -15.4765625 C-80.67086518 -38.02506974 -22.62278798 -11.56163591 0 0 Z " fill="#FEC734" transform="translate(849.94140625,193.4765625)"/>
<path d="M0 0 C0.74822021 -0.00817749 1.49644043 -0.01635498 2.26733398 -0.02478027 C4.75031739 -0.04964536 7.23324339 -0.06615693 9.71630859 -0.08056641 C10.56502911 -0.08589008 11.41374962 -0.09121376 12.28818893 -0.09669876 C16.78423917 -0.12344073 21.28026159 -0.14280848 25.77636719 -0.15722656 C30.41007621 -0.17383774 35.04306892 -0.21858227 39.67650795 -0.26959801 C43.24714932 -0.3033435 46.81762261 -0.31481218 50.38840866 -0.32045364 C52.09557923 -0.32715065 53.80273935 -0.34233228 55.50975418 -0.36634445 C71.58200139 -0.57944907 71.58200139 -0.57944907 77.32162476 3.62924194 C80.86041196 7.53113009 82.11469682 10.74435246 82.12006283 15.98914146 C82.12850277 17.15475054 82.13694271 18.32035962 82.14563841 19.52129018 C82.13962836 20.79763692 82.13361832 22.07398366 82.12742615 23.38900757 C82.13159928 24.76189695 82.13707669 26.13478289 82.14374596 27.50766242 C82.15822225 31.27964411 82.15394909 35.05140771 82.14657915 38.82340145 C82.14185511 42.89167276 82.15435058 46.95989637 82.16459656 51.02815247 C82.18180532 58.99818783 82.18262022 66.96814442 82.17738365 74.93819354 C82.17334435 81.41590248 82.17478266 87.89358811 82.18013191 94.37129593 C82.18088033 95.29279271 82.18162876 96.21428949 82.18239986 97.16371042 C82.18393132 99.03566364 82.18546966 100.90761685 82.18701483 102.77957006 C82.20074755 120.34045052 82.1952969 137.90128645 82.18382961 155.46216591 C82.17389785 171.52971489 82.18683554 187.59714871 82.2107638 203.66467993 C82.23514371 220.15967503 82.24476532 236.65461647 82.23811108 253.14962924 C82.23461621 262.41156845 82.23686851 271.67341909 82.25436211 280.9353447 C82.26907029 288.82043708 82.26973775 296.70537854 82.2522912 304.59046791 C82.24376709 308.61364379 82.2416658 312.63654989 82.25694275 316.65971184 C82.27075831 320.34363081 82.26606758 324.0270481 82.24670351 327.71093781 C82.24114917 329.67295452 82.25524125 331.63499657 82.27005762 333.59696519 C82.21360947 340.33111229 81.90955993 344.78653478 77.73974609 350.19287109 C70.35236853 355.79162402 61.39635778 354.75566925 52.54443359 354.68896484 C50.86630185 354.68912002 49.18816976 354.690612 47.51004028 354.69337463 C44.0049034 354.69475435 40.50017784 354.68226997 36.99511719 354.65942383 C32.51171674 354.63099629 28.02899674 354.63379407 23.54554558 354.64651394 C20.08474962 354.65348068 16.62410989 354.64567124 13.16333389 354.63325691 C11.51039352 354.62875517 9.85743631 354.6283944 8.20449448 354.63232231 C5.89281765 354.63524553 3.58206727 354.61867739 1.27050781 354.59692383 C-0.04217072 354.59152084 -1.35484924 354.58611786 -2.70730591 354.58055115 C-7.17987416 354.09252669 -10.56404124 352.74001044 -13.90478516 349.69287109 C-17.41210543 345.18848653 -18.38465122 342.31603062 -18.39168167 336.68675518 C-18.39552282 335.53496169 -18.39936396 334.3831682 -18.4033215 333.19647187 C-18.40245502 331.92529018 -18.40158854 330.65410848 -18.4006958 329.34440613 C-18.40327889 327.98490814 -18.40629189 326.62541091 -18.4096992 325.26591474 C-18.41777902 321.5217533 -18.41955932 317.77761102 -18.42029667 314.0334419 C-18.42214551 309.99857211 -18.42969197 305.9637123 -18.43643188 301.92884827 C-18.45002251 293.10245963 -18.45604101 284.27607554 -18.46044254 275.44967818 C-18.46320363 269.94038722 -18.46744072 264.43109802 -18.47194672 258.92180824 C-18.48414013 243.67366617 -18.49443944 228.4255255 -18.49782181 213.17737865 C-18.49804137 212.20118168 -18.49826094 211.2249847 -18.49848716 210.21920599 C-18.49870544 209.24065021 -18.49892372 208.26209443 -18.49914861 207.25388545 C-18.49959208 205.27090084 -18.50003864 203.28791624 -18.50048828 201.30493164 C-18.50070971 200.32129913 -18.50093114 199.33766663 -18.50115928 198.32422707 C-18.5051082 182.38199584 -18.52256478 166.43981029 -18.5458478 150.4975967 C-18.56954915 134.13715139 -18.5820231 117.77672902 -18.58318973 101.41626626 C-18.58410715 92.2275556 -18.58987643 83.03890447 -18.60800934 73.85021019 C-18.62339389 66.02655446 -18.62854052 58.20297664 -18.62027124 50.37930866 C-18.61635893 46.38668542 -18.6173225 42.39421917 -18.63132858 38.40161514 C-18.6440328 34.74674361 -18.64290085 31.0921476 -18.63073787 27.43727664 C-18.62784464 25.48834034 -18.63974297 23.53939943 -18.65215993 21.59050053 C-18.61412614 14.89768388 -18.52043686 9.68533171 -13.72509766 4.54833984 C-8.78812826 0.7730103 -6.09496864 0.03659005 0 0 Z " fill="#5E60FE" transform="translate(354.26025390625,484.80712890625)"/>
<path d="M0 0 C0.72900513 -0.00671722 1.45801025 -0.01343445 2.20910645 -0.02035522 C4.61636194 -0.0393334 7.02333843 -0.04325971 9.43066406 -0.04541016 C11.10972202 -0.05183971 12.78877886 -0.05856819 14.46783447 -0.06558228 C17.98834834 -0.07755564 21.50876409 -0.08126319 25.02929688 -0.08007812 C29.52611878 -0.07987527 34.02230629 -0.10714178 38.51897812 -0.14162254 C41.98841196 -0.16393683 45.45769445 -0.16791424 48.92719269 -0.16685867 C50.58409047 -0.16920919 52.24099277 -0.17800162 53.89781952 -0.19352341 C70.44619777 -0.33400124 70.44619777 -0.33400124 76.69628906 4.29052734 C81.17585247 9.50683293 81.26700239 13.71757639 81.20422363 20.27282715 C81.2104636 21.27419063 81.21670356 22.27555411 81.22313261 23.30726194 C81.2390797 26.66064764 81.22645117 30.0133082 81.21386719 33.36669922 C81.21928752 35.77161585 81.22640967 38.17652915 81.23510742 40.58143616 C81.25145918 46.43412491 81.24905786 52.28662553 81.23745686 58.13930905 C81.22841825 62.8964736 81.22720037 67.65358066 81.23155212 72.41075134 C81.23216506 73.08816957 81.23277799 73.7655878 81.23340949 74.46353385 C81.23468841 75.83975527 81.23598527 77.21597668 81.23729986 78.59219807 C81.24870229 91.49288317 81.23559729 104.39345452 81.21409839 117.29412097 C81.19622768 128.3602001 81.19933188 139.42611139 81.21777344 150.4921875 C81.23918615 163.34713456 81.24760369 176.20198196 81.23532438 189.05694437 C81.2340502 190.42806401 81.23279272 191.79918367 81.23155212 193.17030334 C81.23093502 193.84489616 81.23031792 194.51948898 81.22968212 195.214524 C81.22623041 199.96521952 81.23205368 204.71585176 81.24147034 209.46653748 C81.25386914 215.86221114 81.24502424 222.2576424 81.22189331 228.65328789 C81.21659994 231.00187592 81.21813066 233.35049061 81.22694397 235.69906807 C81.23785769 238.90248286 81.2241852 242.10487791 81.20422363 245.30822754 C81.21314652 246.2399401 81.22206941 247.17165267 81.23126268 248.13159895 C81.16418102 253.67304756 80.45092788 256.93042397 76.69628906 261.29052734 C72.33424509 265.10893025 67.61196399 265.87240379 61.9284668 265.79223633 C60.81485275 265.80034081 60.81485275 265.80034081 59.67874146 265.80860901 C57.24537242 265.82103033 54.81320186 265.8046522 52.37988281 265.78662109 C50.67790159 265.78677622 48.97592002 265.78826746 47.27394104 265.79103088 C43.71575202 265.79241186 40.15796758 265.77990637 36.59985352 265.75708008 C32.04804613 265.72867455 27.49690933 265.73144261 22.94505215 265.74417019 C19.43364268 265.75113729 15.92238719 265.7433267 12.41099739 265.73091316 C10.73293715 265.72641021 9.05486032 265.72605173 7.37679863 265.72997856 C5.02909534 265.73290154 2.68230451 265.71633385 0.3347168 265.69458008 C-0.69644005 265.70133255 -0.69644005 265.70133255 -1.74842834 265.70822144 C-7.84995226 265.6146745 -11.53197739 263.96382815 -15.94038105 259.80034351 C-19.2856782 255.63868113 -19.00605436 251.43400787 -18.9520874 246.28372192 C-18.96590403 244.77766807 -18.96590403 244.77766807 -18.97999978 243.24118888 C-19.00461625 239.8785501 -18.99351201 236.51699349 -18.98242188 233.15429688 C-18.99247174 230.74276812 -19.00461876 228.33124732 -19.01870728 225.91973877 C-19.04681007 220.0503228 -19.05127808 214.18117771 -19.04369411 208.31172551 C-19.03786555 203.53978511 -19.04106781 198.76793208 -19.05066681 193.99599838 C-19.05201042 193.31638224 -19.05335403 192.6367661 -19.05473836 191.93655553 C-19.05748164 190.55582856 -19.06023412 189.17510162 -19.0629957 187.79437469 C-19.08759176 174.85022098 -19.0799989 161.90623323 -19.06242564 148.9620782 C-19.04732698 137.12747219 -19.07151466 125.29333186 -19.11445805 113.45880629 C-19.15824369 101.29959762 -19.17608777 89.14060722 -19.16568208 76.98132026 C-19.16028047 70.15779269 -19.16497621 63.33463897 -19.19664764 56.51117325 C-19.22609466 50.09401392 -19.21881869 43.67753643 -19.18693161 37.26038361 C-19.18087478 34.90617977 -19.18673975 32.55191033 -19.20544052 30.19777298 C-19.22908756 26.98123212 -19.20950518 23.76771996 -19.17913818 20.55130005 C-19.19611748 19.62152222 -19.21309677 18.69174439 -19.23059058 17.73379147 C-19.10916644 11.53344835 -17.45775464 8.36236081 -13.1948092 3.87510955 C-8.89302543 0.27057447 -5.57063594 0.03224329 0 0 Z " fill="#6C6EFE" transform="translate(231.3037109375,573.70947265625)"/>
<path d="M0 0 C1.53681427 -0.01073296 1.53681427 -0.01073296 3.10467529 -0.02168274 C4.22315353 -0.02437164 5.34163177 -0.02706055 6.4940033 -0.02983093 C7.67660736 -0.03640213 8.85921143 -0.04297333 10.07765198 -0.04974365 C13.99629575 -0.06947335 17.91492608 -0.08114522 21.83360291 -0.09111023 C23.18674171 -0.09516022 24.53988032 -0.09927722 25.89301872 -0.10346031 C32.25487105 -0.1225059 38.61671187 -0.13673537 44.97858721 -0.14507228 C52.30016955 -0.15482726 59.62144817 -0.18110348 66.94292361 -0.22157317 C72.61531855 -0.25184104 78.287627 -0.26655141 83.96010107 -0.26985329 C87.34139756 -0.27219265 90.72236939 -0.28100518 94.10357857 -0.30631447 C97.88500505 -0.33075074 101.66564646 -0.32973178 105.4471283 -0.32279968 C106.55143692 -0.33560974 107.65574554 -0.3484198 108.79351807 -0.36161804 C119.36268738 -0.2913397 129.26826842 2.5422456 136.92344666 10.14717102 C142.37766516 17.02264468 145.22150042 22.95889559 145.22984314 31.80805969 C145.23816666 32.56325897 145.24649017 33.31845825 145.25506592 34.09654236 C145.27910249 36.5861278 145.28793164 39.07545068 145.29454041 41.56513977 C145.30351393 43.30523758 145.3126359 45.04533462 145.32189941 46.78543091 C145.33837641 50.43280406 145.34608675 54.08008559 145.34898376 57.72749329 C145.35435596 62.38002021 145.39199293 67.03167412 145.43772793 71.68395519 C145.46761452 75.2795722 145.47470988 78.8749823 145.47570992 82.47071266 C145.47989183 84.18458859 145.49224386 85.89846629 145.51322746 87.61221886 C145.61976972 97.06890578 145.51966296 105.07956476 139.92344666 113.14717102 C139.46703293 113.81657211 139.0106192 114.48597321 138.54037476 115.17565918 C134.07482682 121.36562592 126.35084816 125.6469847 118.92344666 127.14717102 C117.20565825 127.24258593 115.48465356 127.28621915 113.76423645 127.29434204 C112.72142014 127.30149734 111.67860382 127.30865265 110.60418701 127.31602478 C108.89606087 127.32005814 108.89606087 127.32005814 107.15342712 127.32417297 C105.94970963 127.33074417 104.74599213 127.33731537 103.50579834 127.34408569 C99.51740773 127.36381521 95.52905733 127.37548603 91.54063416 127.38545227 C90.16394659 127.38950203 88.78725922 127.39361902 87.41057205 127.39780235 C80.93926484 127.41684652 74.46796896 127.43107727 67.99663913 127.43941432 C60.54543814 127.44917401 53.09453522 127.47546325 45.64343917 127.51591522 C39.87254689 127.5461616 34.10173962 127.56089136 28.33076966 127.56419533 C24.88970386 127.56653678 21.44895675 127.57537738 18.00797653 127.60065651 C14.16168908 127.62505769 10.31617487 127.62408029 6.46983337 127.61714172 C5.343228 127.62995178 4.21662262 127.64276184 3.05587769 127.65596008 C-8.05389354 127.58316434 -15.8349834 124.30552372 -23.87342834 116.65888977 C-30.07183255 109.59226937 -32.17183307 102.19821092 -32.28529358 92.99873352 C-32.29507736 92.28590714 -32.30486115 91.57308075 -32.31494141 90.83865356 C-32.34481102 88.48317805 -32.36626479 86.12775935 -32.38514709 83.77217102 C-32.39171892 82.96337494 -32.39829075 82.15457886 -32.40506172 81.3212738 C-32.43762852 77.03457895 -32.46207833 72.74790854 -32.48158264 68.46113586 C-32.49933922 64.93244204 -32.53407084 61.40455587 -32.5841217 57.87617493 C-32.64471495 53.59853633 -32.6751119 49.32164161 -32.68475533 45.04359436 C-32.69324961 43.42342972 -32.71191657 41.80328169 -32.74149895 40.18336487 C-32.95034401 28.08965626 -31.08178783 18.59017596 -22.82655334 9.20967102 C-16.4555108 3.40620465 -8.58062289 0.04124436 0 0 Z " fill="#FEC733" transform="translate(579.0765533447266,707.8528289794922)"/>
<path d="M0 0 C0.74080307 -0.00700928 1.48160614 -0.01401855 2.24485779 -0.02124023 C4.67339491 -0.03872609 7.10074963 -0.02723204 9.52929688 -0.01367188 C11.22888409 -0.01636952 12.9284698 -0.02025421 14.62805176 -0.02526855 C18.18203492 -0.03115083 21.73561468 -0.02264198 25.28955078 -0.00390625 C29.83241134 0.01888283 34.37432649 0.00575287 38.9171524 -0.01819611 C42.4243271 -0.03268869 45.93127971 -0.02803232 49.4384613 -0.01768494 C51.11291111 -0.01502719 52.78738144 -0.01825374 54.46180725 -0.02760315 C56.80710838 -0.0378264 59.15090402 -0.02218955 61.49609375 0 C62.52185768 -0.01214539 62.52185768 -0.01214539 63.56834412 -0.02453613 C68.54080053 0.06209674 72.50824187 1.24623697 76.24804688 4.51757812 C79.6523339 8.80527198 80.7487035 11.63131375 80.75598145 17.08312988 C80.76726074 18.38690079 80.77854004 19.69067169 80.79016113 21.03395081 C80.78238499 22.46664653 80.77419238 23.89934004 80.765625 25.33203125 C80.77104884 26.85026215 80.77817298 28.36848779 80.78686523 29.88670349 C80.80507059 34.00038798 80.79804275 38.11367033 80.78534889 42.22736168 C80.77520671 46.53671714 80.78461795 50.84603866 80.79089355 55.15539551 C80.79816642 62.39158293 80.78859177 69.62760693 80.76953125 76.86376953 C80.74776314 85.22428054 80.75481477 93.58440134 80.77683687 101.9449029 C80.7950012 109.12895623 80.79754416 116.31289224 80.7870822 123.49696112 C80.78085292 127.78511289 80.77999599 132.07308138 80.79322815 136.36122131 C80.80480114 140.39315579 80.7967349 144.42458822 80.77365112 148.45646858 C80.76837171 149.93427256 80.76986473 151.41211894 80.77870178 152.88990593 C80.78966934 154.91059717 80.77346263 156.93138098 80.75598145 158.95202637 C80.75447334 160.081726 80.75296524 161.21142563 80.75141144 162.37535858 C79.99952903 167.06893411 77.72126396 170.22293281 74.18554688 173.33007812 C70.22056088 175.76023083 66.4594998 175.68297239 61.96606445 175.71044922 C60.85814545 175.72271545 60.85814545 175.72271545 59.72784424 175.73522949 C57.28276369 175.76004557 54.83774116 175.77659196 52.39257812 175.79101562 C51.13742181 175.79900114 51.13742181 175.79900114 49.8569088 175.80714798 C45.42569266 175.83386629 40.99450454 175.85324324 36.56323242 175.86767578 C32.90347218 175.88100114 29.24427133 175.90882912 25.5847168 175.94970703 C21.15915174 175.99913743 16.73409308 176.02380971 12.30826378 176.03090286 C10.62621215 176.03759798 8.94417105 176.05277465 7.2622776 176.07679367 C-8.56134609 176.28983222 -8.56134609 176.28983222 -14.3249054 172.08120728 C-18.07806909 167.96883175 -19.12765951 164.64553947 -19.13963318 159.11697388 C-19.14953781 157.82443695 -19.15944244 156.53190002 -19.16964722 155.20019531 C-19.1654094 153.77490139 -19.16085156 152.34960839 -19.15600586 150.92431641 C-19.16171047 149.41770929 -19.16867508 147.91110649 -19.17680359 146.4045105 C-19.19474189 142.31762769 -19.19356519 138.23095952 -19.1878612 134.14404917 C-19.18476979 130.72960137 -19.1908614 127.31519483 -19.19689995 123.9007529 C-19.21094627 115.84346831 -19.2093835 107.78628974 -19.19799805 99.72900391 C-19.18652119 91.42364461 -19.20058486 83.11860839 -19.22739452 74.81329167 C-19.24956654 67.67681168 -19.25618539 60.54043299 -19.25031811 53.40392101 C-19.24695036 49.14421343 -19.24935117 44.88471287 -19.26656914 40.62503433 C-19.28205985 36.61775322 -19.27805951 32.61094968 -19.25926399 28.60368729 C-19.25558371 27.13597198 -19.25867028 25.66822114 -19.26914978 24.20053864 C-19.36326607 9.925385 -19.36326607 9.925385 -14.75195312 4.51757812 C-10.22131878 0.77767031 -5.81631388 -0.06886709 0 0 Z " fill="#787CFE" transform="translate(108.751953125,663.482421875)"/>
<path d="M0 0 C5.9104445 0.12313426 8.78480659 1.98521212 13.203125 5.8203125 C17.50442715 11.03797903 18.50303495 16.47251045 18.375 23.0625 C18.36919922 23.79331787 18.36339844 24.52413574 18.35742188 25.27709961 C18.19045248 32.41426821 16.83687766 39.10077498 15 46 C14.67 46 14.34 46 14 46 C14.14017826 43.02046641 14.28686342 40.04150696 14.4375 37.0625 C14.49647461 35.78729492 14.49647461 35.78729492 14.55664062 34.48632812 C14.59853516 33.67744141 14.64042969 32.86855469 14.68359375 32.03515625 C14.72025146 31.2862915 14.75690918 30.53742676 14.79467773 29.76586914 C15 28 15 28 16 27 C16.88802977 19.34928202 15.49972637 12.28535466 10.8125 6.125 C7.31420785 3.48184593 4.16544785 2.34141541 0 1 C0 0.67 0 0.34 0 0 Z " fill="#2D31FE" transform="translate(899,429)"/>
<path d="M0 0 C-3.00653645 1.67029803 -5.62372124 2.39977267 -9 3 C-10.50038113 3.35254857 -12.00034835 3.70686122 -13.5 4.0625 C-16.73545017 4.79169161 -19.66578415 5.2151107 -23 5 C-17.74918549 -0.25081451 -7.12094719 -0.41887925 0 0 Z " fill="#3E43FD" transform="translate(675,221)"/>
<path d="M0 0 C-2.27617499 2.65192451 -3.89245447 3.45409812 -7.3125 4.0625 C-10.99737787 4.77900403 -14.45908033 5.72890063 -18 7 C-15.44426039 3.9828074 -12.61619207 2.7567467 -9 1.25 C-7.948125 0.80140625 -6.89625 0.3528125 -5.8125 -0.109375 C-3 -1 -3 -1 0 0 Z " fill="#3D45FE" transform="translate(633,233)"/>
<path d="M0 0 C-2.94723051 1.96482034 -5.11977826 2.7561217 -8.5 3.6875 C-9.4590625 3.95949219 -10.418125 4.23148438 -11.40625 4.51171875 C-14 5 -14 5 -17 4 C-15.3962669 3.35309078 -13.79199694 2.70751236 -12.1875 2.0625 C-10.84751953 1.52302734 -10.84751953 1.52302734 -9.48046875 0.97265625 C-5.76679063 -0.48357344 -3.82661053 -1.18756878 0 0 Z " fill="#3B43FE" transform="translate(651,227)"/>
<path d="M0 0 C0.33 0 0.66 0 1 0 C1.40178571 8.03571429 1.40178571 8.03571429 -2 12 C-1.85904936 10.3745692 -1.71207913 8.74965949 -1.5625 7.125 C-1.48128906 6.22007812 -1.40007812 5.31515625 -1.31640625 4.3828125 C-1 2 -1 2 0 0 Z " fill="#5059FE" transform="translate(505,374)"/>
<path d="M0 0 C2 1 2 1 2.75 2.8125 C3.05694702 5.49828639 2.38111722 6.7252187 1 9 C-1.125 3.375 -1.125 3.375 0 0 Z " fill="#5B66FE" transform="translate(508,488)"/>
</svg>
