<svg version="1.1" xmlns="http://www.w3.org/2000/svg" width="1024" height="1024">
  <path d="M0 0 C337.92 0 675.84 0 1024 0 C1024 337.92 1024 675.84 1024 1024 C686.08 1024 348.16 1024 0 1024 C0 686.08 0 348.16 0 0 Z " fill="none" transform="translate(0,0)"/>
  <path d="M0 0 C16.23697407 13.84440135 27.67157876 29.81583718 37.375 48.6875 C37.98859375 49.85023438 38.6021875 51.01296875 39.234375 52.2109375 C71.1312768 116.15105717 73.62077591 203.77683265 52.19140625 271.26123047 C50.05008563 277.62499971 47.37481488 283.68635748 44.375 289.6875 C44.04129395 290.36151855 43.70758789 291.03553711 43.36376953 291.72998047 C38.29378588 301.79194801 32.33480809 309.7520711 24.375 317.6875 C23.77042969 318.35136719 23.16585938 319.01523437 22.54296875 319.69921875 C13.45205803 329.54217562 -0.40083931 337.58334264 -13.6875 339.8125 C-17.625 339.6875 -17.625 339.6875 -20.375 338.4375 C-28.42068848 328.60388075 -32.5053406 313.23235355 -31.625 300.6875 C-30.94695312 300.35878906 -30.26890625 300.03007812 -29.5703125 299.69140625 C-22.09482385 295.87083103 -13.38111684 291.07486108 -9.41796875 283.328125 C-2.4570199 260.14782241 -3.69796904 225.32598374 -12.625 202.6875 C-15.10960805 199.09509504 -15.10960805 199.09509504 -18.625 196.6875 C-26.5465816 195.92089533 -32.62637999 197.95700435 -39.625 201.6875 C-40.64210971 202.67009241 -41.64773585 203.66526971 -42.625 204.6875 C-43.285 204.6875 -43.945 204.6875 -44.625 204.6875 C-45.058125 205.56243607 -45.058125 205.56243607 -45.5 206.45504761 C-46.1893339 207.82296326 -46.89418608 209.18336001 -47.625 210.52957153 C-50.18457275 215.3343164 -51.63389443 219.84130287 -52.625 225.1796875 C-52.86863281 226.44726395 -52.86863281 226.44726395 -53.1171875 227.740448 C-55.47294376 240.61004074 -56.85616846 253.64107875 -58.36954117 266.63100815 C-58.80103679 270.31576694 -59.24328164 273.99923559 -59.68432617 277.68286133 C-61.14240901 289.8890874 -62.57207775 302.09810611 -63.92578125 314.31640625 C-64.10472832 315.91195664 -64.28375952 317.5074976 -64.46289062 319.10302734 C-64.7705172 321.84587789 -65.06263944 324.58882265 -65.34570312 327.33447266 C-66.87086202 341.13488431 -66.87086202 341.13488431 -72.1875 346.0625 C-76.23567827 348.76128551 -78.56512435 348.82670347 -83.45800781 348.86450195 C-84.16067276 348.87107315 -84.86333771 348.87764435 -85.58729553 348.88441467 C-87.91757308 348.90415808 -90.24778609 348.91581368 -92.578125 348.92578125 C-93.374179 348.92985678 -94.170233 348.9339323 -94.99040985 348.93813133 C-99.20535524 348.95899841 -103.42026802 348.97329627 -107.63525391 348.98266602 C-111.98432793 348.99372049 -116.3328889 349.028107 -120.68178177 349.06783772 C-124.02930639 349.09401534 -127.37670912 349.10235894 -130.72432709 349.10594749 C-132.32706917 349.11081201 -133.92980586 349.12242225 -135.53244781 349.14098549 C-137.7801798 349.16539835 -140.02658941 349.16440858 -142.27441406 349.1574707 C-144.19063568 349.16627007 -144.19063568 349.16627007 -146.14556885 349.17524719 C-151.07055339 348.4848621 -154.18497217 346.32615236 -157.4375 342.625 C-159.71496934 338.90912898 -159.74702605 335.82255217 -159.73852539 331.5637207 C-159.73844986 330.30263992 -159.73837433 329.04155914 -159.73829651 327.74226379 C-159.73318989 326.36593588 -159.72797389 324.98960837 -159.72265625 323.61328125 C-159.72079086 322.20509389 -159.71936753 320.79690589 -159.71836853 319.38871765 C-159.71455288 315.6848267 -159.70473072 311.98097505 -159.69366455 308.27709961 C-159.68342997 304.49658744 -159.67886652 300.71606891 -159.67382812 296.93554688 C-159.6631076 289.51951335 -159.6460426 282.10351218 -159.625 274.6875 C-161.17036438 274.99963188 -161.17036438 274.99963188 -162.74694824 275.31806946 C-164.11188866 275.59270691 -165.47683871 275.86729646 -166.84179688 276.1418457 C-167.85799103 276.34729382 -167.85799103 276.34729382 -168.89471436 276.5568924 C-196.78127599 282.15806205 -230.54948169 283.10077042 -257.625 273.6875 C-257.61389694 274.51355743 -257.60279388 275.33961487 -257.59135437 276.19070435 C-257.4910296 283.98830043 -257.41497305 291.78567871 -257.36593914 299.58377266 C-257.33988222 303.59258761 -257.30455728 307.6008678 -257.24780273 311.609375 C-257.19334099 315.48031722 -257.16355009 319.3507462 -257.15061378 323.22204208 C-257.14139906 324.69644116 -257.1234042 326.17081319 -257.09634972 327.64499283 C-256.86728287 340.64779001 -256.86728287 340.64779001 -259.90551758 344.51513672 C-264.63896123 348.29628239 -267.5579937 348.9412514 -273.66918945 348.97802734 C-274.37054016 348.98474457 -275.07189087 348.99146179 -275.79449463 348.99838257 C-278.10916261 349.01735305 -280.4235404 349.02128647 -282.73828125 349.0234375 C-284.35247414 349.02986693 -285.96666587 349.0365954 -287.58085632 349.04360962 C-290.96433207 349.05558059 -294.34770574 349.05929072 -297.73120117 349.05810547 C-302.05549722 349.05790248 -306.3791346 349.08518423 -310.70327473 349.11964989 C-314.03798903 349.14194877 -317.37254568 349.14594208 -320.70732689 349.14488602 C-322.30085707 349.14723826 -323.89439185 349.15604057 -325.48784828 349.17155075 C-327.72323562 349.19126908 -329.95721425 349.185351 -332.19262695 349.17333984 C-334.09646904 349.1776149 -334.09646904 349.1776149 -336.03877258 349.18197632 C-340.53809075 348.56160119 -342.87063216 347.21656147 -346.625 344.6875 C-350.69179622 339.25160197 -350.79030076 332.02619444 -351.60546875 325.4765625 C-351.78018824 324.13532335 -351.95584094 322.79420548 -352.13235474 321.45320129 C-352.60645811 317.82969624 -353.06690213 314.20457276 -353.52481461 310.57899094 C-354.00822986 306.77046847 -354.50443913 302.96361094 -354.9987793 299.15649414 C-356.99478002 283.74155955 -358.92760735 268.31860023 -360.8515625 252.89453125 C-360.94051348 252.18174263 -361.02946445 251.46895401 -361.12111092 250.73456573 C-362.0509126 243.28123995 -362.97500757 235.82729649 -363.88549805 228.37158203 C-365.88204318 212.10310385 -368.13875601 195.88846018 -370.625 179.6875 C-371.285 179.6875 -371.945 179.6875 -372.625 179.6875 C-373.40285796 182.85248172 -374.17163312 186.01959607 -374.9375 189.1875 C-375.16824219 190.13625 -375.39898437 191.085 -375.63671875 192.0625 C-376.70214067 196.51572422 -377.71402829 200.94804946 -378.44921875 205.46875 C-378.56676514 206.18611328 -378.68431152 206.90347656 -378.80541992 207.64257812 C-379.10687381 209.57151454 -379.38240144 211.50445134 -379.65625 213.4375 C-380.84619521 217.42957426 -382.36475661 219.13435452 -385.625 221.6875 C-387.87109375 222.3515625 -387.87109375 222.3515625 -390.0625 222.3125 C-390.78308594 222.32539063 -391.50367188 222.33828125 -392.24609375 222.3515625 C-396.00541088 221.30216363 -398.5532388 219.98933039 -400.625 216.6875 C-401.48174104 212.11768389 -401.32833053 207.63378812 -401.1875 203 C-401.16279 201.6459288 -401.13887517 200.29184287 -401.11572266 198.93774414 C-399.8923934 143.63613796 -385.00158901 87.12526182 -345.23828125 47.296875 C-317.63363464 21.23883847 -282.71399942 7.40650898 -245.625 2.6875 C-244.98099243 2.60014587 -244.33698486 2.51279175 -243.67346191 2.42279053 C-237.28707836 1.62013128 -230.95480528 1.50957895 -224.5234375 1.484375 C-222.79318832 1.47582489 -222.79318832 1.47582489 -221.02798462 1.46710205 C-218.58897811 1.4576894 -216.1499591 1.451133 -213.7109375 1.44726562 C-210.05965534 1.43765699 -206.40896058 1.40663735 -202.7578125 1.375 C-187.8118036 1.30958411 -173.38004036 2.2764447 -158.625 4.6875 C-158.625 8.78910976 -160.64397395 11.39296424 -162.6875 14.8125 C-178.75349918 42.66044362 -185.06630922 76.20277813 -176.625 107.6875 C-176.37556641 108.65357178 -176.37556641 108.65357178 -176.12109375 109.63916016 C-170.00581046 132.89422355 -157.34421261 153.7935694 -136.625 166.6875 C-124.92750906 173.44640207 -114.12812234 176.33392607 -100.625 175.6875 C-101.61757813 175.35878906 -102.61015625 175.03007812 -103.6328125 174.69140625 C-126.62548347 166.7679096 -143.10607204 152.3225916 -154.4375 130.8125 C-159.58814567 119.98885545 -162.93758062 108.55446019 -164.625 96.6875 C-164.8003125 95.64464844 -164.975625 94.60179687 -165.15625 93.52734375 C-168.58324945 65.45450656 -162.1818225 35.8438821 -144.6875 13.25 C-143.35732103 11.70814226 -142.0026525 10.18709161 -140.625 8.6875 C-139.88894531 7.85992187 -139.15289063 7.03234375 -138.39453125 6.1796875 C-103.75631078 -30.77528181 -38.44335699 -30.58239044 0 0 Z " fill="#5773F8" transform="translate(664.625,185.3125)"/>
  <path d="M0 0 C9.0702462 6.08019263 15.82508953 15.13026135 19.83203125 25.2734375 C20.27869141 26.37945313 20.27869141 26.37945313 20.734375 27.5078125 C25.81995561 42.60050336 23.69142651 60.16879234 17.20703125 74.3984375 C11.05780156 85.95657193 1.65549364 94.58160206 -10.66796875 99.2109375 C-25.35867891 102.95976306 -41.10070887 100.68707919 -54.04296875 93.0234375 C-64.7841743 85.62912933 -71.88874637 74.29205008 -74.80834961 61.53662109 C-76.84092753 48.74504112 -76.59272867 34.15383072 -71.16796875 22.2734375 C-70.74386719 21.31566406 -70.31976563 20.35789062 -69.8828125 19.37109375 C-63.77186224 6.96194962 -54.65041944 0.40574354 -42.16796875 -4.7265625 C-27.97517138 -9.49483039 -12.95800894 -7.06219476 0 0 Z " fill="#4973FC" transform="translate(297.16796875,633.7265625)"/>
  <path d="M0 0 C57.64705882 0 57.64705882 0 69 9 C75.1165796 15.83769214 78.66636277 24.46907386 78.28125 33.6796875 C77.31798263 41.62664327 74.71533215 48.3115684 69 54 C67.12788304 55.29681023 65.2188928 56.54158618 63.28125 57.73828125 C62.29189453 58.35356689 61.30253906 58.96885254 60.28320312 59.6027832 C59.15301758 60.29440552 59.15301758 60.29440552 58 61 C60.0258035 64.78651613 62.05220007 68.57271413 64.07910156 72.35864258 C64.76578046 73.64143698 65.45230878 74.924312 66.13867188 76.20727539 C67.13630322 78.07200006 68.13454993 79.93639444 69.1328125 81.80078125 C69.62216278 82.71623215 69.62216278 82.71623215 70.12139893 83.650177 C72.68333968 88.43443455 75.30723179 93.18264713 77.96435547 97.91479492 C79 100 79 100 79 102 C76.4511873 102.27243841 73.9314013 102.4683029 71.375 102.625 C70.30572266 102.75068359 70.30572266 102.75068359 69.21484375 102.87890625 C66.82475267 102.98854346 65.23362763 102.87975428 63 102 C60.35554184 99.0129351 58.76425879 95.55614709 57 92 C55.81615109 89.88174303 54.62309863 87.7686089 53.421875 85.66015625 C52.19635206 83.461809 50.97241031 81.26257958 49.75 79.0625 C48.51674685 76.84442796 47.28242204 74.62695132 46.046875 72.41015625 C45.50901367 71.44215088 44.97115234 70.47414551 44.41699219 69.47680664 C43.34846096 67.60908623 42.19359038 65.79038557 41 64 C38.28995497 63.489395 38.28995497 63.489395 35.1171875 63.48828125 C33.54106689 63.43861206 33.54106689 63.43861206 31.93310547 63.38793945 C30.59393066 63.36304443 29.25475586 63.33814941 27.875 63.3125 C23.62625 63.209375 19.3775 63.10625 15 63 C15 75.87 15 88.74 15 102 C10.05 102 5.1 102 0 102 C0 68.34 0 34.68 0 0 Z " fill="#9B6AE0" transform="translate(626,629)"/>
  <path d="M0 0 C55.53907923 0 55.53907923 0 66.12890625 9.07421875 C72.35543783 15.48273664 75.27391195 22.81381625 75.375 31.75 C75.2033251 41.3435976 72.53386279 48.27417642 65.9140625 55.24609375 C55.67859719 64.62512217 44.10517543 64.28104293 30.9375 64.125 C26.008125 64.08375 21.07875 64.0425 16 64 C16 76.54 16 89.08 16 102 C10.72 102 5.44 102 0 102 C0 68.34 0 34.68 0 0 Z " fill="#4374FE" transform="translate(136,629)"/>
  <path d="M0 0 C1.30904297 -0.01740234 1.30904297 -0.01740234 2.64453125 -0.03515625 C15.03361666 0.01990635 26.39540751 4.75070119 35.5703125 13.078125 C40.14783726 18.52667674 44.5 26.19858578 44.5 33.375 C39.35049095 33.96463844 34.62868735 34.26483534 29.5 33.375 C27.1023652 31.0568448 26.05139504 28.93596641 24.66796875 25.91796875 C22.32096725 20.80794207 17.95472832 18.39944873 13.0625 16.0625 C4.12313279 12.79593424 -5.34044034 12.90332226 -14 16.875 C-23.60324275 22.3994461 -28.02303892 29.75180139 -31.03051758 40.22192383 C-33.83529577 53.08481456 -32.38469235 68.42199842 -26.09765625 79.9453125 C-21.7305494 86.41589136 -15.90696029 90.08604352 -8.5 92.375 C1.73949886 93.96949823 10.00340484 92.32517583 18.5 86.375 C25.79076729 80.55031092 26.60352706 74.78853704 29.5 65.375 C15.64 64.88 15.64 64.88 1.5 64.375 C1.5 60.415 1.5 56.455 1.5 52.375 C15.69 52.375 29.88 52.375 44.5 52.375 C44.5 69.205 44.5 86.035 44.5 103.375 C40.21 103.375 35.92 103.375 31.5 103.375 C31.005 95.95 31.005 95.95 30.5 88.375 C29.18 89.921875 27.86 91.46875 26.5 93.0625 C18.86895187 101.47804841 11.15186938 105.34531453 -0.19140625 106.6953125 C-13.17943038 107.26247513 -25.21353494 101.95305873 -34.75 93.34375 C-45.98600048 81.59702222 -50.02186851 66.59037707 -49.8515625 50.6862793 C-49.3637687 35.68153862 -44.32300317 23.57903774 -33.984375 12.66796875 C-24.06598481 3.51373126 -13.3340562 -0.17726219 0 0 Z " fill="#7E6DE9" transform="translate(557.5,627.625)"/>
  <path d="M0 0 C8.2282941 4.69524126 13.00300786 12.34712734 16.07421875 21.18359375 C19.03400043 34.45487288 18.59601065 50.6910751 11.68359375 62.57421875 C7.02140565 69.19943342 0.77287595 74.83663841 -7.2890625 76.7421875 C-17.05150356 78.37649245 -25.71957703 77.03831229 -34.18359375 71.78125 C-41.82539311 65.83924251 -46.23723221 56.39051741 -47.671875 46.921875 C-48.9463612 33.17703156 -47.9768149 19.69405833 -39.73828125 8.05859375 C-29.78069589 -3.36527341 -13.65278238 -6.52174233 0 0 Z " fill="rgb(255, 248, 248)" transform="translate(285.92578125,643.81640625)"/>
  <path d="M0 0 C6.0518981 4.14793016 10.48272515 9.44167312 13.0859375 16.3046875 C13.7109375 19.6796875 13.7109375 19.6796875 13.7109375 25.6796875 C8.7609375 25.6796875 3.8109375 25.6796875 -1.2890625 25.6796875 C-1.7015625 24.2978125 -2.1140625 22.9159375 -2.5390625 21.4921875 C-4.44141881 15.88199782 -6.30475929 12.68987822 -11.7265625 9.9296875 C-19.26351129 7.28514407 -27.72781693 6.57458324 -35.36328125 9.46484375 C-38.71017608 11.54716875 -40.84030566 14.05779539 -42.2890625 17.6796875 C-42.83554239 22.51993792 -42.85028103 26.43677289 -40.2890625 30.6796875 C-34.02548267 35.65886408 -26.20953119 37.23671242 -18.6015625 39.0546875 C7.51091119 45.73662414 7.51091119 45.73662414 13.734375 55.64453125 C17.45754345 63.40361429 17.75257269 71.10895018 15.0859375 79.2421875 C11.78892561 87.57694132 6.68526165 92.69550314 -1.2890625 96.6796875 C-8.41595604 99.46702798 -15.11904531 100.19747291 -22.7265625 100.1171875 C-23.73992676 100.10888916 -24.75329102 100.10059082 -25.79736328 100.09204102 C-32.90834558 99.93087099 -39.05430688 99.36336146 -45.2890625 95.6796875 C-46.09214844 95.21691406 -46.89523437 94.75414062 -47.72265625 94.27734375 C-54.29156821 89.86570994 -57.69129317 84.07118225 -60.2890625 76.6796875 C-60.95815219 73.25840888 -61.1860835 70.18097361 -61.2890625 66.6796875 C-56.0090625 66.6796875 -50.7290625 66.6796875 -45.2890625 66.6796875 C-44.8559375 68.2265625 -44.4228125 69.7734375 -43.9765625 71.3671875 C-41.9801622 77.88998848 -40.2186324 81.53170792 -34.203125 84.8828125 C-26.96534322 87.89609308 -17.58432315 87.97444515 -10.3515625 85.0546875 C-6.46114735 83.0033777 -3.01205275 80.86290903 -1.2890625 76.6796875 C-0.48343954 71.37840072 -0.40952267 66.5986835 -2.6640625 61.6796875 C-9.27202691 56.64504795 -17.68164881 54.94610733 -25.6640625 53.2421875 C-48.93143939 47.93433633 -48.93143939 47.93433633 -56.2890625 38.6796875 C-60.45127788 30.67394144 -60.90493762 21.28856959 -58.41015625 12.62890625 C-54.57346458 4.28441842 -48.69764538 -0.06661065 -40.40234375 -3.55859375 C-27.8575136 -8.08029778 -11.41801606 -6.58581814 0 0 Z " fill="#4D71FA" transform="translate(395.2890625,633.3203125)"/>
  <path d="M0 0 C5.01585078 4.11904586 8.79789427 9.99367059 10.5625 16.25 C10.5625 18.56 10.5625 20.87 10.5625 23.25 C5.6125 23.25 0.6625 23.25 -4.4375 23.25 C-4.788125 21.88875 -5.13875 20.5275 -5.5 19.125 C-7.24300843 13.92870727 -9.80471247 11.10914711 -14.4375 8.25 C-21.10853405 5.31474502 -29.94641596 4.89499175 -36.94921875 7.0078125 C-40.5977281 8.72079101 -43.67370286 10.51490018 -45.4375 14.25 C-46.81234126 20.2403798 -46.69050121 23.7933528 -43.4375 29.25 C-39.426832 32.32534968 -35.88589231 33.94068249 -31 35.14453125 C-29.78127197 35.45648437 -28.56254395 35.7684375 -27.30688477 36.08984375 C-26.02998779 36.41082031 -24.75309082 36.73179687 -23.4375 37.0625 C4.36343753 44.35578993 4.36343753 44.35578993 10.5859375 54.28125 C14.65266281 62.47976823 14.41206547 70.31720422 11.58984375 78.796875 C7.76517619 87.92954126 1.03884698 92.44110974 -7.82421875 96.28515625 C-18.36589395 99.84317849 -33.77831108 100.33432088 -44.2734375 96.34765625 C-54.08631805 91.37036485 -60.87543564 84.82181487 -64.4375 74.25 C-64.67854015 71.21771488 -64.52852942 68.29948567 -64.4375 65.25 C-59.1575 65.25 -53.8775 65.25 -48.4375 65.25 C-48.210625 66.77625 -47.98375 68.3025 -47.75 69.875 C-46.705911 74.90367357 -45.39898488 77.78370073 -41.4375 81.25 C-33.70241183 85.79170314 -25.56785242 86.45384564 -16.8515625 84.7421875 C-11.05637835 83.0671675 -7.6132676 80.35823943 -4.125 75.375 C-2.49582176 70.33935817 -3.22452719 65.93629537 -5.4375 61.25 C-5.7675 60.26 -6.0975 59.27 -6.4375 58.25 C-15.21020689 54.78585747 -24.57118167 52.74915877 -33.68945312 50.38671875 C-44.63953305 47.45070358 -54.54814151 44.40941779 -61.1875 34.6875 C-64.29451455 28.62882163 -64.1184761 21.90673264 -63.4375 15.25 C-60.60248299 6.5214414 -55.262282 1.22323865 -47.6953125 -3.63671875 C-33.63884375 -10.56767652 -12.76073237 -8.60115662 0 0 Z " fill="#B062D5" transform="translate(871.4375,634.75)"/>
  <path d="M0 0 C21.78 0 43.56 0 66 0 C66 4.62 66 9.24 66 14 C49.17 14 32.34 14 15 14 C15 23.9 15 33.8 15 44 C29.85 44 44.7 44 60 44 C60 47.96 60 51.92 60 56 C45.15 56 30.3 56 15 56 C15 66.89 15 77.78 15 89 C31.83 89 48.66 89 66 89 C66 93.29 66 97.58 66 102 C44.22 102 22.44 102 0 102 C0 68.34 0 34.68 0 0 Z " fill="#AA66DA" transform="translate(724,629)"/>
  <path d="M0 0 C26.07 0 52.14 0 79 0 C79 4.62 79 9.24 79 14 C68.77 14 58.54 14 48 14 C48 43.37 48 72.74 48 103 C42.72 103 37.44 103 32 103 C32 73.63 32 44.26 32 14 C21.44 14 10.88 14 0 14 C0 9.38 0 4.76 0 0 Z " fill="#5E74F6" transform="translate(421,629)"/>
  <path d="M0 0 C5.135625 -0.061875 10.27125 -0.12375 15.5625 -0.1875 C17.16939697 -0.21481201 18.77629395 -0.24212402 20.43188477 -0.27026367 C21.71377686 -0.27775635 22.99566895 -0.28524902 24.31640625 -0.29296875 C25.62037354 -0.3086792 26.92434082 -0.32438965 28.26782227 -0.34057617 C35.01266498 0.27491775 39.55212751 2.78963509 44 8 C47.05799413 12.94643962 46.57602682 18.38373849 46 24 C44.6655153 28.70102564 42.7917484 31.35670442 39 34.4375 C34.05931382 37.01077405 30.18862346 37.11979612 24.609375 37.09765625 C23.31999023 37.09515869 22.03060547 37.09266113 20.70214844 37.09008789 C18.25083496 37.07643188 18.25083496 37.07643188 15.75 37.0625 C7.95375 37.0315625 7.95375 37.0315625 0 37 C0 24.79 0 12.58 0 0 Z " fill="rgb(255, 248, 248)" transform="translate(641,642)"/>
  <path d="M0 0 C6.435 -0.0928125 6.435 -0.0928125 13 -0.1875 C14.33675781 -0.21481201 15.67351562 -0.24212402 17.05078125 -0.27026367 C24.54582477 -0.32243725 31.08965924 -0.33158065 37.05859375 4.75390625 C37.74115234 5.64916016 37.74115234 5.64916016 38.4375 6.5625 C38.91058594 7.16191406 39.38367188 7.76132812 39.87109375 8.37890625 C43.43715517 13.4997211 42.58284547 20.02092232 42 26 C40.40258107 30.40781572 38.15044482 33.13015147 34.4375 35.9375 C30.01898403 37.86351978 26.3096472 38.11958931 21.484375 38.09765625 C20.35741211 38.09515869 19.23044922 38.09266113 18.06933594 38.09008789 C15.93126465 38.07643188 15.93126465 38.07643188 13.75 38.0625 C9.2125 38.041875 4.675 38.02125 0 38 C0 25.46 0 12.92 0 0 Z " fill="rgb(255, 248, 248)" transform="translate(152,642)"/>
  <path d="M0 0 C3.95018626 2.08689086 6.64836078 4.21311966 9 8 C9.78623141 12.33737663 10.013156 16.96162661 8.015625 20.98046875 C4.6768871 25.15389112 1.87722169 26.78748434 -3.3125 27.375 C-7.72767221 26.92599944 -10.59710578 25.84014168 -14 23 C-16.98183486 18.67153004 -17.63850079 15.19922071 -17 10 C-15.60830225 6.3711107 -13.71863826 3.61882739 -10.75 1.0625 C-7.09876353 -0.348205 -3.82574547 -0.68263302 0 0 Z " fill="#353135" transform="translate(662,265)"/>
  <path d="M0 0 C3.87498404 -0.02917234 7.74993958 -0.04685673 11.625 -0.0625 C12.71941406 -0.07087891 13.81382812 -0.07925781 14.94140625 -0.08789062 C16.53662109 -0.09272461 16.53662109 -0.09272461 18.1640625 -0.09765625 C19.62513428 -0.10551147 19.62513428 -0.10551147 21.11572266 -0.11352539 C24.19518783 0.00768261 27.00440175 0.26050639 30 1 C30.66 1.99 31.32 2.98 32 4 C28.04 3.67 24.08 3.34 20 3 C20 2.34 20 1.68 20 1 C13.4 1 6.8 1 0 1 C0 0.67 0 0.34 0 0 Z " fill="#3B58F5" transform="translate(590,164)"/>
  <path d="M0 0 C0.99 0.33 1.98 0.66 3 1 C2.071875 1.8971875 2.071875 1.8971875 1.125 2.8125 C-1.13676954 5.00811144 -1.13676954 5.00811144 -3 8 C-3.66 8 -4.32 8 -5 8 C-5 11.3 -5 14.6 -5 18 C-7 16 -7 16 -7.375 12.8125 C-6.90660131 8.05044664 -5.69320479 5.92438412 -3 2 C-2.01 1.34 -1.02 0.68 0 0 Z " fill="#302827" transform="translate(652,266)"/>
  <path d="M0 0 C0.33 0 0.66 0 1 0 C1 4.29 1 8.58 1 13 C0.01 12.34 -0.98 11.68 -2 11 C-2.56737589 3.85106383 -2.56737589 3.85106383 0 0 Z " fill="#627EFB" transform="translate(266,369)"/>
  <path d="M0 0 C-1.04874998 2.62187494 -1.64931313 3.79371361 -4.125 5.25 C-4.74375 5.4975 -5.3625 5.745 -6 6 C-6 3 -6 3 -4.6875 1.3125 C-3 0 -3 0 0 0 Z " fill="#4666F8" transform="translate(311,245)"/>
  <path d="M0 0 C3.5 -0.375 3.5 -0.375 7 0 C7.66 0.99 8.32 1.98 9 3 C5.37 3 1.74 3 -2 3 C-1.34 2.01 -0.68 1.02 0 0 Z " fill="#6880F8" transform="translate(428,187)"/>
  <path d="M0 0 C1.14926266 0.95421808 2.29430541 1.91352045 3.4375 2.875 C4.07558594 3.40867187 4.71367187 3.94234375 5.37109375 4.4921875 C7 6 7 6 8 8 C5.125 7.375 5.125 7.375 2 6 C0.625 2.875 0.625 2.875 0 0 Z " fill="#345FFB" transform="translate(352,711)"/>
</svg>
