<?xml version="1.0" encoding="UTF-8"?>
<svg version="1.1" xmlns="http://www.w3.org/2000/svg" width="1024" height="1536">
<path d="M0 0 C337.92 0 675.84 0 1024 0 C1024 506.88 1024 1013.76 1024 1536 C686.08 1536 348.16 1536 0 1536 C0 1029.12 0 522.24 0 0 Z " fill="#EBE8FE" transform="translate(0,0)"/>
<path d="M0 0 C0.57669434 0.4856543 1.15338867 0.97130859 1.74755859 1.47167969 C2.29202637 1.92124023 2.83649414 2.37080078 3.39746094 2.83398438 C23.36901601 19.48003182 38.46711735 43.23361023 44.74755859 68.47167969 C45.04662109 69.67308594 45.34568359 70.87449219 45.65380859 72.11230469 C48.500415 84.93485609 50.92863989 102.92843579 46.74755859 115.47167969 C47.74271484 115.42527344 48.73787109 115.37886719 49.76318359 115.33105469 C75.24005931 114.5179958 97.72944984 121.99432568 116.53271484 139.37792969 C118.99053368 141.70137042 121.41920141 144.01746536 123.74755859 146.47167969 C124.52486328 147.23931641 124.52486328 147.23931641 125.31787109 148.02246094 C134.36424409 157.49478423 139.64781951 169.89759683 142.74755859 182.47167969 C143.03566406 183.58349609 143.03566406 183.58349609 143.32958984 184.71777344 C146.82186793 207.72764305 140.72284303 229.88815457 127.13037109 248.50292969 C118.5008318 259.25448684 108.70330447 266.75134852 96.37255859 272.72167969 C95.701521 273.05119629 95.0304834 273.38071289 94.33911133 273.72021484 C82.82234069 279.07653377 71.52944295 279.89696556 59.04443359 279.76464844 C57.46975106 279.75903889 55.89506322 279.75477523 54.32037354 279.75178528 C50.21699034 279.74044324 46.11393618 279.71107064 42.01068115 279.67767334 C37.80713346 279.64674013 33.60353154 279.63323075 29.39990234 279.61816406 C21.18228812 279.58618822 12.96500245 279.53351028 4.74755859 279.47167969 C4.74755859 287.72167969 4.74755859 295.97167969 4.74755859 304.47167969 C4.41755859 304.47167969 4.08755859 304.47167969 3.74755859 304.47167969 C3.74755859 295.89167969 3.74755859 287.31167969 3.74755859 278.47167969 C-8.13244141 278.96667969 -8.13244141 278.96667969 -20.25244141 279.47167969 C-36.42244141 279.47167969 -52.59244141 279.47167969 -69.25244141 279.47167969 C-69.25244141 334.91167969 -69.25244141 390.35167969 -69.25244141 447.47167969 C-69.58244141 447.47167969 -69.91244141 447.47167969 -70.25244141 447.47167969 C-70.25244141 391.70167969 -70.25244141 335.93167969 -70.25244141 278.47167969 C-82.13244141 278.96667969 -82.13244141 278.96667969 -94.25244141 279.47167969 C-98.75945405 279.54076463 -103.24764891 279.59278124 -107.75244141 279.56933594 C-109.39950073 279.56721352 -109.39950073 279.56721352 -111.07983398 279.56504822 C-114.47073512 279.55960241 -117.86156142 279.5470848 -121.25244141 279.53417969 C-123.60009668 279.52914459 -125.94775302 279.52458531 -128.29541016 279.52050781 C-133.94780351 279.5105494 -139.6000422 279.49094923 -145.25244141 279.47167969 C-145.25244141 291.02167969 -145.25244141 302.57167969 -145.25244141 314.47167969 C-145.58244141 314.47167969 -145.91244141 314.47167969 -146.25244141 314.47167969 C-146.25244141 302.59167969 -146.25244141 290.71167969 -146.25244141 278.47167969 C-154.17244141 278.47167969 -162.09244141 278.47167969 -170.25244141 278.47167969 C-170.25244141 289.36167969 -170.25244141 300.25167969 -170.25244141 311.47167969 C-170.58244141 311.47167969 -170.91244141 311.47167969 -171.25244141 311.47167969 C-171.25244141 300.91167969 -171.25244141 290.35167969 -171.25244141 279.47167969 C-177.50955078 279.52388672 -177.50955078 279.52388672 -183.89306641 279.57714844 C-187.28064206 279.5965264 -190.66820144 279.61276438 -194.05580139 279.62693024 C-197.59786644 279.64258139 -201.13970582 279.66338427 -204.68164062 279.69799805 C-241.60263254 280.04885883 -270.89376638 275.27753372 -298.00634766 248.78027344 C-316.18471628 229.7138013 -324.42626054 205.73678632 -324.43994141 179.78417969 C-324.4521875 178.58083984 -324.46443359 177.3775 -324.47705078 176.13769531 C-324.4959206 164.49501586 -323.05699891 154.17684278 -318.56494141 143.40917969 C-318.20754883 142.54212402 -317.85015625 141.67506836 -317.48193359 140.78173828 C-307.62657133 117.47253854 -288.4115489 98.40537118 -265.07666016 88.52636719 C-248.54905295 82.35423172 -226.8669966 78.12884064 -209.25244141 82.47167969 C-209.12289062 81.46814453 -209.12289062 81.46814453 -208.99072266 80.44433594 C-205.41240302 55.98701362 -195.22810209 34.29909766 -179.25244141 15.47167969 C-178.51380859 14.58609375 -177.77517578 13.70050781 -177.01416016 12.78808594 C-160.64863587 -6.09521131 -137.60311206 -19.95655669 -113.25244141 -25.52832031 C-112.60533203 -25.67785156 -111.95822266 -25.82738281 -111.29150391 -25.98144531 C-72.60572804 -34.57828439 -30.54971457 -25.42951381 0 0 Z " fill="#FEFEFE" transform="translate(596.25244140625,341.5283203125)"/>
<path d="M0 0 C7.92 0 15.84 0 24 0 C24.11629634 4.69320345 24.21533679 9.38119705 24.2746582 14.07470703 C24.29944183 15.66309758 24.33328015 17.25137875 24.37719727 18.83935547 C24.91560693 38.84285815 19.29164115 57.01636298 5.32958984 71.88793945 C0.72900799 76.52989064 -4.25087535 79.94526568 -10 83 C-10.88429688 83.47050781 -11.76859375 83.94101562 -12.6796875 84.42578125 C-28.14562903 92.02426556 -43.66670658 91.44073387 -60.51171875 91.44140625 C-63.09235884 91.45319482 -65.67299215 91.46656263 -68.25361633 91.48143005 C-75.70766308 91.52114067 -83.16165592 91.54094706 -90.61578369 91.55760193 C-100.76131551 91.58158858 -110.9067156 91.62127803 -121.05213356 91.67487907 C-124.82211598 91.69112781 -128.59197124 91.69497781 -132.36198425 91.69789124 C-134.68492855 91.70767207 -137.00787088 91.71793609 -139.33081055 91.72875977 C-140.88730064 91.72493034 -140.88730064 91.72493034 -142.47523499 91.72102356 C-157.47931516 91.82562461 -171.11210001 96.25439222 -182.10546875 106.83984375 C-185.37201585 110.56438096 -187.85607828 114.5430585 -190 119 C-190.32636948 119.66640503 -190.65273895 120.33281006 -190.98899841 121.01940918 C-194.12806928 128.01531372 -194.60110458 134.18549498 -194.609375 141.7890625 C-194.62591125 142.97349945 -194.64244751 144.1579364 -194.65948486 145.37826538 C-194.70771322 149.127231 -194.72928082 152.8757917 -194.75 156.625 C-194.77818057 159.18100968 -194.80811088 161.7370007 -194.83984375 164.29296875 C-194.91346558 170.52857293 -194.96525513 176.76406441 -195 183 C-193.86962311 182.99333817 -192.73924622 182.98667633 -191.57461548 182.97981262 C-180.89384019 182.91885527 -170.21310045 182.87395728 -159.53219032 182.84456348 C-154.0417312 182.82894357 -148.55141312 182.80777256 -143.06103516 182.77368164 C-137.75718179 182.740957 -132.45346364 182.72311938 -127.14951706 182.71536827 C-125.13143156 182.70984823 -123.11335301 182.69906919 -121.09532547 182.68280983 C-118.25691291 182.66086126 -115.4190509 182.65804032 -112.58056641 182.65942383 C-111.75625122 182.648638 -110.93193604 182.63785217 -110.0826416 182.6267395 C-101.84143698 182.66987807 -93.58580735 184.26942804 -87.52164268 190.18849945 C-79.83878895 199.33486075 -80.28458242 209.3775607 -80.35302734 220.69335938 C-80.34624349 222.58007143 -80.33733606 224.46677685 -80.32647705 226.35346985 C-80.30376851 231.45479266 -80.31248513 236.55560736 -80.32837248 241.65693855 C-80.3410753 247.0080815 -80.32927922 252.3591824 -80.32144165 257.71032715 C-80.31235785 266.69482188 -80.32429973 275.67911077 -80.34814453 284.66357422 C-80.37535327 295.0349755 -80.36653822 305.40588523 -80.3390125 315.77727461 C-80.31628631 324.69904507 -80.31313853 333.62066799 -80.32620585 342.54245806 C-80.33398104 347.86356692 -80.33509517 353.18444511 -80.31852341 358.50553894 C-80.30402681 363.50938491 -80.31419505 368.51260021 -80.34299469 373.5163784 C-80.34957782 375.34726606 -80.34775557 377.17820725 -80.33668137 379.00907326 C-80.27950853 389.42560656 -80.23011652 398.89520063 -87.81387901 406.91916656 C-93.82850011 412.55821276 -99.39202197 413.29479628 -107.36851501 413.26069641 C-108.78964933 413.26643473 -108.78964933 413.26643473 -110.23949343 413.27228898 C-113.41614766 413.28261296 -116.59262094 413.27862794 -119.76928711 413.2746582 C-122.04597644 413.27900499 -124.3226643 413.28418802 -126.59934998 413.29014587 C-132.78522634 413.30355028 -138.97104167 413.30411296 -145.15692973 413.30158257 C-150.31864686 413.3005139 -155.48035159 413.30539355 -160.64206606 413.310188 C-173.51401064 413.32192292 -186.38591131 413.32105523 -199.2578565 413.31463119 C-210.43414427 413.30946167 -221.61034489 413.32071851 -232.78661542 413.33972941 C-244.26548126 413.35910518 -255.7442898 413.36707282 -267.22317511 413.36360615 C-273.6664783 413.36179129 -280.10970166 413.36444983 -286.55299187 413.37832069 C-292.61128239 413.39087448 -298.66939817 413.38897805 -304.72768593 413.37590981 C-306.95211216 413.37353919 -309.17655059 413.376296 -311.40096283 413.38453293 C-314.4356797 413.39496077 -317.46980594 413.38693132 -320.50450134 413.3742218 C-321.3863137 413.38159609 -322.26812606 413.38897037 -323.17666 413.39656812 C-330.14674697 413.3350876 -335.27337597 411.34963296 -340.5573349 406.59139061 C-348.4120007 397.92698098 -347.70176806 387.4078293 -347.61523438 376.45849609 C-347.61873981 374.58824664 -347.62440315 372.71800017 -347.63204956 370.84776306 C-347.64624437 365.79199429 -347.62928924 360.73677286 -347.60576439 355.6810565 C-347.58559335 350.37970956 -347.59153809 345.07838395 -347.59387207 339.77700806 C-347.59381858 330.87826558 -347.57410546 321.97973599 -347.54199219 313.08105469 C-347.50508018 302.80286592 -347.49632061 292.52495563 -347.5032897 282.24670923 C-347.50960079 272.34323337 -347.49883062 262.43985267 -347.47932434 252.53639603 C-347.47116422 248.32845322 -347.46843823 244.12055915 -347.47001648 239.9126091 C-347.47089721 234.95649617 -347.4566285 230.00064674 -347.43078995 225.04460335 C-347.42364554 223.22900355 -347.42153619 221.41337569 -347.42490768 219.59776497 C-347.42864005 217.11350798 -347.41381483 214.63001259 -347.39440918 212.14584351 C-347.40240107 211.07627271 -347.40240107 211.07627271 -347.41055441 209.98509443 C-347.3110676 202.56925912 -344.80054748 195.66218421 -340 190 C-334.47789207 186.12180907 -329.37866202 182.87183123 -322.50117493 182.87974548 C-321.57990814 182.87837082 -320.65864136 182.87699615 -319.7094574 182.87557983 C-318.70101273 182.87917511 -317.69256805 182.88277039 -316.65356445 182.88647461 C-315.58998718 182.88632858 -314.52640991 182.88618256 -313.43060303 182.8860321 C-309.90814183 182.88672988 -306.38573323 182.89451599 -302.86328125 182.90234375 C-300.4237623 182.90420841 -297.98424297 182.90563209 -295.54472351 182.90663147 C-289.11838755 182.91045287 -282.69207412 182.92027996 -276.26574707 182.93133545 C-269.71037094 182.94155767 -263.15499117 182.94613083 -256.59960938 182.95117188 C-243.73306329 182.96190254 -230.86653284 182.97878272 -218 183 C-218.01110306 182.35901367 -218.02220612 181.71802734 -218.03364563 181.05761719 C-218.14537969 174.30776085 -218.22013382 167.55817253 -218.2746582 160.80761719 C-218.29960245 158.29774278 -218.33357032 155.78793949 -218.37719727 153.27832031 C-218.77482391 129.79495843 -216.06280469 109.81357224 -199.10546875 92.10327148 C-197.74741529 90.72515168 -196.37414589 89.36207433 -195 88 C-194.37738281 87.34386719 -193.75476563 86.68773437 -193.11328125 86.01171875 C-188.94123868 81.93342994 -184.0712764 79.12179705 -179 76.3125 C-178.35466309 75.94358643 -177.70932617 75.57467285 -177.04443359 75.19458008 C-162.28078244 67.38610015 -146.72583053 67.43946644 -130.45159149 67.5141449 C-126.53179897 67.53159536 -122.61273165 67.52379818 -118.69293213 67.5098877 C-110.37858095 67.48336637 -102.06437517 67.48982332 -93.75 67.5 C-84.09231327 67.51180655 -74.43499475 67.51027488 -64.77735138 67.47593689 C-60.93304496 67.46888514 -57.08931684 67.48546117 -53.24505615 67.50305176 C-50.87137549 67.49734102 -48.49769715 67.49052233 -46.12402344 67.48242188 C-45.07021484 67.49373642 -44.01640625 67.50505096 -42.93066406 67.51670837 C-31.28096631 67.42226116 -20.71631053 63.88546637 -12 56 C-1.56193263 44.25967854 -0.38088057 31.79832504 -0.25 16.8125 C-0.22178302 15.17640152 -0.19184779 13.54033174 -0.16015625 11.90429688 C-0.08380277 7.9359252 -0.04265923 3.9694412 0 0 Z " fill="#E0E6F9" transform="translate(426,620)"/>
<path d="M0 0 C7.92 0 15.84 0 24 0 C24 55.77 24 111.54 24 169 C31.92 169 39.84 169 48 169 C59.35326203 174.02417633 59.35326203 174.02417633 62.9151001 176.55010986 C63.71919563 177.11984779 64.52329117 177.68958572 65.35175323 178.27658844 C66.17411217 178.87882988 66.9964711 179.48107132 67.84375 180.1015625 C68.70609001 180.72821556 69.56843002 181.35486862 70.45690155 182.00051117 C77.07658616 186.90666717 83.32623049 192.17258434 89.5 197.625 C90.41623642 198.42085762 91.33247284 199.21671524 92.276474 200.03668976 C118.84240487 223.46410384 130.28727528 247.19976589 132.76245117 282.28372192 C134.0118509 302.97845043 133.85013768 323.66183522 133.25 344.375 C133.2209042 345.41863488 133.1918084 346.46226976 133.1618309 347.53752995 C132.55126414 369.0353016 131.56882113 390.52112973 129.91328907 411.9655292 C129.78909124 413.57760306 129.66922682 415.19001802 129.55419445 416.80277181 C128.78741592 427.31414545 127.84944483 438.15055517 120 446 C110.20729806 454.34007607 100.32987911 454.44072586 88.07836914 454.40405273 C86.35781919 454.40976065 84.63727303 454.41672654 82.91673279 454.42485046 C78.25967106 454.44275015 73.60279809 454.44161954 68.94571233 454.43590808 C65.05163615 454.4328117 61.15759599 454.43891365 57.26352495 454.44494683 C48.07417154 454.45897988 38.88491112 454.45744083 29.69555664 454.44604492 C20.22855341 454.43456384 10.76183348 454.44864201 1.29486758 454.4754414 C-6.8463639 454.49762141 -14.98750659 454.50423062 -23.12876612 454.49836498 C-27.98540284 454.49499985 -32.84185797 454.49738107 -37.69846916 454.51461601 C-42.26636574 454.53011986 -46.83384362 454.52609157 -51.40172386 454.50731087 C-53.07339652 454.50363455 -54.74510045 454.50670545 -56.41674423 454.51719666 C-68.34331029 454.58630529 -77.15654092 453.36793225 -86.20703125 445.00390625 C-90.70055377 439.98173403 -94.11718952 433.76399648 -94.13422108 426.94185543 C-94.13867892 426.11300113 -94.14313676 425.28414682 -94.14772969 424.43017572 C-94.14754533 423.51968975 -94.14736097 422.60920378 -94.14717102 421.67112732 C-94.15084771 420.70373424 -94.1545244 419.73634116 -94.1583125 418.73963314 C-94.16936561 415.48323645 -94.17319597 412.22687165 -94.17700195 408.97045898 C-94.18326545 406.64144285 -94.18991215 404.31242772 -94.19691467 401.9834137 C-94.21433669 395.64428257 -94.22488007 389.305159 -94.2331202 382.96600986 C-94.23826861 379.00581719 -94.24434446 375.04562688 -94.25063133 371.08543587 C-94.26750365 360.11618943 -94.28213757 349.14694507 -94.28938007 338.17768764 C-94.29128991 335.33126766 -94.29321025 332.48484769 -94.29516602 329.63842773 C-94.29564976 328.93098103 -94.2961335 328.22353432 -94.2966319 327.49464983 C-94.30492636 316.04286123 -94.33025276 304.59117727 -94.36274669 293.13943433 C-94.39585254 281.37585988 -94.41383211 269.61233854 -94.41702431 257.84871727 C-94.41937486 251.2464865 -94.42833599 244.64442105 -94.45348549 238.04223442 C-94.476774 231.8279891 -94.48099606 225.61401787 -94.47072411 219.39974022 C-94.47022881 217.12216022 -94.47654744 214.8445667 -94.49028015 212.56702805 C-94.50801731 209.45027803 -94.50088327 206.33450965 -94.48774719 203.21775818 C-94.49871644 202.32288726 -94.50968568 201.42801634 -94.52098733 200.50602812 C-94.42796243 191.3225794 -91.36819756 183.49191471 -85.0703125 176.7578125 C-63.28920617 158.26442034 -17.8226351 169 0 169 C0 113.23 0 57.46 0 0 Z " fill="#AEABFD" transform="translate(502,620)"/>
<path d="M0 0 C8.20731966 -0.09235628 16.40976201 -0.07191648 24.61669922 0.04589844 C25.96344727 0.06475098 25.96344727 0.06475098 27.33740234 0.08398438 C42.91023167 0.38416873 58.24631306 2.65568245 73.61669922 5.04589844 C74.59348633 5.19397949 75.57027344 5.34206055 76.57666016 5.49462891 C95.52158537 8.43670437 120.96650641 12.88057171 134.30419922 27.85839844 C137.55248181 32.33576093 137.74615889 34.25279009 137.77059937 39.76235962 C137.77498162 40.46079495 137.77936387 41.15923028 137.78387892 41.87883031 C137.79728667 44.23090908 137.80345026 46.58295036 137.80957031 48.93505859 C137.81746989 50.61693492 137.82573875 52.29880954 137.83435059 53.98068237 C137.86059313 59.51542538 137.87588305 65.05017602 137.89013672 70.58496094 C137.89549598 72.48979065 137.90087348 74.39462031 137.90626907 76.29944992 C137.9279034 84.22419644 137.94663924 92.1489409 137.95789146 100.07370949 C137.97412355 111.43143851 138.00727701 122.788825 138.06429231 134.14642489 C138.10300877 142.13123759 138.12252633 150.11595876 138.12781203 158.10086286 C138.1314639 162.86989409 138.14346716 167.63856019 138.17591476 172.40748978 C138.20602446 176.89735368 138.21229696 181.3866321 138.20053101 185.87657547 C138.2003105 187.52127262 138.20859701 189.16599716 138.22618484 190.81060028 C138.32763823 200.84667147 137.73652605 207.56982123 130.65185547 215.14746094 C108.04416082 232.60686869 74.07008322 235.38503553 46.61669922 238.04589844 C45.72345947 238.14161133 44.83021973 238.23732422 43.90991211 238.3359375 C31.83182365 239.47121474 19.67370309 239.28891426 7.55419922 239.29589844 C5.74231613 239.29740906 5.74231613 239.29740906 3.89382935 239.2989502 C-13.73064707 239.2889989 -30.95978501 238.91309799 -48.38330078 236.04589844 C-49.77500488 235.82909424 -49.77500488 235.82909424 -51.19482422 235.60791016 C-71.87149495 232.32191338 -100.70397867 227.63991474 -115.38330078 211.04589844 C-120.48395305 203.42777388 -119.94948334 195.55538313 -119.90087891 186.71923828 C-119.90630477 185.06278367 -119.91343003 183.40633389 -119.92211914 181.74989319 C-119.94029748 177.2685808 -119.93330853 172.78763826 -119.9206028 168.30631971 C-119.91045 163.60993448 -119.91987449 158.91358013 -119.92614746 154.2171936 C-119.9334158 146.3338657 -119.92385605 138.45068791 -119.90478516 130.56738281 C-119.88300286 121.45816803 -119.89008087 112.3493112 -119.91209078 103.24010503 C-119.93024997 95.41058427 -119.93280102 87.58117117 -119.9223361 79.75163615 C-119.91610597 75.07898695 -119.91525264 70.40650598 -119.92848206 65.73386765 C-119.94004804 61.34242191 -119.93200134 56.95143741 -119.90890503 52.56004143 C-119.90362256 50.95000537 -119.90512384 49.3399304 -119.91395569 47.7299099 C-119.92491345 45.52924716 -119.91114751 43.33005548 -119.89123535 41.12948608 C-119.88972725 39.89914328 -119.88821915 38.66880047 -119.88666534 37.40117455 C-118.99015687 31.42531992 -115.22505216 27.30712519 -110.66455078 23.61621094 C-101.18042987 17.08775784 -90.73046229 13.50223812 -79.68896484 10.64306641 C-78.14409963 10.24294566 -76.60174736 9.83300157 -75.06201172 9.41357422 C-50.54707357 2.75289275 -25.33242117 0.34366396 0 0 Z " fill="#F7B751" transform="translate(817.38330078125,807.9541015625)"/>
<path d="M0 0 C7.92 0 15.84 0 24 0 C24.11629634 4.69320345 24.21533679 9.38119705 24.2746582 14.07470703 C24.29944183 15.66309758 24.33328015 17.25137875 24.37719727 18.83935547 C24.91560693 38.84285815 19.29164115 57.01636298 5.32958984 71.88793945 C0.72900799 76.52989064 -4.25087535 79.94526568 -10 83 C-10.88429688 83.47050781 -11.76859375 83.94101562 -12.6796875 84.42578125 C-28.14562903 92.02426556 -43.66670658 91.44073387 -60.51171875 91.44140625 C-63.09235884 91.45319482 -65.67299215 91.46656263 -68.25361633 91.48143005 C-75.70766308 91.52114067 -83.16165592 91.54094706 -90.61578369 91.55760193 C-100.76131551 91.58158858 -110.9067156 91.62127803 -121.05213356 91.67487907 C-124.82211598 91.69112781 -128.59197124 91.69497781 -132.36198425 91.69789124 C-134.68492855 91.70767207 -137.00787088 91.71793609 -139.33081055 91.72875977 C-140.88730064 91.72493034 -140.88730064 91.72493034 -142.47523499 91.72102356 C-157.47931516 91.82562461 -171.11210001 96.25439222 -182.10546875 106.83984375 C-185.37201585 110.56438096 -187.85607828 114.5430585 -190 119 C-190.32636948 119.66640503 -190.65273895 120.33281006 -190.98899841 121.01940918 C-194.12806928 128.01531372 -194.60110458 134.18549498 -194.609375 141.7890625 C-194.62591125 142.97349945 -194.64244751 144.1579364 -194.65948486 145.37826538 C-194.70771322 149.127231 -194.72928082 152.8757917 -194.75 156.625 C-194.77818057 159.18100968 -194.80811088 161.7370007 -194.83984375 164.29296875 C-194.91346558 170.52857293 -194.96525513 176.76406441 -195 183 C-193.86962311 182.99333817 -192.73924622 182.98667633 -191.57461548 182.97981262 C-180.89384019 182.91885527 -170.21310045 182.87395728 -159.53219032 182.84456348 C-154.0417312 182.82894357 -148.55141312 182.80777256 -143.06103516 182.77368164 C-137.75718179 182.740957 -132.45346364 182.72311938 -127.14951706 182.71536827 C-125.13143156 182.70984823 -123.11335301 182.69906919 -121.09532547 182.68280983 C-118.25691291 182.66086126 -115.4190509 182.65804032 -112.58056641 182.65942383 C-111.75625122 182.648638 -110.93193604 182.63785217 -110.0826416 182.6267395 C-101.84143698 182.66987807 -93.58580735 184.26942804 -87.52164268 190.18849945 C-79.83878895 199.33486075 -80.28458242 209.3775607 -80.35302734 220.69335938 C-80.34624349 222.58007143 -80.33733606 224.46677685 -80.32647705 226.35346985 C-80.30376851 231.45479266 -80.31248513 236.55560736 -80.32837248 241.65693855 C-80.3410753 247.0080815 -80.32927922 252.3591824 -80.32144165 257.71032715 C-80.31235785 266.69482188 -80.32429973 275.67911077 -80.34814453 284.66357422 C-80.37535327 295.0349755 -80.36653822 305.40588523 -80.3390125 315.77727461 C-80.31628631 324.69904507 -80.31313853 333.62066799 -80.32620585 342.54245806 C-80.33398104 347.86356692 -80.33509517 353.18444511 -80.31852341 358.50553894 C-80.30402681 363.50938491 -80.31419505 368.51260021 -80.34299469 373.5163784 C-80.34957782 375.34726606 -80.34775557 377.17820725 -80.33668137 379.00907326 C-80.27950853 389.42560656 -80.23011652 398.89520063 -87.81387901 406.91916656 C-93.82850011 412.55821276 -99.39202197 413.29479628 -107.36851501 413.26069641 C-108.78964933 413.26643473 -108.78964933 413.26643473 -110.23949343 413.27228898 C-113.41614766 413.28261296 -116.59262094 413.27862794 -119.76928711 413.2746582 C-122.04597644 413.27900499 -124.3226643 413.28418802 -126.59934998 413.29014587 C-132.78522634 413.30355028 -138.97104167 413.30411296 -145.15692973 413.30158257 C-150.31864686 413.3005139 -155.48035159 413.30539355 -160.64206606 413.310188 C-173.51401064 413.32192292 -186.38591131 413.32105523 -199.2578565 413.31463119 C-210.43414427 413.30946167 -221.61034489 413.32071851 -232.78661542 413.33972941 C-244.26548126 413.35910518 -255.7442898 413.36707282 -267.22317511 413.36360615 C-273.6664783 413.36179129 -280.10970166 413.36444983 -286.55299187 413.37832069 C-292.61128239 413.39087448 -298.66939817 413.38897805 -304.72768593 413.37590981 C-306.95211216 413.37353919 -309.17655059 413.376296 -311.40096283 413.38453293 C-314.4356797 413.39496077 -317.46980594 413.38693132 -320.50450134 413.3742218 C-321.3863137 413.38159609 -322.26812606 413.38897037 -323.17666 413.39656812 C-330.14674697 413.3350876 -335.27337597 411.34963296 -340.5573349 406.59139061 C-348.4120007 397.92698098 -347.70176806 387.4078293 -347.61523438 376.45849609 C-347.61873981 374.58824664 -347.62440315 372.71800017 -347.63204956 370.84776306 C-347.64624437 365.79199429 -347.62928924 360.73677286 -347.60576439 355.6810565 C-347.58559335 350.37970956 -347.59153809 345.07838395 -347.59387207 339.77700806 C-347.59381858 330.87826558 -347.57410546 321.97973599 -347.54199219 313.08105469 C-347.50508018 302.80286592 -347.49632061 292.52495563 -347.5032897 282.24670923 C-347.50960079 272.34323337 -347.49883062 262.43985267 -347.47932434 252.53639603 C-347.47116422 248.32845322 -347.46843823 244.12055915 -347.47001648 239.9126091 C-347.47089721 234.95649617 -347.4566285 230.00064674 -347.43078995 225.04460335 C-347.42364554 223.22900355 -347.42153619 221.41337569 -347.42490768 219.59776497 C-347.42864005 217.11350798 -347.41381483 214.63001259 -347.39440918 212.14584351 C-347.40240107 211.07627271 -347.40240107 211.07627271 -347.41055441 209.98509443 C-347.3110676 202.56925912 -344.80054748 195.66218421 -340 190 C-334.47789207 186.12180907 -329.37866202 182.87183123 -322.50117493 182.87974548 C-321.57990814 182.87837082 -320.65864136 182.87699615 -319.7094574 182.87557983 C-318.70101273 182.87917511 -317.69256805 182.88277039 -316.65356445 182.88647461 C-315.58998718 182.88632858 -314.52640991 182.88618256 -313.43060303 182.8860321 C-309.90814183 182.88672988 -306.38573323 182.89451599 -302.86328125 182.90234375 C-300.4237623 182.90420841 -297.98424297 182.90563209 -295.54472351 182.90663147 C-289.11838755 182.91045287 -282.69207412 182.92027996 -276.26574707 182.93133545 C-269.71037094 182.94155767 -263.15499117 182.94613083 -256.59960938 182.95117188 C-243.73306329 182.96190254 -230.86653284 182.97878272 -218 183 C-218.01110306 182.35901367 -218.02220612 181.71802734 -218.03364563 181.05761719 C-218.14537969 174.30776085 -218.22013382 167.55817253 -218.2746582 160.80761719 C-218.29960245 158.29774278 -218.33357032 155.78793949 -218.37719727 153.27832031 C-218.77482391 129.79495843 -216.06280469 109.81357224 -199.10546875 92.10327148 C-197.74741529 90.72515168 -196.37414589 89.36207433 -195 88 C-194.37738281 87.34386719 -193.75476563 86.68773437 -193.11328125 86.01171875 C-188.94123868 81.93342994 -184.0712764 79.12179705 -179 76.3125 C-178.35466309 75.94358643 -177.70932617 75.57467285 -177.04443359 75.19458008 C-162.28078244 67.38610015 -146.72583053 67.43946644 -130.45159149 67.5141449 C-126.53179897 67.53159536 -122.61273165 67.52379818 -118.69293213 67.5098877 C-110.37858095 67.48336637 -102.06437517 67.48982332 -93.75 67.5 C-84.09231327 67.51180655 -74.43499475 67.51027488 -64.77735138 67.47593689 C-60.93304496 67.46888514 -57.08931684 67.48546117 -53.24505615 67.50305176 C-50.87137549 67.49734102 -48.49769715 67.49052233 -46.12402344 67.48242188 C-45.07021484 67.49373642 -44.01640625 67.50505096 -42.93066406 67.51670837 C-31.28096631 67.42226116 -20.71631053 63.88546637 -12 56 C-1.56193263 44.25967854 -0.38088057 31.79832504 -0.25 16.8125 C-0.22178302 15.17640152 -0.19184779 13.54033174 -0.16015625 11.90429688 C-0.08380277 7.9359252 -0.04265923 3.9694412 0 0 Z M-331 204 C-332.48010116 206.96020232 -332.1552285 209.97031076 -332.16062927 213.21672058 C-332.16571709 213.96894766 -332.17080491 214.72117473 -332.17604691 215.49619657 C-332.19180976 218.03025871 -332.20030656 220.56429227 -332.20874023 223.09838867 C-332.21827566 224.90996483 -332.22816668 226.72153915 -332.23838806 228.53311157 C-332.26981095 234.49470855 -332.29004494 240.45631964 -332.30859375 246.41796875 C-332.31189107 247.43170508 -332.31518839 248.4454414 -332.31858563 249.48989701 C-332.34936947 259.04811582 -332.37608142 268.60633771 -332.39300442 278.16459179 C-332.414914 290.39670128 -332.45688556 302.62837194 -332.52644199 314.86030596 C-332.57367113 323.45740973 -332.5979366 332.05439506 -332.6052013 340.6516245 C-332.6101595 345.78788623 -332.62525623 350.92365372 -332.6649456 356.0597744 C-332.70180569 360.89359237 -332.71022369 365.72663373 -332.69693947 370.56056595 C-332.69699343 372.33308455 -332.70729477 374.1056375 -332.7286911 375.87802696 C-332.75638947 378.30240658 -332.74686004 380.72395707 -332.72825623 383.14836121 C-332.74505115 383.84643251 -332.76184608 384.54450382 -332.77914995 385.2637288 C-332.68504211 390.18622601 -331.19696871 393.19875526 -327.87354809 396.6593011 C-324.4065155 399.14028721 -320.95414479 398.95811021 -316.81494141 398.87542725 C-315.44152808 398.88969045 -315.44152808 398.88969045 -314.04036903 398.9042418 C-310.97657803 398.92745461 -307.91529497 398.90070097 -304.8515625 398.87402344 C-302.65353386 398.88023532 -300.45551197 398.8894554 -298.25750732 398.90145874 C-292.29039305 398.9248338 -286.32416547 398.90422048 -280.35710907 398.8744154 C-274.11388182 398.8492552 -267.87070283 398.85981742 -261.62744141 398.86529541 C-251.14277358 398.86888091 -240.65839768 398.84447897 -230.17382812 398.80273438 C-219.3911543 398.75981068 -208.60892034 398.74564292 -197.82617188 398.76171875 C-184.82550265 398.78105872 -171.8250608 398.77523943 -158.82440186 398.74695587 C-153.86118302 398.73655048 -148.8980996 398.73575867 -143.93487549 398.74260712 C-138.09061607 398.74926135 -132.24694716 398.73104756 -126.40280914 398.69359207 C-124.25742011 398.68378194 -122.11197302 398.68246485 -119.96657562 398.69023514 C-117.03875021 398.6994098 -114.11271363 398.67782886 -111.18505859 398.64837646 C-110.33505594 398.65816583 -109.48505329 398.6679552 -108.60929298 398.67804122 C-104.65283192 398.60643027 -101.75180581 398.267136 -98.47271156 395.94102859 C-95.45190281 392.34809642 -95.15850899 389.79672186 -95.2515564 385.29516602 C-95.23963318 384.14248781 -95.23963318 384.14248781 -95.22746909 382.96652317 C-95.20823915 380.39489492 -95.23184193 377.82547223 -95.25537109 375.25390625 C-95.25051448 373.40907979 -95.24307506 371.56425858 -95.23324585 369.7194519 C-95.21443032 364.71102655 -95.23327537 359.70338306 -95.25991011 354.69501877 C-95.28253864 349.45496245 -95.27432414 344.21494465 -95.27041626 338.97485352 C-95.26865028 330.17483746 -95.29081275 321.37512953 -95.32763672 312.57519531 C-95.36997244 302.39981248 -95.37699192 292.22488105 -95.3645128 282.04942799 C-95.35312488 272.26286163 -95.36441746 262.47645431 -95.38685989 252.68991089 C-95.39615112 248.52412985 -95.39789993 244.35844607 -95.3936882 240.19265747 C-95.38992186 235.28743112 -95.40613359 230.38266442 -95.43780899 225.47754288 C-95.44629665 223.67681912 -95.44799441 221.87604873 -95.44242859 220.07531357 C-95.43598542 217.61798207 -95.45414216 215.16202421 -95.47860718 212.70483398 C-95.47104853 211.99131051 -95.46348988 211.27778704 -95.45570219 210.54264164 C-95.53974487 205.77468782 -96.62926023 203.35227029 -100 200 C-103.32564158 198.33717921 -107.053722 198.84821077 -110.71076965 198.84609985 C-111.6236664 198.8417176 -112.53656315 198.83733535 -113.47712344 198.8328203 C-116.55481934 198.8194004 -119.6324866 198.81324631 -122.71020508 198.80712891 C-124.90925731 198.79923053 -127.10830824 198.79096175 -129.30735779 198.78234863 C-136.5447363 198.75610069 -143.78212068 198.7408195 -151.01953125 198.7265625 C-153.50763134 198.7212042 -155.9957314 198.7158267 -158.48383141 198.71043015 C-168.83025644 198.6887985 -179.1766799 198.67006008 -189.52312183 198.65880775 C-192.20852983 198.655878 -194.8939378 198.65291634 -197.5793457 198.64990234 C-198.24680086 198.64915629 -198.91425601 198.64841024 -199.60193708 198.64764158 C-210.41701123 198.63498492 -221.2319211 198.60175798 -232.04691843 198.56010051 C-243.14711302 198.5176945 -254.24723923 198.49452207 -265.34751624 198.48888719 C-271.58132726 198.48522699 -277.81485978 198.47313428 -284.04859352 198.44078445 C-289.91156672 198.41079505 -295.77409157 198.40435952 -301.63712502 198.41616821 C-303.79103259 198.4163897 -305.94496042 198.40802265 -308.09879684 198.39051437 C-311.03583595 198.36793581 -313.97123368 198.37606534 -316.90827942 198.39199829 C-317.76392339 198.3781162 -318.61956736 198.36423412 -319.50113994 198.34993136 C-325.03883652 198.42413164 -327.45927494 199.40690729 -331 204 Z " fill="#5276FD" transform="translate(426,620)"/>
<path d="M0 0 C0.78375 0.79220947 1.5675 1.58441895 2.375 2.40063477 C18.04427209 17.91688662 43.91766414 23.4886324 65 27 C66.0621875 27.18336914 67.124375 27.36673828 68.21875 27.55566406 C88.26433076 30.86117138 108.20761826 31.39921769 128.5 31.4375 C129.71769073 31.44358276 130.93538147 31.44966553 132.18997192 31.45593262 C167.41547085 31.57100307 206.76007355 28.54765684 239 13 C239.97453125 12.53851562 240.9490625 12.07703125 241.953125 11.6015625 C248.05450828 8.51824314 251.86858012 5.43607879 256 0 C256.33 0 256.66 0 257 0 C257.1161555 8.98859163 257.20484692 17.97692256 257.25906086 26.9661026 C257.28508888 31.1407585 257.32036077 35.31489867 257.37719727 39.48925781 C257.43176232 43.52230352 257.46147159 47.55485506 257.47438622 51.58824158 C257.48358248 53.12238844 257.50154075 54.65651006 257.52865028 56.19044495 C257.69818781 66.18631236 256.98969526 72.66310925 250.03515625 80.1015625 C227.4274616 97.56097025 193.453384 100.33913709 166 103 C165.10676025 103.09571289 164.21352051 103.19142578 163.29321289 103.29003906 C151.21512444 104.42531631 139.05700387 104.24301582 126.9375 104.25 C125.12561691 104.25151062 125.12561691 104.25151062 123.27713013 104.25305176 C105.65265371 104.24310046 88.42351577 103.86719956 71 101 C70.07219727 100.85546387 69.14439453 100.71092773 68.18847656 100.56201172 C47.51180583 97.27601494 18.67932211 92.5940163 4 76 C-0.97095224 68.50404583 -0.51695208 61.01618023 -0.390625 52.34375 C-0.38315322 50.83061474 -0.37746472 49.31746973 -0.37347412 47.80432129 C-0.35829123 43.84542547 -0.3190746 39.88712815 -0.2746582 35.9284668 C-0.23354551 31.87947686 -0.21542916 27.83038905 -0.1953125 23.78125 C-0.15257165 15.85389376 -0.08441147 7.92702159 0 0 Z " fill="#F7B751" transform="translate(698,943)"/>
<path d="M0 0 C8.20731966 -0.09235628 16.40976201 -0.07191648 24.61669922 0.04589844 C25.96344727 0.06475098 25.96344727 0.06475098 27.33740234 0.08398438 C42.91023167 0.38416873 58.24631306 2.65568245 73.61669922 5.04589844 C74.59348633 5.19397949 75.57027344 5.34206055 76.57666016 5.49462891 C95.52158537 8.43670437 120.96650641 12.88057171 134.30419922 27.85839844 C137.55303274 32.33652032 138.33818656 35.5419807 137.61669922 41.04589844 C131.65230699 52.97468289 118.0412371 58.32931356 106.07275391 62.41772461 C45.35540619 82.03576165 -43.25242617 84.60284413 -101.58642578 56.50292969 C-106.63655133 53.87659434 -110.65717397 51.35423257 -114.38330078 47.04589844 C-114.94017578 46.57152344 -115.49705078 46.09714844 -116.07080078 45.60839844 C-118.68668139 42.49425486 -119.35900877 39.16333106 -119.44580078 35.17089844 C-116.71523802 27.1398315 -110.03692649 22.60885895 -102.83642578 18.69824219 C-71.52697584 3.71645788 -34.2368903 0.46446351 0 0 Z " fill="#FACD7F" transform="translate(817.38330078125,807.9541015625)"/>
<path d="M0 0 C7.59 0 15.18 0 23 0 C23.03738281 2.19398438 23.07476563 4.38796875 23.11328125 6.6484375 C23.1596789 8.80657121 23.21084545 10.96454385 23.26245117 13.12255859 C23.29541697 14.60618043 23.32353417 16.08991915 23.34643555 17.57373047 C23.57178201 31.79453061 25.62565268 45.34526491 36 56 C46.16324462 64.35517676 56.0680578 67.62384643 69.14648438 67.46655273 C70.30750671 67.46885895 71.46852905 67.47116516 72.66473389 67.47354126 C75.16855969 67.47615721 77.67240809 67.46979636 80.17619324 67.45528984 C84.15622718 67.43324774 88.13580685 67.43653599 92.11584473 67.44776917 C102.00460632 67.47083186 111.89324173 67.4527236 121.78198242 67.42626953 C129.46732746 67.40618308 137.15232538 67.39800499 144.83767176 67.42320591 C149.40172475 67.43670532 153.96474426 67.41343044 158.52868652 67.38365173 C183.03304448 67.36828509 203.70564485 71.54100353 222 89 C237.06359134 105.25344848 243.19097078 122.26366902 243.09765625 144.15234375 C243.09553383 146.03524864 243.09553383 146.03524864 243.09336853 147.95619202 C243.08873576 151.27205351 243.07977139 154.58784452 243.06866455 157.90368652 C243.05838292 161.29581091 243.05385653 164.68794261 243.04882812 168.08007812 C243.03782572 174.72007136 243.02110753 181.36003161 243 188 C239.53078101 188.62741195 236.22203697 189.1247849 232.6953125 189.09765625 C231.94765625 189.09443359 231.2 189.09121094 230.4296875 189.08789062 C229.66914062 189.07951172 228.90859375 189.07113281 228.125 189.0625 C227.34125 189.05798828 226.5575 189.05347656 225.75 189.04882812 C223.83329986 189.03714093 221.91663952 189.01920908 220 189 C219.99453156 187.90911324 219.99453156 187.90911324 219.98895264 186.79618835 C219.95087532 179.89750095 219.8938017 172.99919531 219.81609726 166.1008482 C219.77681177 162.55541488 219.74453188 159.01022288 219.72900391 155.46459961 C219.71077484 151.37574625 219.66074239 147.28779115 219.609375 143.19921875 C219.60753204 141.31573982 219.60753204 141.31573982 219.60565186 139.39421082 C219.37540112 125.37719754 214.74595618 114.54042501 204.64453125 104.70703125 C192.49258694 94.40975571 179.56496343 91.6777409 164.01123047 91.76049805 C162.85528885 91.75848389 161.69934723 91.75646973 160.50837708 91.75439453 C158.01326613 91.75086596 155.51814621 91.75159508 153.02303696 91.75617027 C149.06078721 91.76179887 145.09872013 91.7530369 141.13650513 91.7389679 C129.87582679 91.70145136 118.61523042 91.68298893 107.35449219 91.69458008 C101.12010824 91.70083878 94.88601332 91.68900487 88.65170014 91.65813476 C85.36582359 91.64268925 82.08063653 91.63918544 78.79473495 91.65271568 C55.42659333 91.74478328 36.80091254 88.97511403 19.171875 72.16015625 C18.45515625 71.44730469 17.7384375 70.73445312 17 70 C16.44828125 69.48308594 15.8965625 68.96617187 15.328125 68.43359375 C11.57089724 64.56526517 9.23941102 59.95129325 6.8125 55.1875 C6.47911621 54.53579834 6.14573242 53.88409668 5.80224609 53.21264648 C4.80017446 51.16538438 3.88454221 49.10063781 3 47 C2.70359619 46.31776367 2.40719238 45.63552734 2.10180664 44.93261719 C-1.09756784 36.24631077 -0.32550202 26.9848689 -0.1875 17.875 C-0.17242553 16.13803244 -0.15874202 14.40105222 -0.14648438 12.6640625 C-0.1162702 8.44213499 -0.05751454 4.22199299 0 0 Z " fill="#5C58CD" transform="translate(577,620)"/>
<path d="M0 0 C7.92 0 15.84 0 24 0 C24.11629634 4.69320345 24.21533679 9.38119705 24.2746582 14.07470703 C24.29944183 15.66309758 24.33328015 17.25137875 24.37719727 18.83935547 C24.91560693 38.84285815 19.29164115 57.01636298 5.32958984 71.88793945 C0.72900799 76.52989064 -4.25087535 79.94526568 -10 83 C-10.88429688 83.47050781 -11.76859375 83.94101562 -12.6796875 84.42578125 C-28.14562903 92.02426556 -43.66670658 91.44073387 -60.51171875 91.44140625 C-63.09235884 91.45319482 -65.67299215 91.46656263 -68.25361633 91.48143005 C-75.70766308 91.52114067 -83.16165592 91.54094706 -90.61578369 91.55760193 C-100.76131551 91.58158858 -110.9067156 91.62127803 -121.05213356 91.67487907 C-124.82211598 91.69112781 -128.59197124 91.69497781 -132.36198425 91.69789124 C-134.68492855 91.70767207 -137.00787088 91.71793609 -139.33081055 91.72875977 C-140.88730064 91.72493034 -140.88730064 91.72493034 -142.47523499 91.72102356 C-157.47931516 91.82562461 -171.11210001 96.25439222 -182.10546875 106.83984375 C-189.84438392 115.66380269 -194.99667315 127.38369919 -195.20532227 139.1574707 C-195.22526749 140.15813065 -195.24521271 141.15879059 -195.26576233 142.18977356 C-195.29083107 143.79159737 -195.29083107 143.79159737 -195.31640625 145.42578125 C-195.33718735 146.52850876 -195.35796844 147.63123627 -195.37937927 148.76737976 C-195.44464932 152.28235778 -195.50365495 155.79740912 -195.5625 159.3125 C-195.60570665 161.69857523 -195.64932163 164.08464309 -195.69335938 166.47070312 C-195.80107427 172.31372808 -195.90031582 178.15681044 -196 184 C-203.26 184 -210.52 184 -218 184 C-218.12476784 176.46018317 -218.21488797 168.92098385 -218.2746582 161.38037109 C-218.29960775 158.8219962 -218.33357977 156.26369113 -218.37719727 153.70556641 C-218.77002567 130.05267497 -216.19722268 109.95395886 -199.10546875 92.10327148 C-197.74741529 90.72515168 -196.37414589 89.36207433 -195 88 C-194.37738281 87.34386719 -193.75476563 86.68773437 -193.11328125 86.01171875 C-188.94123868 81.93342994 -184.0712764 79.12179705 -179 76.3125 C-178.35466309 75.94358643 -177.70932617 75.57467285 -177.04443359 75.19458008 C-162.28078244 67.38610015 -146.72583053 67.43946644 -130.45159149 67.5141449 C-126.53179897 67.53159536 -122.61273165 67.52379818 -118.69293213 67.5098877 C-110.37858095 67.48336637 -102.06437517 67.48982332 -93.75 67.5 C-84.09231327 67.51180655 -74.43499475 67.51027488 -64.77735138 67.47593689 C-60.93304496 67.46888514 -57.08931684 67.48546117 -53.24505615 67.50305176 C-50.87137549 67.49734102 -48.49769715 67.49052233 -46.12402344 67.48242188 C-45.07021484 67.49373642 -44.01640625 67.50505096 -42.93066406 67.51670837 C-31.28096631 67.42226116 -20.71631053 63.88546637 -12 56 C-1.56193263 44.25967854 -0.38088057 31.79832504 -0.25 16.8125 C-0.22178302 15.17640152 -0.19184779 13.54033174 -0.16015625 11.90429688 C-0.08380277 7.9359252 -0.04265923 3.9694412 0 0 Z " fill="#5C58CD" transform="translate(426,620)"/>
<path d="M0 0 C0.72574219 0.74507812 1.45148437 1.49015625 2.19921875 2.2578125 C26.41483329 25.96682422 65.9853653 29.84792642 98 33 C98.71430176 33.07347656 99.42860352 33.14695312 100.16455078 33.22265625 C113.70418609 34.57410379 127.41429696 34.18228034 141 34 C141.97420898 33.98743164 142.94841797 33.97486328 143.95214844 33.96191406 C175.9157006 33.40114999 227.22390426 30.28801119 251.16015625 5.7890625 C252.39419465 4.39064921 253.59882177 2.96512184 254.7578125 1.50390625 C255.16773438 1.00761719 255.57765625 0.51132812 256 0 C256.33 0 256.66 0 257 0 C258.20294322 17.87229934 258.20294322 17.87229934 254.5625 22.5625 C227.49256277 46.37753496 178.67001397 50.00343656 144.43359375 50.23828125 C142.66295059 50.25290405 142.66295059 50.25290405 140.85653687 50.26782227 C115.32344116 50.43528123 90.19986182 50.45297315 65 46 C63.90349121 45.80744629 62.80698242 45.61489258 61.67724609 45.41650391 C13.31293066 36.57396754 13.31293066 36.57396754 0.9609375 20.66015625 C-1.38334605 14.17049325 -0.45601067 6.77501574 0 0 Z " fill="#FACD80" transform="translate(698,925)"/>
<path d="M0 0 C7.59 0 15.18 0 23 0 C23 55.44 23 110.88 23 168 C15.41 168 7.82 168 0 168 C0 112.56 0 57.12 0 0 Z " fill="#5A56CD" transform="translate(502,621)"/>
<path d="M0 0 C7.26 0 14.52 0 22 0 C22.65484375 2.10890625 23.3096875 4.2178125 23.984375 6.390625 C29.47579112 24.02327185 35.12725641 41.59204633 41.02636719 59.09277344 C48 79.79391332 48 79.79391332 48 85 C42.72 85 37.44 85 32 85 C29.03 76.09 29.03 76.09 26 67 C11.15 66.505 11.15 66.505 -4 66 C-4.99 70.95 -4.99 70.95 -6 76 C-6.88453963 79.05937103 -7.93399672 81.99580893 -9 85 C-14.28 85 -19.56 85 -25 85 C-22.38702907 74.25803573 -19.50492905 63.67397822 -16.26953125 53.10546875 C-15.82890685 51.65588804 -15.38862163 50.20620419 -14.94865417 48.75642395 C-13.80672869 44.99692467 -12.66007784 41.23888368 -11.51239014 37.48114014 C-10.33911922 33.63616346 -9.1708722 29.78966078 -8.00195312 25.94335938 C-6.29898902 20.34327502 -4.59489024 14.74353863 -2.88598633 9.14526367 C-2.54497391 8.02770187 -2.20396149 6.91014008 -1.85261536 5.75871277 C-1.25719193 3.83216736 -0.63766028 1.91298083 0 0 Z " fill="#5477FC" transform="translate(151,877)"/>
<path d="M0 0 C39.88957055 0 39.88957055 0 48.91796875 5.91015625 C54.52237233 11.53558949 57.3732511 18.74619194 57.625 26.625 C57.1750856 34.80170516 55.282118 41.26891355 49.1875 46.9375 C39.44611652 54.57991135 29.11267406 55 17 55 C17 64.9 17 74.8 17 85 C11.39 85 5.78 85 0 85 C0 56.95 0 28.9 0 0 Z " fill="#5477FD" transform="translate(209,877)"/>
<path d="M0 0 C4.9629941 4.16382689 9.64262434 8.49406442 14.22045898 13.07519531 C14.90423111 13.75560883 15.58800323 14.43602234 16.29249573 15.13705444 C18.52965763 17.36479155 20.76309984 19.5962106 22.99609375 21.828125 C24.55543316 23.384249 26.11484693 24.94029849 27.67433167 26.49627686 C30.92976637 29.74574379 34.18314769 32.99725086 37.43530273 36.25 C41.61240108 40.42720054 45.79636944 44.59744717 49.98208523 48.76601028 C53.19810612 51.97095002 56.40960969 55.18038644 59.61982918 58.39113617 C61.16167128 59.93179496 62.70514262 61.47082499 64.25024223 63.00821686 C66.40001085 65.14825196 68.54342709 67.29445209 70.68530273 69.44238281 C71.32885712 70.08031769 71.9724115 70.71825256 72.63546753 71.3755188 C77 75.77167639 77 75.77167639 77 78 C69.51489679 78.13996879 62.02993181 78.2461059 54.5438118 78.31087303 C51.06633017 78.34198329 47.58975376 78.38407142 44.11279297 78.45263672 C40.10115654 78.53123674 36.09044759 78.55958465 32.078125 78.5859375 C30.84950745 78.61690521 29.62088989 78.64787292 28.3550415 78.67977905 C19.73194647 78.68308991 13.19375442 76.86786554 6 72 C1.26525895 67.20412798 -0.12691826 62.57070394 -0.11352539 55.96801758 C-0.11344986 54.72695755 -0.11337433 53.48589752 -0.11329651 52.20722961 C-0.10818991 50.85299642 -0.10297391 49.49876363 -0.09765625 48.14453125 C-0.09579083 46.75876415 -0.09436751 45.37299639 -0.09336853 43.98722839 C-0.0895531 40.3425209 -0.07973113 36.69785335 -0.06866455 33.05316162 C-0.0584295 29.33297262 -0.05386642 25.61277715 -0.04882812 21.89257812 C-0.03810798 14.59503389 -0.02104325 7.29752254 0 0 Z " fill="#9687F9" transform="translate(553,793)"/>
<path d="M0 0 C5.61 0 11.22 0 17 0 C17 28.38 17 56.76 17 86 C11.39 86 5.78 86 0 86 C0 57.62 0 29.24 0 0 Z " fill="#5679FD" transform="translate(277,876)"/>
<path d="M0 0 C3.96 0 7.92 0 12 0 C14.78502623 8.89113463 17.38167689 17.80169125 19.75 26.8125 C20.06582031 27.97458984 20.38164063 29.13667969 20.70703125 30.33398438 C22.29973103 36.39796472 23.40116049 41.72800998 23 48 C23.66 48 24.32 48 25 48 C24.89945313 46.65421875 24.89945313 46.65421875 24.796875 45.28125 C24.80269159 39.48792568 26.68288288 34.02880507 28.25 28.5 C28.89203274 26.17971673 29.53396027 23.85940435 30.17578125 21.5390625 C30.48854004 20.42047852 30.80129883 19.30189453 31.12353516 18.14941406 C32.25987853 14.06617464 33.35451964 9.97265244 34.4375 5.875 C34.74558594 4.71742188 35.05367187 3.55984375 35.37109375 2.3671875 C35.57863281 1.58601562 35.78617188 0.80484375 36 0 C39.96 0 43.92 0 48 0 C43.46858795 20.20840901 37.94993705 40.1668765 32 60 C26.72 60 21.44 60 16 60 C15.69296143 58.88254395 15.38592285 57.76508789 15.06958008 56.61376953 C13.90495469 52.3754193 12.73999727 48.13716038 11.57495117 43.89892578 C11.0755149 42.08189249 10.57616278 40.26483606 10.0769043 38.44775391 C9.59182514 36.68231978 9.10662605 34.91691859 8.62130737 33.15155029 C8.13676551 31.38896949 7.65249225 29.62631482 7.16848755 27.86358643 C5.96441372 23.48348581 4.75152674 19.10614601 3.52099609 14.73339844 C3.28781174 13.90258759 3.05462738 13.07177673 2.81437683 12.21578979 C2.37251568 10.64365117 1.92853499 9.07210624 1.48213196 7.50125122 C0 2.22235085 0 2.22235085 0 0 Z " fill="#4A54EE" transform="translate(547,919)"/>
<path d="M0 0 C3.78542742 1.78367998 6.41646841 3.42536299 9.14453125 6.62109375 C10.05416854 9.35000561 9.75609928 10.37803221 8.95703125 13.05859375 C5.93094711 13.72446412 3.06107091 14.20590411 -0.04296875 14.05859375 C-1.75076848 12.43410132 -3.41847632 10.76639348 -5.04296875 9.05859375 C-8.57847042 8.2674815 -11.82064994 8.37103942 -15.04296875 10.18359375 C-16.56661702 13.04043426 -16.56251943 14.87634584 -16.04296875 18.05859375 C-12.44045137 21.56085554 -8.98915046 22.92827405 -4.23046875 24.37109375 C2.64098841 26.70724498 8.31892491 29.65304324 12.140625 36.03515625 C14.02727042 40.71114825 13.2505273 45.0965789 11.83203125 49.74609375 C8.79354834 55.11408022 4.87306012 58.13736549 -1.04296875 60.05859375 C-8.88938364 60.86479648 -16.61470944 61.13271611 -23.04296875 56.05859375 C-26.02707913 53.1895519 -28.56483019 49.9555045 -30.04296875 46.05859375 C-30.04296875 45.06859375 -30.04296875 44.07859375 -30.04296875 43.05859375 C-26.56971694 41.90084315 -23.68229427 41.98992723 -20.04296875 42.05859375 C-19.91921875 42.98671875 -19.91921875 42.98671875 -19.79296875 43.93359375 C-19.24373332 46.20901854 -19.24373332 46.20901854 -17.16796875 47.18359375 C-16.11609375 47.61671875 -16.11609375 47.61671875 -15.04296875 48.05859375 C-14.05296875 48.71859375 -13.06296875 49.37859375 -12.04296875 50.05859375 C-7.98122979 50.63456778 -4.25245045 50.58958572 -0.48046875 48.93359375 C1.19311881 47.05265789 1.19311881 47.05265789 1.45703125 44.12109375 C0.82145336 40.22817918 0.02762985 39.51976057 -3.04296875 37.05859375 C-6.93766429 35.19373291 -10.99803619 33.73230831 -15.04492188 32.234375 C-20.61661264 30.04409406 -23.68523501 28.06515499 -27.04296875 23.05859375 C-28.4931343 18.7080971 -28.55366982 14.6052519 -28.04296875 10.05859375 C-22.39256533 -1.24221308 -11.61591177 -3.5936261 0 0 Z " fill="#4B55EF" transform="translate(530.04296875,919.94140625)"/>
<path d="M0 0 C3.32121673 2.52166455 5.81424917 5.53474834 7.6875 9.28125 C7.727492 11.28085012 7.73096799 13.28172242 7.6875 15.28125 C4.3875 15.61125 1.0875 15.94125 -2.3125 16.28125 C-2.725 15.3325 -3.1375 14.38375 -3.5625 13.40625 C-5.02699358 10.34178129 -5.02699358 10.34178129 -7 8.90625 C-10.50406717 7.95920482 -13.75284228 7.61470055 -17.3125 8.28125 C-22.37792437 11.77076457 -24.16624701 16.43535976 -25.3125 22.28125 C-26.09835163 29.47850094 -25.58327885 35.10123177 -22.1875 41.5390625 C-21.3125 43.28125 -21.3125 43.28125 -21.3125 45.28125 C-17.02810366 47.42344817 -13.02225997 48.06303202 -8.3125 47.28125 C-4.43646205 44.92192255 -3.37754406 43.41133812 -1.3125 39.28125 C1.9875 39.94125 5.2875 40.60125 8.6875 41.28125 C8.209171 46.30370446 6.85060458 49.3487416 3.6875 53.28125 C-2.814657 58.39996934 -9.23594524 59.111775 -17.3125 58.28125 C-24.42644342 56.46517014 -29.36046006 52.40643113 -33.3125 46.28125 C-36.8523266 39.91408586 -37.94616057 34.52119752 -37.8125 27.28125 C-37.82796875 26.44335938 -37.8434375 25.60546875 -37.859375 24.7421875 C-37.80702751 16.28806829 -34.84879613 8.99800769 -29.05859375 2.7890625 C-21.08076431 -4.10006986 -9.15069517 -5.33790552 0 0 Z " fill="#4B54EF" transform="translate(485.3125,921.71875)"/>
<path d="M0 0 C3.526875 -0.12375 3.526875 -0.12375 7.125 -0.25 C7.85348145 -0.28641602 8.58196289 -0.32283203 9.33251953 -0.36035156 C14.40777952 -0.44569632 17.11232458 0.83840513 21 4 C23.76623223 7.27580133 24.90401834 9.2321467 25.4375 13.5 C24.79144716 18.6684227 23.33191028 21.76798299 19.5 25.3125 C12.90699511 29.7627783 9.53064 28 0 28 C0 18.76 0 9.52 0 0 Z " fill="#DEE3F9" transform="translate(225,890)"/>
<path d="M0 0 C0.66 0 1.32 0 2 0 C2.16081055 0.56807373 2.32162109 1.13614746 2.48730469 1.72143555 C3.24004024 4.37721757 3.99469501 7.03244756 4.75 9.6875 C5.15726318 11.12005127 5.15726318 11.12005127 5.57275391 12.58154297 C7.39340926 18.95652838 9.29900522 25.29204057 11.3359375 31.6015625 C12 34 12 34 12 37 C5.07 37 -1.86 37 -9 37 C-7.87613222 28.00905776 -7.87613222 28.00905776 -6.40625 23.3984375 C-6.09816406 22.41359375 -5.79007813 21.42875 -5.47265625 20.4140625 C-5.15167969 19.41117188 -4.83070313 18.40828125 -4.5 17.375 C-1.70623951 8.81895484 -1.70623951 8.81895484 0 0 Z " fill="#DFE4F9" transform="translate(161,892)"/>
<path d="M0 0 C0.99 0 1.98 0 3 0 C0.93359593 9.2237813 -1.31144386 18.33348961 -4.06640625 27.37695312 C-6.07406873 34.04658034 -7.72520517 40.79361549 -9.30053711 47.57739258 C-9.49397705 48.38587646 -9.68741699 49.19436035 -9.88671875 50.02734375 C-10.05389404 50.74656006 -10.22106934 51.46577637 -10.39331055 52.20678711 C-11 54 -11 54 -13 56 C-14.19250279 52.51902319 -13.79258612 50.2880131 -12.82836914 46.77246094 C-12.40782005 45.21129547 -12.40782005 45.21129547 -11.97877502 43.61859131 C-11.66738083 42.50179993 -11.35598663 41.38500854 -11.03515625 40.234375 C-10.56691689 38.51157318 -10.56691689 38.51157318 -10.08921814 36.75396729 C-9.08936511 33.08343469 -8.07611145 29.41675441 -7.0625 25.75 C-6.38257827 23.26326271 -5.70353083 20.7762862 -5.02539062 18.2890625 C-3.36039825 12.1898954 -1.68438658 6.09383777 0 0 Z " fill="#676AF4" transform="translate(591,923)"/>
<path d="M0 0 C3.96 0 7.92 0 12 0 C14.78502623 8.89113463 17.38167689 17.80169125 19.75 26.8125 C20.06582031 27.97458984 20.38164063 29.13667969 20.70703125 30.33398438 C22.29973103 36.39796472 23.40116049 41.72800998 23 48 C23.66 48.33 24.32 48.66 25 49 C23.515 49.495 23.515 49.495 22 50 C21.8040625 49.20464844 21.608125 48.40929687 21.40625 47.58984375 C19.62676815 40.41822508 17.81219288 33.25692181 15.953125 26.10546875 C15.77305908 25.41184738 15.59299316 24.71822601 15.4074707 24.00358582 C14.6705538 21.16526599 13.93357836 18.3269745 13.19165039 15.48995972 C12.66214354 13.4651964 12.13553232 11.43969838 11.609375 9.4140625 C11.29967773 8.2276416 10.98998047 7.0412207 10.67089844 5.81884766 C10 3 10 3 10 1 C6.7 1.33 3.4 1.66 0 2 C0 1.34 0 0.68 0 0 Z " fill="#6A6EF4" transform="translate(547,919)"/>
<path d="M0 0 C0.66 0.66 1.32 1.32 2 2 C1.401875 2.474375 0.80375 2.94875 0.1875 3.4375 C-4.8613411 9.35185672 -5.5356071 16.48707325 -5.37109375 24.0546875 C-4.89020559 27.87142092 -3.65966438 30.87438627 -1.875 34.2578125 C-1 36 -1 36 -1 38 C-0.34 38.33 0.32 38.66 1 39 C-0.75 38.875 -0.75 38.875 -3 38 C-9.09297246 30.34026319 -8.87949619 21.4521678 -8 12 C-6.33491896 6.84403476 -4.55107239 3.03404826 0 0 Z " fill="#656AF4" transform="translate(465,929)"/>
<path d="M0 0 C1.13199353 0.9080162 2.25532363 1.82683826 3.375 2.75 C4.00148438 3.26046875 4.62796875 3.7709375 5.2734375 4.296875 C8.33806628 7.31990248 8.96058212 9.51910183 9.3125 13.8125 C9.15903682 18.66915823 7.96200808 22.8181117 4.640625 26.51171875 C1.61746353 29.23100574 -0.94895728 30.64255505 -5 31 C-5.33 30.34 -5.66 29.68 -6 29 C-4.329375 28.87625 -4.329375 28.87625 -2.625 28.75 C0.97551432 28.4248512 0.97551432 28.4248512 2.25 26.3125 C2.4975 25.549375 2.745 24.78625 3 24 C3.8353125 22.6696875 3.8353125 22.6696875 4.6875 21.3125 C6.43752159 16.89577884 6.33254228 13.54168256 5 9 C3.52421067 6.44519093 1.84680526 4.32034507 0 2 C0 1.34 0 0.68 0 0 Z " fill="#6D6FF2" transform="translate(534,948)"/>
<path d="M0 0 C5.10960537 1.09491544 7.63493739 3.16071184 10.80859375 7.11328125 C12.42593162 9.67450811 12.85364923 11.99980926 13 15 C12.34 15 11.68 15 11 15 C10.484375 13.80375 9.96875 12.6075 9.4375 11.375 C7.43104917 7.2969068 4.96005612 4.88096764 1.390625 2.12890625 C0.93171875 1.75636719 0.4728125 1.38382813 0 1 C0 0.67 0 0.34 0 0 Z " fill="#6065F2" transform="translate(480,920)"/>
<path d="M0 0 C0.66 0 1.32 0 2 0 C1.5229205 5.00933477 0.14417521 8.06978099 -3 12 C-5.75 13.875 -5.75 13.875 -8 15 C-7.34 13.68 -6.68 12.36 -6 11 C-5.34 11 -4.68 11 -4 11 C-3.566875 9.6696875 -3.566875 9.6696875 -3.125 8.3125 C-2.16851252 5.49617576 -1.13201054 2.74916844 0 0 Z " fill="#676AF2" transform="translate(492,963)"/>
<path d="M0 0 C0.33 0 0.66 0 1 0 C1.4375 2.125 1.4375 2.125 1 5 C-1.81374901 8.3224494 -4.75743019 10.62987282 -8.9375 11.875 C-9.9584375 11.936875 -9.9584375 11.936875 -11 12 C-11.33 11.34 -11.66 10.68 -12 10 C-10.329375 9.87625 -10.329375 9.87625 -8.625 9.75 C-5.00760547 9.42942282 -5.00760547 9.42942282 -3.75 7.25 C-3.5025 6.5075 -3.255 5.765 -3 5 C-2.0398183 3.31008021 -1.04644066 1.63790712 0 0 Z " fill="#6064F1" transform="translate(540,967)"/>
<path d="M0 0 C5.80001388 0.66923237 10.14218945 5.99381212 14 10 C8.03868848 8.65870491 4.19807984 5.25135496 0 1 C0 0.67 0 0.34 0 0 Z " fill="#6064F1" transform="translate(453,969)"/>
<path d="M0 0 C4.51618582 1.90683401 7.08445713 3.38016131 9 8 C8.6875 10.3125 8.6875 10.3125 8 12 C6 10 6 10 4.5625 7 C3.19148236 3.77974457 3.19148236 3.77974457 0 2 C0 1.34 0 0.68 0 0 Z " fill="#6569F1" transform="translate(531,921)"/>
<path d="M0 0 C0.66 0 1.32 0 2 0 C2.75 3.25 2.75 3.25 3 7 C1.0625 9.4375 1.0625 9.4375 -1 11 C-0.67 7.37 -0.34 3.74 0 0 Z " fill="#D7DCF7" transform="translate(161,892)"/>
<path d="M0 0 C0.66 0 1.32 0 2 0 C1.93489583 1.98567708 1.86979167 3.97135417 1.8046875 5.95703125 C1.86745538 8.31359719 1.86745538 8.31359719 4 11 C2.0625 10.625 2.0625 10.625 0 10 C-1.49106457 7.01787087 -1.11941467 4.28390342 -1 1 C-0.67 0.67 -0.34 0.34 0 0 Z " fill="#6B6EF2" transform="translate(512,930)"/>
<path d="M0 0 C2.53926173 1.82671379 4.9050512 3.66877878 7 6 C7.4375 9.375 7.4375 9.375 7 12 C6.34 11.01 5.68 10.02 5 9 C3.67945725 7.20326153 2.35455044 5.41001721 1.0234375 3.62109375 C0 2 0 2 0 0 Z " fill="#6267F3" transform="translate(534,948)"/>
<path d="M0 0 C0.33 0.66 0.66 1.32 1 2 C-0.65 3.98 -2.3 5.96 -4 8 C-4.66 7.67 -5.32 7.34 -6 7 C-4.02 4.69 -2.04 2.38 0 0 Z " fill="#5651C8" transform="translate(419,670)"/>
</svg>
