<?xml version="1.0" encoding="UTF-8"?>
<svg version="1.1" xmlns="http://www.w3.org/2000/svg" width="100" height="100" viewBox="0 0 119 119">
  <g transform="translate(-28, 12.5)">
    <path d="M0 0 C3.62561259 1.20853753 4.08787011 2.56058815 5.77934265 5.83973694 C6.11383926 6.51266281 6.44833588 7.18558868 6.79296875 7.87890625 C7.14386063 8.5655687 7.4947525 9.25223114 7.85627747 9.95970154 C8.97596687 12.15605919 10.08182215 14.35906084 11.1875 16.5625 C11.94376122 18.05188974 12.70091184 19.54082824 13.45898438 21.02929688 C15.31635413 24.68103994 17.16134564 28.33880043 19 32 C11.23529412 37.88235294 11.23529412 37.88235294 7 40 C5.35 36.7 3.7 33.4 2 30 C-0.05965182 32.74620242 -1.65908582 35.03580413 -3.2265625 38.00390625 C-3.6184375 38.74447266 -4.0103125 39.48503906 -4.4140625 40.24804688 C-4.81367187 41.01181641 -5.21328125 41.77558594 -5.625 42.5625 C-6.03234375 43.33013672 -6.4396875 44.09777344 -6.859375 44.88867188 C-8.4550899 47.91894505 -9.9143539 50.7430617 -11 54 C-6.71 54 -2.42 54 2 54 C1.34 57.96 0.68 61.92 0 66 C-5.94 66 -11.88 66 -18 66 C-18.66 67.98 -19.32 69.96 -20 72 C-21.640625 75.3515625 -21.640625 75.3515625 -24 78 C-26.89594351 78.46211865 -28.90497024 78.584747 -31.75 78.375 C-32.44738281 78.34792969 -33.14476562 78.32085937 -33.86328125 78.29296875 C-35.57685705 78.22254783 -37.28883302 78.11492913 -39 78 C-38.38834638 73.00184561 -36.16748304 69.03104157 -33.87109375 64.6328125 C-33.44923294 63.81279755 -33.02737213 62.99278259 -32.59272766 62.1479187 C-31.21354159 59.47052618 -29.82565858 56.79774989 -28.4375 54.125 C-27.48611513 52.2828301 -26.53527251 50.44038006 -25.58496094 48.59765625 C-23.65930111 44.86584089 -21.73020815 41.13583154 -19.79833984 37.40722656 C-17.21544947 32.42022631 -14.64635876 27.42625228 -12.08203125 22.4296875 C-10.98454715 20.29347427 -9.88678505 18.15740425 -8.78884888 16.02142334 C-8.09746619 14.67611015 -7.4064452 13.33061102 -6.71578979 11.98492432 C-5.76557137 10.13478652 -4.81286356 8.28595411 -3.859375 6.4375 C-3.32795898 5.40496094 -2.79654297 4.37242188 -2.24902344 3.30859375 C-1 1 -1 1 0 0 Z" fill="#6657F2" transform="translate(67,8)"/>
    <path d="M0 0 C0.66 0 1.32 0 2 0 C3.98005212 3.81204071 5.95899704 7.62465503 7.9375 11.4375 C8.24423645 12.02857544 8.5509729 12.61965088 8.86700439 13.2286377 C12.73503703 20.68377187 16.59254262 28.14420662 20.43359375 35.61328125 C20.98904121 36.69306496 20.98904121 36.69306496 21.55570984 37.79466248 C23.35888054 41.30040539 25.16077196 44.80679674 26.96069336 48.31420898 C27.63772293 49.63141713 28.31488581 50.94855676 28.9921875 52.265625 C29.31886917 52.90218521 29.64555084 53.53874542 29.98213196 54.19459534 C31.71341193 57.55488187 33.4767499 60.89393589 35.28613281 64.21289062 C35.65803741 64.89768494 36.02994202 65.58247925 36.41311646 66.2880249 C37.12621154 67.59660835 37.84460747 68.90232146 38.56906128 70.20465088 C40.10658044 73.02784537 41 74.73041879 41 78 C35.84841795 78.58987581 31.12918736 78.90042161 26 78 C22.8747093 75.11028398 21.32411477 72.01845775 20 68 C20 67.34 20 66.68 20 66 C13.73 66 7.46 66 1 66 C1.66 62.37 2.32 58.74 3 55 C6.63 55 10.26 55 14 55 C13.64172119 54.31373535 13.28344238 53.6274707 12.91430664 52.92041016 C11.29686018 49.82203277 9.67967682 46.72351813 8.0625 43.625 C7.49853516 42.54476562 6.93457031 41.46453125 6.35351562 40.3515625 C5.81533203 39.3203125 5.27714844 38.2890625 4.72265625 37.2265625 C4.22515869 36.27346191 3.72766113 35.32036133 3.21508789 34.33837891 C2.46640265 32.89756974 1.72614884 31.45229767 1 30 C0.18639005 31.29096781 -0.62585046 32.58279875 -1.4375 33.875 C-1.88996094 34.59429687 -2.34242187 35.31359375 -2.80859375 36.0546875 C-4.02461501 37.9777547 -4.02461501 37.9777547 -5 40 C-7.86867231 38.61735163 -10.56024032 37.07851447 -13.25 35.375 C-14.30960937 34.70597656 -14.30960937 34.70597656 -15.390625 34.0234375 C-15.92171875 33.68570313 -16.4528125 33.34796875 -17 33 C-11.5168675 21.89927126 -5.83756023 10.91839969 0 0 Z" fill="#A35DDE" transform="translate(106,8)"/>
    <path d="M0 0 C3.460675 2.11016768 3.87262936 3.53297431 4.9375 7.4375 C5.00717245 11.40882978 4.501071 12.96298521 2 16 C1.01 16.33 0.02 16.66 -1 17 C0.65 18.98 2.3 20.96 4 23 C4.66 21.35 5.32 19.7 6 18 C8.31 18 10.62 18 13 18 C12.24489796 23.53741497 12.24489796 23.53741497 10.875 26.125 C9.8482233 27.93035721 9.8482233 27.93035721 10.125 29.8125 C11.43058274 33.07645686 13.20009961 35.98081225 15 39 C13.54257537 39.08096803 12.08387193 39.13917774 10.625 39.1875 C9.81289062 39.22230469 9.00078125 39.25710937 8.1640625 39.29296875 C7.44992188 39.19628906 6.73578125 39.09960938 6 39 C5.34 38.01 4.68 37.02 4 36 C3.236875 36.309375 2.47375 36.61875 1.6875 36.9375 C-2.9465844 38.76957988 -7.01805474 39.69822718 -12 39 C-15.45318053 37.11052386 -18.47163839 35.02823826 -21 32 C-21.85117416 28.27611303 -21.86239046 24.51397436 -19.9453125 21.1484375 C-18.625 19.5625 -18.625 19.5625 -16 17 C-15.34 16.34 -14.68 15.68 -14 15 C-14.33 14.34 -14.66 13.68 -15 13 C-15.46650092 8.25724067 -15.66962226 6.07139562 -13.125 2 C-8.74620867 -0.80242645 -5.06592322 -0.90707409 0 0 Z" fill="#1A2F55" transform="translate(92,47)"/>
    <path d="M0 0 C3.53942133 0.42383827 5.02462262 1.73445323 7.25 4.4375 C7.77078125 5.05496094 8.2915625 5.67242187 8.828125 6.30859375 C10 8 10 8 10 10 C6.95016004 11.52491998 4.3576631 11.23562548 1 11 C-1 9.9375 -1 9.9375 -2 8 C-1.55555556 1.55555556 -1.55555556 1.55555556 0 0 Z" fill="#FFF" transform="translate(81,68)"/>
    <path d="M0 0 C2.0625 0.4375 2.0625 0.4375 4 1 C4.33 2.32 4.66 3.64 5 5 C3.68 5.99 2.36 6.98 1 8 C-1 6 -1 6 -1.1875 3.4375 C-1 1 -1 1 0 0 Z" fill="#FFF" transform="translate(85,52)"/>
  </g>
</svg>
